G04 EAGLE Gerber RS-274X export*
G75*
%MOMM*%
%FSLAX34Y34*%
%LPD*%
%INBottom Silkscreen*%
%IPPOS*%
%AMOC8*
5,1,8,0,0,1.08239X$1,22.5*%
G01*
%ADD10C,0.254000*%
%ADD11C,0.177800*%
%ADD12C,0.152400*%
%ADD13C,0.127000*%
%ADD14R,1.524000X1.016000*%


D10*
X1960880Y39040D02*
X1960880Y54293D01*
X1953254Y54293D01*
X1950711Y51751D01*
X1950711Y46666D01*
X1953254Y44124D01*
X1960880Y44124D01*
X1936882Y54293D02*
X1934340Y51751D01*
X1936882Y54293D02*
X1941966Y54293D01*
X1944508Y51751D01*
X1944508Y41582D01*
X1941966Y39040D01*
X1936882Y39040D01*
X1934340Y41582D01*
X1928137Y39040D02*
X1928137Y54293D01*
X1920510Y54293D01*
X1917968Y51751D01*
X1917968Y49208D01*
X1920510Y46666D01*
X1917968Y44124D01*
X1917968Y41582D01*
X1920510Y39040D01*
X1928137Y39040D01*
X1928137Y46666D02*
X1920510Y46666D01*
X1895394Y49208D02*
X1895394Y39040D01*
X1895394Y44124D02*
X1890309Y49208D01*
X1887767Y49208D01*
X1879209Y39040D02*
X1874124Y39040D01*
X1879209Y39040D02*
X1881751Y41582D01*
X1881751Y46666D01*
X1879209Y49208D01*
X1874124Y49208D01*
X1871582Y46666D01*
X1871582Y44124D01*
X1881751Y44124D01*
X1865379Y39040D02*
X1865379Y49208D01*
X1862837Y49208D01*
X1860295Y46666D01*
X1860295Y39040D01*
X1860295Y46666D02*
X1857753Y49208D01*
X1855211Y46666D01*
X1855211Y39040D01*
X1846466Y49208D02*
X1841381Y49208D01*
X1838839Y46666D01*
X1838839Y39040D01*
X1846466Y39040D01*
X1849008Y41582D01*
X1846466Y44124D01*
X1838839Y44124D01*
X1822467Y39040D02*
X1822467Y54293D01*
X1822467Y39040D02*
X1830094Y39040D01*
X1832636Y41582D01*
X1832636Y46666D01*
X1830094Y49208D01*
X1822467Y49208D01*
X1813722Y39040D02*
X1808638Y39040D01*
X1813722Y39040D02*
X1816265Y41582D01*
X1816265Y46666D01*
X1813722Y49208D01*
X1808638Y49208D01*
X1806096Y46666D01*
X1806096Y44124D01*
X1816265Y44124D01*
X1783521Y39040D02*
X1783521Y54293D01*
X1783521Y39040D02*
X1775895Y39040D01*
X1773353Y41582D01*
X1773353Y46666D01*
X1775895Y49208D01*
X1783521Y49208D01*
X1767150Y49208D02*
X1767150Y41582D01*
X1764608Y39040D01*
X1756981Y39040D01*
X1756981Y36498D02*
X1756981Y49208D01*
X1756981Y36498D02*
X1759523Y33955D01*
X1762066Y33955D01*
X1734407Y39040D02*
X1734407Y54293D01*
X1724238Y54293D01*
X1729322Y46666D02*
X1734407Y46666D01*
X1718035Y39040D02*
X1718035Y54293D01*
X1710409Y54293D01*
X1707866Y51751D01*
X1707866Y49208D01*
X1710409Y46666D01*
X1707866Y44124D01*
X1707866Y41582D01*
X1710409Y39040D01*
X1718035Y39040D01*
X1718035Y46666D02*
X1710409Y46666D01*
X1701664Y54293D02*
X1701664Y39040D01*
X1691495Y39040D01*
X1682750Y49208D02*
X1677666Y49208D01*
X1675123Y46666D01*
X1675123Y39040D01*
X1682750Y39040D01*
X1685292Y41582D01*
X1682750Y44124D01*
X1675123Y44124D01*
X1668920Y39040D02*
X1668920Y54293D01*
X1668920Y39040D02*
X1661294Y39040D01*
X1658752Y41582D01*
X1658752Y46666D01*
X1661294Y49208D01*
X1668920Y49208D01*
X1652549Y39040D02*
X1644922Y39040D01*
X1642380Y41582D01*
X1644922Y44124D01*
X1650007Y44124D01*
X1652549Y46666D01*
X1650007Y49208D01*
X1642380Y49208D01*
X1619806Y49208D02*
X1617264Y49208D01*
X1617264Y39040D01*
X1619806Y39040D02*
X1614721Y39040D01*
X1617264Y54293D02*
X1617264Y56835D01*
X1608891Y49208D02*
X1608891Y39040D01*
X1608891Y49208D02*
X1601265Y49208D01*
X1598723Y46666D01*
X1598723Y39040D01*
X1576148Y41582D02*
X1576148Y51751D01*
X1573606Y54293D01*
X1568522Y54293D01*
X1565980Y51751D01*
X1565980Y41582D01*
X1568522Y39040D01*
X1573606Y39040D01*
X1576148Y41582D01*
X1565980Y51751D01*
X1559777Y41582D02*
X1557235Y39040D01*
X1552150Y39040D01*
X1549608Y41582D01*
X1549608Y51751D01*
X1552150Y54293D01*
X1557235Y54293D01*
X1559777Y51751D01*
X1559777Y49208D01*
X1557235Y46666D01*
X1549608Y46666D01*
X1543405Y39040D02*
X1533236Y54293D01*
X1527034Y39040D02*
X1516865Y39040D01*
X1516865Y49208D02*
X1527034Y39040D01*
X1516865Y49208D02*
X1516865Y51751D01*
X1519407Y54293D01*
X1524491Y54293D01*
X1527034Y51751D01*
X1510662Y51751D02*
X1510662Y41582D01*
X1510662Y51751D02*
X1508120Y54293D01*
X1503036Y54293D01*
X1500493Y51751D01*
X1500493Y41582D01*
X1503036Y39040D01*
X1508120Y39040D01*
X1510662Y41582D01*
X1500493Y51751D01*
X1494290Y39040D02*
X1484122Y39040D01*
X1494290Y39040D02*
X1484122Y49208D01*
X1484122Y51751D01*
X1486664Y54293D01*
X1491748Y54293D01*
X1494290Y51751D01*
X1477919Y51751D02*
X1477919Y41582D01*
X1477919Y51751D02*
X1475377Y54293D01*
X1470292Y54293D01*
X1467750Y51751D01*
X1467750Y41582D01*
X1470292Y39040D01*
X1475377Y39040D01*
X1477919Y41582D01*
X1467750Y51751D01*
X1461547Y41582D02*
X1461547Y39040D01*
X1461547Y41582D02*
X1459005Y41582D01*
X1459005Y39040D01*
X1461547Y39040D01*
X1431906Y39040D02*
X1431906Y54293D01*
X1436990Y54293D02*
X1426821Y54293D01*
X1420618Y54293D02*
X1420618Y39040D01*
X1420618Y46666D02*
X1418076Y49208D01*
X1412992Y49208D01*
X1410450Y46666D01*
X1410450Y39040D01*
X1401705Y49208D02*
X1396620Y49208D01*
X1394078Y46666D01*
X1394078Y39040D01*
X1401705Y39040D01*
X1404247Y41582D01*
X1401705Y44124D01*
X1394078Y44124D01*
X1387875Y39040D02*
X1387875Y49208D01*
X1380249Y49208D01*
X1377707Y46666D01*
X1377707Y39040D01*
X1371504Y39040D02*
X1371504Y54293D01*
X1371504Y44124D02*
X1363877Y39040D01*
X1371504Y44124D02*
X1363877Y49208D01*
X1357861Y39040D02*
X1350234Y39040D01*
X1347692Y41582D01*
X1350234Y44124D01*
X1355319Y44124D01*
X1357861Y46666D01*
X1355319Y49208D01*
X1347692Y49208D01*
X1322576Y51751D02*
X1322576Y41582D01*
X1320033Y39040D01*
X1320033Y49208D02*
X1325118Y49208D01*
X1311661Y39040D02*
X1306577Y39040D01*
X1304035Y41582D01*
X1304035Y46666D01*
X1306577Y49208D01*
X1311661Y49208D01*
X1314203Y46666D01*
X1314203Y41582D01*
X1311661Y39040D01*
X1281460Y39040D02*
X1281460Y54293D01*
X1281460Y39040D02*
X1273834Y39040D01*
X1271291Y41582D01*
X1271291Y51751D01*
X1273834Y54293D01*
X1281460Y54293D01*
X1262546Y49208D02*
X1257462Y49208D01*
X1254920Y46666D01*
X1254920Y39040D01*
X1262546Y39040D01*
X1265089Y41582D01*
X1262546Y44124D01*
X1254920Y44124D01*
X1248717Y39040D02*
X1248717Y49208D01*
X1241091Y49208D01*
X1238548Y46666D01*
X1238548Y39040D01*
X1232345Y33955D02*
X1229803Y33955D01*
X1227261Y36498D01*
X1227261Y49208D01*
X1227261Y54293D02*
X1227261Y56835D01*
X1218889Y39040D02*
X1213805Y39040D01*
X1211262Y41582D01*
X1211262Y46666D01*
X1213805Y49208D01*
X1218889Y49208D01*
X1221431Y46666D01*
X1221431Y41582D01*
X1218889Y39040D01*
X1205060Y49208D02*
X1199975Y39040D01*
X1194891Y49208D01*
X1188688Y49208D02*
X1186146Y49208D01*
X1186146Y39040D01*
X1188688Y39040D02*
X1183604Y39040D01*
X1186146Y54293D02*
X1186146Y56835D01*
X1175231Y49208D02*
X1167605Y49208D01*
X1175231Y49208D02*
X1177774Y46666D01*
X1177774Y41582D01*
X1175231Y39040D01*
X1167605Y39040D01*
X1142488Y39040D02*
X1142488Y51751D01*
X1139946Y54293D01*
X1139946Y46666D02*
X1145030Y46666D01*
X1131574Y39040D02*
X1126490Y39040D01*
X1123947Y41582D01*
X1123947Y46666D01*
X1126490Y49208D01*
X1131574Y49208D01*
X1134116Y46666D01*
X1134116Y41582D01*
X1131574Y39040D01*
X1117745Y39040D02*
X1117745Y49208D01*
X1117745Y44124D02*
X1112660Y49208D01*
X1110118Y49208D01*
X1087730Y49208D02*
X1085188Y49208D01*
X1085188Y39040D01*
X1087730Y39040D02*
X1082646Y39040D01*
X1085188Y54293D02*
X1085188Y56835D01*
X1076816Y49208D02*
X1076816Y39040D01*
X1076816Y49208D02*
X1069189Y49208D01*
X1066647Y46666D01*
X1066647Y39040D01*
X1060444Y49208D02*
X1057902Y49208D01*
X1057902Y39040D01*
X1060444Y39040D02*
X1055360Y39040D01*
X1057902Y54293D02*
X1057902Y56835D01*
X1046988Y51751D02*
X1046988Y41582D01*
X1044445Y39040D01*
X1044445Y49208D02*
X1049530Y49208D01*
X1038615Y49208D02*
X1036073Y49208D01*
X1036073Y39040D01*
X1038615Y39040D02*
X1033531Y39040D01*
X1036073Y54293D02*
X1036073Y56835D01*
X1025159Y49208D02*
X1020074Y49208D01*
X1017532Y46666D01*
X1017532Y39040D01*
X1025159Y39040D01*
X1027701Y41582D01*
X1025159Y44124D01*
X1017532Y44124D01*
X1011329Y54293D02*
X1008787Y54293D01*
X1008787Y39040D01*
X1011329Y39040D02*
X1006245Y39040D01*
X1953254Y13970D02*
X1960880Y13970D01*
X1953254Y13970D02*
X1950711Y16512D01*
X1953254Y19054D01*
X1958338Y19054D01*
X1960880Y21597D01*
X1958338Y24139D01*
X1950711Y24139D01*
X1941966Y24139D02*
X1934340Y24139D01*
X1941966Y24139D02*
X1944508Y21597D01*
X1944508Y16512D01*
X1941966Y13970D01*
X1934340Y13970D01*
X1928137Y13970D02*
X1928137Y29223D01*
X1925595Y24139D02*
X1928137Y21597D01*
X1925595Y24139D02*
X1920510Y24139D01*
X1917968Y21597D01*
X1917968Y13970D01*
X1909223Y13970D02*
X1904139Y13970D01*
X1909223Y13970D02*
X1911765Y16512D01*
X1911765Y21597D01*
X1909223Y24139D01*
X1904139Y24139D01*
X1901597Y21597D01*
X1901597Y19054D01*
X1911765Y19054D01*
X1895394Y13970D02*
X1895394Y24139D01*
X1892852Y24139D01*
X1890309Y21597D01*
X1890309Y13970D01*
X1890309Y21597D02*
X1887767Y24139D01*
X1885225Y21597D01*
X1885225Y13970D01*
X1876480Y24139D02*
X1871396Y24139D01*
X1868854Y21597D01*
X1868854Y13970D01*
X1876480Y13970D01*
X1879022Y16512D01*
X1876480Y19054D01*
X1868854Y19054D01*
X1843737Y24139D02*
X1836110Y24139D01*
X1843737Y24139D02*
X1846279Y21597D01*
X1846279Y16512D01*
X1843737Y13970D01*
X1836110Y13970D01*
X1829908Y13970D02*
X1829908Y24139D01*
X1829908Y19054D02*
X1824823Y24139D01*
X1822281Y24139D01*
X1813722Y13970D02*
X1808638Y13970D01*
X1813722Y13970D02*
X1816265Y16512D01*
X1816265Y21597D01*
X1813722Y24139D01*
X1808638Y24139D01*
X1806096Y21597D01*
X1806096Y19054D01*
X1816265Y19054D01*
X1797351Y24139D02*
X1792266Y24139D01*
X1789724Y21597D01*
X1789724Y13970D01*
X1797351Y13970D01*
X1799893Y16512D01*
X1797351Y19054D01*
X1789724Y19054D01*
X1780979Y16512D02*
X1780979Y26681D01*
X1780979Y16512D02*
X1778437Y13970D01*
X1778437Y24139D02*
X1783521Y24139D01*
X1770065Y13970D02*
X1764981Y13970D01*
X1770065Y13970D02*
X1772607Y16512D01*
X1772607Y21597D01*
X1770065Y24139D01*
X1764981Y24139D01*
X1762438Y21597D01*
X1762438Y19054D01*
X1772607Y19054D01*
X1756235Y8886D02*
X1751151Y13970D01*
X1751151Y16512D01*
X1753693Y16512D01*
X1753693Y13970D01*
X1751151Y13970D01*
X1728950Y13970D02*
X1728950Y29223D01*
X1723865Y24139D01*
X1718781Y29223D01*
X1718781Y13970D01*
X1710036Y24139D02*
X1704951Y24139D01*
X1702409Y21597D01*
X1702409Y13970D01*
X1710036Y13970D01*
X1712578Y16512D01*
X1710036Y19054D01*
X1702409Y19054D01*
X1696206Y13970D02*
X1696206Y24139D01*
X1688580Y24139D01*
X1686038Y21597D01*
X1686038Y13970D01*
X1677293Y13970D02*
X1672208Y13970D01*
X1669666Y16512D01*
X1669666Y21597D01*
X1672208Y24139D01*
X1677293Y24139D01*
X1679835Y21597D01*
X1679835Y16512D01*
X1677293Y13970D01*
X1660921Y13970D02*
X1655837Y13970D01*
X1660921Y13970D02*
X1663463Y16512D01*
X1663463Y21597D01*
X1660921Y24139D01*
X1655837Y24139D01*
X1653295Y21597D01*
X1653295Y19054D01*
X1663463Y19054D01*
X1647092Y29223D02*
X1644550Y29223D01*
X1644550Y13970D01*
X1647092Y13970D02*
X1642007Y13970D01*
X1612179Y29223D02*
X1609637Y26681D01*
X1612179Y29223D02*
X1617264Y29223D01*
X1619806Y26681D01*
X1619806Y16512D01*
X1617264Y13970D01*
X1612179Y13970D01*
X1609637Y16512D01*
X1600892Y24139D02*
X1595808Y24139D01*
X1593266Y21597D01*
X1593266Y13970D01*
X1600892Y13970D01*
X1603434Y16512D01*
X1600892Y19054D01*
X1593266Y19054D01*
X1587063Y13970D02*
X1587063Y24139D01*
X1587063Y19054D02*
X1581978Y24139D01*
X1579436Y24139D01*
X1573420Y24139D02*
X1568335Y13970D01*
X1563251Y24139D01*
X1554506Y24139D02*
X1549422Y24139D01*
X1546879Y21597D01*
X1546879Y13970D01*
X1554506Y13970D01*
X1557048Y16512D01*
X1554506Y19054D01*
X1546879Y19054D01*
X1540677Y29223D02*
X1538134Y29223D01*
X1538134Y13970D01*
X1535592Y13970D02*
X1540677Y13970D01*
X1529762Y13970D02*
X1529762Y29223D01*
X1527220Y24139D02*
X1529762Y21597D01*
X1527220Y24139D02*
X1522136Y24139D01*
X1519594Y21597D01*
X1519594Y13970D01*
X1510848Y13970D02*
X1505764Y13970D01*
X1503222Y16512D01*
X1503222Y21597D01*
X1505764Y24139D01*
X1510848Y24139D01*
X1513391Y21597D01*
X1513391Y16512D01*
X1510848Y13970D01*
X1480648Y19054D02*
X1475563Y13970D01*
X1480648Y19054D02*
X1480648Y24139D01*
X1475563Y29223D01*
X1469733Y29223D02*
X1469733Y13970D01*
X1459564Y13970D02*
X1469733Y29223D01*
X1459564Y29223D02*
X1459564Y13970D01*
X1450819Y13970D02*
X1445735Y13970D01*
X1450819Y13970D02*
X1453362Y16512D01*
X1453362Y21597D01*
X1450819Y24139D01*
X1445735Y24139D01*
X1443193Y21597D01*
X1443193Y19054D01*
X1453362Y19054D01*
X1434448Y24139D02*
X1426821Y24139D01*
X1434448Y24139D02*
X1436990Y21597D01*
X1436990Y16512D01*
X1434448Y13970D01*
X1426821Y13970D01*
X1418076Y13970D02*
X1412992Y13970D01*
X1410450Y16512D01*
X1410450Y21597D01*
X1412992Y24139D01*
X1418076Y24139D01*
X1420618Y21597D01*
X1420618Y16512D01*
X1418076Y13970D01*
X1404247Y13970D02*
X1399163Y19054D01*
X1399163Y24139D01*
X1404247Y29223D01*
X1374419Y26681D02*
X1374419Y13970D01*
X1374419Y26681D02*
X1371877Y29223D01*
X1371877Y21597D02*
X1376961Y21597D01*
X1363504Y13970D02*
X1358420Y13970D01*
X1355878Y16512D01*
X1355878Y21597D01*
X1358420Y24139D01*
X1363504Y24139D01*
X1366047Y21597D01*
X1366047Y16512D01*
X1363504Y13970D01*
X1349675Y13970D02*
X1349675Y24139D01*
X1344591Y24139D02*
X1349675Y19054D01*
X1344591Y24139D02*
X1342049Y24139D01*
X1317118Y13970D02*
X1312034Y13970D01*
X1317118Y13970D02*
X1319660Y16512D01*
X1319660Y21597D01*
X1317118Y24139D01*
X1312034Y24139D01*
X1309492Y21597D01*
X1309492Y19054D01*
X1319660Y19054D01*
X1303289Y13970D02*
X1303289Y24139D01*
X1295662Y24139D01*
X1293120Y21597D01*
X1293120Y13970D01*
X1284375Y24139D02*
X1276749Y24139D01*
X1284375Y24139D02*
X1286917Y21597D01*
X1286917Y16512D01*
X1284375Y13970D01*
X1276749Y13970D01*
X1268004Y13970D02*
X1262919Y13970D01*
X1260377Y16512D01*
X1260377Y21597D01*
X1262919Y24139D01*
X1268004Y24139D01*
X1270546Y21597D01*
X1270546Y16512D01*
X1268004Y13970D01*
X1254174Y16512D02*
X1254174Y24139D01*
X1254174Y16512D02*
X1251632Y13970D01*
X1244006Y13970D01*
X1244006Y24139D01*
X1237803Y24139D02*
X1237803Y13970D01*
X1237803Y19054D02*
X1232718Y24139D01*
X1230176Y24139D01*
X1221618Y24139D02*
X1216533Y24139D01*
X1213991Y21597D01*
X1213991Y13970D01*
X1221618Y13970D01*
X1224160Y16512D01*
X1221618Y19054D01*
X1213991Y19054D01*
X1202704Y8886D02*
X1200162Y8886D01*
X1197619Y11428D01*
X1197619Y24139D01*
X1205246Y24139D01*
X1207788Y21597D01*
X1207788Y16512D01*
X1205246Y13970D01*
X1197619Y13970D01*
X1191417Y24139D02*
X1188874Y24139D01*
X1188874Y13970D01*
X1186332Y13970D02*
X1191417Y13970D01*
X1188874Y29223D02*
X1188874Y31765D01*
X1180502Y24139D02*
X1180502Y13970D01*
X1180502Y24139D02*
X1172876Y24139D01*
X1170334Y21597D01*
X1170334Y13970D01*
X1159046Y8886D02*
X1156504Y8886D01*
X1153962Y11428D01*
X1153962Y24139D01*
X1161588Y24139D01*
X1164131Y21597D01*
X1164131Y16512D01*
X1161588Y13970D01*
X1153962Y13970D01*
X1128845Y24139D02*
X1123761Y24139D01*
X1121219Y21597D01*
X1121219Y13970D01*
X1128845Y13970D01*
X1131388Y16512D01*
X1128845Y19054D01*
X1121219Y19054D01*
X1115016Y13970D02*
X1115016Y24139D01*
X1107389Y24139D01*
X1104847Y21597D01*
X1104847Y13970D01*
X1088476Y13970D02*
X1088476Y29223D01*
X1088476Y13970D02*
X1096102Y13970D01*
X1098644Y16512D01*
X1098644Y21597D01*
X1096102Y24139D01*
X1088476Y24139D01*
X1065901Y24139D02*
X1065901Y8886D01*
X1065901Y24139D02*
X1058275Y24139D01*
X1055733Y21597D01*
X1055733Y16512D01*
X1058275Y13970D01*
X1065901Y13970D01*
X1049530Y13970D02*
X1049530Y24139D01*
X1049530Y19054D02*
X1044445Y24139D01*
X1041903Y24139D01*
X1033345Y13970D02*
X1028260Y13970D01*
X1025718Y16512D01*
X1025718Y21597D01*
X1028260Y24139D01*
X1033345Y24139D01*
X1035887Y21597D01*
X1035887Y16512D01*
X1033345Y13970D01*
X1019515Y24139D02*
X1014431Y13970D01*
X1009346Y24139D01*
X1003144Y24139D02*
X1000601Y24139D01*
X1000601Y13970D01*
X998059Y13970D02*
X1003144Y13970D01*
X1000601Y29223D02*
X1000601Y31765D01*
X982061Y29223D02*
X982061Y13970D01*
X989687Y13970D01*
X992229Y16512D01*
X992229Y21597D01*
X989687Y24139D01*
X982061Y24139D01*
X975858Y24139D02*
X973316Y24139D01*
X973316Y13970D01*
X975858Y13970D02*
X970773Y13970D01*
X973316Y29223D02*
X973316Y31765D01*
X964943Y24139D02*
X964943Y13970D01*
X964943Y24139D02*
X957317Y24139D01*
X954775Y21597D01*
X954775Y13970D01*
X943487Y8886D02*
X940945Y8886D01*
X938403Y11428D01*
X938403Y24139D01*
X946030Y24139D01*
X948572Y21597D01*
X948572Y16512D01*
X946030Y13970D01*
X938403Y13970D01*
X913286Y24139D02*
X905660Y24139D01*
X913286Y24139D02*
X915829Y21597D01*
X915829Y16512D01*
X913286Y13970D01*
X905660Y13970D01*
X899457Y29223D02*
X896915Y29223D01*
X896915Y13970D01*
X899457Y13970D02*
X894373Y13970D01*
X886001Y13970D02*
X880916Y13970D01*
X886001Y13970D02*
X888543Y16512D01*
X888543Y21597D01*
X886001Y24139D01*
X880916Y24139D01*
X878374Y21597D01*
X878374Y19054D01*
X888543Y19054D01*
X869629Y24139D02*
X864545Y24139D01*
X862002Y21597D01*
X862002Y13970D01*
X869629Y13970D01*
X872171Y16512D01*
X869629Y19054D01*
X862002Y19054D01*
X855800Y13970D02*
X855800Y24139D01*
X848173Y24139D01*
X845631Y21597D01*
X845631Y13970D01*
X823056Y13970D02*
X823056Y29223D01*
X815430Y29223D01*
X812888Y26681D01*
X812888Y21597D01*
X815430Y19054D01*
X823056Y19054D01*
X799058Y29223D02*
X796516Y26681D01*
X799058Y29223D02*
X804143Y29223D01*
X806685Y26681D01*
X806685Y16512D01*
X804143Y13970D01*
X799058Y13970D01*
X796516Y16512D01*
X790313Y13970D02*
X790313Y29223D01*
X782687Y29223D01*
X780145Y26681D01*
X780145Y24139D01*
X782687Y21597D01*
X780145Y19054D01*
X780145Y16512D01*
X782687Y13970D01*
X790313Y13970D01*
X790313Y21597D02*
X782687Y21597D01*
X757570Y13970D02*
X749944Y13970D01*
X747401Y16512D01*
X749944Y19054D01*
X755028Y19054D01*
X757570Y21597D01*
X755028Y24139D01*
X747401Y24139D01*
X738656Y24139D02*
X731030Y24139D01*
X738656Y24139D02*
X741199Y21597D01*
X741199Y16512D01*
X738656Y13970D01*
X731030Y13970D01*
X722285Y24139D02*
X717201Y24139D01*
X714658Y21597D01*
X714658Y13970D01*
X722285Y13970D01*
X724827Y16512D01*
X722285Y19054D01*
X714658Y19054D01*
X708455Y13970D02*
X708455Y24139D01*
X700829Y24139D01*
X698287Y21597D01*
X698287Y13970D01*
X692084Y13970D02*
X684457Y13970D01*
X681915Y16512D01*
X684457Y19054D01*
X689542Y19054D01*
X692084Y21597D01*
X689542Y24139D01*
X681915Y24139D01*
X656799Y24139D02*
X651714Y24139D01*
X649172Y21597D01*
X649172Y13970D01*
X656799Y13970D01*
X659341Y16512D01*
X656799Y19054D01*
X649172Y19054D01*
X642969Y13970D02*
X642969Y24139D01*
X635343Y24139D01*
X632801Y21597D01*
X632801Y13970D01*
X616429Y13970D02*
X616429Y29223D01*
X616429Y13970D02*
X624056Y13970D01*
X626598Y16512D01*
X626598Y21597D01*
X624056Y24139D01*
X616429Y24139D01*
X591312Y26681D02*
X591312Y16512D01*
X588770Y13970D01*
X588770Y24139D02*
X593855Y24139D01*
X580398Y13970D02*
X575314Y13970D01*
X572771Y16512D01*
X572771Y21597D01*
X575314Y24139D01*
X580398Y24139D01*
X582940Y21597D01*
X582940Y16512D01*
X580398Y13970D01*
X547655Y16512D02*
X547655Y26681D01*
X547655Y16512D02*
X545113Y13970D01*
X545113Y24139D02*
X550197Y24139D01*
X539283Y29223D02*
X539283Y13970D01*
X539283Y21597D02*
X536741Y24139D01*
X531656Y24139D01*
X529114Y21597D01*
X529114Y13970D01*
X520369Y13970D02*
X515285Y13970D01*
X520369Y13970D02*
X522911Y16512D01*
X522911Y21597D01*
X520369Y24139D01*
X515285Y24139D01*
X512742Y21597D01*
X512742Y19054D01*
X522911Y19054D01*
X490168Y13970D02*
X490168Y29223D01*
X479999Y29223D01*
X485084Y21597D02*
X490168Y21597D01*
X473796Y29223D02*
X473796Y13970D01*
X473796Y29223D02*
X466170Y29223D01*
X463628Y26681D01*
X463628Y24139D01*
X466170Y21597D01*
X463628Y19054D01*
X463628Y16512D01*
X466170Y13970D01*
X473796Y13970D01*
X473796Y21597D02*
X466170Y21597D01*
X433427Y29223D02*
X430885Y26681D01*
X433427Y29223D02*
X438511Y29223D01*
X441053Y26681D01*
X441053Y16512D01*
X438511Y13970D01*
X433427Y13970D01*
X430885Y16512D01*
X424682Y29223D02*
X422140Y29223D01*
X422140Y13970D01*
X424682Y13970D02*
X419597Y13970D01*
X413767Y16512D02*
X413767Y24139D01*
X413767Y16512D02*
X411225Y13970D01*
X403599Y13970D01*
X403599Y24139D01*
X397396Y29223D02*
X397396Y13970D01*
X389769Y13970D01*
X387227Y16512D01*
X387227Y21597D01*
X389769Y24139D01*
X397396Y24139D01*
X378482Y13970D02*
X373398Y13970D01*
X378482Y13970D02*
X381024Y16512D01*
X381024Y21597D01*
X378482Y24139D01*
X373398Y24139D01*
X370856Y21597D01*
X370856Y19054D01*
X381024Y19054D01*
X338112Y13970D02*
X338112Y29223D01*
X338112Y13970D02*
X345739Y13970D01*
X348281Y16512D01*
X348281Y21597D01*
X345739Y24139D01*
X338112Y24139D01*
X329367Y13970D02*
X324283Y13970D01*
X321741Y16512D01*
X321741Y21597D01*
X324283Y24139D01*
X329367Y24139D01*
X331910Y21597D01*
X331910Y16512D01*
X329367Y13970D01*
X294082Y13970D02*
X294082Y29223D01*
X299166Y29223D02*
X288998Y29223D01*
X282795Y29223D02*
X282795Y13970D01*
X282795Y19054D02*
X272626Y29223D01*
X280253Y21597D02*
X272626Y13970D01*
X244967Y8886D02*
X242425Y8886D01*
X239883Y11428D01*
X239883Y24139D01*
X247510Y24139D01*
X250052Y21597D01*
X250052Y16512D01*
X247510Y13970D01*
X239883Y13970D01*
X233680Y13970D02*
X233680Y24139D01*
X228596Y24139D02*
X233680Y19054D01*
X228596Y24139D02*
X226054Y24139D01*
X217495Y13970D02*
X212411Y13970D01*
X209869Y16512D01*
X209869Y21597D01*
X212411Y24139D01*
X217495Y24139D01*
X220037Y21597D01*
X220037Y16512D01*
X217495Y13970D01*
X203666Y16512D02*
X203666Y24139D01*
X203666Y16512D02*
X201123Y13970D01*
X193497Y13970D01*
X193497Y24139D01*
X187294Y24139D02*
X187294Y8886D01*
X187294Y24139D02*
X179668Y24139D01*
X177125Y21597D01*
X177125Y16512D01*
X179668Y13970D01*
X187294Y13970D01*
D11*
X100711Y300745D02*
X93423Y300745D01*
X100711Y300745D02*
X100711Y295280D01*
X97067Y297102D01*
X95245Y297102D01*
X93423Y295280D01*
X93423Y291636D01*
X95245Y289814D01*
X98889Y289814D01*
X100711Y291636D01*
X89017Y293458D02*
X89017Y300745D01*
X89017Y293458D02*
X85373Y289814D01*
X81730Y293458D01*
X81730Y300745D01*
X100711Y319327D02*
X97067Y322970D01*
X97067Y312039D01*
X100711Y312039D02*
X93423Y312039D01*
X89017Y312039D02*
X81730Y312039D01*
X89017Y312039D02*
X81730Y319327D01*
X81730Y321148D01*
X83551Y322970D01*
X87195Y322970D01*
X89017Y321148D01*
X77323Y322970D02*
X77323Y315683D01*
X73679Y312039D01*
X70036Y315683D01*
X70036Y322970D01*
X156923Y82555D02*
X164211Y82555D01*
X152517Y88020D02*
X145230Y88020D01*
X152517Y88020D02*
X152517Y82555D01*
X148873Y84377D01*
X147051Y84377D01*
X145230Y82555D01*
X145230Y78911D01*
X147051Y77089D01*
X150695Y77089D01*
X152517Y78911D01*
X140823Y80733D02*
X140823Y88020D01*
X140823Y80733D02*
X137179Y77089D01*
X133536Y80733D01*
X133536Y88020D01*
D12*
X125095Y92710D02*
X97155Y92710D01*
X125095Y72390D02*
X125195Y72392D01*
X125294Y72398D01*
X125394Y72408D01*
X125492Y72421D01*
X125591Y72439D01*
X125688Y72460D01*
X125784Y72485D01*
X125880Y72514D01*
X125974Y72547D01*
X126067Y72583D01*
X126158Y72623D01*
X126248Y72667D01*
X126336Y72714D01*
X126422Y72764D01*
X126506Y72818D01*
X126588Y72875D01*
X126667Y72935D01*
X126745Y72999D01*
X126819Y73065D01*
X126891Y73134D01*
X126960Y73206D01*
X127026Y73280D01*
X127090Y73358D01*
X127150Y73437D01*
X127207Y73519D01*
X127261Y73603D01*
X127311Y73689D01*
X127358Y73777D01*
X127402Y73867D01*
X127442Y73958D01*
X127478Y74051D01*
X127511Y74145D01*
X127540Y74241D01*
X127565Y74337D01*
X127586Y74434D01*
X127604Y74533D01*
X127617Y74631D01*
X127627Y74731D01*
X127633Y74830D01*
X127635Y74930D01*
X97155Y72390D02*
X97055Y72392D01*
X96956Y72398D01*
X96856Y72408D01*
X96758Y72421D01*
X96659Y72439D01*
X96562Y72460D01*
X96466Y72485D01*
X96370Y72514D01*
X96276Y72547D01*
X96183Y72583D01*
X96092Y72623D01*
X96002Y72667D01*
X95914Y72714D01*
X95828Y72764D01*
X95744Y72818D01*
X95662Y72875D01*
X95583Y72935D01*
X95505Y72999D01*
X95431Y73065D01*
X95359Y73134D01*
X95290Y73206D01*
X95224Y73280D01*
X95160Y73358D01*
X95100Y73437D01*
X95043Y73519D01*
X94989Y73603D01*
X94939Y73689D01*
X94892Y73777D01*
X94848Y73867D01*
X94808Y73958D01*
X94772Y74051D01*
X94739Y74145D01*
X94710Y74241D01*
X94685Y74337D01*
X94664Y74434D01*
X94646Y74533D01*
X94633Y74631D01*
X94623Y74731D01*
X94617Y74830D01*
X94615Y74930D01*
X94615Y90170D02*
X94617Y90270D01*
X94623Y90369D01*
X94633Y90469D01*
X94646Y90567D01*
X94664Y90666D01*
X94685Y90763D01*
X94710Y90859D01*
X94739Y90955D01*
X94772Y91049D01*
X94808Y91142D01*
X94848Y91233D01*
X94892Y91323D01*
X94939Y91411D01*
X94989Y91497D01*
X95043Y91581D01*
X95100Y91663D01*
X95160Y91742D01*
X95224Y91820D01*
X95290Y91894D01*
X95359Y91966D01*
X95431Y92035D01*
X95505Y92101D01*
X95583Y92165D01*
X95662Y92225D01*
X95744Y92282D01*
X95828Y92336D01*
X95914Y92386D01*
X96002Y92433D01*
X96092Y92477D01*
X96183Y92517D01*
X96276Y92553D01*
X96370Y92586D01*
X96466Y92615D01*
X96562Y92640D01*
X96659Y92661D01*
X96758Y92679D01*
X96856Y92692D01*
X96956Y92702D01*
X97055Y92708D01*
X97155Y92710D01*
X125095Y92710D02*
X125195Y92708D01*
X125294Y92702D01*
X125394Y92692D01*
X125492Y92679D01*
X125591Y92661D01*
X125688Y92640D01*
X125784Y92615D01*
X125880Y92586D01*
X125974Y92553D01*
X126067Y92517D01*
X126158Y92477D01*
X126248Y92433D01*
X126336Y92386D01*
X126422Y92336D01*
X126506Y92282D01*
X126588Y92225D01*
X126667Y92165D01*
X126745Y92101D01*
X126819Y92035D01*
X126891Y91966D01*
X126960Y91894D01*
X127026Y91820D01*
X127090Y91742D01*
X127150Y91663D01*
X127207Y91581D01*
X127261Y91497D01*
X127311Y91411D01*
X127358Y91323D01*
X127402Y91233D01*
X127442Y91142D01*
X127478Y91049D01*
X127511Y90955D01*
X127540Y90859D01*
X127565Y90763D01*
X127586Y90666D01*
X127604Y90567D01*
X127617Y90469D01*
X127627Y90369D01*
X127633Y90270D01*
X127635Y90170D01*
X127635Y74930D01*
X94615Y74930D02*
X94615Y90170D01*
X97155Y72390D02*
X125095Y72390D01*
X126365Y82550D02*
X121285Y82550D01*
X100965Y82550D02*
X95885Y82550D01*
D13*
X107951Y89506D02*
X108584Y82550D01*
X108584Y82550D01*
X107951Y75594D01*
X107781Y75611D01*
X107611Y75633D01*
X107443Y75659D01*
X107274Y75689D01*
X107107Y75723D01*
X106940Y75761D01*
X106775Y75804D01*
X106610Y75850D01*
X106447Y75900D01*
X106285Y75954D01*
X106124Y76013D01*
X105965Y76075D01*
X105808Y76141D01*
X105652Y76211D01*
X105498Y76284D01*
X105345Y76362D01*
X105195Y76443D01*
X105047Y76528D01*
X104900Y76616D01*
X104756Y76708D01*
X104615Y76803D01*
X104475Y76902D01*
X104338Y77004D01*
X104204Y77110D01*
X104072Y77219D01*
X103943Y77331D01*
X103817Y77446D01*
X103693Y77564D01*
X103573Y77685D01*
X103455Y77809D01*
X103341Y77936D01*
X103230Y78065D01*
X103122Y78198D01*
X103017Y78333D01*
X102915Y78470D01*
X102817Y78610D01*
X102723Y78752D01*
X102631Y78897D01*
X102544Y79044D01*
X102460Y79192D01*
X102380Y79343D01*
X102303Y79496D01*
X102230Y79650D01*
X102161Y79807D01*
X102096Y79965D01*
X102035Y80124D01*
X101977Y80285D01*
X101924Y80447D01*
X101875Y80611D01*
X101829Y80776D01*
X101788Y80941D01*
X101750Y81108D01*
X101717Y81276D01*
X101688Y81444D01*
X101663Y81613D01*
X101642Y81783D01*
X101626Y81953D01*
X101613Y82123D01*
X101605Y82294D01*
X101601Y82465D01*
X101601Y82635D01*
X101605Y82806D01*
X101613Y82977D01*
X101626Y83147D01*
X101642Y83317D01*
X101663Y83487D01*
X101688Y83656D01*
X101717Y83824D01*
X101750Y83992D01*
X101788Y84159D01*
X101829Y84324D01*
X101875Y84489D01*
X101924Y84653D01*
X101977Y84815D01*
X102035Y84976D01*
X102096Y85135D01*
X102161Y85293D01*
X102230Y85450D01*
X102303Y85604D01*
X102380Y85757D01*
X102460Y85908D01*
X102544Y86056D01*
X102631Y86203D01*
X102723Y86348D01*
X102817Y86490D01*
X102915Y86630D01*
X103017Y86767D01*
X103122Y86902D01*
X103230Y87035D01*
X103341Y87164D01*
X103455Y87291D01*
X103573Y87415D01*
X103693Y87536D01*
X103817Y87654D01*
X103943Y87769D01*
X104072Y87881D01*
X104204Y87990D01*
X104338Y88096D01*
X104475Y88198D01*
X104615Y88297D01*
X104756Y88392D01*
X104900Y88484D01*
X105047Y88572D01*
X105195Y88657D01*
X105345Y88738D01*
X105498Y88816D01*
X105652Y88889D01*
X105808Y88959D01*
X105965Y89025D01*
X106124Y89087D01*
X106285Y89146D01*
X106447Y89200D01*
X106610Y89250D01*
X106775Y89296D01*
X106940Y89339D01*
X107107Y89377D01*
X107274Y89411D01*
X107443Y89441D01*
X107611Y89467D01*
X107781Y89489D01*
X107951Y89506D01*
X107951Y88294D01*
X107802Y88276D01*
X107653Y88253D01*
X107504Y88227D01*
X107356Y88197D01*
X107210Y88163D01*
X107064Y88125D01*
X106919Y88084D01*
X106775Y88038D01*
X106632Y87989D01*
X106491Y87936D01*
X106351Y87880D01*
X106213Y87820D01*
X106076Y87756D01*
X105941Y87689D01*
X105808Y87618D01*
X105677Y87544D01*
X105548Y87467D01*
X105421Y87386D01*
X105296Y87301D01*
X105173Y87214D01*
X105052Y87123D01*
X104934Y87030D01*
X104818Y86933D01*
X104705Y86833D01*
X104595Y86731D01*
X104487Y86625D01*
X104382Y86517D01*
X104280Y86406D01*
X104181Y86292D01*
X104085Y86176D01*
X103992Y86057D01*
X103902Y85936D01*
X103815Y85813D01*
X103732Y85688D01*
X103652Y85560D01*
X103575Y85430D01*
X103501Y85299D01*
X103432Y85165D01*
X103365Y85030D01*
X103302Y84893D01*
X103243Y84754D01*
X103187Y84614D01*
X103135Y84473D01*
X103087Y84330D01*
X103042Y84186D01*
X103002Y84041D01*
X102965Y83894D01*
X102931Y83747D01*
X102902Y83599D01*
X102877Y83451D01*
X102855Y83302D01*
X102837Y83152D01*
X102824Y83002D01*
X102814Y82851D01*
X102808Y82701D01*
X102806Y82550D01*
X102808Y82399D01*
X102814Y82249D01*
X102824Y82098D01*
X102837Y81948D01*
X102855Y81798D01*
X102877Y81649D01*
X102902Y81501D01*
X102931Y81353D01*
X102965Y81206D01*
X103002Y81059D01*
X103042Y80914D01*
X103087Y80770D01*
X103135Y80627D01*
X103187Y80486D01*
X103243Y80346D01*
X103302Y80207D01*
X103365Y80070D01*
X103432Y79935D01*
X103501Y79801D01*
X103575Y79670D01*
X103652Y79540D01*
X103732Y79412D01*
X103815Y79287D01*
X103902Y79164D01*
X103992Y79043D01*
X104085Y78924D01*
X104181Y78808D01*
X104280Y78694D01*
X104382Y78583D01*
X104487Y78475D01*
X104595Y78369D01*
X104705Y78267D01*
X104818Y78167D01*
X104934Y78070D01*
X105052Y77977D01*
X105173Y77886D01*
X105296Y77799D01*
X105421Y77714D01*
X105548Y77633D01*
X105677Y77556D01*
X105808Y77482D01*
X105941Y77411D01*
X106076Y77344D01*
X106213Y77280D01*
X106351Y77220D01*
X106491Y77164D01*
X106632Y77111D01*
X106775Y77062D01*
X106919Y77016D01*
X107064Y76975D01*
X107210Y76937D01*
X107356Y76903D01*
X107504Y76873D01*
X107653Y76847D01*
X107802Y76824D01*
X107951Y76806D01*
X107952Y78021D01*
X107820Y78041D01*
X107689Y78066D01*
X107558Y78094D01*
X107428Y78126D01*
X107299Y78161D01*
X107172Y78201D01*
X107045Y78244D01*
X106920Y78291D01*
X106796Y78341D01*
X106674Y78395D01*
X106554Y78453D01*
X106435Y78514D01*
X106318Y78579D01*
X106203Y78647D01*
X106090Y78718D01*
X105979Y78792D01*
X105870Y78870D01*
X105764Y78951D01*
X105660Y79035D01*
X105558Y79122D01*
X105459Y79212D01*
X105363Y79305D01*
X105270Y79400D01*
X105179Y79498D01*
X105091Y79599D01*
X105007Y79703D01*
X104925Y79808D01*
X104846Y79916D01*
X104771Y80027D01*
X104699Y80139D01*
X104630Y80254D01*
X104565Y80370D01*
X104503Y80489D01*
X104444Y80609D01*
X104389Y80731D01*
X104338Y80854D01*
X104290Y80979D01*
X104246Y81105D01*
X104206Y81233D01*
X104169Y81361D01*
X104136Y81491D01*
X104107Y81621D01*
X104082Y81752D01*
X104061Y81884D01*
X104043Y82017D01*
X104030Y82150D01*
X104020Y82283D01*
X104014Y82416D01*
X104012Y82550D01*
X104014Y82684D01*
X104020Y82817D01*
X104030Y82950D01*
X104043Y83083D01*
X104061Y83216D01*
X104082Y83348D01*
X104107Y83479D01*
X104136Y83609D01*
X104169Y83739D01*
X104206Y83867D01*
X104246Y83995D01*
X104290Y84121D01*
X104338Y84246D01*
X104389Y84369D01*
X104444Y84491D01*
X104503Y84611D01*
X104565Y84730D01*
X104630Y84846D01*
X104699Y84961D01*
X104771Y85073D01*
X104846Y85184D01*
X104925Y85292D01*
X105007Y85397D01*
X105091Y85501D01*
X105179Y85602D01*
X105270Y85700D01*
X105363Y85795D01*
X105459Y85888D01*
X105558Y85978D01*
X105660Y86065D01*
X105764Y86149D01*
X105870Y86230D01*
X105979Y86308D01*
X106090Y86382D01*
X106203Y86453D01*
X106318Y86521D01*
X106435Y86586D01*
X106554Y86647D01*
X106674Y86705D01*
X106796Y86759D01*
X106920Y86809D01*
X107045Y86856D01*
X107172Y86899D01*
X107299Y86939D01*
X107428Y86974D01*
X107558Y87006D01*
X107689Y87034D01*
X107820Y87059D01*
X107952Y87079D01*
X107954Y85857D01*
X107841Y85834D01*
X107730Y85807D01*
X107619Y85775D01*
X107510Y85741D01*
X107401Y85702D01*
X107294Y85660D01*
X107189Y85614D01*
X107085Y85565D01*
X106983Y85512D01*
X106883Y85455D01*
X106785Y85396D01*
X106689Y85332D01*
X106595Y85266D01*
X106504Y85197D01*
X106415Y85124D01*
X106328Y85049D01*
X106244Y84970D01*
X106163Y84889D01*
X106084Y84805D01*
X106009Y84718D01*
X105936Y84629D01*
X105867Y84537D01*
X105801Y84443D01*
X105738Y84347D01*
X105678Y84249D01*
X105622Y84149D01*
X105569Y84047D01*
X105520Y83943D01*
X105474Y83838D01*
X105432Y83731D01*
X105393Y83623D01*
X105359Y83513D01*
X105328Y83402D01*
X105301Y83291D01*
X105277Y83178D01*
X105258Y83065D01*
X105242Y82951D01*
X105230Y82837D01*
X105222Y82722D01*
X105218Y82607D01*
X105218Y82493D01*
X105222Y82378D01*
X105230Y82263D01*
X105242Y82149D01*
X105258Y82035D01*
X105277Y81922D01*
X105301Y81809D01*
X105328Y81698D01*
X105359Y81587D01*
X105393Y81477D01*
X105432Y81369D01*
X105474Y81262D01*
X105520Y81157D01*
X105569Y81053D01*
X105622Y80951D01*
X105678Y80851D01*
X105738Y80753D01*
X105801Y80657D01*
X105867Y80563D01*
X105936Y80471D01*
X106009Y80382D01*
X106084Y80295D01*
X106163Y80211D01*
X106244Y80130D01*
X106328Y80051D01*
X106415Y79976D01*
X106504Y79903D01*
X106595Y79834D01*
X106689Y79768D01*
X106785Y79704D01*
X106883Y79645D01*
X106983Y79588D01*
X107085Y79535D01*
X107189Y79486D01*
X107294Y79440D01*
X107401Y79398D01*
X107510Y79359D01*
X107619Y79325D01*
X107730Y79293D01*
X107841Y79266D01*
X107954Y79243D01*
X107959Y80482D01*
X107872Y80510D01*
X107785Y80542D01*
X107701Y80578D01*
X107618Y80618D01*
X107536Y80660D01*
X107457Y80707D01*
X107379Y80757D01*
X107304Y80809D01*
X107231Y80866D01*
X107161Y80925D01*
X107093Y80987D01*
X107028Y81052D01*
X106965Y81119D01*
X106906Y81189D01*
X106850Y81262D01*
X106796Y81337D01*
X106746Y81414D01*
X106700Y81494D01*
X106657Y81575D01*
X106617Y81658D01*
X106581Y81742D01*
X106548Y81828D01*
X106519Y81916D01*
X106494Y82004D01*
X106473Y82094D01*
X106455Y82184D01*
X106442Y82275D01*
X106432Y82366D01*
X106426Y82458D01*
X106424Y82550D01*
X106426Y82642D01*
X106432Y82734D01*
X106442Y82825D01*
X106455Y82916D01*
X106473Y83006D01*
X106494Y83096D01*
X106519Y83184D01*
X106548Y83272D01*
X106581Y83358D01*
X106617Y83442D01*
X106657Y83525D01*
X106700Y83606D01*
X106746Y83686D01*
X106796Y83763D01*
X106850Y83838D01*
X106906Y83911D01*
X106965Y83981D01*
X107028Y84048D01*
X107093Y84113D01*
X107161Y84175D01*
X107231Y84234D01*
X107304Y84291D01*
X107379Y84343D01*
X107457Y84393D01*
X107536Y84440D01*
X107618Y84482D01*
X107701Y84522D01*
X107785Y84558D01*
X107872Y84590D01*
X107959Y84618D01*
X107996Y83302D01*
X107950Y83263D01*
X107907Y83222D01*
X107866Y83179D01*
X107828Y83132D01*
X107793Y83084D01*
X107762Y83034D01*
X107733Y82981D01*
X107708Y82927D01*
X107686Y82872D01*
X107667Y82815D01*
X107653Y82757D01*
X107642Y82699D01*
X107634Y82639D01*
X107630Y82580D01*
X107630Y82520D01*
X107634Y82461D01*
X107642Y82401D01*
X107653Y82343D01*
X107667Y82285D01*
X107686Y82228D01*
X107708Y82173D01*
X107733Y82119D01*
X107762Y82066D01*
X107793Y82016D01*
X107828Y81968D01*
X107866Y81921D01*
X107907Y81878D01*
X107950Y81837D01*
X107996Y81798D01*
X114299Y75594D02*
X113666Y82550D01*
X113666Y82550D01*
X114299Y89506D01*
X114469Y89489D01*
X114639Y89467D01*
X114807Y89441D01*
X114976Y89411D01*
X115143Y89377D01*
X115310Y89339D01*
X115475Y89296D01*
X115640Y89250D01*
X115803Y89200D01*
X115965Y89146D01*
X116126Y89087D01*
X116285Y89025D01*
X116442Y88959D01*
X116598Y88889D01*
X116752Y88816D01*
X116905Y88738D01*
X117055Y88657D01*
X117203Y88572D01*
X117350Y88484D01*
X117494Y88392D01*
X117635Y88297D01*
X117775Y88198D01*
X117912Y88096D01*
X118046Y87990D01*
X118178Y87881D01*
X118307Y87769D01*
X118433Y87654D01*
X118557Y87536D01*
X118677Y87415D01*
X118795Y87291D01*
X118909Y87164D01*
X119020Y87035D01*
X119128Y86902D01*
X119233Y86767D01*
X119335Y86630D01*
X119433Y86490D01*
X119527Y86348D01*
X119619Y86203D01*
X119706Y86056D01*
X119790Y85908D01*
X119870Y85757D01*
X119947Y85604D01*
X120020Y85450D01*
X120089Y85293D01*
X120154Y85135D01*
X120215Y84976D01*
X120273Y84815D01*
X120326Y84653D01*
X120375Y84489D01*
X120421Y84324D01*
X120462Y84159D01*
X120500Y83992D01*
X120533Y83824D01*
X120562Y83656D01*
X120587Y83487D01*
X120608Y83317D01*
X120624Y83147D01*
X120637Y82977D01*
X120645Y82806D01*
X120649Y82635D01*
X120649Y82465D01*
X120645Y82294D01*
X120637Y82123D01*
X120624Y81953D01*
X120608Y81783D01*
X120587Y81613D01*
X120562Y81444D01*
X120533Y81276D01*
X120500Y81108D01*
X120462Y80941D01*
X120421Y80776D01*
X120375Y80611D01*
X120326Y80447D01*
X120273Y80285D01*
X120215Y80124D01*
X120154Y79965D01*
X120089Y79807D01*
X120020Y79650D01*
X119947Y79496D01*
X119870Y79343D01*
X119790Y79192D01*
X119706Y79044D01*
X119619Y78897D01*
X119527Y78752D01*
X119433Y78610D01*
X119335Y78470D01*
X119233Y78333D01*
X119128Y78198D01*
X119020Y78065D01*
X118909Y77936D01*
X118795Y77809D01*
X118677Y77685D01*
X118557Y77564D01*
X118433Y77446D01*
X118307Y77331D01*
X118178Y77219D01*
X118046Y77110D01*
X117912Y77004D01*
X117775Y76902D01*
X117635Y76803D01*
X117494Y76708D01*
X117350Y76616D01*
X117203Y76528D01*
X117055Y76443D01*
X116905Y76362D01*
X116752Y76284D01*
X116598Y76211D01*
X116442Y76141D01*
X116285Y76075D01*
X116126Y76013D01*
X115965Y75954D01*
X115803Y75900D01*
X115640Y75850D01*
X115475Y75804D01*
X115310Y75761D01*
X115143Y75723D01*
X114976Y75689D01*
X114807Y75659D01*
X114639Y75633D01*
X114469Y75611D01*
X114299Y75594D01*
X114299Y76806D01*
X114448Y76824D01*
X114597Y76847D01*
X114746Y76873D01*
X114894Y76903D01*
X115040Y76937D01*
X115186Y76975D01*
X115331Y77016D01*
X115475Y77062D01*
X115618Y77111D01*
X115759Y77164D01*
X115899Y77220D01*
X116037Y77280D01*
X116174Y77344D01*
X116309Y77411D01*
X116442Y77482D01*
X116573Y77556D01*
X116702Y77633D01*
X116829Y77714D01*
X116954Y77799D01*
X117077Y77886D01*
X117198Y77977D01*
X117316Y78070D01*
X117432Y78167D01*
X117545Y78267D01*
X117655Y78369D01*
X117763Y78475D01*
X117868Y78583D01*
X117970Y78694D01*
X118069Y78808D01*
X118165Y78924D01*
X118258Y79043D01*
X118348Y79164D01*
X118435Y79287D01*
X118518Y79412D01*
X118598Y79540D01*
X118675Y79670D01*
X118749Y79801D01*
X118818Y79935D01*
X118885Y80070D01*
X118948Y80207D01*
X119007Y80346D01*
X119063Y80486D01*
X119115Y80627D01*
X119163Y80770D01*
X119208Y80914D01*
X119248Y81059D01*
X119285Y81206D01*
X119319Y81353D01*
X119348Y81501D01*
X119373Y81649D01*
X119395Y81798D01*
X119413Y81948D01*
X119426Y82098D01*
X119436Y82249D01*
X119442Y82399D01*
X119444Y82550D01*
X119442Y82701D01*
X119436Y82851D01*
X119426Y83002D01*
X119413Y83152D01*
X119395Y83302D01*
X119373Y83451D01*
X119348Y83599D01*
X119319Y83747D01*
X119285Y83894D01*
X119248Y84041D01*
X119208Y84186D01*
X119163Y84330D01*
X119115Y84473D01*
X119063Y84614D01*
X119007Y84754D01*
X118948Y84893D01*
X118885Y85030D01*
X118818Y85165D01*
X118749Y85299D01*
X118675Y85430D01*
X118598Y85560D01*
X118518Y85688D01*
X118435Y85813D01*
X118348Y85936D01*
X118258Y86057D01*
X118165Y86176D01*
X118069Y86292D01*
X117970Y86406D01*
X117868Y86517D01*
X117763Y86625D01*
X117655Y86731D01*
X117545Y86833D01*
X117432Y86933D01*
X117316Y87030D01*
X117198Y87123D01*
X117077Y87214D01*
X116954Y87301D01*
X116829Y87386D01*
X116702Y87467D01*
X116573Y87544D01*
X116442Y87618D01*
X116309Y87689D01*
X116174Y87756D01*
X116037Y87820D01*
X115899Y87880D01*
X115759Y87936D01*
X115618Y87989D01*
X115475Y88038D01*
X115331Y88084D01*
X115186Y88125D01*
X115040Y88163D01*
X114894Y88197D01*
X114746Y88227D01*
X114597Y88253D01*
X114448Y88276D01*
X114299Y88294D01*
X114298Y87079D01*
X114430Y87059D01*
X114561Y87034D01*
X114692Y87006D01*
X114822Y86974D01*
X114951Y86939D01*
X115078Y86899D01*
X115205Y86856D01*
X115330Y86809D01*
X115454Y86759D01*
X115576Y86705D01*
X115696Y86647D01*
X115815Y86586D01*
X115932Y86521D01*
X116047Y86453D01*
X116160Y86382D01*
X116271Y86308D01*
X116380Y86230D01*
X116486Y86149D01*
X116590Y86065D01*
X116692Y85978D01*
X116791Y85888D01*
X116887Y85795D01*
X116980Y85700D01*
X117071Y85602D01*
X117159Y85501D01*
X117243Y85397D01*
X117325Y85292D01*
X117404Y85184D01*
X117479Y85073D01*
X117551Y84961D01*
X117620Y84846D01*
X117685Y84730D01*
X117747Y84611D01*
X117806Y84491D01*
X117861Y84369D01*
X117912Y84246D01*
X117960Y84121D01*
X118004Y83995D01*
X118044Y83867D01*
X118081Y83739D01*
X118114Y83609D01*
X118143Y83479D01*
X118168Y83348D01*
X118189Y83216D01*
X118207Y83083D01*
X118220Y82950D01*
X118230Y82817D01*
X118236Y82684D01*
X118238Y82550D01*
X118236Y82416D01*
X118230Y82283D01*
X118220Y82150D01*
X118207Y82017D01*
X118189Y81884D01*
X118168Y81752D01*
X118143Y81621D01*
X118114Y81491D01*
X118081Y81361D01*
X118044Y81233D01*
X118004Y81105D01*
X117960Y80979D01*
X117912Y80854D01*
X117861Y80731D01*
X117806Y80609D01*
X117747Y80489D01*
X117685Y80370D01*
X117620Y80254D01*
X117551Y80139D01*
X117479Y80027D01*
X117404Y79916D01*
X117325Y79808D01*
X117243Y79703D01*
X117159Y79599D01*
X117071Y79498D01*
X116980Y79400D01*
X116887Y79305D01*
X116791Y79212D01*
X116692Y79122D01*
X116590Y79035D01*
X116486Y78951D01*
X116380Y78870D01*
X116271Y78792D01*
X116160Y78718D01*
X116047Y78647D01*
X115932Y78579D01*
X115815Y78514D01*
X115696Y78453D01*
X115576Y78395D01*
X115454Y78341D01*
X115330Y78291D01*
X115205Y78244D01*
X115078Y78201D01*
X114951Y78161D01*
X114822Y78126D01*
X114692Y78094D01*
X114561Y78066D01*
X114430Y78041D01*
X114298Y78021D01*
X114296Y79243D01*
X114409Y79266D01*
X114520Y79293D01*
X114631Y79325D01*
X114740Y79359D01*
X114849Y79398D01*
X114956Y79440D01*
X115061Y79486D01*
X115165Y79535D01*
X115267Y79588D01*
X115367Y79645D01*
X115465Y79704D01*
X115561Y79768D01*
X115655Y79834D01*
X115746Y79903D01*
X115835Y79976D01*
X115922Y80051D01*
X116006Y80130D01*
X116087Y80211D01*
X116166Y80295D01*
X116241Y80382D01*
X116314Y80471D01*
X116383Y80563D01*
X116449Y80657D01*
X116512Y80753D01*
X116572Y80851D01*
X116628Y80951D01*
X116681Y81053D01*
X116730Y81157D01*
X116776Y81262D01*
X116818Y81369D01*
X116857Y81477D01*
X116891Y81587D01*
X116922Y81698D01*
X116949Y81809D01*
X116973Y81922D01*
X116992Y82035D01*
X117008Y82149D01*
X117020Y82263D01*
X117028Y82378D01*
X117032Y82493D01*
X117032Y82607D01*
X117028Y82722D01*
X117020Y82837D01*
X117008Y82951D01*
X116992Y83065D01*
X116973Y83178D01*
X116949Y83291D01*
X116922Y83402D01*
X116891Y83513D01*
X116857Y83623D01*
X116818Y83731D01*
X116776Y83838D01*
X116730Y83943D01*
X116681Y84047D01*
X116628Y84149D01*
X116572Y84249D01*
X116512Y84347D01*
X116449Y84443D01*
X116383Y84537D01*
X116314Y84629D01*
X116241Y84718D01*
X116166Y84805D01*
X116087Y84889D01*
X116006Y84970D01*
X115922Y85049D01*
X115835Y85124D01*
X115746Y85197D01*
X115655Y85266D01*
X115561Y85332D01*
X115465Y85396D01*
X115367Y85455D01*
X115267Y85512D01*
X115165Y85565D01*
X115061Y85614D01*
X114956Y85660D01*
X114849Y85702D01*
X114740Y85741D01*
X114631Y85775D01*
X114520Y85807D01*
X114409Y85834D01*
X114296Y85857D01*
X114291Y84618D01*
X114378Y84590D01*
X114465Y84558D01*
X114549Y84522D01*
X114632Y84482D01*
X114714Y84440D01*
X114793Y84393D01*
X114871Y84343D01*
X114946Y84291D01*
X115019Y84234D01*
X115089Y84175D01*
X115157Y84113D01*
X115222Y84048D01*
X115285Y83981D01*
X115344Y83911D01*
X115400Y83838D01*
X115454Y83763D01*
X115504Y83686D01*
X115550Y83606D01*
X115593Y83525D01*
X115633Y83442D01*
X115669Y83358D01*
X115702Y83272D01*
X115731Y83184D01*
X115756Y83096D01*
X115777Y83006D01*
X115795Y82916D01*
X115808Y82825D01*
X115818Y82734D01*
X115824Y82642D01*
X115826Y82550D01*
X115824Y82458D01*
X115818Y82366D01*
X115808Y82275D01*
X115795Y82184D01*
X115777Y82094D01*
X115756Y82004D01*
X115731Y81916D01*
X115702Y81828D01*
X115669Y81742D01*
X115633Y81658D01*
X115593Y81575D01*
X115550Y81494D01*
X115504Y81414D01*
X115454Y81337D01*
X115400Y81262D01*
X115344Y81189D01*
X115285Y81119D01*
X115222Y81052D01*
X115157Y80987D01*
X115089Y80925D01*
X115019Y80866D01*
X114946Y80809D01*
X114871Y80757D01*
X114793Y80707D01*
X114714Y80660D01*
X114632Y80618D01*
X114549Y80578D01*
X114465Y80542D01*
X114378Y80510D01*
X114291Y80482D01*
X114254Y81798D01*
X114300Y81837D01*
X114343Y81878D01*
X114384Y81921D01*
X114422Y81968D01*
X114457Y82016D01*
X114488Y82066D01*
X114517Y82119D01*
X114542Y82173D01*
X114564Y82228D01*
X114583Y82285D01*
X114597Y82343D01*
X114608Y82401D01*
X114616Y82461D01*
X114620Y82520D01*
X114620Y82580D01*
X114616Y82639D01*
X114608Y82699D01*
X114597Y82757D01*
X114583Y82815D01*
X114564Y82872D01*
X114542Y82927D01*
X114517Y82981D01*
X114488Y83034D01*
X114457Y83084D01*
X114422Y83132D01*
X114384Y83179D01*
X114343Y83222D01*
X114300Y83263D01*
X114254Y83302D01*
X107950Y61597D02*
X106043Y59690D01*
X104137Y59690D01*
X102230Y61597D01*
X102230Y71130D01*
X100324Y71130D02*
X104137Y71130D01*
X96256Y69223D02*
X94349Y71130D01*
X90536Y71130D01*
X88630Y69223D01*
X88630Y67317D01*
X90536Y65410D01*
X92443Y65410D01*
X90536Y65410D02*
X88630Y63503D01*
X88630Y61597D01*
X90536Y59690D01*
X94349Y59690D01*
X96256Y61597D01*
D12*
X735330Y1149985D02*
X763270Y1149985D01*
X765810Y1132205D02*
X765808Y1132105D01*
X765802Y1132006D01*
X765792Y1131906D01*
X765779Y1131808D01*
X765761Y1131709D01*
X765740Y1131612D01*
X765715Y1131516D01*
X765686Y1131420D01*
X765653Y1131326D01*
X765617Y1131233D01*
X765577Y1131142D01*
X765533Y1131052D01*
X765486Y1130964D01*
X765436Y1130878D01*
X765382Y1130794D01*
X765325Y1130712D01*
X765265Y1130633D01*
X765201Y1130555D01*
X765135Y1130481D01*
X765066Y1130409D01*
X764994Y1130340D01*
X764920Y1130274D01*
X764842Y1130210D01*
X764763Y1130150D01*
X764681Y1130093D01*
X764597Y1130039D01*
X764511Y1129989D01*
X764423Y1129942D01*
X764333Y1129898D01*
X764242Y1129858D01*
X764149Y1129822D01*
X764055Y1129789D01*
X763959Y1129760D01*
X763863Y1129735D01*
X763766Y1129714D01*
X763667Y1129696D01*
X763569Y1129683D01*
X763469Y1129673D01*
X763370Y1129667D01*
X763270Y1129665D01*
X735330Y1129665D02*
X735230Y1129667D01*
X735131Y1129673D01*
X735031Y1129683D01*
X734933Y1129696D01*
X734834Y1129714D01*
X734737Y1129735D01*
X734641Y1129760D01*
X734545Y1129789D01*
X734451Y1129822D01*
X734358Y1129858D01*
X734267Y1129898D01*
X734177Y1129942D01*
X734089Y1129989D01*
X734003Y1130039D01*
X733919Y1130093D01*
X733837Y1130150D01*
X733758Y1130210D01*
X733680Y1130274D01*
X733606Y1130340D01*
X733534Y1130409D01*
X733465Y1130481D01*
X733399Y1130555D01*
X733335Y1130633D01*
X733275Y1130712D01*
X733218Y1130794D01*
X733164Y1130878D01*
X733114Y1130964D01*
X733067Y1131052D01*
X733023Y1131142D01*
X732983Y1131233D01*
X732947Y1131326D01*
X732914Y1131420D01*
X732885Y1131516D01*
X732860Y1131612D01*
X732839Y1131709D01*
X732821Y1131808D01*
X732808Y1131906D01*
X732798Y1132006D01*
X732792Y1132105D01*
X732790Y1132205D01*
X732790Y1147445D02*
X732792Y1147545D01*
X732798Y1147644D01*
X732808Y1147744D01*
X732821Y1147842D01*
X732839Y1147941D01*
X732860Y1148038D01*
X732885Y1148134D01*
X732914Y1148230D01*
X732947Y1148324D01*
X732983Y1148417D01*
X733023Y1148508D01*
X733067Y1148598D01*
X733114Y1148686D01*
X733164Y1148772D01*
X733218Y1148856D01*
X733275Y1148938D01*
X733335Y1149017D01*
X733399Y1149095D01*
X733465Y1149169D01*
X733534Y1149241D01*
X733606Y1149310D01*
X733680Y1149376D01*
X733758Y1149440D01*
X733837Y1149500D01*
X733919Y1149557D01*
X734003Y1149611D01*
X734089Y1149661D01*
X734177Y1149708D01*
X734267Y1149752D01*
X734358Y1149792D01*
X734451Y1149828D01*
X734545Y1149861D01*
X734641Y1149890D01*
X734737Y1149915D01*
X734834Y1149936D01*
X734933Y1149954D01*
X735031Y1149967D01*
X735131Y1149977D01*
X735230Y1149983D01*
X735330Y1149985D01*
X763270Y1149985D02*
X763370Y1149983D01*
X763469Y1149977D01*
X763569Y1149967D01*
X763667Y1149954D01*
X763766Y1149936D01*
X763863Y1149915D01*
X763959Y1149890D01*
X764055Y1149861D01*
X764149Y1149828D01*
X764242Y1149792D01*
X764333Y1149752D01*
X764423Y1149708D01*
X764511Y1149661D01*
X764597Y1149611D01*
X764681Y1149557D01*
X764763Y1149500D01*
X764842Y1149440D01*
X764920Y1149376D01*
X764994Y1149310D01*
X765066Y1149241D01*
X765135Y1149169D01*
X765201Y1149095D01*
X765265Y1149017D01*
X765325Y1148938D01*
X765382Y1148856D01*
X765436Y1148772D01*
X765486Y1148686D01*
X765533Y1148598D01*
X765577Y1148508D01*
X765617Y1148417D01*
X765653Y1148324D01*
X765686Y1148230D01*
X765715Y1148134D01*
X765740Y1148038D01*
X765761Y1147941D01*
X765779Y1147842D01*
X765792Y1147744D01*
X765802Y1147644D01*
X765808Y1147545D01*
X765810Y1147445D01*
X765810Y1132205D01*
X732790Y1132205D02*
X732790Y1147445D01*
X735330Y1129665D02*
X763270Y1129665D01*
X764540Y1139825D02*
X759460Y1139825D01*
X739140Y1139825D02*
X734060Y1139825D01*
D13*
X746126Y1146781D02*
X746759Y1139825D01*
X746759Y1139825D01*
X746126Y1132869D01*
X745956Y1132886D01*
X745786Y1132908D01*
X745618Y1132934D01*
X745449Y1132964D01*
X745282Y1132998D01*
X745115Y1133036D01*
X744950Y1133079D01*
X744785Y1133125D01*
X744622Y1133175D01*
X744460Y1133229D01*
X744299Y1133288D01*
X744140Y1133350D01*
X743983Y1133416D01*
X743827Y1133486D01*
X743673Y1133559D01*
X743520Y1133637D01*
X743370Y1133718D01*
X743222Y1133803D01*
X743075Y1133891D01*
X742931Y1133983D01*
X742790Y1134078D01*
X742650Y1134177D01*
X742513Y1134279D01*
X742379Y1134385D01*
X742247Y1134494D01*
X742118Y1134606D01*
X741992Y1134721D01*
X741868Y1134839D01*
X741748Y1134960D01*
X741630Y1135084D01*
X741516Y1135211D01*
X741405Y1135340D01*
X741297Y1135473D01*
X741192Y1135608D01*
X741090Y1135745D01*
X740992Y1135885D01*
X740898Y1136027D01*
X740806Y1136172D01*
X740719Y1136319D01*
X740635Y1136467D01*
X740555Y1136618D01*
X740478Y1136771D01*
X740405Y1136925D01*
X740336Y1137082D01*
X740271Y1137240D01*
X740210Y1137399D01*
X740152Y1137560D01*
X740099Y1137722D01*
X740050Y1137886D01*
X740004Y1138051D01*
X739963Y1138216D01*
X739925Y1138383D01*
X739892Y1138551D01*
X739863Y1138719D01*
X739838Y1138888D01*
X739817Y1139058D01*
X739801Y1139228D01*
X739788Y1139398D01*
X739780Y1139569D01*
X739776Y1139740D01*
X739776Y1139910D01*
X739780Y1140081D01*
X739788Y1140252D01*
X739801Y1140422D01*
X739817Y1140592D01*
X739838Y1140762D01*
X739863Y1140931D01*
X739892Y1141099D01*
X739925Y1141267D01*
X739963Y1141434D01*
X740004Y1141599D01*
X740050Y1141764D01*
X740099Y1141928D01*
X740152Y1142090D01*
X740210Y1142251D01*
X740271Y1142410D01*
X740336Y1142568D01*
X740405Y1142725D01*
X740478Y1142879D01*
X740555Y1143032D01*
X740635Y1143183D01*
X740719Y1143331D01*
X740806Y1143478D01*
X740898Y1143623D01*
X740992Y1143765D01*
X741090Y1143905D01*
X741192Y1144042D01*
X741297Y1144177D01*
X741405Y1144310D01*
X741516Y1144439D01*
X741630Y1144566D01*
X741748Y1144690D01*
X741868Y1144811D01*
X741992Y1144929D01*
X742118Y1145044D01*
X742247Y1145156D01*
X742379Y1145265D01*
X742513Y1145371D01*
X742650Y1145473D01*
X742790Y1145572D01*
X742931Y1145667D01*
X743075Y1145759D01*
X743222Y1145847D01*
X743370Y1145932D01*
X743520Y1146013D01*
X743673Y1146091D01*
X743827Y1146164D01*
X743983Y1146234D01*
X744140Y1146300D01*
X744299Y1146362D01*
X744460Y1146421D01*
X744622Y1146475D01*
X744785Y1146525D01*
X744950Y1146571D01*
X745115Y1146614D01*
X745282Y1146652D01*
X745449Y1146686D01*
X745618Y1146716D01*
X745786Y1146742D01*
X745956Y1146764D01*
X746126Y1146781D01*
X746126Y1145569D01*
X745977Y1145551D01*
X745828Y1145528D01*
X745679Y1145502D01*
X745531Y1145472D01*
X745385Y1145438D01*
X745239Y1145400D01*
X745094Y1145359D01*
X744950Y1145313D01*
X744807Y1145264D01*
X744666Y1145211D01*
X744526Y1145155D01*
X744388Y1145095D01*
X744251Y1145031D01*
X744116Y1144964D01*
X743983Y1144893D01*
X743852Y1144819D01*
X743723Y1144742D01*
X743596Y1144661D01*
X743471Y1144576D01*
X743348Y1144489D01*
X743227Y1144398D01*
X743109Y1144305D01*
X742993Y1144208D01*
X742880Y1144108D01*
X742770Y1144006D01*
X742662Y1143900D01*
X742557Y1143792D01*
X742455Y1143681D01*
X742356Y1143567D01*
X742260Y1143451D01*
X742167Y1143332D01*
X742077Y1143211D01*
X741990Y1143088D01*
X741907Y1142963D01*
X741827Y1142835D01*
X741750Y1142705D01*
X741676Y1142574D01*
X741607Y1142440D01*
X741540Y1142305D01*
X741477Y1142168D01*
X741418Y1142029D01*
X741362Y1141889D01*
X741310Y1141748D01*
X741262Y1141605D01*
X741217Y1141461D01*
X741177Y1141316D01*
X741140Y1141169D01*
X741106Y1141022D01*
X741077Y1140874D01*
X741052Y1140726D01*
X741030Y1140577D01*
X741012Y1140427D01*
X740999Y1140277D01*
X740989Y1140126D01*
X740983Y1139976D01*
X740981Y1139825D01*
X740983Y1139674D01*
X740989Y1139524D01*
X740999Y1139373D01*
X741012Y1139223D01*
X741030Y1139073D01*
X741052Y1138924D01*
X741077Y1138776D01*
X741106Y1138628D01*
X741140Y1138481D01*
X741177Y1138334D01*
X741217Y1138189D01*
X741262Y1138045D01*
X741310Y1137902D01*
X741362Y1137761D01*
X741418Y1137621D01*
X741477Y1137482D01*
X741540Y1137345D01*
X741607Y1137210D01*
X741676Y1137076D01*
X741750Y1136945D01*
X741827Y1136815D01*
X741907Y1136687D01*
X741990Y1136562D01*
X742077Y1136439D01*
X742167Y1136318D01*
X742260Y1136199D01*
X742356Y1136083D01*
X742455Y1135969D01*
X742557Y1135858D01*
X742662Y1135750D01*
X742770Y1135644D01*
X742880Y1135542D01*
X742993Y1135442D01*
X743109Y1135345D01*
X743227Y1135252D01*
X743348Y1135161D01*
X743471Y1135074D01*
X743596Y1134989D01*
X743723Y1134908D01*
X743852Y1134831D01*
X743983Y1134757D01*
X744116Y1134686D01*
X744251Y1134619D01*
X744388Y1134555D01*
X744526Y1134495D01*
X744666Y1134439D01*
X744807Y1134386D01*
X744950Y1134337D01*
X745094Y1134291D01*
X745239Y1134250D01*
X745385Y1134212D01*
X745531Y1134178D01*
X745679Y1134148D01*
X745828Y1134122D01*
X745977Y1134099D01*
X746126Y1134081D01*
X746127Y1135296D01*
X745995Y1135316D01*
X745864Y1135341D01*
X745733Y1135369D01*
X745603Y1135401D01*
X745474Y1135436D01*
X745347Y1135476D01*
X745220Y1135519D01*
X745095Y1135566D01*
X744971Y1135616D01*
X744849Y1135670D01*
X744729Y1135728D01*
X744610Y1135789D01*
X744493Y1135854D01*
X744378Y1135922D01*
X744265Y1135993D01*
X744154Y1136067D01*
X744045Y1136145D01*
X743939Y1136226D01*
X743835Y1136310D01*
X743733Y1136397D01*
X743634Y1136487D01*
X743538Y1136580D01*
X743445Y1136675D01*
X743354Y1136773D01*
X743266Y1136874D01*
X743182Y1136978D01*
X743100Y1137083D01*
X743021Y1137191D01*
X742946Y1137302D01*
X742874Y1137414D01*
X742805Y1137529D01*
X742740Y1137645D01*
X742678Y1137764D01*
X742619Y1137884D01*
X742564Y1138006D01*
X742513Y1138129D01*
X742465Y1138254D01*
X742421Y1138380D01*
X742381Y1138508D01*
X742344Y1138636D01*
X742311Y1138766D01*
X742282Y1138896D01*
X742257Y1139027D01*
X742236Y1139159D01*
X742218Y1139292D01*
X742205Y1139425D01*
X742195Y1139558D01*
X742189Y1139691D01*
X742187Y1139825D01*
X742189Y1139959D01*
X742195Y1140092D01*
X742205Y1140225D01*
X742218Y1140358D01*
X742236Y1140491D01*
X742257Y1140623D01*
X742282Y1140754D01*
X742311Y1140884D01*
X742344Y1141014D01*
X742381Y1141142D01*
X742421Y1141270D01*
X742465Y1141396D01*
X742513Y1141521D01*
X742564Y1141644D01*
X742619Y1141766D01*
X742678Y1141886D01*
X742740Y1142005D01*
X742805Y1142121D01*
X742874Y1142236D01*
X742946Y1142348D01*
X743021Y1142459D01*
X743100Y1142567D01*
X743182Y1142672D01*
X743266Y1142776D01*
X743354Y1142877D01*
X743445Y1142975D01*
X743538Y1143070D01*
X743634Y1143163D01*
X743733Y1143253D01*
X743835Y1143340D01*
X743939Y1143424D01*
X744045Y1143505D01*
X744154Y1143583D01*
X744265Y1143657D01*
X744378Y1143728D01*
X744493Y1143796D01*
X744610Y1143861D01*
X744729Y1143922D01*
X744849Y1143980D01*
X744971Y1144034D01*
X745095Y1144084D01*
X745220Y1144131D01*
X745347Y1144174D01*
X745474Y1144214D01*
X745603Y1144249D01*
X745733Y1144281D01*
X745864Y1144309D01*
X745995Y1144334D01*
X746127Y1144354D01*
X746129Y1143132D01*
X746016Y1143109D01*
X745905Y1143082D01*
X745794Y1143050D01*
X745685Y1143016D01*
X745576Y1142977D01*
X745469Y1142935D01*
X745364Y1142889D01*
X745260Y1142840D01*
X745158Y1142787D01*
X745058Y1142730D01*
X744960Y1142671D01*
X744864Y1142607D01*
X744770Y1142541D01*
X744679Y1142472D01*
X744590Y1142399D01*
X744503Y1142324D01*
X744419Y1142245D01*
X744338Y1142164D01*
X744259Y1142080D01*
X744184Y1141993D01*
X744111Y1141904D01*
X744042Y1141812D01*
X743976Y1141718D01*
X743913Y1141622D01*
X743853Y1141524D01*
X743797Y1141424D01*
X743744Y1141322D01*
X743695Y1141218D01*
X743649Y1141113D01*
X743607Y1141006D01*
X743568Y1140898D01*
X743534Y1140788D01*
X743503Y1140677D01*
X743476Y1140566D01*
X743452Y1140453D01*
X743433Y1140340D01*
X743417Y1140226D01*
X743405Y1140112D01*
X743397Y1139997D01*
X743393Y1139882D01*
X743393Y1139768D01*
X743397Y1139653D01*
X743405Y1139538D01*
X743417Y1139424D01*
X743433Y1139310D01*
X743452Y1139197D01*
X743476Y1139084D01*
X743503Y1138973D01*
X743534Y1138862D01*
X743568Y1138752D01*
X743607Y1138644D01*
X743649Y1138537D01*
X743695Y1138432D01*
X743744Y1138328D01*
X743797Y1138226D01*
X743853Y1138126D01*
X743913Y1138028D01*
X743976Y1137932D01*
X744042Y1137838D01*
X744111Y1137746D01*
X744184Y1137657D01*
X744259Y1137570D01*
X744338Y1137486D01*
X744419Y1137405D01*
X744503Y1137326D01*
X744590Y1137251D01*
X744679Y1137178D01*
X744770Y1137109D01*
X744864Y1137043D01*
X744960Y1136979D01*
X745058Y1136920D01*
X745158Y1136863D01*
X745260Y1136810D01*
X745364Y1136761D01*
X745469Y1136715D01*
X745576Y1136673D01*
X745685Y1136634D01*
X745794Y1136600D01*
X745905Y1136568D01*
X746016Y1136541D01*
X746129Y1136518D01*
X746134Y1137757D01*
X746047Y1137785D01*
X745960Y1137817D01*
X745876Y1137853D01*
X745793Y1137893D01*
X745711Y1137935D01*
X745632Y1137982D01*
X745554Y1138032D01*
X745479Y1138084D01*
X745406Y1138141D01*
X745336Y1138200D01*
X745268Y1138262D01*
X745203Y1138327D01*
X745140Y1138394D01*
X745081Y1138464D01*
X745025Y1138537D01*
X744971Y1138612D01*
X744921Y1138689D01*
X744875Y1138769D01*
X744832Y1138850D01*
X744792Y1138933D01*
X744756Y1139017D01*
X744723Y1139103D01*
X744694Y1139191D01*
X744669Y1139279D01*
X744648Y1139369D01*
X744630Y1139459D01*
X744617Y1139550D01*
X744607Y1139641D01*
X744601Y1139733D01*
X744599Y1139825D01*
X744601Y1139917D01*
X744607Y1140009D01*
X744617Y1140100D01*
X744630Y1140191D01*
X744648Y1140281D01*
X744669Y1140371D01*
X744694Y1140459D01*
X744723Y1140547D01*
X744756Y1140633D01*
X744792Y1140717D01*
X744832Y1140800D01*
X744875Y1140881D01*
X744921Y1140961D01*
X744971Y1141038D01*
X745025Y1141113D01*
X745081Y1141186D01*
X745140Y1141256D01*
X745203Y1141323D01*
X745268Y1141388D01*
X745336Y1141450D01*
X745406Y1141509D01*
X745479Y1141566D01*
X745554Y1141618D01*
X745632Y1141668D01*
X745711Y1141715D01*
X745793Y1141757D01*
X745876Y1141797D01*
X745960Y1141833D01*
X746047Y1141865D01*
X746134Y1141893D01*
X746171Y1140577D01*
X746125Y1140538D01*
X746082Y1140497D01*
X746041Y1140454D01*
X746003Y1140407D01*
X745968Y1140359D01*
X745937Y1140309D01*
X745908Y1140256D01*
X745883Y1140202D01*
X745861Y1140147D01*
X745842Y1140090D01*
X745828Y1140032D01*
X745817Y1139974D01*
X745809Y1139914D01*
X745805Y1139855D01*
X745805Y1139795D01*
X745809Y1139736D01*
X745817Y1139676D01*
X745828Y1139618D01*
X745842Y1139560D01*
X745861Y1139503D01*
X745883Y1139448D01*
X745908Y1139394D01*
X745937Y1139341D01*
X745968Y1139291D01*
X746003Y1139243D01*
X746041Y1139196D01*
X746082Y1139153D01*
X746125Y1139112D01*
X746171Y1139073D01*
X752474Y1132869D02*
X751841Y1139825D01*
X751841Y1139825D01*
X752474Y1146781D01*
X752644Y1146764D01*
X752814Y1146742D01*
X752982Y1146716D01*
X753151Y1146686D01*
X753318Y1146652D01*
X753485Y1146614D01*
X753650Y1146571D01*
X753815Y1146525D01*
X753978Y1146475D01*
X754140Y1146421D01*
X754301Y1146362D01*
X754460Y1146300D01*
X754617Y1146234D01*
X754773Y1146164D01*
X754927Y1146091D01*
X755080Y1146013D01*
X755230Y1145932D01*
X755378Y1145847D01*
X755525Y1145759D01*
X755669Y1145667D01*
X755810Y1145572D01*
X755950Y1145473D01*
X756087Y1145371D01*
X756221Y1145265D01*
X756353Y1145156D01*
X756482Y1145044D01*
X756608Y1144929D01*
X756732Y1144811D01*
X756852Y1144690D01*
X756970Y1144566D01*
X757084Y1144439D01*
X757195Y1144310D01*
X757303Y1144177D01*
X757408Y1144042D01*
X757510Y1143905D01*
X757608Y1143765D01*
X757702Y1143623D01*
X757794Y1143478D01*
X757881Y1143331D01*
X757965Y1143183D01*
X758045Y1143032D01*
X758122Y1142879D01*
X758195Y1142725D01*
X758264Y1142568D01*
X758329Y1142410D01*
X758390Y1142251D01*
X758448Y1142090D01*
X758501Y1141928D01*
X758550Y1141764D01*
X758596Y1141599D01*
X758637Y1141434D01*
X758675Y1141267D01*
X758708Y1141099D01*
X758737Y1140931D01*
X758762Y1140762D01*
X758783Y1140592D01*
X758799Y1140422D01*
X758812Y1140252D01*
X758820Y1140081D01*
X758824Y1139910D01*
X758824Y1139740D01*
X758820Y1139569D01*
X758812Y1139398D01*
X758799Y1139228D01*
X758783Y1139058D01*
X758762Y1138888D01*
X758737Y1138719D01*
X758708Y1138551D01*
X758675Y1138383D01*
X758637Y1138216D01*
X758596Y1138051D01*
X758550Y1137886D01*
X758501Y1137722D01*
X758448Y1137560D01*
X758390Y1137399D01*
X758329Y1137240D01*
X758264Y1137082D01*
X758195Y1136925D01*
X758122Y1136771D01*
X758045Y1136618D01*
X757965Y1136467D01*
X757881Y1136319D01*
X757794Y1136172D01*
X757702Y1136027D01*
X757608Y1135885D01*
X757510Y1135745D01*
X757408Y1135608D01*
X757303Y1135473D01*
X757195Y1135340D01*
X757084Y1135211D01*
X756970Y1135084D01*
X756852Y1134960D01*
X756732Y1134839D01*
X756608Y1134721D01*
X756482Y1134606D01*
X756353Y1134494D01*
X756221Y1134385D01*
X756087Y1134279D01*
X755950Y1134177D01*
X755810Y1134078D01*
X755669Y1133983D01*
X755525Y1133891D01*
X755378Y1133803D01*
X755230Y1133718D01*
X755080Y1133637D01*
X754927Y1133559D01*
X754773Y1133486D01*
X754617Y1133416D01*
X754460Y1133350D01*
X754301Y1133288D01*
X754140Y1133229D01*
X753978Y1133175D01*
X753815Y1133125D01*
X753650Y1133079D01*
X753485Y1133036D01*
X753318Y1132998D01*
X753151Y1132964D01*
X752982Y1132934D01*
X752814Y1132908D01*
X752644Y1132886D01*
X752474Y1132869D01*
X752474Y1134081D01*
X752623Y1134099D01*
X752772Y1134122D01*
X752921Y1134148D01*
X753069Y1134178D01*
X753215Y1134212D01*
X753361Y1134250D01*
X753506Y1134291D01*
X753650Y1134337D01*
X753793Y1134386D01*
X753934Y1134439D01*
X754074Y1134495D01*
X754212Y1134555D01*
X754349Y1134619D01*
X754484Y1134686D01*
X754617Y1134757D01*
X754748Y1134831D01*
X754877Y1134908D01*
X755004Y1134989D01*
X755129Y1135074D01*
X755252Y1135161D01*
X755373Y1135252D01*
X755491Y1135345D01*
X755607Y1135442D01*
X755720Y1135542D01*
X755830Y1135644D01*
X755938Y1135750D01*
X756043Y1135858D01*
X756145Y1135969D01*
X756244Y1136083D01*
X756340Y1136199D01*
X756433Y1136318D01*
X756523Y1136439D01*
X756610Y1136562D01*
X756693Y1136687D01*
X756773Y1136815D01*
X756850Y1136945D01*
X756924Y1137076D01*
X756993Y1137210D01*
X757060Y1137345D01*
X757123Y1137482D01*
X757182Y1137621D01*
X757238Y1137761D01*
X757290Y1137902D01*
X757338Y1138045D01*
X757383Y1138189D01*
X757423Y1138334D01*
X757460Y1138481D01*
X757494Y1138628D01*
X757523Y1138776D01*
X757548Y1138924D01*
X757570Y1139073D01*
X757588Y1139223D01*
X757601Y1139373D01*
X757611Y1139524D01*
X757617Y1139674D01*
X757619Y1139825D01*
X757617Y1139976D01*
X757611Y1140126D01*
X757601Y1140277D01*
X757588Y1140427D01*
X757570Y1140577D01*
X757548Y1140726D01*
X757523Y1140874D01*
X757494Y1141022D01*
X757460Y1141169D01*
X757423Y1141316D01*
X757383Y1141461D01*
X757338Y1141605D01*
X757290Y1141748D01*
X757238Y1141889D01*
X757182Y1142029D01*
X757123Y1142168D01*
X757060Y1142305D01*
X756993Y1142440D01*
X756924Y1142574D01*
X756850Y1142705D01*
X756773Y1142835D01*
X756693Y1142963D01*
X756610Y1143088D01*
X756523Y1143211D01*
X756433Y1143332D01*
X756340Y1143451D01*
X756244Y1143567D01*
X756145Y1143681D01*
X756043Y1143792D01*
X755938Y1143900D01*
X755830Y1144006D01*
X755720Y1144108D01*
X755607Y1144208D01*
X755491Y1144305D01*
X755373Y1144398D01*
X755252Y1144489D01*
X755129Y1144576D01*
X755004Y1144661D01*
X754877Y1144742D01*
X754748Y1144819D01*
X754617Y1144893D01*
X754484Y1144964D01*
X754349Y1145031D01*
X754212Y1145095D01*
X754074Y1145155D01*
X753934Y1145211D01*
X753793Y1145264D01*
X753650Y1145313D01*
X753506Y1145359D01*
X753361Y1145400D01*
X753215Y1145438D01*
X753069Y1145472D01*
X752921Y1145502D01*
X752772Y1145528D01*
X752623Y1145551D01*
X752474Y1145569D01*
X752473Y1144354D01*
X752605Y1144334D01*
X752736Y1144309D01*
X752867Y1144281D01*
X752997Y1144249D01*
X753126Y1144214D01*
X753253Y1144174D01*
X753380Y1144131D01*
X753505Y1144084D01*
X753629Y1144034D01*
X753751Y1143980D01*
X753871Y1143922D01*
X753990Y1143861D01*
X754107Y1143796D01*
X754222Y1143728D01*
X754335Y1143657D01*
X754446Y1143583D01*
X754555Y1143505D01*
X754661Y1143424D01*
X754765Y1143340D01*
X754867Y1143253D01*
X754966Y1143163D01*
X755062Y1143070D01*
X755155Y1142975D01*
X755246Y1142877D01*
X755334Y1142776D01*
X755418Y1142672D01*
X755500Y1142567D01*
X755579Y1142459D01*
X755654Y1142348D01*
X755726Y1142236D01*
X755795Y1142121D01*
X755860Y1142005D01*
X755922Y1141886D01*
X755981Y1141766D01*
X756036Y1141644D01*
X756087Y1141521D01*
X756135Y1141396D01*
X756179Y1141270D01*
X756219Y1141142D01*
X756256Y1141014D01*
X756289Y1140884D01*
X756318Y1140754D01*
X756343Y1140623D01*
X756364Y1140491D01*
X756382Y1140358D01*
X756395Y1140225D01*
X756405Y1140092D01*
X756411Y1139959D01*
X756413Y1139825D01*
X756411Y1139691D01*
X756405Y1139558D01*
X756395Y1139425D01*
X756382Y1139292D01*
X756364Y1139159D01*
X756343Y1139027D01*
X756318Y1138896D01*
X756289Y1138766D01*
X756256Y1138636D01*
X756219Y1138508D01*
X756179Y1138380D01*
X756135Y1138254D01*
X756087Y1138129D01*
X756036Y1138006D01*
X755981Y1137884D01*
X755922Y1137764D01*
X755860Y1137645D01*
X755795Y1137529D01*
X755726Y1137414D01*
X755654Y1137302D01*
X755579Y1137191D01*
X755500Y1137083D01*
X755418Y1136978D01*
X755334Y1136874D01*
X755246Y1136773D01*
X755155Y1136675D01*
X755062Y1136580D01*
X754966Y1136487D01*
X754867Y1136397D01*
X754765Y1136310D01*
X754661Y1136226D01*
X754555Y1136145D01*
X754446Y1136067D01*
X754335Y1135993D01*
X754222Y1135922D01*
X754107Y1135854D01*
X753990Y1135789D01*
X753871Y1135728D01*
X753751Y1135670D01*
X753629Y1135616D01*
X753505Y1135566D01*
X753380Y1135519D01*
X753253Y1135476D01*
X753126Y1135436D01*
X752997Y1135401D01*
X752867Y1135369D01*
X752736Y1135341D01*
X752605Y1135316D01*
X752473Y1135296D01*
X752471Y1136518D01*
X752584Y1136541D01*
X752695Y1136568D01*
X752806Y1136600D01*
X752915Y1136634D01*
X753024Y1136673D01*
X753131Y1136715D01*
X753236Y1136761D01*
X753340Y1136810D01*
X753442Y1136863D01*
X753542Y1136920D01*
X753640Y1136979D01*
X753736Y1137043D01*
X753830Y1137109D01*
X753921Y1137178D01*
X754010Y1137251D01*
X754097Y1137326D01*
X754181Y1137405D01*
X754262Y1137486D01*
X754341Y1137570D01*
X754416Y1137657D01*
X754489Y1137746D01*
X754558Y1137838D01*
X754624Y1137932D01*
X754687Y1138028D01*
X754747Y1138126D01*
X754803Y1138226D01*
X754856Y1138328D01*
X754905Y1138432D01*
X754951Y1138537D01*
X754993Y1138644D01*
X755032Y1138752D01*
X755066Y1138862D01*
X755097Y1138973D01*
X755124Y1139084D01*
X755148Y1139197D01*
X755167Y1139310D01*
X755183Y1139424D01*
X755195Y1139538D01*
X755203Y1139653D01*
X755207Y1139768D01*
X755207Y1139882D01*
X755203Y1139997D01*
X755195Y1140112D01*
X755183Y1140226D01*
X755167Y1140340D01*
X755148Y1140453D01*
X755124Y1140566D01*
X755097Y1140677D01*
X755066Y1140788D01*
X755032Y1140898D01*
X754993Y1141006D01*
X754951Y1141113D01*
X754905Y1141218D01*
X754856Y1141322D01*
X754803Y1141424D01*
X754747Y1141524D01*
X754687Y1141622D01*
X754624Y1141718D01*
X754558Y1141812D01*
X754489Y1141904D01*
X754416Y1141993D01*
X754341Y1142080D01*
X754262Y1142164D01*
X754181Y1142245D01*
X754097Y1142324D01*
X754010Y1142399D01*
X753921Y1142472D01*
X753830Y1142541D01*
X753736Y1142607D01*
X753640Y1142671D01*
X753542Y1142730D01*
X753442Y1142787D01*
X753340Y1142840D01*
X753236Y1142889D01*
X753131Y1142935D01*
X753024Y1142977D01*
X752915Y1143016D01*
X752806Y1143050D01*
X752695Y1143082D01*
X752584Y1143109D01*
X752471Y1143132D01*
X752466Y1141893D01*
X752553Y1141865D01*
X752640Y1141833D01*
X752724Y1141797D01*
X752807Y1141757D01*
X752889Y1141715D01*
X752968Y1141668D01*
X753046Y1141618D01*
X753121Y1141566D01*
X753194Y1141509D01*
X753264Y1141450D01*
X753332Y1141388D01*
X753397Y1141323D01*
X753460Y1141256D01*
X753519Y1141186D01*
X753575Y1141113D01*
X753629Y1141038D01*
X753679Y1140961D01*
X753725Y1140881D01*
X753768Y1140800D01*
X753808Y1140717D01*
X753844Y1140633D01*
X753877Y1140547D01*
X753906Y1140459D01*
X753931Y1140371D01*
X753952Y1140281D01*
X753970Y1140191D01*
X753983Y1140100D01*
X753993Y1140009D01*
X753999Y1139917D01*
X754001Y1139825D01*
X753999Y1139733D01*
X753993Y1139641D01*
X753983Y1139550D01*
X753970Y1139459D01*
X753952Y1139369D01*
X753931Y1139279D01*
X753906Y1139191D01*
X753877Y1139103D01*
X753844Y1139017D01*
X753808Y1138933D01*
X753768Y1138850D01*
X753725Y1138769D01*
X753679Y1138689D01*
X753629Y1138612D01*
X753575Y1138537D01*
X753519Y1138464D01*
X753460Y1138394D01*
X753397Y1138327D01*
X753332Y1138262D01*
X753264Y1138200D01*
X753194Y1138141D01*
X753121Y1138084D01*
X753046Y1138032D01*
X752968Y1137982D01*
X752889Y1137935D01*
X752807Y1137893D01*
X752724Y1137853D01*
X752640Y1137817D01*
X752553Y1137785D01*
X752466Y1137757D01*
X752429Y1139073D01*
X752475Y1139112D01*
X752518Y1139153D01*
X752559Y1139196D01*
X752597Y1139243D01*
X752632Y1139291D01*
X752663Y1139341D01*
X752692Y1139394D01*
X752717Y1139448D01*
X752739Y1139503D01*
X752758Y1139560D01*
X752772Y1139618D01*
X752783Y1139676D01*
X752791Y1139736D01*
X752795Y1139795D01*
X752795Y1139855D01*
X752791Y1139914D01*
X752783Y1139974D01*
X752772Y1140032D01*
X752758Y1140090D01*
X752739Y1140147D01*
X752717Y1140202D01*
X752692Y1140256D01*
X752663Y1140309D01*
X752632Y1140359D01*
X752597Y1140407D01*
X752559Y1140454D01*
X752518Y1140497D01*
X752475Y1140538D01*
X752429Y1140577D01*
X770890Y1129032D02*
X772797Y1127125D01*
X770890Y1129032D02*
X770890Y1130938D01*
X772797Y1132845D01*
X782330Y1132845D01*
X782330Y1130938D02*
X782330Y1134752D01*
X782330Y1144539D02*
X770890Y1144539D01*
X776610Y1138819D02*
X782330Y1144539D01*
X776610Y1146445D02*
X776610Y1138819D01*
D12*
X577215Y1151255D02*
X577215Y1179195D01*
X594995Y1181735D02*
X595095Y1181733D01*
X595194Y1181727D01*
X595294Y1181717D01*
X595392Y1181704D01*
X595491Y1181686D01*
X595588Y1181665D01*
X595684Y1181640D01*
X595780Y1181611D01*
X595874Y1181578D01*
X595967Y1181542D01*
X596058Y1181502D01*
X596148Y1181458D01*
X596236Y1181411D01*
X596322Y1181361D01*
X596406Y1181307D01*
X596488Y1181250D01*
X596567Y1181190D01*
X596645Y1181126D01*
X596719Y1181060D01*
X596791Y1180991D01*
X596860Y1180919D01*
X596926Y1180845D01*
X596990Y1180767D01*
X597050Y1180688D01*
X597107Y1180606D01*
X597161Y1180522D01*
X597211Y1180436D01*
X597258Y1180348D01*
X597302Y1180258D01*
X597342Y1180167D01*
X597378Y1180074D01*
X597411Y1179980D01*
X597440Y1179884D01*
X597465Y1179788D01*
X597486Y1179691D01*
X597504Y1179592D01*
X597517Y1179494D01*
X597527Y1179394D01*
X597533Y1179295D01*
X597535Y1179195D01*
X597535Y1151255D02*
X597533Y1151155D01*
X597527Y1151056D01*
X597517Y1150956D01*
X597504Y1150858D01*
X597486Y1150759D01*
X597465Y1150662D01*
X597440Y1150566D01*
X597411Y1150470D01*
X597378Y1150376D01*
X597342Y1150283D01*
X597302Y1150192D01*
X597258Y1150102D01*
X597211Y1150014D01*
X597161Y1149928D01*
X597107Y1149844D01*
X597050Y1149762D01*
X596990Y1149683D01*
X596926Y1149605D01*
X596860Y1149531D01*
X596791Y1149459D01*
X596719Y1149390D01*
X596645Y1149324D01*
X596567Y1149260D01*
X596488Y1149200D01*
X596406Y1149143D01*
X596322Y1149089D01*
X596236Y1149039D01*
X596148Y1148992D01*
X596058Y1148948D01*
X595967Y1148908D01*
X595874Y1148872D01*
X595780Y1148839D01*
X595684Y1148810D01*
X595588Y1148785D01*
X595491Y1148764D01*
X595392Y1148746D01*
X595294Y1148733D01*
X595194Y1148723D01*
X595095Y1148717D01*
X594995Y1148715D01*
X579755Y1148715D02*
X579655Y1148717D01*
X579556Y1148723D01*
X579456Y1148733D01*
X579358Y1148746D01*
X579259Y1148764D01*
X579162Y1148785D01*
X579066Y1148810D01*
X578970Y1148839D01*
X578876Y1148872D01*
X578783Y1148908D01*
X578692Y1148948D01*
X578602Y1148992D01*
X578514Y1149039D01*
X578428Y1149089D01*
X578344Y1149143D01*
X578262Y1149200D01*
X578183Y1149260D01*
X578105Y1149324D01*
X578031Y1149390D01*
X577959Y1149459D01*
X577890Y1149531D01*
X577824Y1149605D01*
X577760Y1149683D01*
X577700Y1149762D01*
X577643Y1149844D01*
X577589Y1149928D01*
X577539Y1150014D01*
X577492Y1150102D01*
X577448Y1150192D01*
X577408Y1150283D01*
X577372Y1150376D01*
X577339Y1150470D01*
X577310Y1150566D01*
X577285Y1150662D01*
X577264Y1150759D01*
X577246Y1150858D01*
X577233Y1150956D01*
X577223Y1151056D01*
X577217Y1151155D01*
X577215Y1151255D01*
X577215Y1179195D02*
X577217Y1179295D01*
X577223Y1179394D01*
X577233Y1179494D01*
X577246Y1179592D01*
X577264Y1179691D01*
X577285Y1179788D01*
X577310Y1179884D01*
X577339Y1179980D01*
X577372Y1180074D01*
X577408Y1180167D01*
X577448Y1180258D01*
X577492Y1180348D01*
X577539Y1180436D01*
X577589Y1180522D01*
X577643Y1180606D01*
X577700Y1180688D01*
X577760Y1180767D01*
X577824Y1180845D01*
X577890Y1180919D01*
X577959Y1180991D01*
X578031Y1181060D01*
X578105Y1181126D01*
X578183Y1181190D01*
X578262Y1181250D01*
X578344Y1181307D01*
X578428Y1181361D01*
X578514Y1181411D01*
X578602Y1181458D01*
X578692Y1181502D01*
X578783Y1181542D01*
X578876Y1181578D01*
X578970Y1181611D01*
X579066Y1181640D01*
X579162Y1181665D01*
X579259Y1181686D01*
X579358Y1181704D01*
X579456Y1181717D01*
X579556Y1181727D01*
X579655Y1181733D01*
X579755Y1181735D01*
X594995Y1181735D01*
X594995Y1148715D02*
X579755Y1148715D01*
X597535Y1151255D02*
X597535Y1179195D01*
X587375Y1180465D02*
X587375Y1175385D01*
X587375Y1155065D02*
X587375Y1149985D01*
D13*
X580419Y1162051D02*
X587375Y1162684D01*
X587375Y1162684D01*
X594331Y1162051D01*
X594314Y1161881D01*
X594292Y1161711D01*
X594266Y1161543D01*
X594236Y1161374D01*
X594202Y1161207D01*
X594164Y1161040D01*
X594121Y1160875D01*
X594075Y1160710D01*
X594025Y1160547D01*
X593971Y1160385D01*
X593912Y1160224D01*
X593850Y1160065D01*
X593784Y1159908D01*
X593714Y1159752D01*
X593641Y1159598D01*
X593563Y1159445D01*
X593482Y1159295D01*
X593397Y1159147D01*
X593309Y1159000D01*
X593217Y1158856D01*
X593122Y1158715D01*
X593023Y1158575D01*
X592921Y1158438D01*
X592815Y1158304D01*
X592706Y1158172D01*
X592594Y1158043D01*
X592479Y1157917D01*
X592361Y1157793D01*
X592240Y1157673D01*
X592116Y1157555D01*
X591989Y1157441D01*
X591860Y1157330D01*
X591727Y1157222D01*
X591592Y1157117D01*
X591455Y1157015D01*
X591315Y1156917D01*
X591173Y1156823D01*
X591028Y1156731D01*
X590881Y1156644D01*
X590733Y1156560D01*
X590582Y1156480D01*
X590429Y1156403D01*
X590275Y1156330D01*
X590118Y1156261D01*
X589960Y1156196D01*
X589801Y1156135D01*
X589640Y1156077D01*
X589478Y1156024D01*
X589314Y1155975D01*
X589149Y1155929D01*
X588984Y1155888D01*
X588817Y1155850D01*
X588649Y1155817D01*
X588481Y1155788D01*
X588312Y1155763D01*
X588142Y1155742D01*
X587972Y1155726D01*
X587802Y1155713D01*
X587631Y1155705D01*
X587460Y1155701D01*
X587290Y1155701D01*
X587119Y1155705D01*
X586948Y1155713D01*
X586778Y1155726D01*
X586608Y1155742D01*
X586438Y1155763D01*
X586269Y1155788D01*
X586101Y1155817D01*
X585933Y1155850D01*
X585766Y1155888D01*
X585601Y1155929D01*
X585436Y1155975D01*
X585272Y1156024D01*
X585110Y1156077D01*
X584949Y1156135D01*
X584790Y1156196D01*
X584632Y1156261D01*
X584475Y1156330D01*
X584321Y1156403D01*
X584168Y1156480D01*
X584017Y1156560D01*
X583869Y1156644D01*
X583722Y1156731D01*
X583577Y1156823D01*
X583435Y1156917D01*
X583295Y1157015D01*
X583158Y1157117D01*
X583023Y1157222D01*
X582890Y1157330D01*
X582761Y1157441D01*
X582634Y1157555D01*
X582510Y1157673D01*
X582389Y1157793D01*
X582271Y1157917D01*
X582156Y1158043D01*
X582044Y1158172D01*
X581935Y1158304D01*
X581829Y1158438D01*
X581727Y1158575D01*
X581628Y1158715D01*
X581533Y1158856D01*
X581441Y1159000D01*
X581353Y1159147D01*
X581268Y1159295D01*
X581187Y1159445D01*
X581109Y1159598D01*
X581036Y1159752D01*
X580966Y1159908D01*
X580900Y1160065D01*
X580838Y1160224D01*
X580779Y1160385D01*
X580725Y1160547D01*
X580675Y1160710D01*
X580629Y1160875D01*
X580586Y1161040D01*
X580548Y1161207D01*
X580514Y1161374D01*
X580484Y1161543D01*
X580458Y1161711D01*
X580436Y1161881D01*
X580419Y1162051D01*
X581631Y1162051D01*
X581649Y1161902D01*
X581672Y1161753D01*
X581698Y1161604D01*
X581728Y1161456D01*
X581762Y1161310D01*
X581800Y1161164D01*
X581841Y1161019D01*
X581887Y1160875D01*
X581936Y1160732D01*
X581989Y1160591D01*
X582045Y1160451D01*
X582105Y1160313D01*
X582169Y1160176D01*
X582236Y1160041D01*
X582307Y1159908D01*
X582381Y1159777D01*
X582458Y1159648D01*
X582539Y1159521D01*
X582624Y1159396D01*
X582711Y1159273D01*
X582802Y1159152D01*
X582895Y1159034D01*
X582992Y1158918D01*
X583092Y1158805D01*
X583194Y1158695D01*
X583300Y1158587D01*
X583408Y1158482D01*
X583519Y1158380D01*
X583633Y1158281D01*
X583749Y1158185D01*
X583868Y1158092D01*
X583989Y1158002D01*
X584112Y1157915D01*
X584237Y1157832D01*
X584365Y1157752D01*
X584495Y1157675D01*
X584626Y1157601D01*
X584760Y1157532D01*
X584895Y1157465D01*
X585032Y1157402D01*
X585171Y1157343D01*
X585311Y1157287D01*
X585452Y1157235D01*
X585595Y1157187D01*
X585739Y1157142D01*
X585884Y1157102D01*
X586031Y1157065D01*
X586178Y1157031D01*
X586326Y1157002D01*
X586474Y1156977D01*
X586623Y1156955D01*
X586773Y1156937D01*
X586923Y1156924D01*
X587074Y1156914D01*
X587224Y1156908D01*
X587375Y1156906D01*
X587526Y1156908D01*
X587676Y1156914D01*
X587827Y1156924D01*
X587977Y1156937D01*
X588127Y1156955D01*
X588276Y1156977D01*
X588424Y1157002D01*
X588572Y1157031D01*
X588719Y1157065D01*
X588866Y1157102D01*
X589011Y1157142D01*
X589155Y1157187D01*
X589298Y1157235D01*
X589439Y1157287D01*
X589579Y1157343D01*
X589718Y1157402D01*
X589855Y1157465D01*
X589990Y1157532D01*
X590124Y1157601D01*
X590255Y1157675D01*
X590385Y1157752D01*
X590513Y1157832D01*
X590638Y1157915D01*
X590761Y1158002D01*
X590882Y1158092D01*
X591001Y1158185D01*
X591117Y1158281D01*
X591231Y1158380D01*
X591342Y1158482D01*
X591450Y1158587D01*
X591556Y1158695D01*
X591658Y1158805D01*
X591758Y1158918D01*
X591855Y1159034D01*
X591948Y1159152D01*
X592039Y1159273D01*
X592126Y1159396D01*
X592211Y1159521D01*
X592292Y1159648D01*
X592369Y1159777D01*
X592443Y1159908D01*
X592514Y1160041D01*
X592581Y1160176D01*
X592645Y1160313D01*
X592705Y1160451D01*
X592761Y1160591D01*
X592814Y1160732D01*
X592863Y1160875D01*
X592909Y1161019D01*
X592950Y1161164D01*
X592988Y1161310D01*
X593022Y1161456D01*
X593052Y1161604D01*
X593078Y1161753D01*
X593101Y1161902D01*
X593119Y1162051D01*
X591904Y1162052D01*
X591884Y1161920D01*
X591859Y1161789D01*
X591831Y1161658D01*
X591799Y1161528D01*
X591764Y1161399D01*
X591724Y1161272D01*
X591681Y1161145D01*
X591634Y1161020D01*
X591584Y1160896D01*
X591530Y1160774D01*
X591472Y1160654D01*
X591411Y1160535D01*
X591346Y1160418D01*
X591278Y1160303D01*
X591207Y1160190D01*
X591133Y1160079D01*
X591055Y1159970D01*
X590974Y1159864D01*
X590890Y1159760D01*
X590803Y1159658D01*
X590713Y1159559D01*
X590620Y1159463D01*
X590525Y1159370D01*
X590427Y1159279D01*
X590326Y1159191D01*
X590222Y1159107D01*
X590117Y1159025D01*
X590009Y1158946D01*
X589898Y1158871D01*
X589786Y1158799D01*
X589671Y1158730D01*
X589555Y1158665D01*
X589436Y1158603D01*
X589316Y1158544D01*
X589194Y1158489D01*
X589071Y1158438D01*
X588946Y1158390D01*
X588820Y1158346D01*
X588692Y1158306D01*
X588564Y1158269D01*
X588434Y1158236D01*
X588304Y1158207D01*
X588173Y1158182D01*
X588041Y1158161D01*
X587908Y1158143D01*
X587775Y1158130D01*
X587642Y1158120D01*
X587509Y1158114D01*
X587375Y1158112D01*
X587241Y1158114D01*
X587108Y1158120D01*
X586975Y1158130D01*
X586842Y1158143D01*
X586709Y1158161D01*
X586577Y1158182D01*
X586446Y1158207D01*
X586316Y1158236D01*
X586186Y1158269D01*
X586058Y1158306D01*
X585930Y1158346D01*
X585804Y1158390D01*
X585679Y1158438D01*
X585556Y1158489D01*
X585434Y1158544D01*
X585314Y1158603D01*
X585195Y1158665D01*
X585079Y1158730D01*
X584964Y1158799D01*
X584852Y1158871D01*
X584741Y1158946D01*
X584633Y1159025D01*
X584528Y1159107D01*
X584424Y1159191D01*
X584323Y1159279D01*
X584225Y1159370D01*
X584130Y1159463D01*
X584037Y1159559D01*
X583947Y1159658D01*
X583860Y1159760D01*
X583776Y1159864D01*
X583695Y1159970D01*
X583617Y1160079D01*
X583543Y1160190D01*
X583472Y1160303D01*
X583404Y1160418D01*
X583339Y1160535D01*
X583278Y1160654D01*
X583220Y1160774D01*
X583166Y1160896D01*
X583116Y1161020D01*
X583069Y1161145D01*
X583026Y1161272D01*
X582986Y1161399D01*
X582951Y1161528D01*
X582919Y1161658D01*
X582891Y1161789D01*
X582866Y1161920D01*
X582846Y1162052D01*
X584068Y1162054D01*
X584091Y1161941D01*
X584118Y1161830D01*
X584150Y1161719D01*
X584184Y1161610D01*
X584223Y1161501D01*
X584265Y1161394D01*
X584311Y1161289D01*
X584360Y1161185D01*
X584413Y1161083D01*
X584470Y1160983D01*
X584529Y1160885D01*
X584593Y1160789D01*
X584659Y1160695D01*
X584728Y1160604D01*
X584801Y1160515D01*
X584876Y1160428D01*
X584955Y1160344D01*
X585036Y1160263D01*
X585120Y1160184D01*
X585207Y1160109D01*
X585296Y1160036D01*
X585388Y1159967D01*
X585482Y1159901D01*
X585578Y1159838D01*
X585676Y1159778D01*
X585776Y1159722D01*
X585878Y1159669D01*
X585982Y1159620D01*
X586087Y1159574D01*
X586194Y1159532D01*
X586302Y1159493D01*
X586412Y1159459D01*
X586523Y1159428D01*
X586634Y1159401D01*
X586747Y1159377D01*
X586860Y1159358D01*
X586974Y1159342D01*
X587088Y1159330D01*
X587203Y1159322D01*
X587318Y1159318D01*
X587432Y1159318D01*
X587547Y1159322D01*
X587662Y1159330D01*
X587776Y1159342D01*
X587890Y1159358D01*
X588003Y1159377D01*
X588116Y1159401D01*
X588227Y1159428D01*
X588338Y1159459D01*
X588448Y1159493D01*
X588556Y1159532D01*
X588663Y1159574D01*
X588768Y1159620D01*
X588872Y1159669D01*
X588974Y1159722D01*
X589074Y1159778D01*
X589172Y1159838D01*
X589268Y1159901D01*
X589362Y1159967D01*
X589454Y1160036D01*
X589543Y1160109D01*
X589630Y1160184D01*
X589714Y1160263D01*
X589795Y1160344D01*
X589874Y1160428D01*
X589949Y1160515D01*
X590022Y1160604D01*
X590091Y1160695D01*
X590157Y1160789D01*
X590221Y1160885D01*
X590280Y1160983D01*
X590337Y1161083D01*
X590390Y1161185D01*
X590439Y1161289D01*
X590485Y1161394D01*
X590527Y1161501D01*
X590566Y1161610D01*
X590600Y1161719D01*
X590632Y1161830D01*
X590659Y1161941D01*
X590682Y1162054D01*
X589443Y1162059D01*
X589415Y1161972D01*
X589383Y1161885D01*
X589347Y1161801D01*
X589307Y1161718D01*
X589265Y1161636D01*
X589218Y1161557D01*
X589168Y1161479D01*
X589116Y1161404D01*
X589059Y1161331D01*
X589000Y1161261D01*
X588938Y1161193D01*
X588873Y1161128D01*
X588806Y1161065D01*
X588736Y1161006D01*
X588663Y1160950D01*
X588588Y1160896D01*
X588511Y1160846D01*
X588431Y1160800D01*
X588350Y1160757D01*
X588267Y1160717D01*
X588183Y1160681D01*
X588097Y1160648D01*
X588009Y1160619D01*
X587921Y1160594D01*
X587831Y1160573D01*
X587741Y1160555D01*
X587650Y1160542D01*
X587559Y1160532D01*
X587467Y1160526D01*
X587375Y1160524D01*
X587283Y1160526D01*
X587191Y1160532D01*
X587100Y1160542D01*
X587009Y1160555D01*
X586919Y1160573D01*
X586829Y1160594D01*
X586741Y1160619D01*
X586653Y1160648D01*
X586567Y1160681D01*
X586483Y1160717D01*
X586400Y1160757D01*
X586319Y1160800D01*
X586239Y1160846D01*
X586162Y1160896D01*
X586087Y1160950D01*
X586014Y1161006D01*
X585944Y1161065D01*
X585877Y1161128D01*
X585812Y1161193D01*
X585750Y1161261D01*
X585691Y1161331D01*
X585634Y1161404D01*
X585582Y1161479D01*
X585532Y1161557D01*
X585485Y1161636D01*
X585443Y1161718D01*
X585403Y1161801D01*
X585367Y1161885D01*
X585335Y1161972D01*
X585307Y1162059D01*
X586623Y1162096D01*
X586662Y1162050D01*
X586703Y1162007D01*
X586746Y1161966D01*
X586793Y1161928D01*
X586841Y1161893D01*
X586891Y1161862D01*
X586944Y1161833D01*
X586998Y1161808D01*
X587053Y1161786D01*
X587110Y1161767D01*
X587168Y1161753D01*
X587226Y1161742D01*
X587286Y1161734D01*
X587345Y1161730D01*
X587405Y1161730D01*
X587464Y1161734D01*
X587524Y1161742D01*
X587582Y1161753D01*
X587640Y1161767D01*
X587697Y1161786D01*
X587752Y1161808D01*
X587806Y1161833D01*
X587859Y1161862D01*
X587909Y1161893D01*
X587957Y1161928D01*
X588004Y1161966D01*
X588047Y1162007D01*
X588088Y1162050D01*
X588127Y1162096D01*
X594331Y1168399D02*
X587375Y1167766D01*
X587375Y1167766D01*
X580419Y1168399D01*
X580436Y1168569D01*
X580458Y1168739D01*
X580484Y1168907D01*
X580514Y1169076D01*
X580548Y1169243D01*
X580586Y1169410D01*
X580629Y1169575D01*
X580675Y1169740D01*
X580725Y1169903D01*
X580779Y1170065D01*
X580838Y1170226D01*
X580900Y1170385D01*
X580966Y1170542D01*
X581036Y1170698D01*
X581109Y1170852D01*
X581187Y1171005D01*
X581268Y1171155D01*
X581353Y1171303D01*
X581441Y1171450D01*
X581533Y1171594D01*
X581628Y1171735D01*
X581727Y1171875D01*
X581829Y1172012D01*
X581935Y1172146D01*
X582044Y1172278D01*
X582156Y1172407D01*
X582271Y1172533D01*
X582389Y1172657D01*
X582510Y1172777D01*
X582634Y1172895D01*
X582761Y1173009D01*
X582890Y1173120D01*
X583023Y1173228D01*
X583158Y1173333D01*
X583295Y1173435D01*
X583435Y1173533D01*
X583577Y1173627D01*
X583722Y1173719D01*
X583869Y1173806D01*
X584017Y1173890D01*
X584168Y1173970D01*
X584321Y1174047D01*
X584475Y1174120D01*
X584632Y1174189D01*
X584790Y1174254D01*
X584949Y1174315D01*
X585110Y1174373D01*
X585272Y1174426D01*
X585436Y1174475D01*
X585601Y1174521D01*
X585766Y1174562D01*
X585933Y1174600D01*
X586101Y1174633D01*
X586269Y1174662D01*
X586438Y1174687D01*
X586608Y1174708D01*
X586778Y1174724D01*
X586948Y1174737D01*
X587119Y1174745D01*
X587290Y1174749D01*
X587460Y1174749D01*
X587631Y1174745D01*
X587802Y1174737D01*
X587972Y1174724D01*
X588142Y1174708D01*
X588312Y1174687D01*
X588481Y1174662D01*
X588649Y1174633D01*
X588817Y1174600D01*
X588984Y1174562D01*
X589149Y1174521D01*
X589314Y1174475D01*
X589478Y1174426D01*
X589640Y1174373D01*
X589801Y1174315D01*
X589960Y1174254D01*
X590118Y1174189D01*
X590275Y1174120D01*
X590429Y1174047D01*
X590582Y1173970D01*
X590733Y1173890D01*
X590881Y1173806D01*
X591028Y1173719D01*
X591173Y1173627D01*
X591315Y1173533D01*
X591455Y1173435D01*
X591592Y1173333D01*
X591727Y1173228D01*
X591860Y1173120D01*
X591989Y1173009D01*
X592116Y1172895D01*
X592240Y1172777D01*
X592361Y1172657D01*
X592479Y1172533D01*
X592594Y1172407D01*
X592706Y1172278D01*
X592815Y1172146D01*
X592921Y1172012D01*
X593023Y1171875D01*
X593122Y1171735D01*
X593217Y1171594D01*
X593309Y1171450D01*
X593397Y1171303D01*
X593482Y1171155D01*
X593563Y1171005D01*
X593641Y1170852D01*
X593714Y1170698D01*
X593784Y1170542D01*
X593850Y1170385D01*
X593912Y1170226D01*
X593971Y1170065D01*
X594025Y1169903D01*
X594075Y1169740D01*
X594121Y1169575D01*
X594164Y1169410D01*
X594202Y1169243D01*
X594236Y1169076D01*
X594266Y1168907D01*
X594292Y1168739D01*
X594314Y1168569D01*
X594331Y1168399D01*
X593119Y1168399D01*
X593101Y1168548D01*
X593078Y1168697D01*
X593052Y1168846D01*
X593022Y1168994D01*
X592988Y1169140D01*
X592950Y1169286D01*
X592909Y1169431D01*
X592863Y1169575D01*
X592814Y1169718D01*
X592761Y1169859D01*
X592705Y1169999D01*
X592645Y1170137D01*
X592581Y1170274D01*
X592514Y1170409D01*
X592443Y1170542D01*
X592369Y1170673D01*
X592292Y1170802D01*
X592211Y1170929D01*
X592126Y1171054D01*
X592039Y1171177D01*
X591948Y1171298D01*
X591855Y1171416D01*
X591758Y1171532D01*
X591658Y1171645D01*
X591556Y1171755D01*
X591450Y1171863D01*
X591342Y1171968D01*
X591231Y1172070D01*
X591117Y1172169D01*
X591001Y1172265D01*
X590882Y1172358D01*
X590761Y1172448D01*
X590638Y1172535D01*
X590513Y1172618D01*
X590385Y1172698D01*
X590255Y1172775D01*
X590124Y1172849D01*
X589990Y1172918D01*
X589855Y1172985D01*
X589718Y1173048D01*
X589579Y1173107D01*
X589439Y1173163D01*
X589298Y1173215D01*
X589155Y1173263D01*
X589011Y1173308D01*
X588866Y1173348D01*
X588719Y1173385D01*
X588572Y1173419D01*
X588424Y1173448D01*
X588276Y1173473D01*
X588127Y1173495D01*
X587977Y1173513D01*
X587827Y1173526D01*
X587676Y1173536D01*
X587526Y1173542D01*
X587375Y1173544D01*
X587224Y1173542D01*
X587074Y1173536D01*
X586923Y1173526D01*
X586773Y1173513D01*
X586623Y1173495D01*
X586474Y1173473D01*
X586326Y1173448D01*
X586178Y1173419D01*
X586031Y1173385D01*
X585884Y1173348D01*
X585739Y1173308D01*
X585595Y1173263D01*
X585452Y1173215D01*
X585311Y1173163D01*
X585171Y1173107D01*
X585032Y1173048D01*
X584895Y1172985D01*
X584760Y1172918D01*
X584626Y1172849D01*
X584495Y1172775D01*
X584365Y1172698D01*
X584237Y1172618D01*
X584112Y1172535D01*
X583989Y1172448D01*
X583868Y1172358D01*
X583749Y1172265D01*
X583633Y1172169D01*
X583519Y1172070D01*
X583408Y1171968D01*
X583300Y1171863D01*
X583194Y1171755D01*
X583092Y1171645D01*
X582992Y1171532D01*
X582895Y1171416D01*
X582802Y1171298D01*
X582711Y1171177D01*
X582624Y1171054D01*
X582539Y1170929D01*
X582458Y1170802D01*
X582381Y1170673D01*
X582307Y1170542D01*
X582236Y1170409D01*
X582169Y1170274D01*
X582105Y1170137D01*
X582045Y1169999D01*
X581989Y1169859D01*
X581936Y1169718D01*
X581887Y1169575D01*
X581841Y1169431D01*
X581800Y1169286D01*
X581762Y1169140D01*
X581728Y1168994D01*
X581698Y1168846D01*
X581672Y1168697D01*
X581649Y1168548D01*
X581631Y1168399D01*
X582846Y1168398D01*
X582866Y1168530D01*
X582891Y1168661D01*
X582919Y1168792D01*
X582951Y1168922D01*
X582986Y1169051D01*
X583026Y1169178D01*
X583069Y1169305D01*
X583116Y1169430D01*
X583166Y1169554D01*
X583220Y1169676D01*
X583278Y1169796D01*
X583339Y1169915D01*
X583404Y1170032D01*
X583472Y1170147D01*
X583543Y1170260D01*
X583617Y1170371D01*
X583695Y1170480D01*
X583776Y1170586D01*
X583860Y1170690D01*
X583947Y1170792D01*
X584037Y1170891D01*
X584130Y1170987D01*
X584225Y1171080D01*
X584323Y1171171D01*
X584424Y1171259D01*
X584528Y1171343D01*
X584633Y1171425D01*
X584741Y1171504D01*
X584852Y1171579D01*
X584964Y1171651D01*
X585079Y1171720D01*
X585195Y1171785D01*
X585314Y1171847D01*
X585434Y1171906D01*
X585556Y1171961D01*
X585679Y1172012D01*
X585804Y1172060D01*
X585930Y1172104D01*
X586058Y1172144D01*
X586186Y1172181D01*
X586316Y1172214D01*
X586446Y1172243D01*
X586577Y1172268D01*
X586709Y1172289D01*
X586842Y1172307D01*
X586975Y1172320D01*
X587108Y1172330D01*
X587241Y1172336D01*
X587375Y1172338D01*
X587509Y1172336D01*
X587642Y1172330D01*
X587775Y1172320D01*
X587908Y1172307D01*
X588041Y1172289D01*
X588173Y1172268D01*
X588304Y1172243D01*
X588434Y1172214D01*
X588564Y1172181D01*
X588692Y1172144D01*
X588820Y1172104D01*
X588946Y1172060D01*
X589071Y1172012D01*
X589194Y1171961D01*
X589316Y1171906D01*
X589436Y1171847D01*
X589555Y1171785D01*
X589671Y1171720D01*
X589786Y1171651D01*
X589898Y1171579D01*
X590009Y1171504D01*
X590117Y1171425D01*
X590222Y1171343D01*
X590326Y1171259D01*
X590427Y1171171D01*
X590525Y1171080D01*
X590620Y1170987D01*
X590713Y1170891D01*
X590803Y1170792D01*
X590890Y1170690D01*
X590974Y1170586D01*
X591055Y1170480D01*
X591133Y1170371D01*
X591207Y1170260D01*
X591278Y1170147D01*
X591346Y1170032D01*
X591411Y1169915D01*
X591472Y1169796D01*
X591530Y1169676D01*
X591584Y1169554D01*
X591634Y1169430D01*
X591681Y1169305D01*
X591724Y1169178D01*
X591764Y1169051D01*
X591799Y1168922D01*
X591831Y1168792D01*
X591859Y1168661D01*
X591884Y1168530D01*
X591904Y1168398D01*
X590682Y1168396D01*
X590659Y1168509D01*
X590632Y1168620D01*
X590600Y1168731D01*
X590566Y1168840D01*
X590527Y1168949D01*
X590485Y1169056D01*
X590439Y1169161D01*
X590390Y1169265D01*
X590337Y1169367D01*
X590280Y1169467D01*
X590221Y1169565D01*
X590157Y1169661D01*
X590091Y1169755D01*
X590022Y1169846D01*
X589949Y1169935D01*
X589874Y1170022D01*
X589795Y1170106D01*
X589714Y1170187D01*
X589630Y1170266D01*
X589543Y1170341D01*
X589454Y1170414D01*
X589362Y1170483D01*
X589268Y1170549D01*
X589172Y1170612D01*
X589074Y1170672D01*
X588974Y1170728D01*
X588872Y1170781D01*
X588768Y1170830D01*
X588663Y1170876D01*
X588556Y1170918D01*
X588448Y1170957D01*
X588338Y1170991D01*
X588227Y1171022D01*
X588116Y1171049D01*
X588003Y1171073D01*
X587890Y1171092D01*
X587776Y1171108D01*
X587662Y1171120D01*
X587547Y1171128D01*
X587432Y1171132D01*
X587318Y1171132D01*
X587203Y1171128D01*
X587088Y1171120D01*
X586974Y1171108D01*
X586860Y1171092D01*
X586747Y1171073D01*
X586634Y1171049D01*
X586523Y1171022D01*
X586412Y1170991D01*
X586302Y1170957D01*
X586194Y1170918D01*
X586087Y1170876D01*
X585982Y1170830D01*
X585878Y1170781D01*
X585776Y1170728D01*
X585676Y1170672D01*
X585578Y1170612D01*
X585482Y1170549D01*
X585388Y1170483D01*
X585296Y1170414D01*
X585207Y1170341D01*
X585120Y1170266D01*
X585036Y1170187D01*
X584955Y1170106D01*
X584876Y1170022D01*
X584801Y1169935D01*
X584728Y1169846D01*
X584659Y1169755D01*
X584593Y1169661D01*
X584529Y1169565D01*
X584470Y1169467D01*
X584413Y1169367D01*
X584360Y1169265D01*
X584311Y1169161D01*
X584265Y1169056D01*
X584223Y1168949D01*
X584184Y1168840D01*
X584150Y1168731D01*
X584118Y1168620D01*
X584091Y1168509D01*
X584068Y1168396D01*
X585307Y1168391D01*
X585335Y1168478D01*
X585367Y1168565D01*
X585403Y1168649D01*
X585443Y1168732D01*
X585485Y1168814D01*
X585532Y1168893D01*
X585582Y1168971D01*
X585634Y1169046D01*
X585691Y1169119D01*
X585750Y1169189D01*
X585812Y1169257D01*
X585877Y1169322D01*
X585944Y1169385D01*
X586014Y1169444D01*
X586087Y1169500D01*
X586162Y1169554D01*
X586239Y1169604D01*
X586319Y1169650D01*
X586400Y1169693D01*
X586483Y1169733D01*
X586567Y1169769D01*
X586653Y1169802D01*
X586741Y1169831D01*
X586829Y1169856D01*
X586919Y1169877D01*
X587009Y1169895D01*
X587100Y1169908D01*
X587191Y1169918D01*
X587283Y1169924D01*
X587375Y1169926D01*
X587467Y1169924D01*
X587559Y1169918D01*
X587650Y1169908D01*
X587741Y1169895D01*
X587831Y1169877D01*
X587921Y1169856D01*
X588009Y1169831D01*
X588097Y1169802D01*
X588183Y1169769D01*
X588267Y1169733D01*
X588350Y1169693D01*
X588431Y1169650D01*
X588511Y1169604D01*
X588588Y1169554D01*
X588663Y1169500D01*
X588736Y1169444D01*
X588806Y1169385D01*
X588873Y1169322D01*
X588938Y1169257D01*
X589000Y1169189D01*
X589059Y1169119D01*
X589116Y1169046D01*
X589168Y1168971D01*
X589218Y1168893D01*
X589265Y1168814D01*
X589307Y1168732D01*
X589347Y1168649D01*
X589383Y1168565D01*
X589415Y1168478D01*
X589443Y1168391D01*
X588127Y1168354D01*
X588088Y1168400D01*
X588047Y1168443D01*
X588004Y1168484D01*
X587957Y1168522D01*
X587909Y1168557D01*
X587859Y1168588D01*
X587806Y1168617D01*
X587752Y1168642D01*
X587697Y1168664D01*
X587640Y1168683D01*
X587582Y1168697D01*
X587524Y1168708D01*
X587464Y1168716D01*
X587405Y1168720D01*
X587345Y1168720D01*
X587286Y1168716D01*
X587226Y1168708D01*
X587168Y1168697D01*
X587110Y1168683D01*
X587053Y1168664D01*
X586998Y1168642D01*
X586944Y1168617D01*
X586891Y1168588D01*
X586841Y1168557D01*
X586793Y1168522D01*
X586746Y1168484D01*
X586703Y1168443D01*
X586662Y1168400D01*
X586623Y1168354D01*
X596900Y1134747D02*
X594993Y1132840D01*
X593087Y1132840D01*
X591180Y1134747D01*
X591180Y1144280D01*
X589274Y1144280D02*
X593087Y1144280D01*
X585206Y1144280D02*
X577580Y1144280D01*
X585206Y1144280D02*
X585206Y1138560D01*
X581393Y1140467D01*
X579486Y1140467D01*
X577580Y1138560D01*
X577580Y1134747D01*
X579486Y1132840D01*
X583299Y1132840D01*
X585206Y1134747D01*
D12*
X2092960Y1154430D02*
X2092960Y1182370D01*
X2072640Y1154430D02*
X2072642Y1154330D01*
X2072648Y1154231D01*
X2072658Y1154131D01*
X2072671Y1154033D01*
X2072689Y1153934D01*
X2072710Y1153837D01*
X2072735Y1153741D01*
X2072764Y1153645D01*
X2072797Y1153551D01*
X2072833Y1153458D01*
X2072873Y1153367D01*
X2072917Y1153277D01*
X2072964Y1153189D01*
X2073014Y1153103D01*
X2073068Y1153019D01*
X2073125Y1152937D01*
X2073185Y1152858D01*
X2073249Y1152780D01*
X2073315Y1152706D01*
X2073384Y1152634D01*
X2073456Y1152565D01*
X2073530Y1152499D01*
X2073608Y1152435D01*
X2073687Y1152375D01*
X2073769Y1152318D01*
X2073853Y1152264D01*
X2073939Y1152214D01*
X2074027Y1152167D01*
X2074117Y1152123D01*
X2074208Y1152083D01*
X2074301Y1152047D01*
X2074395Y1152014D01*
X2074491Y1151985D01*
X2074587Y1151960D01*
X2074684Y1151939D01*
X2074783Y1151921D01*
X2074881Y1151908D01*
X2074981Y1151898D01*
X2075080Y1151892D01*
X2075180Y1151890D01*
X2072640Y1182370D02*
X2072642Y1182470D01*
X2072648Y1182569D01*
X2072658Y1182669D01*
X2072671Y1182767D01*
X2072689Y1182866D01*
X2072710Y1182963D01*
X2072735Y1183059D01*
X2072764Y1183155D01*
X2072797Y1183249D01*
X2072833Y1183342D01*
X2072873Y1183433D01*
X2072917Y1183523D01*
X2072964Y1183611D01*
X2073014Y1183697D01*
X2073068Y1183781D01*
X2073125Y1183863D01*
X2073185Y1183942D01*
X2073249Y1184020D01*
X2073315Y1184094D01*
X2073384Y1184166D01*
X2073456Y1184235D01*
X2073530Y1184301D01*
X2073608Y1184365D01*
X2073687Y1184425D01*
X2073769Y1184482D01*
X2073853Y1184536D01*
X2073939Y1184586D01*
X2074027Y1184633D01*
X2074117Y1184677D01*
X2074208Y1184717D01*
X2074301Y1184753D01*
X2074395Y1184786D01*
X2074491Y1184815D01*
X2074587Y1184840D01*
X2074684Y1184861D01*
X2074783Y1184879D01*
X2074881Y1184892D01*
X2074981Y1184902D01*
X2075080Y1184908D01*
X2075180Y1184910D01*
X2090420Y1184910D02*
X2090520Y1184908D01*
X2090619Y1184902D01*
X2090719Y1184892D01*
X2090817Y1184879D01*
X2090916Y1184861D01*
X2091013Y1184840D01*
X2091109Y1184815D01*
X2091205Y1184786D01*
X2091299Y1184753D01*
X2091392Y1184717D01*
X2091483Y1184677D01*
X2091573Y1184633D01*
X2091661Y1184586D01*
X2091747Y1184536D01*
X2091831Y1184482D01*
X2091913Y1184425D01*
X2091992Y1184365D01*
X2092070Y1184301D01*
X2092144Y1184235D01*
X2092216Y1184166D01*
X2092285Y1184094D01*
X2092351Y1184020D01*
X2092415Y1183942D01*
X2092475Y1183863D01*
X2092532Y1183781D01*
X2092586Y1183697D01*
X2092636Y1183611D01*
X2092683Y1183523D01*
X2092727Y1183433D01*
X2092767Y1183342D01*
X2092803Y1183249D01*
X2092836Y1183155D01*
X2092865Y1183059D01*
X2092890Y1182963D01*
X2092911Y1182866D01*
X2092929Y1182767D01*
X2092942Y1182669D01*
X2092952Y1182569D01*
X2092958Y1182470D01*
X2092960Y1182370D01*
X2092960Y1154430D02*
X2092958Y1154330D01*
X2092952Y1154231D01*
X2092942Y1154131D01*
X2092929Y1154033D01*
X2092911Y1153934D01*
X2092890Y1153837D01*
X2092865Y1153741D01*
X2092836Y1153645D01*
X2092803Y1153551D01*
X2092767Y1153458D01*
X2092727Y1153367D01*
X2092683Y1153277D01*
X2092636Y1153189D01*
X2092586Y1153103D01*
X2092532Y1153019D01*
X2092475Y1152937D01*
X2092415Y1152858D01*
X2092351Y1152780D01*
X2092285Y1152706D01*
X2092216Y1152634D01*
X2092144Y1152565D01*
X2092070Y1152499D01*
X2091992Y1152435D01*
X2091913Y1152375D01*
X2091831Y1152318D01*
X2091747Y1152264D01*
X2091661Y1152214D01*
X2091573Y1152167D01*
X2091483Y1152123D01*
X2091392Y1152083D01*
X2091299Y1152047D01*
X2091205Y1152014D01*
X2091109Y1151985D01*
X2091013Y1151960D01*
X2090916Y1151939D01*
X2090817Y1151921D01*
X2090719Y1151908D01*
X2090619Y1151898D01*
X2090520Y1151892D01*
X2090420Y1151890D01*
X2075180Y1151890D01*
X2075180Y1184910D02*
X2090420Y1184910D01*
X2072640Y1182370D02*
X2072640Y1154430D01*
X2082800Y1153160D02*
X2082800Y1158240D01*
X2082800Y1178560D02*
X2082800Y1183640D01*
D13*
X2089756Y1171574D02*
X2082800Y1170941D01*
X2082800Y1170941D01*
X2075844Y1171574D01*
X2075861Y1171744D01*
X2075883Y1171914D01*
X2075909Y1172082D01*
X2075939Y1172251D01*
X2075973Y1172418D01*
X2076011Y1172585D01*
X2076054Y1172750D01*
X2076100Y1172915D01*
X2076150Y1173078D01*
X2076204Y1173240D01*
X2076263Y1173401D01*
X2076325Y1173560D01*
X2076391Y1173717D01*
X2076461Y1173873D01*
X2076534Y1174027D01*
X2076612Y1174180D01*
X2076693Y1174330D01*
X2076778Y1174478D01*
X2076866Y1174625D01*
X2076958Y1174769D01*
X2077053Y1174910D01*
X2077152Y1175050D01*
X2077254Y1175187D01*
X2077360Y1175321D01*
X2077469Y1175453D01*
X2077581Y1175582D01*
X2077696Y1175708D01*
X2077814Y1175832D01*
X2077935Y1175952D01*
X2078059Y1176070D01*
X2078186Y1176184D01*
X2078315Y1176295D01*
X2078448Y1176403D01*
X2078583Y1176508D01*
X2078720Y1176610D01*
X2078860Y1176708D01*
X2079002Y1176802D01*
X2079147Y1176894D01*
X2079294Y1176981D01*
X2079442Y1177065D01*
X2079593Y1177145D01*
X2079746Y1177222D01*
X2079900Y1177295D01*
X2080057Y1177364D01*
X2080215Y1177429D01*
X2080374Y1177490D01*
X2080535Y1177548D01*
X2080697Y1177601D01*
X2080861Y1177650D01*
X2081026Y1177696D01*
X2081191Y1177737D01*
X2081358Y1177775D01*
X2081526Y1177808D01*
X2081694Y1177837D01*
X2081863Y1177862D01*
X2082033Y1177883D01*
X2082203Y1177899D01*
X2082373Y1177912D01*
X2082544Y1177920D01*
X2082715Y1177924D01*
X2082885Y1177924D01*
X2083056Y1177920D01*
X2083227Y1177912D01*
X2083397Y1177899D01*
X2083567Y1177883D01*
X2083737Y1177862D01*
X2083906Y1177837D01*
X2084074Y1177808D01*
X2084242Y1177775D01*
X2084409Y1177737D01*
X2084574Y1177696D01*
X2084739Y1177650D01*
X2084903Y1177601D01*
X2085065Y1177548D01*
X2085226Y1177490D01*
X2085385Y1177429D01*
X2085543Y1177364D01*
X2085700Y1177295D01*
X2085854Y1177222D01*
X2086007Y1177145D01*
X2086158Y1177065D01*
X2086306Y1176981D01*
X2086453Y1176894D01*
X2086598Y1176802D01*
X2086740Y1176708D01*
X2086880Y1176610D01*
X2087017Y1176508D01*
X2087152Y1176403D01*
X2087285Y1176295D01*
X2087414Y1176184D01*
X2087541Y1176070D01*
X2087665Y1175952D01*
X2087786Y1175832D01*
X2087904Y1175708D01*
X2088019Y1175582D01*
X2088131Y1175453D01*
X2088240Y1175321D01*
X2088346Y1175187D01*
X2088448Y1175050D01*
X2088547Y1174910D01*
X2088642Y1174769D01*
X2088734Y1174625D01*
X2088822Y1174478D01*
X2088907Y1174330D01*
X2088988Y1174180D01*
X2089066Y1174027D01*
X2089139Y1173873D01*
X2089209Y1173717D01*
X2089275Y1173560D01*
X2089337Y1173401D01*
X2089396Y1173240D01*
X2089450Y1173078D01*
X2089500Y1172915D01*
X2089546Y1172750D01*
X2089589Y1172585D01*
X2089627Y1172418D01*
X2089661Y1172251D01*
X2089691Y1172082D01*
X2089717Y1171914D01*
X2089739Y1171744D01*
X2089756Y1171574D01*
X2088544Y1171574D01*
X2088526Y1171723D01*
X2088503Y1171872D01*
X2088477Y1172021D01*
X2088447Y1172169D01*
X2088413Y1172315D01*
X2088375Y1172461D01*
X2088334Y1172606D01*
X2088288Y1172750D01*
X2088239Y1172893D01*
X2088186Y1173034D01*
X2088130Y1173174D01*
X2088070Y1173312D01*
X2088006Y1173449D01*
X2087939Y1173584D01*
X2087868Y1173717D01*
X2087794Y1173848D01*
X2087717Y1173977D01*
X2087636Y1174104D01*
X2087551Y1174229D01*
X2087464Y1174352D01*
X2087373Y1174473D01*
X2087280Y1174591D01*
X2087183Y1174707D01*
X2087083Y1174820D01*
X2086981Y1174930D01*
X2086875Y1175038D01*
X2086767Y1175143D01*
X2086656Y1175245D01*
X2086542Y1175344D01*
X2086426Y1175440D01*
X2086307Y1175533D01*
X2086186Y1175623D01*
X2086063Y1175710D01*
X2085938Y1175793D01*
X2085810Y1175873D01*
X2085680Y1175950D01*
X2085549Y1176024D01*
X2085415Y1176093D01*
X2085280Y1176160D01*
X2085143Y1176223D01*
X2085004Y1176282D01*
X2084864Y1176338D01*
X2084723Y1176390D01*
X2084580Y1176438D01*
X2084436Y1176483D01*
X2084291Y1176523D01*
X2084144Y1176560D01*
X2083997Y1176594D01*
X2083849Y1176623D01*
X2083701Y1176648D01*
X2083552Y1176670D01*
X2083402Y1176688D01*
X2083252Y1176701D01*
X2083101Y1176711D01*
X2082951Y1176717D01*
X2082800Y1176719D01*
X2082649Y1176717D01*
X2082499Y1176711D01*
X2082348Y1176701D01*
X2082198Y1176688D01*
X2082048Y1176670D01*
X2081899Y1176648D01*
X2081751Y1176623D01*
X2081603Y1176594D01*
X2081456Y1176560D01*
X2081309Y1176523D01*
X2081164Y1176483D01*
X2081020Y1176438D01*
X2080877Y1176390D01*
X2080736Y1176338D01*
X2080596Y1176282D01*
X2080457Y1176223D01*
X2080320Y1176160D01*
X2080185Y1176093D01*
X2080051Y1176024D01*
X2079920Y1175950D01*
X2079790Y1175873D01*
X2079662Y1175793D01*
X2079537Y1175710D01*
X2079414Y1175623D01*
X2079293Y1175533D01*
X2079174Y1175440D01*
X2079058Y1175344D01*
X2078944Y1175245D01*
X2078833Y1175143D01*
X2078725Y1175038D01*
X2078619Y1174930D01*
X2078517Y1174820D01*
X2078417Y1174707D01*
X2078320Y1174591D01*
X2078227Y1174473D01*
X2078136Y1174352D01*
X2078049Y1174229D01*
X2077964Y1174104D01*
X2077883Y1173977D01*
X2077806Y1173848D01*
X2077732Y1173717D01*
X2077661Y1173584D01*
X2077594Y1173449D01*
X2077530Y1173312D01*
X2077470Y1173174D01*
X2077414Y1173034D01*
X2077361Y1172893D01*
X2077312Y1172750D01*
X2077266Y1172606D01*
X2077225Y1172461D01*
X2077187Y1172315D01*
X2077153Y1172169D01*
X2077123Y1172021D01*
X2077097Y1171872D01*
X2077074Y1171723D01*
X2077056Y1171574D01*
X2078271Y1171573D01*
X2078291Y1171705D01*
X2078316Y1171836D01*
X2078344Y1171967D01*
X2078376Y1172097D01*
X2078411Y1172226D01*
X2078451Y1172353D01*
X2078494Y1172480D01*
X2078541Y1172605D01*
X2078591Y1172729D01*
X2078645Y1172851D01*
X2078703Y1172971D01*
X2078764Y1173090D01*
X2078829Y1173207D01*
X2078897Y1173322D01*
X2078968Y1173435D01*
X2079042Y1173546D01*
X2079120Y1173655D01*
X2079201Y1173761D01*
X2079285Y1173865D01*
X2079372Y1173967D01*
X2079462Y1174066D01*
X2079555Y1174162D01*
X2079650Y1174255D01*
X2079748Y1174346D01*
X2079849Y1174434D01*
X2079953Y1174518D01*
X2080058Y1174600D01*
X2080166Y1174679D01*
X2080277Y1174754D01*
X2080389Y1174826D01*
X2080504Y1174895D01*
X2080620Y1174960D01*
X2080739Y1175022D01*
X2080859Y1175081D01*
X2080981Y1175136D01*
X2081104Y1175187D01*
X2081229Y1175235D01*
X2081355Y1175279D01*
X2081483Y1175319D01*
X2081611Y1175356D01*
X2081741Y1175389D01*
X2081871Y1175418D01*
X2082002Y1175443D01*
X2082134Y1175464D01*
X2082267Y1175482D01*
X2082400Y1175495D01*
X2082533Y1175505D01*
X2082666Y1175511D01*
X2082800Y1175513D01*
X2082934Y1175511D01*
X2083067Y1175505D01*
X2083200Y1175495D01*
X2083333Y1175482D01*
X2083466Y1175464D01*
X2083598Y1175443D01*
X2083729Y1175418D01*
X2083859Y1175389D01*
X2083989Y1175356D01*
X2084117Y1175319D01*
X2084245Y1175279D01*
X2084371Y1175235D01*
X2084496Y1175187D01*
X2084619Y1175136D01*
X2084741Y1175081D01*
X2084861Y1175022D01*
X2084980Y1174960D01*
X2085096Y1174895D01*
X2085211Y1174826D01*
X2085323Y1174754D01*
X2085434Y1174679D01*
X2085542Y1174600D01*
X2085647Y1174518D01*
X2085751Y1174434D01*
X2085852Y1174346D01*
X2085950Y1174255D01*
X2086045Y1174162D01*
X2086138Y1174066D01*
X2086228Y1173967D01*
X2086315Y1173865D01*
X2086399Y1173761D01*
X2086480Y1173655D01*
X2086558Y1173546D01*
X2086632Y1173435D01*
X2086703Y1173322D01*
X2086771Y1173207D01*
X2086836Y1173090D01*
X2086897Y1172971D01*
X2086955Y1172851D01*
X2087009Y1172729D01*
X2087059Y1172605D01*
X2087106Y1172480D01*
X2087149Y1172353D01*
X2087189Y1172226D01*
X2087224Y1172097D01*
X2087256Y1171967D01*
X2087284Y1171836D01*
X2087309Y1171705D01*
X2087329Y1171573D01*
X2086107Y1171571D01*
X2086084Y1171684D01*
X2086057Y1171795D01*
X2086025Y1171906D01*
X2085991Y1172015D01*
X2085952Y1172124D01*
X2085910Y1172231D01*
X2085864Y1172336D01*
X2085815Y1172440D01*
X2085762Y1172542D01*
X2085705Y1172642D01*
X2085646Y1172740D01*
X2085582Y1172836D01*
X2085516Y1172930D01*
X2085447Y1173021D01*
X2085374Y1173110D01*
X2085299Y1173197D01*
X2085220Y1173281D01*
X2085139Y1173362D01*
X2085055Y1173441D01*
X2084968Y1173516D01*
X2084879Y1173589D01*
X2084787Y1173658D01*
X2084693Y1173724D01*
X2084597Y1173787D01*
X2084499Y1173847D01*
X2084399Y1173903D01*
X2084297Y1173956D01*
X2084193Y1174005D01*
X2084088Y1174051D01*
X2083981Y1174093D01*
X2083873Y1174132D01*
X2083763Y1174166D01*
X2083652Y1174197D01*
X2083541Y1174224D01*
X2083428Y1174248D01*
X2083315Y1174267D01*
X2083201Y1174283D01*
X2083087Y1174295D01*
X2082972Y1174303D01*
X2082857Y1174307D01*
X2082743Y1174307D01*
X2082628Y1174303D01*
X2082513Y1174295D01*
X2082399Y1174283D01*
X2082285Y1174267D01*
X2082172Y1174248D01*
X2082059Y1174224D01*
X2081948Y1174197D01*
X2081837Y1174166D01*
X2081727Y1174132D01*
X2081619Y1174093D01*
X2081512Y1174051D01*
X2081407Y1174005D01*
X2081303Y1173956D01*
X2081201Y1173903D01*
X2081101Y1173847D01*
X2081003Y1173787D01*
X2080907Y1173724D01*
X2080813Y1173658D01*
X2080721Y1173589D01*
X2080632Y1173516D01*
X2080545Y1173441D01*
X2080461Y1173362D01*
X2080380Y1173281D01*
X2080301Y1173197D01*
X2080226Y1173110D01*
X2080153Y1173021D01*
X2080084Y1172930D01*
X2080018Y1172836D01*
X2079954Y1172740D01*
X2079895Y1172642D01*
X2079838Y1172542D01*
X2079785Y1172440D01*
X2079736Y1172336D01*
X2079690Y1172231D01*
X2079648Y1172124D01*
X2079609Y1172015D01*
X2079575Y1171906D01*
X2079543Y1171795D01*
X2079516Y1171684D01*
X2079493Y1171571D01*
X2080732Y1171566D01*
X2080760Y1171653D01*
X2080792Y1171740D01*
X2080828Y1171824D01*
X2080868Y1171907D01*
X2080910Y1171989D01*
X2080957Y1172068D01*
X2081007Y1172146D01*
X2081059Y1172221D01*
X2081116Y1172294D01*
X2081175Y1172364D01*
X2081237Y1172432D01*
X2081302Y1172497D01*
X2081369Y1172560D01*
X2081439Y1172619D01*
X2081512Y1172675D01*
X2081587Y1172729D01*
X2081664Y1172779D01*
X2081744Y1172825D01*
X2081825Y1172868D01*
X2081908Y1172908D01*
X2081992Y1172944D01*
X2082078Y1172977D01*
X2082166Y1173006D01*
X2082254Y1173031D01*
X2082344Y1173052D01*
X2082434Y1173070D01*
X2082525Y1173083D01*
X2082616Y1173093D01*
X2082708Y1173099D01*
X2082800Y1173101D01*
X2082892Y1173099D01*
X2082984Y1173093D01*
X2083075Y1173083D01*
X2083166Y1173070D01*
X2083256Y1173052D01*
X2083346Y1173031D01*
X2083434Y1173006D01*
X2083522Y1172977D01*
X2083608Y1172944D01*
X2083692Y1172908D01*
X2083775Y1172868D01*
X2083856Y1172825D01*
X2083936Y1172779D01*
X2084013Y1172729D01*
X2084088Y1172675D01*
X2084161Y1172619D01*
X2084231Y1172560D01*
X2084298Y1172497D01*
X2084363Y1172432D01*
X2084425Y1172364D01*
X2084484Y1172294D01*
X2084541Y1172221D01*
X2084593Y1172146D01*
X2084643Y1172068D01*
X2084690Y1171989D01*
X2084732Y1171907D01*
X2084772Y1171824D01*
X2084808Y1171740D01*
X2084840Y1171653D01*
X2084868Y1171566D01*
X2083552Y1171529D01*
X2083513Y1171575D01*
X2083472Y1171618D01*
X2083429Y1171659D01*
X2083382Y1171697D01*
X2083334Y1171732D01*
X2083284Y1171763D01*
X2083231Y1171792D01*
X2083177Y1171817D01*
X2083122Y1171839D01*
X2083065Y1171858D01*
X2083007Y1171872D01*
X2082949Y1171883D01*
X2082889Y1171891D01*
X2082830Y1171895D01*
X2082770Y1171895D01*
X2082711Y1171891D01*
X2082651Y1171883D01*
X2082593Y1171872D01*
X2082535Y1171858D01*
X2082478Y1171839D01*
X2082423Y1171817D01*
X2082369Y1171792D01*
X2082316Y1171763D01*
X2082266Y1171732D01*
X2082218Y1171697D01*
X2082171Y1171659D01*
X2082128Y1171618D01*
X2082087Y1171575D01*
X2082048Y1171529D01*
X2075844Y1165226D02*
X2082800Y1165859D01*
X2082800Y1165859D01*
X2089756Y1165226D01*
X2089739Y1165056D01*
X2089717Y1164886D01*
X2089691Y1164718D01*
X2089661Y1164549D01*
X2089627Y1164382D01*
X2089589Y1164215D01*
X2089546Y1164050D01*
X2089500Y1163885D01*
X2089450Y1163722D01*
X2089396Y1163560D01*
X2089337Y1163399D01*
X2089275Y1163240D01*
X2089209Y1163083D01*
X2089139Y1162927D01*
X2089066Y1162773D01*
X2088988Y1162620D01*
X2088907Y1162470D01*
X2088822Y1162322D01*
X2088734Y1162175D01*
X2088642Y1162031D01*
X2088547Y1161890D01*
X2088448Y1161750D01*
X2088346Y1161613D01*
X2088240Y1161479D01*
X2088131Y1161347D01*
X2088019Y1161218D01*
X2087904Y1161092D01*
X2087786Y1160968D01*
X2087665Y1160848D01*
X2087541Y1160730D01*
X2087414Y1160616D01*
X2087285Y1160505D01*
X2087152Y1160397D01*
X2087017Y1160292D01*
X2086880Y1160190D01*
X2086740Y1160092D01*
X2086598Y1159998D01*
X2086453Y1159906D01*
X2086306Y1159819D01*
X2086158Y1159735D01*
X2086007Y1159655D01*
X2085854Y1159578D01*
X2085700Y1159505D01*
X2085543Y1159436D01*
X2085385Y1159371D01*
X2085226Y1159310D01*
X2085065Y1159252D01*
X2084903Y1159199D01*
X2084739Y1159150D01*
X2084574Y1159104D01*
X2084409Y1159063D01*
X2084242Y1159025D01*
X2084074Y1158992D01*
X2083906Y1158963D01*
X2083737Y1158938D01*
X2083567Y1158917D01*
X2083397Y1158901D01*
X2083227Y1158888D01*
X2083056Y1158880D01*
X2082885Y1158876D01*
X2082715Y1158876D01*
X2082544Y1158880D01*
X2082373Y1158888D01*
X2082203Y1158901D01*
X2082033Y1158917D01*
X2081863Y1158938D01*
X2081694Y1158963D01*
X2081526Y1158992D01*
X2081358Y1159025D01*
X2081191Y1159063D01*
X2081026Y1159104D01*
X2080861Y1159150D01*
X2080697Y1159199D01*
X2080535Y1159252D01*
X2080374Y1159310D01*
X2080215Y1159371D01*
X2080057Y1159436D01*
X2079900Y1159505D01*
X2079746Y1159578D01*
X2079593Y1159655D01*
X2079442Y1159735D01*
X2079294Y1159819D01*
X2079147Y1159906D01*
X2079002Y1159998D01*
X2078860Y1160092D01*
X2078720Y1160190D01*
X2078583Y1160292D01*
X2078448Y1160397D01*
X2078315Y1160505D01*
X2078186Y1160616D01*
X2078059Y1160730D01*
X2077935Y1160848D01*
X2077814Y1160968D01*
X2077696Y1161092D01*
X2077581Y1161218D01*
X2077469Y1161347D01*
X2077360Y1161479D01*
X2077254Y1161613D01*
X2077152Y1161750D01*
X2077053Y1161890D01*
X2076958Y1162031D01*
X2076866Y1162175D01*
X2076778Y1162322D01*
X2076693Y1162470D01*
X2076612Y1162620D01*
X2076534Y1162773D01*
X2076461Y1162927D01*
X2076391Y1163083D01*
X2076325Y1163240D01*
X2076263Y1163399D01*
X2076204Y1163560D01*
X2076150Y1163722D01*
X2076100Y1163885D01*
X2076054Y1164050D01*
X2076011Y1164215D01*
X2075973Y1164382D01*
X2075939Y1164549D01*
X2075909Y1164718D01*
X2075883Y1164886D01*
X2075861Y1165056D01*
X2075844Y1165226D01*
X2077056Y1165226D01*
X2077074Y1165077D01*
X2077097Y1164928D01*
X2077123Y1164779D01*
X2077153Y1164631D01*
X2077187Y1164485D01*
X2077225Y1164339D01*
X2077266Y1164194D01*
X2077312Y1164050D01*
X2077361Y1163907D01*
X2077414Y1163766D01*
X2077470Y1163626D01*
X2077530Y1163488D01*
X2077594Y1163351D01*
X2077661Y1163216D01*
X2077732Y1163083D01*
X2077806Y1162952D01*
X2077883Y1162823D01*
X2077964Y1162696D01*
X2078049Y1162571D01*
X2078136Y1162448D01*
X2078227Y1162327D01*
X2078320Y1162209D01*
X2078417Y1162093D01*
X2078517Y1161980D01*
X2078619Y1161870D01*
X2078725Y1161762D01*
X2078833Y1161657D01*
X2078944Y1161555D01*
X2079058Y1161456D01*
X2079174Y1161360D01*
X2079293Y1161267D01*
X2079414Y1161177D01*
X2079537Y1161090D01*
X2079662Y1161007D01*
X2079790Y1160927D01*
X2079920Y1160850D01*
X2080051Y1160776D01*
X2080185Y1160707D01*
X2080320Y1160640D01*
X2080457Y1160577D01*
X2080596Y1160518D01*
X2080736Y1160462D01*
X2080877Y1160410D01*
X2081020Y1160362D01*
X2081164Y1160317D01*
X2081309Y1160277D01*
X2081456Y1160240D01*
X2081603Y1160206D01*
X2081751Y1160177D01*
X2081899Y1160152D01*
X2082048Y1160130D01*
X2082198Y1160112D01*
X2082348Y1160099D01*
X2082499Y1160089D01*
X2082649Y1160083D01*
X2082800Y1160081D01*
X2082951Y1160083D01*
X2083101Y1160089D01*
X2083252Y1160099D01*
X2083402Y1160112D01*
X2083552Y1160130D01*
X2083701Y1160152D01*
X2083849Y1160177D01*
X2083997Y1160206D01*
X2084144Y1160240D01*
X2084291Y1160277D01*
X2084436Y1160317D01*
X2084580Y1160362D01*
X2084723Y1160410D01*
X2084864Y1160462D01*
X2085004Y1160518D01*
X2085143Y1160577D01*
X2085280Y1160640D01*
X2085415Y1160707D01*
X2085549Y1160776D01*
X2085680Y1160850D01*
X2085810Y1160927D01*
X2085938Y1161007D01*
X2086063Y1161090D01*
X2086186Y1161177D01*
X2086307Y1161267D01*
X2086426Y1161360D01*
X2086542Y1161456D01*
X2086656Y1161555D01*
X2086767Y1161657D01*
X2086875Y1161762D01*
X2086981Y1161870D01*
X2087083Y1161980D01*
X2087183Y1162093D01*
X2087280Y1162209D01*
X2087373Y1162327D01*
X2087464Y1162448D01*
X2087551Y1162571D01*
X2087636Y1162696D01*
X2087717Y1162823D01*
X2087794Y1162952D01*
X2087868Y1163083D01*
X2087939Y1163216D01*
X2088006Y1163351D01*
X2088070Y1163488D01*
X2088130Y1163626D01*
X2088186Y1163766D01*
X2088239Y1163907D01*
X2088288Y1164050D01*
X2088334Y1164194D01*
X2088375Y1164339D01*
X2088413Y1164485D01*
X2088447Y1164631D01*
X2088477Y1164779D01*
X2088503Y1164928D01*
X2088526Y1165077D01*
X2088544Y1165226D01*
X2087329Y1165227D01*
X2087309Y1165095D01*
X2087284Y1164964D01*
X2087256Y1164833D01*
X2087224Y1164703D01*
X2087189Y1164574D01*
X2087149Y1164447D01*
X2087106Y1164320D01*
X2087059Y1164195D01*
X2087009Y1164071D01*
X2086955Y1163949D01*
X2086897Y1163829D01*
X2086836Y1163710D01*
X2086771Y1163593D01*
X2086703Y1163478D01*
X2086632Y1163365D01*
X2086558Y1163254D01*
X2086480Y1163145D01*
X2086399Y1163039D01*
X2086315Y1162935D01*
X2086228Y1162833D01*
X2086138Y1162734D01*
X2086045Y1162638D01*
X2085950Y1162545D01*
X2085852Y1162454D01*
X2085751Y1162366D01*
X2085647Y1162282D01*
X2085542Y1162200D01*
X2085434Y1162121D01*
X2085323Y1162046D01*
X2085211Y1161974D01*
X2085096Y1161905D01*
X2084980Y1161840D01*
X2084861Y1161778D01*
X2084741Y1161719D01*
X2084619Y1161664D01*
X2084496Y1161613D01*
X2084371Y1161565D01*
X2084245Y1161521D01*
X2084117Y1161481D01*
X2083989Y1161444D01*
X2083859Y1161411D01*
X2083729Y1161382D01*
X2083598Y1161357D01*
X2083466Y1161336D01*
X2083333Y1161318D01*
X2083200Y1161305D01*
X2083067Y1161295D01*
X2082934Y1161289D01*
X2082800Y1161287D01*
X2082666Y1161289D01*
X2082533Y1161295D01*
X2082400Y1161305D01*
X2082267Y1161318D01*
X2082134Y1161336D01*
X2082002Y1161357D01*
X2081871Y1161382D01*
X2081741Y1161411D01*
X2081611Y1161444D01*
X2081483Y1161481D01*
X2081355Y1161521D01*
X2081229Y1161565D01*
X2081104Y1161613D01*
X2080981Y1161664D01*
X2080859Y1161719D01*
X2080739Y1161778D01*
X2080620Y1161840D01*
X2080504Y1161905D01*
X2080389Y1161974D01*
X2080277Y1162046D01*
X2080166Y1162121D01*
X2080058Y1162200D01*
X2079953Y1162282D01*
X2079849Y1162366D01*
X2079748Y1162454D01*
X2079650Y1162545D01*
X2079555Y1162638D01*
X2079462Y1162734D01*
X2079372Y1162833D01*
X2079285Y1162935D01*
X2079201Y1163039D01*
X2079120Y1163145D01*
X2079042Y1163254D01*
X2078968Y1163365D01*
X2078897Y1163478D01*
X2078829Y1163593D01*
X2078764Y1163710D01*
X2078703Y1163829D01*
X2078645Y1163949D01*
X2078591Y1164071D01*
X2078541Y1164195D01*
X2078494Y1164320D01*
X2078451Y1164447D01*
X2078411Y1164574D01*
X2078376Y1164703D01*
X2078344Y1164833D01*
X2078316Y1164964D01*
X2078291Y1165095D01*
X2078271Y1165227D01*
X2079493Y1165229D01*
X2079516Y1165116D01*
X2079543Y1165005D01*
X2079575Y1164894D01*
X2079609Y1164785D01*
X2079648Y1164676D01*
X2079690Y1164569D01*
X2079736Y1164464D01*
X2079785Y1164360D01*
X2079838Y1164258D01*
X2079895Y1164158D01*
X2079954Y1164060D01*
X2080018Y1163964D01*
X2080084Y1163870D01*
X2080153Y1163779D01*
X2080226Y1163690D01*
X2080301Y1163603D01*
X2080380Y1163519D01*
X2080461Y1163438D01*
X2080545Y1163359D01*
X2080632Y1163284D01*
X2080721Y1163211D01*
X2080813Y1163142D01*
X2080907Y1163076D01*
X2081003Y1163013D01*
X2081101Y1162953D01*
X2081201Y1162897D01*
X2081303Y1162844D01*
X2081407Y1162795D01*
X2081512Y1162749D01*
X2081619Y1162707D01*
X2081727Y1162668D01*
X2081837Y1162634D01*
X2081948Y1162603D01*
X2082059Y1162576D01*
X2082172Y1162552D01*
X2082285Y1162533D01*
X2082399Y1162517D01*
X2082513Y1162505D01*
X2082628Y1162497D01*
X2082743Y1162493D01*
X2082857Y1162493D01*
X2082972Y1162497D01*
X2083087Y1162505D01*
X2083201Y1162517D01*
X2083315Y1162533D01*
X2083428Y1162552D01*
X2083541Y1162576D01*
X2083652Y1162603D01*
X2083763Y1162634D01*
X2083873Y1162668D01*
X2083981Y1162707D01*
X2084088Y1162749D01*
X2084193Y1162795D01*
X2084297Y1162844D01*
X2084399Y1162897D01*
X2084499Y1162953D01*
X2084597Y1163013D01*
X2084693Y1163076D01*
X2084787Y1163142D01*
X2084879Y1163211D01*
X2084968Y1163284D01*
X2085055Y1163359D01*
X2085139Y1163438D01*
X2085220Y1163519D01*
X2085299Y1163603D01*
X2085374Y1163690D01*
X2085447Y1163779D01*
X2085516Y1163870D01*
X2085582Y1163964D01*
X2085646Y1164060D01*
X2085705Y1164158D01*
X2085762Y1164258D01*
X2085815Y1164360D01*
X2085864Y1164464D01*
X2085910Y1164569D01*
X2085952Y1164676D01*
X2085991Y1164785D01*
X2086025Y1164894D01*
X2086057Y1165005D01*
X2086084Y1165116D01*
X2086107Y1165229D01*
X2084868Y1165234D01*
X2084840Y1165147D01*
X2084808Y1165060D01*
X2084772Y1164976D01*
X2084732Y1164893D01*
X2084690Y1164811D01*
X2084643Y1164732D01*
X2084593Y1164654D01*
X2084541Y1164579D01*
X2084484Y1164506D01*
X2084425Y1164436D01*
X2084363Y1164368D01*
X2084298Y1164303D01*
X2084231Y1164240D01*
X2084161Y1164181D01*
X2084088Y1164125D01*
X2084013Y1164071D01*
X2083936Y1164021D01*
X2083856Y1163975D01*
X2083775Y1163932D01*
X2083692Y1163892D01*
X2083608Y1163856D01*
X2083522Y1163823D01*
X2083434Y1163794D01*
X2083346Y1163769D01*
X2083256Y1163748D01*
X2083166Y1163730D01*
X2083075Y1163717D01*
X2082984Y1163707D01*
X2082892Y1163701D01*
X2082800Y1163699D01*
X2082708Y1163701D01*
X2082616Y1163707D01*
X2082525Y1163717D01*
X2082434Y1163730D01*
X2082344Y1163748D01*
X2082254Y1163769D01*
X2082166Y1163794D01*
X2082078Y1163823D01*
X2081992Y1163856D01*
X2081908Y1163892D01*
X2081825Y1163932D01*
X2081744Y1163975D01*
X2081664Y1164021D01*
X2081587Y1164071D01*
X2081512Y1164125D01*
X2081439Y1164181D01*
X2081369Y1164240D01*
X2081302Y1164303D01*
X2081237Y1164368D01*
X2081175Y1164436D01*
X2081116Y1164506D01*
X2081059Y1164579D01*
X2081007Y1164654D01*
X2080957Y1164732D01*
X2080910Y1164811D01*
X2080868Y1164893D01*
X2080828Y1164976D01*
X2080792Y1165060D01*
X2080760Y1165147D01*
X2080732Y1165234D01*
X2082048Y1165271D01*
X2082087Y1165225D01*
X2082128Y1165182D01*
X2082171Y1165141D01*
X2082218Y1165103D01*
X2082266Y1165068D01*
X2082316Y1165037D01*
X2082369Y1165008D01*
X2082423Y1164983D01*
X2082478Y1164961D01*
X2082535Y1164942D01*
X2082593Y1164928D01*
X2082651Y1164917D01*
X2082711Y1164909D01*
X2082770Y1164905D01*
X2082830Y1164905D01*
X2082889Y1164909D01*
X2082949Y1164917D01*
X2083007Y1164928D01*
X2083065Y1164942D01*
X2083122Y1164961D01*
X2083177Y1164983D01*
X2083231Y1165008D01*
X2083284Y1165037D01*
X2083334Y1165068D01*
X2083382Y1165103D01*
X2083429Y1165141D01*
X2083472Y1165182D01*
X2083513Y1165225D01*
X2083552Y1165271D01*
X2061212Y1149457D02*
X2059305Y1151364D01*
X2059305Y1153270D01*
X2061212Y1155177D01*
X2070745Y1155177D01*
X2070745Y1153270D02*
X2070745Y1157084D01*
X2066932Y1161151D02*
X2070745Y1164964D01*
X2059305Y1164964D01*
X2059305Y1161151D02*
X2059305Y1168778D01*
D12*
X124460Y326390D02*
X124460Y283210D01*
X106680Y280670D02*
X106580Y280672D01*
X106481Y280678D01*
X106381Y280688D01*
X106283Y280701D01*
X106184Y280719D01*
X106087Y280740D01*
X105991Y280765D01*
X105895Y280794D01*
X105801Y280827D01*
X105708Y280863D01*
X105617Y280903D01*
X105527Y280947D01*
X105439Y280994D01*
X105353Y281044D01*
X105269Y281098D01*
X105187Y281155D01*
X105108Y281215D01*
X105030Y281279D01*
X104956Y281345D01*
X104884Y281414D01*
X104815Y281486D01*
X104749Y281560D01*
X104685Y281638D01*
X104625Y281717D01*
X104568Y281799D01*
X104514Y281883D01*
X104464Y281969D01*
X104417Y282057D01*
X104373Y282147D01*
X104333Y282238D01*
X104297Y282331D01*
X104264Y282425D01*
X104235Y282521D01*
X104210Y282617D01*
X104189Y282714D01*
X104171Y282813D01*
X104158Y282911D01*
X104148Y283011D01*
X104142Y283110D01*
X104140Y283210D01*
X104140Y326390D02*
X104142Y326490D01*
X104148Y326589D01*
X104158Y326689D01*
X104171Y326787D01*
X104189Y326886D01*
X104210Y326983D01*
X104235Y327079D01*
X104264Y327175D01*
X104297Y327269D01*
X104333Y327362D01*
X104373Y327453D01*
X104417Y327543D01*
X104464Y327631D01*
X104514Y327717D01*
X104568Y327801D01*
X104625Y327883D01*
X104685Y327962D01*
X104749Y328040D01*
X104815Y328114D01*
X104884Y328186D01*
X104956Y328255D01*
X105030Y328321D01*
X105108Y328385D01*
X105187Y328445D01*
X105269Y328502D01*
X105353Y328556D01*
X105439Y328606D01*
X105527Y328653D01*
X105617Y328697D01*
X105708Y328737D01*
X105801Y328773D01*
X105895Y328806D01*
X105991Y328835D01*
X106087Y328860D01*
X106184Y328881D01*
X106283Y328899D01*
X106381Y328912D01*
X106481Y328922D01*
X106580Y328928D01*
X106680Y328930D01*
X121920Y328930D02*
X122020Y328928D01*
X122119Y328922D01*
X122219Y328912D01*
X122317Y328899D01*
X122416Y328881D01*
X122513Y328860D01*
X122609Y328835D01*
X122705Y328806D01*
X122799Y328773D01*
X122892Y328737D01*
X122983Y328697D01*
X123073Y328653D01*
X123161Y328606D01*
X123247Y328556D01*
X123331Y328502D01*
X123413Y328445D01*
X123492Y328385D01*
X123570Y328321D01*
X123644Y328255D01*
X123716Y328186D01*
X123785Y328114D01*
X123851Y328040D01*
X123915Y327962D01*
X123975Y327883D01*
X124032Y327801D01*
X124086Y327717D01*
X124136Y327631D01*
X124183Y327543D01*
X124227Y327453D01*
X124267Y327362D01*
X124303Y327269D01*
X124336Y327175D01*
X124365Y327079D01*
X124390Y326983D01*
X124411Y326886D01*
X124429Y326787D01*
X124442Y326689D01*
X124452Y326589D01*
X124458Y326490D01*
X124460Y326390D01*
X124460Y283210D02*
X124458Y283110D01*
X124452Y283011D01*
X124442Y282911D01*
X124429Y282813D01*
X124411Y282714D01*
X124390Y282617D01*
X124365Y282521D01*
X124336Y282425D01*
X124303Y282331D01*
X124267Y282238D01*
X124227Y282147D01*
X124183Y282057D01*
X124136Y281969D01*
X124086Y281883D01*
X124032Y281799D01*
X123975Y281717D01*
X123915Y281638D01*
X123851Y281560D01*
X123785Y281486D01*
X123716Y281414D01*
X123644Y281345D01*
X123570Y281279D01*
X123492Y281215D01*
X123413Y281155D01*
X123331Y281098D01*
X123247Y281044D01*
X123161Y280994D01*
X123073Y280947D01*
X122983Y280903D01*
X122892Y280863D01*
X122799Y280827D01*
X122705Y280794D01*
X122609Y280765D01*
X122513Y280740D01*
X122416Y280719D01*
X122317Y280701D01*
X122219Y280688D01*
X122119Y280678D01*
X122020Y280672D01*
X121920Y280670D01*
X106680Y280670D01*
X106680Y328930D02*
X121920Y328930D01*
X104140Y326390D02*
X104140Y283210D01*
X114300Y281940D02*
X114300Y287020D01*
X114300Y322580D02*
X114300Y327660D01*
X106680Y304800D02*
X104140Y304800D01*
X121920Y304800D02*
X124460Y304800D01*
D13*
X107344Y294006D02*
X114300Y294639D01*
X114300Y294639D01*
X121256Y294006D01*
X121239Y293836D01*
X121217Y293666D01*
X121191Y293498D01*
X121161Y293329D01*
X121127Y293162D01*
X121089Y292995D01*
X121046Y292830D01*
X121000Y292665D01*
X120950Y292502D01*
X120896Y292340D01*
X120837Y292179D01*
X120775Y292020D01*
X120709Y291863D01*
X120639Y291707D01*
X120566Y291553D01*
X120488Y291400D01*
X120407Y291250D01*
X120322Y291102D01*
X120234Y290955D01*
X120142Y290811D01*
X120047Y290670D01*
X119948Y290530D01*
X119846Y290393D01*
X119740Y290259D01*
X119631Y290127D01*
X119519Y289998D01*
X119404Y289872D01*
X119286Y289748D01*
X119165Y289628D01*
X119041Y289510D01*
X118914Y289396D01*
X118785Y289285D01*
X118652Y289177D01*
X118517Y289072D01*
X118380Y288970D01*
X118240Y288872D01*
X118098Y288778D01*
X117953Y288686D01*
X117806Y288599D01*
X117658Y288515D01*
X117507Y288435D01*
X117354Y288358D01*
X117200Y288285D01*
X117043Y288216D01*
X116885Y288151D01*
X116726Y288090D01*
X116565Y288032D01*
X116403Y287979D01*
X116239Y287930D01*
X116074Y287884D01*
X115909Y287843D01*
X115742Y287805D01*
X115574Y287772D01*
X115406Y287743D01*
X115237Y287718D01*
X115067Y287697D01*
X114897Y287681D01*
X114727Y287668D01*
X114556Y287660D01*
X114385Y287656D01*
X114215Y287656D01*
X114044Y287660D01*
X113873Y287668D01*
X113703Y287681D01*
X113533Y287697D01*
X113363Y287718D01*
X113194Y287743D01*
X113026Y287772D01*
X112858Y287805D01*
X112691Y287843D01*
X112526Y287884D01*
X112361Y287930D01*
X112197Y287979D01*
X112035Y288032D01*
X111874Y288090D01*
X111715Y288151D01*
X111557Y288216D01*
X111400Y288285D01*
X111246Y288358D01*
X111093Y288435D01*
X110942Y288515D01*
X110794Y288599D01*
X110647Y288686D01*
X110502Y288778D01*
X110360Y288872D01*
X110220Y288970D01*
X110083Y289072D01*
X109948Y289177D01*
X109815Y289285D01*
X109686Y289396D01*
X109559Y289510D01*
X109435Y289628D01*
X109314Y289748D01*
X109196Y289872D01*
X109081Y289998D01*
X108969Y290127D01*
X108860Y290259D01*
X108754Y290393D01*
X108652Y290530D01*
X108553Y290670D01*
X108458Y290811D01*
X108366Y290955D01*
X108278Y291102D01*
X108193Y291250D01*
X108112Y291400D01*
X108034Y291553D01*
X107961Y291707D01*
X107891Y291863D01*
X107825Y292020D01*
X107763Y292179D01*
X107704Y292340D01*
X107650Y292502D01*
X107600Y292665D01*
X107554Y292830D01*
X107511Y292995D01*
X107473Y293162D01*
X107439Y293329D01*
X107409Y293498D01*
X107383Y293666D01*
X107361Y293836D01*
X107344Y294006D01*
X108556Y294006D01*
X108574Y293857D01*
X108597Y293708D01*
X108623Y293559D01*
X108653Y293411D01*
X108687Y293265D01*
X108725Y293119D01*
X108766Y292974D01*
X108812Y292830D01*
X108861Y292687D01*
X108914Y292546D01*
X108970Y292406D01*
X109030Y292268D01*
X109094Y292131D01*
X109161Y291996D01*
X109232Y291863D01*
X109306Y291732D01*
X109383Y291603D01*
X109464Y291476D01*
X109549Y291351D01*
X109636Y291228D01*
X109727Y291107D01*
X109820Y290989D01*
X109917Y290873D01*
X110017Y290760D01*
X110119Y290650D01*
X110225Y290542D01*
X110333Y290437D01*
X110444Y290335D01*
X110558Y290236D01*
X110674Y290140D01*
X110793Y290047D01*
X110914Y289957D01*
X111037Y289870D01*
X111162Y289787D01*
X111290Y289707D01*
X111420Y289630D01*
X111551Y289556D01*
X111685Y289487D01*
X111820Y289420D01*
X111957Y289357D01*
X112096Y289298D01*
X112236Y289242D01*
X112377Y289190D01*
X112520Y289142D01*
X112664Y289097D01*
X112809Y289057D01*
X112956Y289020D01*
X113103Y288986D01*
X113251Y288957D01*
X113399Y288932D01*
X113548Y288910D01*
X113698Y288892D01*
X113848Y288879D01*
X113999Y288869D01*
X114149Y288863D01*
X114300Y288861D01*
X114451Y288863D01*
X114601Y288869D01*
X114752Y288879D01*
X114902Y288892D01*
X115052Y288910D01*
X115201Y288932D01*
X115349Y288957D01*
X115497Y288986D01*
X115644Y289020D01*
X115791Y289057D01*
X115936Y289097D01*
X116080Y289142D01*
X116223Y289190D01*
X116364Y289242D01*
X116504Y289298D01*
X116643Y289357D01*
X116780Y289420D01*
X116915Y289487D01*
X117049Y289556D01*
X117180Y289630D01*
X117310Y289707D01*
X117438Y289787D01*
X117563Y289870D01*
X117686Y289957D01*
X117807Y290047D01*
X117926Y290140D01*
X118042Y290236D01*
X118156Y290335D01*
X118267Y290437D01*
X118375Y290542D01*
X118481Y290650D01*
X118583Y290760D01*
X118683Y290873D01*
X118780Y290989D01*
X118873Y291107D01*
X118964Y291228D01*
X119051Y291351D01*
X119136Y291476D01*
X119217Y291603D01*
X119294Y291732D01*
X119368Y291863D01*
X119439Y291996D01*
X119506Y292131D01*
X119570Y292268D01*
X119630Y292406D01*
X119686Y292546D01*
X119739Y292687D01*
X119788Y292830D01*
X119834Y292974D01*
X119875Y293119D01*
X119913Y293265D01*
X119947Y293411D01*
X119977Y293559D01*
X120003Y293708D01*
X120026Y293857D01*
X120044Y294006D01*
X118829Y294007D01*
X118809Y293875D01*
X118784Y293744D01*
X118756Y293613D01*
X118724Y293483D01*
X118689Y293354D01*
X118649Y293227D01*
X118606Y293100D01*
X118559Y292975D01*
X118509Y292851D01*
X118455Y292729D01*
X118397Y292609D01*
X118336Y292490D01*
X118271Y292373D01*
X118203Y292258D01*
X118132Y292145D01*
X118058Y292034D01*
X117980Y291925D01*
X117899Y291819D01*
X117815Y291715D01*
X117728Y291613D01*
X117638Y291514D01*
X117545Y291418D01*
X117450Y291325D01*
X117352Y291234D01*
X117251Y291146D01*
X117147Y291062D01*
X117042Y290980D01*
X116934Y290901D01*
X116823Y290826D01*
X116711Y290754D01*
X116596Y290685D01*
X116480Y290620D01*
X116361Y290558D01*
X116241Y290499D01*
X116119Y290444D01*
X115996Y290393D01*
X115871Y290345D01*
X115745Y290301D01*
X115617Y290261D01*
X115489Y290224D01*
X115359Y290191D01*
X115229Y290162D01*
X115098Y290137D01*
X114966Y290116D01*
X114833Y290098D01*
X114700Y290085D01*
X114567Y290075D01*
X114434Y290069D01*
X114300Y290067D01*
X114166Y290069D01*
X114033Y290075D01*
X113900Y290085D01*
X113767Y290098D01*
X113634Y290116D01*
X113502Y290137D01*
X113371Y290162D01*
X113241Y290191D01*
X113111Y290224D01*
X112983Y290261D01*
X112855Y290301D01*
X112729Y290345D01*
X112604Y290393D01*
X112481Y290444D01*
X112359Y290499D01*
X112239Y290558D01*
X112120Y290620D01*
X112004Y290685D01*
X111889Y290754D01*
X111777Y290826D01*
X111666Y290901D01*
X111558Y290980D01*
X111453Y291062D01*
X111349Y291146D01*
X111248Y291234D01*
X111150Y291325D01*
X111055Y291418D01*
X110962Y291514D01*
X110872Y291613D01*
X110785Y291715D01*
X110701Y291819D01*
X110620Y291925D01*
X110542Y292034D01*
X110468Y292145D01*
X110397Y292258D01*
X110329Y292373D01*
X110264Y292490D01*
X110203Y292609D01*
X110145Y292729D01*
X110091Y292851D01*
X110041Y292975D01*
X109994Y293100D01*
X109951Y293227D01*
X109911Y293354D01*
X109876Y293483D01*
X109844Y293613D01*
X109816Y293744D01*
X109791Y293875D01*
X109771Y294007D01*
X110993Y294009D01*
X111016Y293896D01*
X111043Y293785D01*
X111075Y293674D01*
X111109Y293565D01*
X111148Y293456D01*
X111190Y293349D01*
X111236Y293244D01*
X111285Y293140D01*
X111338Y293038D01*
X111395Y292938D01*
X111454Y292840D01*
X111518Y292744D01*
X111584Y292650D01*
X111653Y292559D01*
X111726Y292470D01*
X111801Y292383D01*
X111880Y292299D01*
X111961Y292218D01*
X112045Y292139D01*
X112132Y292064D01*
X112221Y291991D01*
X112313Y291922D01*
X112407Y291856D01*
X112503Y291793D01*
X112601Y291733D01*
X112701Y291677D01*
X112803Y291624D01*
X112907Y291575D01*
X113012Y291529D01*
X113119Y291487D01*
X113227Y291448D01*
X113337Y291414D01*
X113448Y291383D01*
X113559Y291356D01*
X113672Y291332D01*
X113785Y291313D01*
X113899Y291297D01*
X114013Y291285D01*
X114128Y291277D01*
X114243Y291273D01*
X114357Y291273D01*
X114472Y291277D01*
X114587Y291285D01*
X114701Y291297D01*
X114815Y291313D01*
X114928Y291332D01*
X115041Y291356D01*
X115152Y291383D01*
X115263Y291414D01*
X115373Y291448D01*
X115481Y291487D01*
X115588Y291529D01*
X115693Y291575D01*
X115797Y291624D01*
X115899Y291677D01*
X115999Y291733D01*
X116097Y291793D01*
X116193Y291856D01*
X116287Y291922D01*
X116379Y291991D01*
X116468Y292064D01*
X116555Y292139D01*
X116639Y292218D01*
X116720Y292299D01*
X116799Y292383D01*
X116874Y292470D01*
X116947Y292559D01*
X117016Y292650D01*
X117082Y292744D01*
X117146Y292840D01*
X117205Y292938D01*
X117262Y293038D01*
X117315Y293140D01*
X117364Y293244D01*
X117410Y293349D01*
X117452Y293456D01*
X117491Y293565D01*
X117525Y293674D01*
X117557Y293785D01*
X117584Y293896D01*
X117607Y294009D01*
X116368Y294014D01*
X116340Y293927D01*
X116308Y293840D01*
X116272Y293756D01*
X116232Y293673D01*
X116190Y293591D01*
X116143Y293512D01*
X116093Y293434D01*
X116041Y293359D01*
X115984Y293286D01*
X115925Y293216D01*
X115863Y293148D01*
X115798Y293083D01*
X115731Y293020D01*
X115661Y292961D01*
X115588Y292905D01*
X115513Y292851D01*
X115436Y292801D01*
X115356Y292755D01*
X115275Y292712D01*
X115192Y292672D01*
X115108Y292636D01*
X115022Y292603D01*
X114934Y292574D01*
X114846Y292549D01*
X114756Y292528D01*
X114666Y292510D01*
X114575Y292497D01*
X114484Y292487D01*
X114392Y292481D01*
X114300Y292479D01*
X114208Y292481D01*
X114116Y292487D01*
X114025Y292497D01*
X113934Y292510D01*
X113844Y292528D01*
X113754Y292549D01*
X113666Y292574D01*
X113578Y292603D01*
X113492Y292636D01*
X113408Y292672D01*
X113325Y292712D01*
X113244Y292755D01*
X113164Y292801D01*
X113087Y292851D01*
X113012Y292905D01*
X112939Y292961D01*
X112869Y293020D01*
X112802Y293083D01*
X112737Y293148D01*
X112675Y293216D01*
X112616Y293286D01*
X112559Y293359D01*
X112507Y293434D01*
X112457Y293512D01*
X112410Y293591D01*
X112368Y293673D01*
X112328Y293756D01*
X112292Y293840D01*
X112260Y293927D01*
X112232Y294014D01*
X113548Y294051D01*
X113587Y294005D01*
X113628Y293962D01*
X113671Y293921D01*
X113718Y293883D01*
X113766Y293848D01*
X113816Y293817D01*
X113869Y293788D01*
X113923Y293763D01*
X113978Y293741D01*
X114035Y293722D01*
X114093Y293708D01*
X114151Y293697D01*
X114211Y293689D01*
X114270Y293685D01*
X114330Y293685D01*
X114389Y293689D01*
X114449Y293697D01*
X114507Y293708D01*
X114565Y293722D01*
X114622Y293741D01*
X114677Y293763D01*
X114731Y293788D01*
X114784Y293817D01*
X114834Y293848D01*
X114882Y293883D01*
X114929Y293921D01*
X114972Y293962D01*
X115013Y294005D01*
X115052Y294051D01*
X121256Y315594D02*
X114300Y314961D01*
X114300Y314961D01*
X107344Y315594D01*
X107361Y315764D01*
X107383Y315934D01*
X107409Y316102D01*
X107439Y316271D01*
X107473Y316438D01*
X107511Y316605D01*
X107554Y316770D01*
X107600Y316935D01*
X107650Y317098D01*
X107704Y317260D01*
X107763Y317421D01*
X107825Y317580D01*
X107891Y317737D01*
X107961Y317893D01*
X108034Y318047D01*
X108112Y318200D01*
X108193Y318350D01*
X108278Y318498D01*
X108366Y318645D01*
X108458Y318789D01*
X108553Y318930D01*
X108652Y319070D01*
X108754Y319207D01*
X108860Y319341D01*
X108969Y319473D01*
X109081Y319602D01*
X109196Y319728D01*
X109314Y319852D01*
X109435Y319972D01*
X109559Y320090D01*
X109686Y320204D01*
X109815Y320315D01*
X109948Y320423D01*
X110083Y320528D01*
X110220Y320630D01*
X110360Y320728D01*
X110502Y320822D01*
X110647Y320914D01*
X110794Y321001D01*
X110942Y321085D01*
X111093Y321165D01*
X111246Y321242D01*
X111400Y321315D01*
X111557Y321384D01*
X111715Y321449D01*
X111874Y321510D01*
X112035Y321568D01*
X112197Y321621D01*
X112361Y321670D01*
X112526Y321716D01*
X112691Y321757D01*
X112858Y321795D01*
X113026Y321828D01*
X113194Y321857D01*
X113363Y321882D01*
X113533Y321903D01*
X113703Y321919D01*
X113873Y321932D01*
X114044Y321940D01*
X114215Y321944D01*
X114385Y321944D01*
X114556Y321940D01*
X114727Y321932D01*
X114897Y321919D01*
X115067Y321903D01*
X115237Y321882D01*
X115406Y321857D01*
X115574Y321828D01*
X115742Y321795D01*
X115909Y321757D01*
X116074Y321716D01*
X116239Y321670D01*
X116403Y321621D01*
X116565Y321568D01*
X116726Y321510D01*
X116885Y321449D01*
X117043Y321384D01*
X117200Y321315D01*
X117354Y321242D01*
X117507Y321165D01*
X117658Y321085D01*
X117806Y321001D01*
X117953Y320914D01*
X118098Y320822D01*
X118240Y320728D01*
X118380Y320630D01*
X118517Y320528D01*
X118652Y320423D01*
X118785Y320315D01*
X118914Y320204D01*
X119041Y320090D01*
X119165Y319972D01*
X119286Y319852D01*
X119404Y319728D01*
X119519Y319602D01*
X119631Y319473D01*
X119740Y319341D01*
X119846Y319207D01*
X119948Y319070D01*
X120047Y318930D01*
X120142Y318789D01*
X120234Y318645D01*
X120322Y318498D01*
X120407Y318350D01*
X120488Y318200D01*
X120566Y318047D01*
X120639Y317893D01*
X120709Y317737D01*
X120775Y317580D01*
X120837Y317421D01*
X120896Y317260D01*
X120950Y317098D01*
X121000Y316935D01*
X121046Y316770D01*
X121089Y316605D01*
X121127Y316438D01*
X121161Y316271D01*
X121191Y316102D01*
X121217Y315934D01*
X121239Y315764D01*
X121256Y315594D01*
X120044Y315594D01*
X120026Y315743D01*
X120003Y315892D01*
X119977Y316041D01*
X119947Y316189D01*
X119913Y316335D01*
X119875Y316481D01*
X119834Y316626D01*
X119788Y316770D01*
X119739Y316913D01*
X119686Y317054D01*
X119630Y317194D01*
X119570Y317332D01*
X119506Y317469D01*
X119439Y317604D01*
X119368Y317737D01*
X119294Y317868D01*
X119217Y317997D01*
X119136Y318124D01*
X119051Y318249D01*
X118964Y318372D01*
X118873Y318493D01*
X118780Y318611D01*
X118683Y318727D01*
X118583Y318840D01*
X118481Y318950D01*
X118375Y319058D01*
X118267Y319163D01*
X118156Y319265D01*
X118042Y319364D01*
X117926Y319460D01*
X117807Y319553D01*
X117686Y319643D01*
X117563Y319730D01*
X117438Y319813D01*
X117310Y319893D01*
X117180Y319970D01*
X117049Y320044D01*
X116915Y320113D01*
X116780Y320180D01*
X116643Y320243D01*
X116504Y320302D01*
X116364Y320358D01*
X116223Y320410D01*
X116080Y320458D01*
X115936Y320503D01*
X115791Y320543D01*
X115644Y320580D01*
X115497Y320614D01*
X115349Y320643D01*
X115201Y320668D01*
X115052Y320690D01*
X114902Y320708D01*
X114752Y320721D01*
X114601Y320731D01*
X114451Y320737D01*
X114300Y320739D01*
X114149Y320737D01*
X113999Y320731D01*
X113848Y320721D01*
X113698Y320708D01*
X113548Y320690D01*
X113399Y320668D01*
X113251Y320643D01*
X113103Y320614D01*
X112956Y320580D01*
X112809Y320543D01*
X112664Y320503D01*
X112520Y320458D01*
X112377Y320410D01*
X112236Y320358D01*
X112096Y320302D01*
X111957Y320243D01*
X111820Y320180D01*
X111685Y320113D01*
X111551Y320044D01*
X111420Y319970D01*
X111290Y319893D01*
X111162Y319813D01*
X111037Y319730D01*
X110914Y319643D01*
X110793Y319553D01*
X110674Y319460D01*
X110558Y319364D01*
X110444Y319265D01*
X110333Y319163D01*
X110225Y319058D01*
X110119Y318950D01*
X110017Y318840D01*
X109917Y318727D01*
X109820Y318611D01*
X109727Y318493D01*
X109636Y318372D01*
X109549Y318249D01*
X109464Y318124D01*
X109383Y317997D01*
X109306Y317868D01*
X109232Y317737D01*
X109161Y317604D01*
X109094Y317469D01*
X109030Y317332D01*
X108970Y317194D01*
X108914Y317054D01*
X108861Y316913D01*
X108812Y316770D01*
X108766Y316626D01*
X108725Y316481D01*
X108687Y316335D01*
X108653Y316189D01*
X108623Y316041D01*
X108597Y315892D01*
X108574Y315743D01*
X108556Y315594D01*
X109771Y315593D01*
X109791Y315725D01*
X109816Y315856D01*
X109844Y315987D01*
X109876Y316117D01*
X109911Y316246D01*
X109951Y316373D01*
X109994Y316500D01*
X110041Y316625D01*
X110091Y316749D01*
X110145Y316871D01*
X110203Y316991D01*
X110264Y317110D01*
X110329Y317227D01*
X110397Y317342D01*
X110468Y317455D01*
X110542Y317566D01*
X110620Y317675D01*
X110701Y317781D01*
X110785Y317885D01*
X110872Y317987D01*
X110962Y318086D01*
X111055Y318182D01*
X111150Y318275D01*
X111248Y318366D01*
X111349Y318454D01*
X111453Y318538D01*
X111558Y318620D01*
X111666Y318699D01*
X111777Y318774D01*
X111889Y318846D01*
X112004Y318915D01*
X112120Y318980D01*
X112239Y319042D01*
X112359Y319101D01*
X112481Y319156D01*
X112604Y319207D01*
X112729Y319255D01*
X112855Y319299D01*
X112983Y319339D01*
X113111Y319376D01*
X113241Y319409D01*
X113371Y319438D01*
X113502Y319463D01*
X113634Y319484D01*
X113767Y319502D01*
X113900Y319515D01*
X114033Y319525D01*
X114166Y319531D01*
X114300Y319533D01*
X114434Y319531D01*
X114567Y319525D01*
X114700Y319515D01*
X114833Y319502D01*
X114966Y319484D01*
X115098Y319463D01*
X115229Y319438D01*
X115359Y319409D01*
X115489Y319376D01*
X115617Y319339D01*
X115745Y319299D01*
X115871Y319255D01*
X115996Y319207D01*
X116119Y319156D01*
X116241Y319101D01*
X116361Y319042D01*
X116480Y318980D01*
X116596Y318915D01*
X116711Y318846D01*
X116823Y318774D01*
X116934Y318699D01*
X117042Y318620D01*
X117147Y318538D01*
X117251Y318454D01*
X117352Y318366D01*
X117450Y318275D01*
X117545Y318182D01*
X117638Y318086D01*
X117728Y317987D01*
X117815Y317885D01*
X117899Y317781D01*
X117980Y317675D01*
X118058Y317566D01*
X118132Y317455D01*
X118203Y317342D01*
X118271Y317227D01*
X118336Y317110D01*
X118397Y316991D01*
X118455Y316871D01*
X118509Y316749D01*
X118559Y316625D01*
X118606Y316500D01*
X118649Y316373D01*
X118689Y316246D01*
X118724Y316117D01*
X118756Y315987D01*
X118784Y315856D01*
X118809Y315725D01*
X118829Y315593D01*
X117607Y315591D01*
X117584Y315704D01*
X117557Y315815D01*
X117525Y315926D01*
X117491Y316035D01*
X117452Y316144D01*
X117410Y316251D01*
X117364Y316356D01*
X117315Y316460D01*
X117262Y316562D01*
X117205Y316662D01*
X117146Y316760D01*
X117082Y316856D01*
X117016Y316950D01*
X116947Y317041D01*
X116874Y317130D01*
X116799Y317217D01*
X116720Y317301D01*
X116639Y317382D01*
X116555Y317461D01*
X116468Y317536D01*
X116379Y317609D01*
X116287Y317678D01*
X116193Y317744D01*
X116097Y317807D01*
X115999Y317867D01*
X115899Y317923D01*
X115797Y317976D01*
X115693Y318025D01*
X115588Y318071D01*
X115481Y318113D01*
X115373Y318152D01*
X115263Y318186D01*
X115152Y318217D01*
X115041Y318244D01*
X114928Y318268D01*
X114815Y318287D01*
X114701Y318303D01*
X114587Y318315D01*
X114472Y318323D01*
X114357Y318327D01*
X114243Y318327D01*
X114128Y318323D01*
X114013Y318315D01*
X113899Y318303D01*
X113785Y318287D01*
X113672Y318268D01*
X113559Y318244D01*
X113448Y318217D01*
X113337Y318186D01*
X113227Y318152D01*
X113119Y318113D01*
X113012Y318071D01*
X112907Y318025D01*
X112803Y317976D01*
X112701Y317923D01*
X112601Y317867D01*
X112503Y317807D01*
X112407Y317744D01*
X112313Y317678D01*
X112221Y317609D01*
X112132Y317536D01*
X112045Y317461D01*
X111961Y317382D01*
X111880Y317301D01*
X111801Y317217D01*
X111726Y317130D01*
X111653Y317041D01*
X111584Y316950D01*
X111518Y316856D01*
X111454Y316760D01*
X111395Y316662D01*
X111338Y316562D01*
X111285Y316460D01*
X111236Y316356D01*
X111190Y316251D01*
X111148Y316144D01*
X111109Y316035D01*
X111075Y315926D01*
X111043Y315815D01*
X111016Y315704D01*
X110993Y315591D01*
X112232Y315586D01*
X112260Y315673D01*
X112292Y315760D01*
X112328Y315844D01*
X112368Y315927D01*
X112410Y316009D01*
X112457Y316088D01*
X112507Y316166D01*
X112559Y316241D01*
X112616Y316314D01*
X112675Y316384D01*
X112737Y316452D01*
X112802Y316517D01*
X112869Y316580D01*
X112939Y316639D01*
X113012Y316695D01*
X113087Y316749D01*
X113164Y316799D01*
X113244Y316845D01*
X113325Y316888D01*
X113408Y316928D01*
X113492Y316964D01*
X113578Y316997D01*
X113666Y317026D01*
X113754Y317051D01*
X113844Y317072D01*
X113934Y317090D01*
X114025Y317103D01*
X114116Y317113D01*
X114208Y317119D01*
X114300Y317121D01*
X114392Y317119D01*
X114484Y317113D01*
X114575Y317103D01*
X114666Y317090D01*
X114756Y317072D01*
X114846Y317051D01*
X114934Y317026D01*
X115022Y316997D01*
X115108Y316964D01*
X115192Y316928D01*
X115275Y316888D01*
X115356Y316845D01*
X115436Y316799D01*
X115513Y316749D01*
X115588Y316695D01*
X115661Y316639D01*
X115731Y316580D01*
X115798Y316517D01*
X115863Y316452D01*
X115925Y316384D01*
X115984Y316314D01*
X116041Y316241D01*
X116093Y316166D01*
X116143Y316088D01*
X116190Y316009D01*
X116232Y315927D01*
X116272Y315844D01*
X116308Y315760D01*
X116340Y315673D01*
X116368Y315586D01*
X115052Y315549D01*
X115013Y315595D01*
X114972Y315638D01*
X114929Y315679D01*
X114882Y315717D01*
X114834Y315752D01*
X114784Y315783D01*
X114731Y315812D01*
X114677Y315837D01*
X114622Y315859D01*
X114565Y315878D01*
X114507Y315892D01*
X114449Y315903D01*
X114389Y315911D01*
X114330Y315915D01*
X114270Y315915D01*
X114211Y315911D01*
X114151Y315903D01*
X114093Y315892D01*
X114035Y315878D01*
X113978Y315859D01*
X113923Y315837D01*
X113869Y315812D01*
X113816Y315783D01*
X113766Y315752D01*
X113718Y315717D01*
X113671Y315679D01*
X113628Y315638D01*
X113587Y315595D01*
X113548Y315549D01*
D14*
X114300Y304800D03*
D13*
X127635Y301734D02*
X129542Y299827D01*
X127635Y301734D02*
X127635Y303640D01*
X129542Y305547D01*
X139075Y305547D01*
X139075Y303640D02*
X139075Y307454D01*
X127635Y311521D02*
X127635Y319148D01*
X127635Y311521D02*
X135262Y319148D01*
X137168Y319148D01*
X139075Y317241D01*
X139075Y313428D01*
X137168Y311521D01*
M02*
