M48
;GenerationSoftware,Autodesk,EAGLE,9.5.1*%
;CreationDate,2021-04-27T23:22:24Z*%
FMAT,2
ICI,OFF
METRIC,TZ,000.000
T17C0.500
T16C0.600
T15C0.800
T14C0.813
T13C0.914
T12C1.000
T11C1.016
T10C1.194
T9C1.300
T8C1.321
T7C1.600
T6C2.400
T5C2.500
T4C3.200
T3C3.302
T2C3.556
T1C5.588
%
G90
M71
T1
X6985Y85725
X211455Y85725
T2
X86201Y121285
X111284Y121285
T3
X196469Y104140
T4
X6350Y5080
X212090Y4445
T5
X61595Y127635
X76518Y127635
X76518Y119065
X208280Y119065
X208280Y127635
X61595Y119065
T6
X18098Y128587
X12509Y123107
X23685Y123107
X42863Y128587
X37275Y123107
X48450Y123107
T7
X18098Y123250
X42863Y123250
T8
X102870Y80645
X39688Y46990
X86360Y6350
X82550Y6350
X90170Y6350
X153035Y119380
X106680Y66993
X184785Y57150
X33973Y68580
X73025Y103187
T9
X5080Y12382
X213995Y115570
T10
X98742Y111445
X95974Y111445
X93205Y111445
X101511Y111445
X102895Y114288
X100127Y114288
X97358Y114288
X94590Y114288
X104280Y111445
T11
X19749Y46990
X17463Y46990
X15176Y46990
X19749Y52070
X17463Y52070
X211455Y106680
X211455Y104140
X211455Y101600
X15176Y52070
T12
X76518Y115650
X180975Y61595
X183515Y61595
X31750Y88900
X34290Y88900
X36830Y88900
X39370Y88900
X178435Y61595
X41910Y88900
X175895Y61595
X173355Y61595
X170815Y61595
X168275Y61595
X165735Y61595
X61595Y115650
X208280Y115650
T13
X27940Y33973
X27940Y31432
X95885Y4445
X133668Y113982
X136208Y113982
X98425Y4445
T14
X122555Y20955
X122555Y18415
X122555Y15875
X122555Y13335
X122555Y10795
X122555Y8255
X106045Y8255
X106045Y10795
X106045Y23495
X106045Y26035
X106045Y13335
X106045Y15875
X106045Y20955
X106045Y18415
X106045Y28575
X98425Y28575
X98425Y26035
X98425Y23495
X98425Y20955
X98425Y18415
X98425Y15875
X98425Y13335
X98425Y10795
X98425Y8255
X198755Y13335
X198755Y15875
X198755Y28575
X191135Y28575
X198755Y18415
X198755Y20955
X198755Y26035
X198755Y23495
X191135Y26035
X191135Y23495
X191135Y20955
X191135Y18415
X191135Y15875
X191135Y13335
X187325Y13335
X187325Y15875
X187325Y28575
X179705Y28575
X187325Y18415
X187325Y20955
X187325Y26035
X187325Y23495
X179705Y26035
X179705Y23495
X179705Y20955
X179705Y18415
X179705Y15875
X179705Y13335
X210185Y13335
X210185Y15875
X210185Y28575
X202565Y28575
X210185Y18415
X210185Y20955
X210185Y26035
X210185Y23495
X202565Y26035
X202565Y23495
X202565Y20955
X202565Y18415
X202565Y15875
X202565Y13335
X108585Y93345
X108585Y95885
X108585Y108585
X100965Y108585
X108585Y98425
X108585Y100965
X108585Y106045
X108585Y103505
X100965Y106045
X100965Y103505
X100965Y100965
X100965Y98425
X100965Y95885
X100965Y93345
X95250Y38100
X95250Y40640
X95250Y53340
X95250Y55880
X95250Y43180
X95250Y45720
X95250Y50800
X95250Y48260
X95250Y58420
X95250Y60960
X95250Y63500
X95250Y66040
X95250Y68580
X95250Y71120
X95250Y73660
X95250Y76200
X95250Y78740
X95250Y81280
X95250Y83820
X95250Y86360
X80010Y86360
X80010Y83820
X80010Y81280
X80010Y78740
X80010Y76200
X80010Y73660
X80010Y71120
X80010Y68580
X80010Y66040
X80010Y63500
X80010Y60960
X80010Y58420
X80010Y55880
X80010Y53340
X80010Y50800
X80010Y48260
X80010Y45720
X80010Y43180
X80010Y40640
X80010Y38100
X52705Y38100
X52705Y40640
X52705Y53340
X45085Y53340
X52705Y43180
X52705Y45720
X52705Y50800
X52705Y48260
X45085Y50800
X45085Y48260
X45085Y45720
X45085Y43180
X45085Y40640
X45085Y38100
X175895Y13335
X175895Y15875
X175895Y28575
X168275Y28575
X175895Y18415
X175895Y20955
X175895Y26035
X175895Y23495
X168275Y26035
X168275Y23495
X168275Y20955
X168275Y18415
X168275Y15875
X168275Y13335
X164465Y10795
X164465Y13335
X164465Y26035
X164465Y28575
X164465Y15875
X164465Y18415
X164465Y23495
X164465Y20955
X156845Y28575
X156845Y26035
X156845Y23495
X156845Y20955
X156845Y18415
X156845Y15875
X156845Y13335
X156845Y10795
X153035Y10795
X153035Y13335
X153035Y26035
X153035Y28575
X153035Y15875
X153035Y18415
X153035Y23495
X153035Y20955
X145415Y28575
X145415Y26035
X145415Y23495
X145415Y20955
X15875Y114935
X145415Y18415
X145415Y15875
X145415Y13335
X145415Y10795
X70485Y63500
X70485Y66040
X70485Y78740
X70485Y81280
X70485Y68580
X70485Y71120
X70485Y76200
X70485Y73660
X62865Y81280
X62865Y78740
X62865Y76200
X62865Y73660
X62865Y71120
X62865Y68580
X62865Y66040
X62865Y63500
X55245Y63500
X55245Y66040
X55245Y78740
X55245Y81280
X55245Y68580
X55245Y71120
X55245Y76200
X55245Y73660
X47625Y81280
X47625Y78740
X47625Y76200
X47625Y73660
X47625Y71120
X47625Y68580
X47625Y66040
X47625Y63500
X29210Y76200
X29210Y83820
X132398Y40958
X132398Y35878
X129857Y38418
X99377Y34290
X99377Y39370
X101917Y36830
X94615Y108585
X97155Y106680
X94615Y104775
X32702Y38418
X32702Y43498
X35243Y40958
X114617Y68263
X109537Y68263
X112077Y70803
X113665Y63500
X126365Y63500
X70485Y55880
X57785Y55880
X70485Y53340
X57785Y53340
X70485Y50800
X57785Y50800
X70485Y48260
X57785Y48260
X70485Y45720
X57785Y45720
X70485Y43180
X57785Y43180
X57785Y40640
X70485Y40640
X179070Y85725
X166370Y85725
X179070Y83185
X166370Y83185
X179070Y80645
X166370Y80645
X113665Y60960
X126365Y60960
X179070Y78105
X166370Y78105
X179070Y75565
X166370Y75565
X179070Y73025
X166370Y73025
X179070Y70485
X166370Y70485
X179070Y67945
X166370Y67945
X113665Y40640
X126365Y40640
X204470Y34290
X191770Y34290
X126365Y38100
X113665Y38100
X210185Y48260
X210185Y60960
X135890Y73660
X135890Y86360
X113665Y58420
X126365Y58420
X163195Y85725
X163195Y73025
X209550Y76835
X196850Y76835
X166370Y65405
X179070Y65405
X186372Y31750
X199072Y31750
X113665Y75883
X100965Y75883
X69215Y98425
X56515Y98425
X69215Y95885
X56515Y95885
X69215Y93345
X56515Y93345
X69215Y90805
X56515Y90805
X69215Y88265
X56515Y88265
X113665Y55880
X126365Y55880
X56515Y100965
X69215Y100965
X61595Y106045
X56515Y106045
X61595Y111125
X56515Y111125
X111760Y103505
X91440Y109855
X91440Y97155
X196850Y74295
X209550Y74295
X88265Y111125
X75565Y111125
X97155Y88265
X97155Y100965
X108585Y49530
X108585Y36830
X103505Y40640
X103505Y53340
X113665Y53340
X126365Y53340
X106045Y34290
X106045Y46990
X113665Y43180
X126365Y43180
X42545Y107315
X42545Y102235
X39370Y102235
X39370Y107315
X113665Y50800
X126365Y50800
X12700Y80010
X12700Y67310
X29845Y38735
X29845Y51435
X23495Y38735
X23495Y51435
X26670Y38735
X26670Y51435
X6350Y36830
X6350Y49530
X9525Y67310
X9525Y80010
X80645Y113665
X85725Y113665
X113665Y48260
X126365Y48260
X69215Y127635
X69215Y122555
X29210Y73660
X29210Y68580
X33655Y86360
X33655Y81280
X64135Y111125
X69215Y111125
X64135Y108585
X69215Y108585
X16192Y55880
X16192Y68580
X113665Y45720
X126365Y45720
X70485Y58420
X57785Y58420
X113665Y66040
X126365Y66040
X86995Y102362
X86995Y107188
X110490Y80645
X107950Y80645
X105410Y80645
X57785Y80963
X57785Y86043
X74295Y85090
X74295Y80010
X31750Y94615
X31750Y99695
X60325Y5715
X55245Y5715
X17145Y5715
X12065Y5715
X207645Y8890
X202565Y8890
X184785Y8890
X179705Y8890
X162560Y7302
X157480Y7302
X46355Y31750
X41275Y31750
X92075Y31750
X86995Y31750
X24765Y34290
X19685Y34290
X94615Y34290
X89535Y34290
X71755Y34290
X66675Y34290
X48895Y34290
X43815Y34290
X107315Y87630
X102235Y87630
X48895Y111125
X50800Y112395
X48895Y113665
X45720Y107315
X45720Y102235
X72390Y111125
X72390Y116205
X37465Y112395
X42545Y112395
X48895Y107315
X48895Y102235
X128270Y68580
X128270Y71120
X128270Y83820
X128270Y86360
X128270Y73660
X128270Y76200
X128270Y81280
X128270Y78740
X128270Y88900
X128270Y91440
X120650Y91440
X120650Y88900
X120650Y86360
X120650Y83820
X120650Y81280
X120650Y78740
X120650Y76200
X120650Y73660
X120650Y71120
X120650Y68580
X42545Y94615
X42545Y99695
X45720Y94615
X45720Y99695
X19050Y55880
X19050Y68580
X203200Y81280
X203200Y86360
X210820Y66040
X210820Y71120
X212090Y74295
X212090Y79375
X210185Y38100
X210185Y43180
X157480Y63500
X157480Y58420
X135890Y71120
X135890Y66040
X142240Y31115
X137160Y31115
X130810Y31115
X125730Y31115
X196106Y88791
X192514Y85199
X116840Y31115
X111760Y31115
X105727Y31115
X100647Y31115
X74295Y43180
X74295Y38100
X200025Y126365
X200025Y121285
X21907Y86043
X21907Y91122
X31750Y107315
X31750Y102235
X35560Y102235
X35560Y107315
X25082Y86043
X25082Y91122
X19050Y86360
X19050Y91440
X52705Y128270
X52705Y123190
X33020Y56515
X27940Y56515
X33020Y60960
X27940Y60960
X33020Y64770
X27940Y64770
X32702Y51435
X32702Y46355
X20320Y42545
X15240Y42545
X16447Y38418
X18479Y38418
X7620Y34608
X12700Y34608
X12700Y55880
X12700Y60960
X13017Y90868
X13017Y88836
X5080Y119380
X5080Y124460
X54610Y120015
X54610Y114935
X73025Y106045
X78105Y106045
X33655Y78740
X33655Y73660
X71755Y90805
X71755Y85725
X111760Y113665
X111760Y108585
X94615Y102235
X94615Y97155
X80645Y97155
X85725Y97155
X100965Y50800
X100965Y45720
X100965Y73343
X113665Y73343
X213995Y26670
X213995Y13970
X213995Y29210
X213995Y41910
X69215Y103505
X56515Y103505
X61595Y108585
X56515Y108585
X22225Y55880
X22225Y68580
X22225Y70485
X22225Y83185
X25400Y55880
X25400Y68580
X25400Y70485
X25400Y83185
X9525Y49530
X9525Y36830
X166370Y55880
X179070Y55880
X12700Y39370
X12700Y52070
X3810Y20955
X3810Y33655
X6350Y64770
X6350Y52070
X9525Y64770
X9525Y52070
X6350Y67310
X6350Y80010
X69215Y114935
X69215Y120015
X69215Y106045
X64135Y106045
X19050Y70485
X19050Y83185
X166370Y53340
X179070Y53340
X166370Y50800
X179070Y50800
X166370Y38100
X179070Y38100
X166370Y40640
X179070Y40640
X166370Y43180
X179070Y43180
X166370Y45720
X179070Y45720
X166370Y48260
X179070Y48260
X153670Y38100
X153670Y40640
X153670Y53340
X153670Y55880
X153670Y43180
X153670Y45720
X153670Y50800
X153670Y48260
X153670Y58420
X153670Y60960
X153670Y63500
X153670Y66040
X153670Y68580
X153670Y71120
X153670Y73660
X153670Y76200
X153670Y78740
X153670Y81280
X153670Y83820
X153670Y86360
X138430Y86360
X138430Y83820
X138430Y81280
X138430Y78740
X138430Y76200
X138430Y73660
X138430Y71120
X138430Y68580
X138430Y66040
X138430Y63500
X138430Y60960
X138430Y58420
X138430Y55880
X138430Y53340
X138430Y50800
X138430Y48260
X138430Y45720
X138430Y43180
X138430Y40640
X138430Y38100
X43815Y58420
X43815Y60960
X43815Y73660
X43815Y76200
X43815Y63500
X43815Y66040
X43815Y71120
X43815Y68580
X43815Y78740
X43815Y81280
X36195Y81280
X36195Y78740
X36195Y76200
X36195Y73660
X36195Y71120
X36195Y68580
X36195Y66040
X36195Y63500
X36195Y60960
X36195Y58420
X5715Y107315
X8255Y107315
X20955Y107315
X23495Y107315
X10795Y107315
X13335Y107315
X18415Y107315
X15875Y107315
X26035Y107315
X26035Y114935
X23495Y114935
X20955Y114935
X18415Y114935
X111760Y90805
X13335Y114935
X10795Y114935
X8255Y114935
X5715Y114935
X14605Y10795
X14605Y13335
X14605Y26035
X14605Y28575
X14605Y15875
X14605Y18415
X14605Y23495
X14605Y20955
X6985Y28575
X6985Y26035
X6985Y23495
X6985Y20955
X6985Y18415
X6985Y15875
X6985Y13335
X6985Y10795
X26035Y10795
X26035Y13335
X26035Y26035
X26035Y28575
X26035Y15875
X26035Y18415
X26035Y23495
X26035Y20955
X18415Y28575
X18415Y26035
X18415Y23495
X18415Y20955
X18415Y18415
X18415Y15875
X18415Y13335
X18415Y10795
X37465Y10795
X37465Y13335
X37465Y26035
X37465Y28575
X37465Y15875
X37465Y18415
X37465Y23495
X37465Y20955
X29845Y28575
X29845Y26035
X29845Y23495
X29845Y20955
X29845Y18415
X29845Y15875
X29845Y13335
X29845Y10795
X48895Y10795
X48895Y13335
X48895Y26035
X48895Y28575
X48895Y15875
X48895Y18415
X48895Y23495
X48895Y20955
X41275Y28575
X41275Y26035
X41275Y23495
X41275Y20955
X41275Y18415
X41275Y15875
X41275Y13335
X41275Y10795
X60325Y10795
X60325Y13335
X60325Y26035
X60325Y28575
X60325Y15875
X60325Y18415
X60325Y23495
X60325Y20955
X52705Y28575
X52705Y26035
X52705Y23495
X52705Y20955
X52705Y18415
X52705Y15875
X52705Y13335
X52705Y10795
X71755Y10795
X71755Y13335
X71755Y26035
X71755Y28575
X71755Y15875
X71755Y18415
X71755Y23495
X71755Y20955
X64135Y28575
X64135Y26035
X64135Y23495
X64135Y20955
X64135Y18415
X64135Y15875
X64135Y13335
X64135Y10795
X83185Y10795
X83185Y13335
X83185Y26035
X83185Y28575
X83185Y15875
X83185Y18415
X83185Y23495
X83185Y20955
X75565Y28575
X75565Y26035
X75565Y23495
X75565Y20955
X75565Y18415
X75565Y15875
X75565Y13335
X75565Y10795
X206375Y38100
X206375Y40640
X206375Y53340
X206375Y55880
X206375Y43180
X206375Y45720
X206375Y50800
X206375Y48260
X206375Y58420
X206375Y60960
X206375Y63500
X206375Y66040
X206375Y68580
X206375Y71120
X191135Y71120
X191135Y68580
X191135Y66040
X191135Y63500
X191135Y60960
X191135Y58420
X191135Y55880
X191135Y53340
X191135Y50800
X191135Y48260
X191135Y45720
X191135Y43180
X191135Y40640
X191135Y38100
X94615Y10795
X94615Y13335
X94615Y26035
X94615Y28575
X94615Y15875
X94615Y18415
X94615Y23495
X94615Y20955
X86995Y28575
X86995Y26035
X86995Y23495
X86995Y20955
X86995Y18415
X86995Y15875
X86995Y13335
X86995Y10795
X141605Y8255
X141605Y10795
X141605Y23495
X141605Y26035
X141605Y13335
X141605Y15875
X141605Y20955
X141605Y18415
X141605Y28575
X133985Y28575
X133985Y26035
X133985Y23495
X133985Y20955
X133985Y18415
X133985Y15875
X133985Y13335
X133985Y10795
X133985Y8255
X117475Y8255
X117475Y10795
X117475Y23495
X117475Y26035
X117475Y13335
X117475Y15875
X117475Y20955
X117475Y18415
X117475Y28575
X109855Y28575
X109855Y26035
X109855Y23495
X109855Y20955
X109855Y18415
X109855Y15875
X109855Y13335
X109855Y10795
X109855Y8255
X130175Y8255
X130175Y10795
X130175Y23495
X130175Y26035
X130175Y13335
X130175Y15875
X130175Y20955
X130175Y18415
X130175Y28575
X122555Y28575
X122555Y26035
X122555Y23495
T15
X119380Y8255
X120650Y8255
X119380Y6667
X120650Y6667
X117475Y90805
X114935Y90805
X114935Y88265
X117475Y88265
X116205Y86995
X116205Y89535
X115887Y130175
X118427Y130175
X118427Y127635
X115887Y127635
X117157Y126365
X135255Y118110
X137160Y118110
X40005Y85090
X40640Y78740
X184150Y110490
X167005Y110807
X40005Y67310
X36036Y55880
X26670Y53975
X97155Y123825
X171450Y111760
X99695Y123825
X196850Y113665
X194945Y113665
X188595Y106680
X188595Y104775
X188595Y102870
X188595Y100965
X203200Y100965
X203200Y102870
X203200Y104775
X203200Y106680
X117157Y128905
X85408Y127000
X87313Y127000
X89217Y127000
X91122Y127000
X118110Y33655
X120015Y33655
X121920Y33655
X119062Y32385
X120967Y32385
X212407Y11112
X189865Y93345
X36195Y85090
X126365Y94615
X132080Y93345
X191770Y93345
X163195Y93345
X157480Y93345
X76200Y90805
T16
X159068Y88265
X159385Y30480
X73660Y32385
X83185Y88265
X97472Y38100
X108267Y126365
X154940Y118110
X82550Y104775
X52705Y66040
X148590Y7620
X133985Y89535
X132398Y63500
X169545Y120015
X11430Y27305
X122555Y43180
X123507Y30480
X47625Y43180
X122555Y94615
X174625Y120015
X15875Y81915
X191135Y120015
X38418Y35560
X83185Y34290
X14605Y34925
X10795Y34925
X4445Y55245
X29210Y107950
X130175Y115570
X74295Y62230
X132080Y68580
X60325Y34925
T17
X156210Y68580
X206375Y13335
X184150Y17145
X172720Y48260
X120650Y120015
X121285Y107315
X143510Y105410
X99695Y43180
X99695Y68580
X108585Y59055
X109855Y66040
X146368Y67310
X147320Y48260
X204152Y41910
X206375Y27305
X182880Y27305
X170815Y45720
X200660Y27305
X98107Y44450
X110490Y96520
X120650Y100330
X170180Y72390
X144780Y72390
X140970Y105410
X123190Y106997
X149860Y45720
X124460Y44450
X161925Y84455
X160973Y120015
X205105Y20638
X205105Y52070
X113665Y84455
X197485Y53340
X197485Y79375
X170815Y81915
X164783Y97790
X160020Y97790
X159385Y120015
X196532Y15875
X199390Y38735
X200025Y75565
X189230Y75565
X135890Y80010
X176530Y105727
X163830Y120015
X159385Y104775
X132715Y106045
X193675Y13335
X180340Y101600
X135890Y76200
X167005Y120015
X161925Y101600
X111760Y74930
X137160Y102552
X148908Y76200
X130810Y73660
X132080Y59690
X98107Y71120
X163830Y58420
X163195Y63500
X84455Y67310
X81915Y107950
X134620Y108585
X152400Y34290
X135890Y35560
X213995Y34290
X186690Y38100
X113030Y10795
X179705Y60325
X155575Y59690
X154940Y46990
X157480Y97155
X128905Y97155
X127635Y120015
X114617Y44450
X180975Y63500
X151130Y49530
X125730Y13970
X142875Y120015
X143510Y77153
X122237Y76835
X116840Y50800
X146050Y51435
X144780Y57785
X145415Y120015
X188595Y59690
X177165Y59055
X187960Y53340
X115570Y53340
X150495Y120015
X148590Y87313
X148590Y53340
X189230Y78740
X161290Y76200
X161290Y58420
X132080Y55880
X147955Y120015
X148590Y98425
X122555Y100330
X162560Y69215
X162560Y66040
X181610Y69850
X140335Y120015
X135890Y83185
X133350Y58420
X151130Y58420
X125730Y82550
X182880Y67310
X151130Y67310
X130175Y59690
X151130Y60960
X119380Y60960
X119380Y118745
X184150Y64770
X151765Y65405
X129540Y63500
X132715Y120015
X126047Y73660
X151130Y43180
X107950Y40640
X135890Y63500
X135890Y68580
X143510Y69850
X144145Y53340
X104775Y43180
X102235Y25400
X89535Y27305
X84455Y118110
X130810Y111760
X84455Y48260
X188912Y55880
X188912Y35560
X154940Y35560
X135255Y37465
X75565Y104140
X113665Y99377
X113030Y112395
X139065Y109855
X166370Y107315
X202565Y78105
X173990Y83820
X201930Y33020
X147320Y33020
X144780Y39370
X137160Y39370
X171450Y33020
X41275Y72390
X36830Y51435
X55245Y54610
X54610Y36195
X111125Y39370
X111760Y57150
X146685Y59690
X99695Y66040
X99695Y55245
X84455Y55880
X83185Y77470
X65405Y77470
X147320Y54610
X149860Y26035
X185420Y50482
X183515Y34608
X174625Y34608
X174625Y24765
X60007Y54610
X78423Y55880
X78740Y62230
X90170Y60960
X90170Y52070
X100330Y52705
X100965Y61912
X175260Y72390
X208915Y68580
X140970Y50800
X161290Y49530
X195580Y45720
X194945Y9525
X171450Y9525
X201295Y49530
X201295Y74295
X176212Y76835
X43815Y39370
X132715Y49530
X132715Y46990
X105410Y51435
X100965Y40958
X148590Y20320
X184785Y44450
X184785Y20320
X140335Y17145
X83185Y80010
X83185Y114300
X168275Y106680
X136525Y109220
X143510Y48260
X206375Y21590
X173990Y36830
X140970Y36830
X77153Y66040
X77788Y80963
X123507Y82233
X124460Y69850
X149225Y71120
X153035Y107950
X164465Y108585
X147320Y45720
X142875Y72390
X67945Y64770
X87947Y64770
X88265Y46990
X185420Y120015
X176530Y107315
X154940Y108267
X151130Y79693
X164465Y80645
X156210Y44450
X162560Y44450
X172720Y34290
X163195Y34290
X163830Y46990
X163830Y41910
X177165Y102870
X163195Y104775
X67310Y107315
X193040Y49530
X187960Y120015
X160020Y24765
X157480Y39370
X165100Y39370
X107315Y44450
X89535Y49530
X88900Y74930
X182245Y50800
X182245Y36830
X105410Y38735
X89535Y24765
X91440Y71120
X179705Y104140
X171450Y104140
X103822Y23495
X198120Y40005
X181610Y97155
X124460Y100330
X73025Y100965
X67945Y68580
X161290Y40640
X161290Y15875
X123190Y120015
X61595Y103187
X123825Y104775
X165735Y103505
X175260Y43180
X193040Y62230
X177165Y100330
X111125Y100965
X111760Y8255
X137160Y8255
X100330Y8255
X144780Y8255
X125730Y8255
X179070Y99060
X206375Y17145
X204470Y46990
X199390Y46990
X200660Y72390
X172720Y74295
X167005Y102235
X110490Y102552
X202565Y75565
X167005Y14605
X195580Y14605
X154940Y14605
X137160Y15240
X137160Y12700
X163195Y14605
X147320Y24765
X140335Y22225
X152083Y22225
X177800Y96520
X173673Y26035
X93345Y93345
X102870Y74930
X106045Y92710
X124460Y96520
X124777Y76200
X87313Y96202
X97790Y79375
X124460Y86360
X123190Y97790
X97155Y95885
X120650Y96837
X71120Y94615
X83503Y116205
X109220Y71755
X118427Y73660
X128270Y49530
X120650Y49530
X24765Y36830
X41910Y38100
X42545Y53975
X33655Y14605
X41275Y52705
X39370Y53657
X49530Y67310
X65405Y69850
X80010Y13335
X78105Y35560
X111442Y36513
X62230Y50800
X62230Y48260
X60325Y45720
X59055Y77470
X61595Y43180
X59055Y72390
X122555Y88265
X173990Y65405
X172085Y120015
X173990Y80645
X200660Y78740
X180975Y109220
X155575Y110490
X156210Y120015
X163195Y78105
X174625Y96520
X55245Y19685
X59690Y40640
X93027Y40640
X90805Y15875
X51435Y58420
X51435Y81280
X50165Y55880
X169228Y84455
X127000Y87630
X127000Y110490
X168910Y38100
X168593Y51117
X173990Y53340
X181292Y48260
X108585Y83820
X175260Y85090
X102235Y94615
X107315Y73660
X106680Y106045
X90805Y63500
X89535Y78740
X139065Y96520
X55880Y49530
X168593Y74295
X104775Y73660
X104775Y75565
X35560Y92710
X19685Y97155
X27305Y97155
X33020Y71120
X17145Y99695
X18415Y93980
X106045Y108585
X66675Y109855
X66675Y114935
X50165Y71120
X40005Y71120
X64770Y89535
X52070Y89535
X107950Y77470
X87947Y77153
X86995Y50800
X36195Y44450
X76835Y48260
X77788Y83820
X66040Y92710
X59055Y74930
X63500Y104140
X85090Y109855
X86360Y83820
X77788Y53340
X79058Y69850
X86995Y69850
X86995Y81280
X157798Y120015
X160655Y81280
X179705Y120015
X171768Y97790
X140970Y96837
X171450Y17145
X169545Y52070
X186690Y52070
X182245Y120015
X76835Y77470
X77788Y41275
X197802Y86678
X36830Y91440
X61595Y113665
X182880Y112077
X159703Y113982
X54610Y121920
X176530Y54610
X60642Y92710
X57150Y77470
X78105Y110490
X38735Y41910
X77788Y45720
X34608Y75565
X156210Y52070
X51117Y39370
X51117Y48895
X34925Y46990
X87630Y105410
X102235Y125095
X9525Y55880
X55880Y38100
X140335Y94932
X134938Y94932
M30