G04 EAGLE Gerber RS-274X export*
G75*
%MOMM*%
%FSLAX34Y34*%
%LPD*%
%INTop Paste*%
%IPPOS*%
%AMOC8*
5,1,8,0,0,1.08239X$1,22.5*%
G01*
%ADD10C,1.143000*%
%ADD11R,1.168400X1.600200*%
%ADD12R,1.600200X1.168400*%


D10*
X1213485Y1308735D02*
X1213485Y1218565D01*
X1212215Y1218565D01*
X1212215Y1308735D01*
X1213485Y1308735D01*
X1213485Y1229423D02*
X1212215Y1229423D01*
X1212215Y1240281D02*
X1213485Y1240281D01*
X1213485Y1251139D02*
X1212215Y1251139D01*
X1212215Y1261997D02*
X1213485Y1261997D01*
X1213485Y1272855D02*
X1212215Y1272855D01*
X1212215Y1283713D02*
X1213485Y1283713D01*
X1213485Y1294571D02*
X1212215Y1294571D01*
X1212215Y1305429D02*
X1213485Y1305429D01*
X1238885Y1308735D02*
X1238885Y1218565D01*
X1237615Y1218565D01*
X1237615Y1308735D01*
X1238885Y1308735D01*
X1238885Y1229423D02*
X1237615Y1229423D01*
X1237615Y1240281D02*
X1238885Y1240281D01*
X1238885Y1251139D02*
X1237615Y1251139D01*
X1237615Y1261997D02*
X1238885Y1261997D01*
X1238885Y1272855D02*
X1237615Y1272855D01*
X1237615Y1283713D02*
X1238885Y1283713D01*
X1238885Y1294571D02*
X1237615Y1294571D01*
X1237615Y1305429D02*
X1238885Y1305429D01*
X1264285Y1308735D02*
X1264285Y1218565D01*
X1263015Y1218565D01*
X1263015Y1308735D01*
X1264285Y1308735D01*
X1264285Y1229423D02*
X1263015Y1229423D01*
X1263015Y1240281D02*
X1264285Y1240281D01*
X1264285Y1251139D02*
X1263015Y1251139D01*
X1263015Y1261997D02*
X1264285Y1261997D01*
X1264285Y1272855D02*
X1263015Y1272855D01*
X1263015Y1283713D02*
X1264285Y1283713D01*
X1264285Y1294571D02*
X1263015Y1294571D01*
X1263015Y1305429D02*
X1264285Y1305429D01*
X1289685Y1308735D02*
X1289685Y1218565D01*
X1288415Y1218565D01*
X1288415Y1308735D01*
X1289685Y1308735D01*
X1289685Y1229423D02*
X1288415Y1229423D01*
X1288415Y1240281D02*
X1289685Y1240281D01*
X1289685Y1251139D02*
X1288415Y1251139D01*
X1288415Y1261997D02*
X1289685Y1261997D01*
X1289685Y1272855D02*
X1288415Y1272855D01*
X1288415Y1283713D02*
X1289685Y1283713D01*
X1289685Y1294571D02*
X1288415Y1294571D01*
X1288415Y1305429D02*
X1289685Y1305429D01*
X1340485Y1308735D02*
X1340485Y1218565D01*
X1339215Y1218565D01*
X1339215Y1308735D01*
X1340485Y1308735D01*
X1340485Y1229423D02*
X1339215Y1229423D01*
X1339215Y1240281D02*
X1340485Y1240281D01*
X1340485Y1251139D02*
X1339215Y1251139D01*
X1339215Y1261997D02*
X1340485Y1261997D01*
X1340485Y1272855D02*
X1339215Y1272855D01*
X1339215Y1283713D02*
X1340485Y1283713D01*
X1340485Y1294571D02*
X1339215Y1294571D01*
X1339215Y1305429D02*
X1340485Y1305429D01*
X1365885Y1308735D02*
X1365885Y1218565D01*
X1364615Y1218565D01*
X1364615Y1308735D01*
X1365885Y1308735D01*
X1365885Y1229423D02*
X1364615Y1229423D01*
X1364615Y1240281D02*
X1365885Y1240281D01*
X1365885Y1251139D02*
X1364615Y1251139D01*
X1364615Y1261997D02*
X1365885Y1261997D01*
X1365885Y1272855D02*
X1364615Y1272855D01*
X1364615Y1283713D02*
X1365885Y1283713D01*
X1365885Y1294571D02*
X1364615Y1294571D01*
X1364615Y1305429D02*
X1365885Y1305429D01*
X1391285Y1308735D02*
X1391285Y1218565D01*
X1390015Y1218565D01*
X1390015Y1308735D01*
X1391285Y1308735D01*
X1391285Y1229423D02*
X1390015Y1229423D01*
X1390015Y1240281D02*
X1391285Y1240281D01*
X1391285Y1251139D02*
X1390015Y1251139D01*
X1390015Y1261997D02*
X1391285Y1261997D01*
X1391285Y1272855D02*
X1390015Y1272855D01*
X1390015Y1283713D02*
X1391285Y1283713D01*
X1391285Y1294571D02*
X1390015Y1294571D01*
X1390015Y1305429D02*
X1391285Y1305429D01*
X1416685Y1308735D02*
X1416685Y1218565D01*
X1415415Y1218565D01*
X1415415Y1308735D01*
X1416685Y1308735D01*
X1416685Y1229423D02*
X1415415Y1229423D01*
X1415415Y1240281D02*
X1416685Y1240281D01*
X1416685Y1251139D02*
X1415415Y1251139D01*
X1415415Y1261997D02*
X1416685Y1261997D01*
X1416685Y1272855D02*
X1415415Y1272855D01*
X1415415Y1283713D02*
X1416685Y1283713D01*
X1416685Y1294571D02*
X1415415Y1294571D01*
X1415415Y1305429D02*
X1416685Y1305429D01*
X1442085Y1308735D02*
X1442085Y1218565D01*
X1440815Y1218565D01*
X1440815Y1308735D01*
X1442085Y1308735D01*
X1442085Y1229423D02*
X1440815Y1229423D01*
X1440815Y1240281D02*
X1442085Y1240281D01*
X1442085Y1251139D02*
X1440815Y1251139D01*
X1440815Y1261997D02*
X1442085Y1261997D01*
X1442085Y1272855D02*
X1440815Y1272855D01*
X1440815Y1283713D02*
X1442085Y1283713D01*
X1442085Y1294571D02*
X1440815Y1294571D01*
X1440815Y1305429D02*
X1442085Y1305429D01*
X1467485Y1308735D02*
X1467485Y1218565D01*
X1466215Y1218565D01*
X1466215Y1308735D01*
X1467485Y1308735D01*
X1467485Y1229423D02*
X1466215Y1229423D01*
X1466215Y1240281D02*
X1467485Y1240281D01*
X1467485Y1251139D02*
X1466215Y1251139D01*
X1466215Y1261997D02*
X1467485Y1261997D01*
X1467485Y1272855D02*
X1466215Y1272855D01*
X1466215Y1283713D02*
X1467485Y1283713D01*
X1467485Y1294571D02*
X1466215Y1294571D01*
X1466215Y1305429D02*
X1467485Y1305429D01*
X1492885Y1308735D02*
X1492885Y1218565D01*
X1491615Y1218565D01*
X1491615Y1308735D01*
X1492885Y1308735D01*
X1492885Y1229423D02*
X1491615Y1229423D01*
X1491615Y1240281D02*
X1492885Y1240281D01*
X1492885Y1251139D02*
X1491615Y1251139D01*
X1491615Y1261997D02*
X1492885Y1261997D01*
X1492885Y1272855D02*
X1491615Y1272855D01*
X1491615Y1283713D02*
X1492885Y1283713D01*
X1492885Y1294571D02*
X1491615Y1294571D01*
X1491615Y1305429D02*
X1492885Y1305429D01*
X1518285Y1308735D02*
X1518285Y1218565D01*
X1517015Y1218565D01*
X1517015Y1308735D01*
X1518285Y1308735D01*
X1518285Y1229423D02*
X1517015Y1229423D01*
X1517015Y1240281D02*
X1518285Y1240281D01*
X1518285Y1251139D02*
X1517015Y1251139D01*
X1517015Y1261997D02*
X1518285Y1261997D01*
X1518285Y1272855D02*
X1517015Y1272855D01*
X1517015Y1283713D02*
X1518285Y1283713D01*
X1518285Y1294571D02*
X1517015Y1294571D01*
X1517015Y1305429D02*
X1518285Y1305429D01*
X1543685Y1308735D02*
X1543685Y1218565D01*
X1542415Y1218565D01*
X1542415Y1308735D01*
X1543685Y1308735D01*
X1543685Y1229423D02*
X1542415Y1229423D01*
X1542415Y1240281D02*
X1543685Y1240281D01*
X1543685Y1251139D02*
X1542415Y1251139D01*
X1542415Y1261997D02*
X1543685Y1261997D01*
X1543685Y1272855D02*
X1542415Y1272855D01*
X1542415Y1283713D02*
X1543685Y1283713D01*
X1543685Y1294571D02*
X1542415Y1294571D01*
X1542415Y1305429D02*
X1543685Y1305429D01*
X1569085Y1308735D02*
X1569085Y1218565D01*
X1567815Y1218565D01*
X1567815Y1308735D01*
X1569085Y1308735D01*
X1569085Y1229423D02*
X1567815Y1229423D01*
X1567815Y1240281D02*
X1569085Y1240281D01*
X1569085Y1251139D02*
X1567815Y1251139D01*
X1567815Y1261997D02*
X1569085Y1261997D01*
X1569085Y1272855D02*
X1567815Y1272855D01*
X1567815Y1283713D02*
X1569085Y1283713D01*
X1569085Y1294571D02*
X1567815Y1294571D01*
X1567815Y1305429D02*
X1569085Y1305429D01*
X1594485Y1308735D02*
X1594485Y1218565D01*
X1593215Y1218565D01*
X1593215Y1308735D01*
X1594485Y1308735D01*
X1594485Y1229423D02*
X1593215Y1229423D01*
X1593215Y1240281D02*
X1594485Y1240281D01*
X1594485Y1251139D02*
X1593215Y1251139D01*
X1593215Y1261997D02*
X1594485Y1261997D01*
X1594485Y1272855D02*
X1593215Y1272855D01*
X1593215Y1283713D02*
X1594485Y1283713D01*
X1594485Y1294571D02*
X1593215Y1294571D01*
X1593215Y1305429D02*
X1594485Y1305429D01*
X1619885Y1308735D02*
X1619885Y1218565D01*
X1618615Y1218565D01*
X1618615Y1308735D01*
X1619885Y1308735D01*
X1619885Y1229423D02*
X1618615Y1229423D01*
X1618615Y1240281D02*
X1619885Y1240281D01*
X1619885Y1251139D02*
X1618615Y1251139D01*
X1618615Y1261997D02*
X1619885Y1261997D01*
X1619885Y1272855D02*
X1618615Y1272855D01*
X1618615Y1283713D02*
X1619885Y1283713D01*
X1619885Y1294571D02*
X1618615Y1294571D01*
X1618615Y1305429D02*
X1619885Y1305429D01*
X1645285Y1308735D02*
X1645285Y1218565D01*
X1644015Y1218565D01*
X1644015Y1308735D01*
X1645285Y1308735D01*
X1645285Y1229423D02*
X1644015Y1229423D01*
X1644015Y1240281D02*
X1645285Y1240281D01*
X1645285Y1251139D02*
X1644015Y1251139D01*
X1644015Y1261997D02*
X1645285Y1261997D01*
X1645285Y1272855D02*
X1644015Y1272855D01*
X1644015Y1283713D02*
X1645285Y1283713D01*
X1645285Y1294571D02*
X1644015Y1294571D01*
X1644015Y1305429D02*
X1645285Y1305429D01*
X1670685Y1308735D02*
X1670685Y1218565D01*
X1669415Y1218565D01*
X1669415Y1308735D01*
X1670685Y1308735D01*
X1670685Y1229423D02*
X1669415Y1229423D01*
X1669415Y1240281D02*
X1670685Y1240281D01*
X1670685Y1251139D02*
X1669415Y1251139D01*
X1669415Y1261997D02*
X1670685Y1261997D01*
X1670685Y1272855D02*
X1669415Y1272855D01*
X1669415Y1283713D02*
X1670685Y1283713D01*
X1670685Y1294571D02*
X1669415Y1294571D01*
X1669415Y1305429D02*
X1670685Y1305429D01*
X1696085Y1308735D02*
X1696085Y1218565D01*
X1694815Y1218565D01*
X1694815Y1308735D01*
X1696085Y1308735D01*
X1696085Y1229423D02*
X1694815Y1229423D01*
X1694815Y1240281D02*
X1696085Y1240281D01*
X1696085Y1251139D02*
X1694815Y1251139D01*
X1694815Y1261997D02*
X1696085Y1261997D01*
X1696085Y1272855D02*
X1694815Y1272855D01*
X1694815Y1283713D02*
X1696085Y1283713D01*
X1696085Y1294571D02*
X1694815Y1294571D01*
X1694815Y1305429D02*
X1696085Y1305429D01*
X1721485Y1308735D02*
X1721485Y1218565D01*
X1720215Y1218565D01*
X1720215Y1308735D01*
X1721485Y1308735D01*
X1721485Y1229423D02*
X1720215Y1229423D01*
X1720215Y1240281D02*
X1721485Y1240281D01*
X1721485Y1251139D02*
X1720215Y1251139D01*
X1720215Y1261997D02*
X1721485Y1261997D01*
X1721485Y1272855D02*
X1720215Y1272855D01*
X1720215Y1283713D02*
X1721485Y1283713D01*
X1721485Y1294571D02*
X1720215Y1294571D01*
X1720215Y1305429D02*
X1721485Y1305429D01*
X1746885Y1308735D02*
X1746885Y1218565D01*
X1745615Y1218565D01*
X1745615Y1308735D01*
X1746885Y1308735D01*
X1746885Y1229423D02*
X1745615Y1229423D01*
X1745615Y1240281D02*
X1746885Y1240281D01*
X1746885Y1251139D02*
X1745615Y1251139D01*
X1745615Y1261997D02*
X1746885Y1261997D01*
X1746885Y1272855D02*
X1745615Y1272855D01*
X1745615Y1283713D02*
X1746885Y1283713D01*
X1746885Y1294571D02*
X1745615Y1294571D01*
X1745615Y1305429D02*
X1746885Y1305429D01*
X1772285Y1308735D02*
X1772285Y1218565D01*
X1771015Y1218565D01*
X1771015Y1308735D01*
X1772285Y1308735D01*
X1772285Y1229423D02*
X1771015Y1229423D01*
X1771015Y1240281D02*
X1772285Y1240281D01*
X1772285Y1251139D02*
X1771015Y1251139D01*
X1771015Y1261997D02*
X1772285Y1261997D01*
X1772285Y1272855D02*
X1771015Y1272855D01*
X1771015Y1283713D02*
X1772285Y1283713D01*
X1772285Y1294571D02*
X1771015Y1294571D01*
X1771015Y1305429D02*
X1772285Y1305429D01*
X1797685Y1308735D02*
X1797685Y1218565D01*
X1796415Y1218565D01*
X1796415Y1308735D01*
X1797685Y1308735D01*
X1797685Y1229423D02*
X1796415Y1229423D01*
X1796415Y1240281D02*
X1797685Y1240281D01*
X1797685Y1251139D02*
X1796415Y1251139D01*
X1796415Y1261997D02*
X1797685Y1261997D01*
X1797685Y1272855D02*
X1796415Y1272855D01*
X1796415Y1283713D02*
X1797685Y1283713D01*
X1797685Y1294571D02*
X1796415Y1294571D01*
X1796415Y1305429D02*
X1797685Y1305429D01*
X1823085Y1308735D02*
X1823085Y1218565D01*
X1821815Y1218565D01*
X1821815Y1308735D01*
X1823085Y1308735D01*
X1823085Y1229423D02*
X1821815Y1229423D01*
X1821815Y1240281D02*
X1823085Y1240281D01*
X1823085Y1251139D02*
X1821815Y1251139D01*
X1821815Y1261997D02*
X1823085Y1261997D01*
X1823085Y1272855D02*
X1821815Y1272855D01*
X1821815Y1283713D02*
X1823085Y1283713D01*
X1823085Y1294571D02*
X1821815Y1294571D01*
X1821815Y1305429D02*
X1823085Y1305429D01*
X1848485Y1308735D02*
X1848485Y1218565D01*
X1847215Y1218565D01*
X1847215Y1308735D01*
X1848485Y1308735D01*
X1848485Y1229423D02*
X1847215Y1229423D01*
X1847215Y1240281D02*
X1848485Y1240281D01*
X1848485Y1251139D02*
X1847215Y1251139D01*
X1847215Y1261997D02*
X1848485Y1261997D01*
X1848485Y1272855D02*
X1847215Y1272855D01*
X1847215Y1283713D02*
X1848485Y1283713D01*
X1848485Y1294571D02*
X1847215Y1294571D01*
X1847215Y1305429D02*
X1848485Y1305429D01*
X1873885Y1308735D02*
X1873885Y1218565D01*
X1872615Y1218565D01*
X1872615Y1308735D01*
X1873885Y1308735D01*
X1873885Y1229423D02*
X1872615Y1229423D01*
X1872615Y1240281D02*
X1873885Y1240281D01*
X1873885Y1251139D02*
X1872615Y1251139D01*
X1872615Y1261997D02*
X1873885Y1261997D01*
X1873885Y1272855D02*
X1872615Y1272855D01*
X1872615Y1283713D02*
X1873885Y1283713D01*
X1873885Y1294571D02*
X1872615Y1294571D01*
X1872615Y1305429D02*
X1873885Y1305429D01*
X1899285Y1308735D02*
X1899285Y1218565D01*
X1898015Y1218565D01*
X1898015Y1308735D01*
X1899285Y1308735D01*
X1899285Y1229423D02*
X1898015Y1229423D01*
X1898015Y1240281D02*
X1899285Y1240281D01*
X1899285Y1251139D02*
X1898015Y1251139D01*
X1898015Y1261997D02*
X1899285Y1261997D01*
X1899285Y1272855D02*
X1898015Y1272855D01*
X1898015Y1283713D02*
X1899285Y1283713D01*
X1899285Y1294571D02*
X1898015Y1294571D01*
X1898015Y1305429D02*
X1899285Y1305429D01*
D11*
X2106930Y917575D03*
X2122170Y917575D03*
X1882140Y406400D03*
X1866900Y406400D03*
X1851660Y406400D03*
D12*
X292100Y1248410D03*
X292100Y1263650D03*
X292100Y1278890D03*
X28575Y638810D03*
X28575Y654050D03*
X28575Y669290D03*
M02*
