G75*
%MOIN*%
%OFA0B0*%
%FSLAX25Y25*%
%IPPOS*%
%LPD*%
%AMOC8*
5,1,8,0,0,1.08239X$1,22.5*
%
%ADD10C,0.04500*%
%ADD11R,0.05118X0.05906*%
D10*
X0485350Y0487350D02*
X0485350Y0522850D01*
X0485350Y0487350D02*
X0484850Y0487350D01*
X0484850Y0522850D01*
X0485350Y0522850D01*
X0485350Y0491849D02*
X0484850Y0491849D01*
X0484850Y0496348D02*
X0485350Y0496348D01*
X0485350Y0500847D02*
X0484850Y0500847D01*
X0484850Y0505346D02*
X0485350Y0505346D01*
X0485350Y0509845D02*
X0484850Y0509845D01*
X0484850Y0514344D02*
X0485350Y0514344D01*
X0485350Y0518843D02*
X0484850Y0518843D01*
X0495350Y0522850D02*
X0495350Y0487350D01*
X0494850Y0487350D01*
X0494850Y0522850D01*
X0495350Y0522850D01*
X0495350Y0491849D02*
X0494850Y0491849D01*
X0494850Y0496348D02*
X0495350Y0496348D01*
X0495350Y0500847D02*
X0494850Y0500847D01*
X0494850Y0505346D02*
X0495350Y0505346D01*
X0495350Y0509845D02*
X0494850Y0509845D01*
X0494850Y0514344D02*
X0495350Y0514344D01*
X0495350Y0518843D02*
X0494850Y0518843D01*
X0505350Y0522850D02*
X0505350Y0487350D01*
X0504850Y0487350D01*
X0504850Y0522850D01*
X0505350Y0522850D01*
X0505350Y0491849D02*
X0504850Y0491849D01*
X0504850Y0496348D02*
X0505350Y0496348D01*
X0505350Y0500847D02*
X0504850Y0500847D01*
X0504850Y0505346D02*
X0505350Y0505346D01*
X0505350Y0509845D02*
X0504850Y0509845D01*
X0504850Y0514344D02*
X0505350Y0514344D01*
X0505350Y0518843D02*
X0504850Y0518843D01*
X0515350Y0522850D02*
X0515350Y0487350D01*
X0514850Y0487350D01*
X0514850Y0522850D01*
X0515350Y0522850D01*
X0515350Y0491849D02*
X0514850Y0491849D01*
X0514850Y0496348D02*
X0515350Y0496348D01*
X0515350Y0500847D02*
X0514850Y0500847D01*
X0514850Y0505346D02*
X0515350Y0505346D01*
X0515350Y0509845D02*
X0514850Y0509845D01*
X0514850Y0514344D02*
X0515350Y0514344D01*
X0515350Y0518843D02*
X0514850Y0518843D01*
X0535350Y0522850D02*
X0535350Y0487350D01*
X0534850Y0487350D01*
X0534850Y0522850D01*
X0535350Y0522850D01*
X0535350Y0491849D02*
X0534850Y0491849D01*
X0534850Y0496348D02*
X0535350Y0496348D01*
X0535350Y0500847D02*
X0534850Y0500847D01*
X0534850Y0505346D02*
X0535350Y0505346D01*
X0535350Y0509845D02*
X0534850Y0509845D01*
X0534850Y0514344D02*
X0535350Y0514344D01*
X0535350Y0518843D02*
X0534850Y0518843D01*
X0545350Y0522850D02*
X0545350Y0487350D01*
X0544850Y0487350D01*
X0544850Y0522850D01*
X0545350Y0522850D01*
X0545350Y0491849D02*
X0544850Y0491849D01*
X0544850Y0496348D02*
X0545350Y0496348D01*
X0545350Y0500847D02*
X0544850Y0500847D01*
X0544850Y0505346D02*
X0545350Y0505346D01*
X0545350Y0509845D02*
X0544850Y0509845D01*
X0544850Y0514344D02*
X0545350Y0514344D01*
X0545350Y0518843D02*
X0544850Y0518843D01*
X0555350Y0522850D02*
X0555350Y0487350D01*
X0554850Y0487350D01*
X0554850Y0522850D01*
X0555350Y0522850D01*
X0555350Y0491849D02*
X0554850Y0491849D01*
X0554850Y0496348D02*
X0555350Y0496348D01*
X0555350Y0500847D02*
X0554850Y0500847D01*
X0554850Y0505346D02*
X0555350Y0505346D01*
X0555350Y0509845D02*
X0554850Y0509845D01*
X0554850Y0514344D02*
X0555350Y0514344D01*
X0555350Y0518843D02*
X0554850Y0518843D01*
X0565350Y0522850D02*
X0565350Y0487350D01*
X0564850Y0487350D01*
X0564850Y0522850D01*
X0565350Y0522850D01*
X0565350Y0491849D02*
X0564850Y0491849D01*
X0564850Y0496348D02*
X0565350Y0496348D01*
X0565350Y0500847D02*
X0564850Y0500847D01*
X0564850Y0505346D02*
X0565350Y0505346D01*
X0565350Y0509845D02*
X0564850Y0509845D01*
X0564850Y0514344D02*
X0565350Y0514344D01*
X0565350Y0518843D02*
X0564850Y0518843D01*
X0575350Y0522850D02*
X0575350Y0487350D01*
X0574850Y0487350D01*
X0574850Y0522850D01*
X0575350Y0522850D01*
X0575350Y0491849D02*
X0574850Y0491849D01*
X0574850Y0496348D02*
X0575350Y0496348D01*
X0575350Y0500847D02*
X0574850Y0500847D01*
X0574850Y0505346D02*
X0575350Y0505346D01*
X0575350Y0509845D02*
X0574850Y0509845D01*
X0574850Y0514344D02*
X0575350Y0514344D01*
X0575350Y0518843D02*
X0574850Y0518843D01*
X0585350Y0522850D02*
X0585350Y0487350D01*
X0584850Y0487350D01*
X0584850Y0522850D01*
X0585350Y0522850D01*
X0585350Y0491849D02*
X0584850Y0491849D01*
X0584850Y0496348D02*
X0585350Y0496348D01*
X0585350Y0500847D02*
X0584850Y0500847D01*
X0584850Y0505346D02*
X0585350Y0505346D01*
X0585350Y0509845D02*
X0584850Y0509845D01*
X0584850Y0514344D02*
X0585350Y0514344D01*
X0585350Y0518843D02*
X0584850Y0518843D01*
X0595350Y0522850D02*
X0595350Y0487350D01*
X0594850Y0487350D01*
X0594850Y0522850D01*
X0595350Y0522850D01*
X0595350Y0491849D02*
X0594850Y0491849D01*
X0594850Y0496348D02*
X0595350Y0496348D01*
X0595350Y0500847D02*
X0594850Y0500847D01*
X0594850Y0505346D02*
X0595350Y0505346D01*
X0595350Y0509845D02*
X0594850Y0509845D01*
X0594850Y0514344D02*
X0595350Y0514344D01*
X0595350Y0518843D02*
X0594850Y0518843D01*
X0605350Y0522850D02*
X0605350Y0487350D01*
X0604850Y0487350D01*
X0604850Y0522850D01*
X0605350Y0522850D01*
X0605350Y0491849D02*
X0604850Y0491849D01*
X0604850Y0496348D02*
X0605350Y0496348D01*
X0605350Y0500847D02*
X0604850Y0500847D01*
X0604850Y0505346D02*
X0605350Y0505346D01*
X0605350Y0509845D02*
X0604850Y0509845D01*
X0604850Y0514344D02*
X0605350Y0514344D01*
X0605350Y0518843D02*
X0604850Y0518843D01*
X0615350Y0522850D02*
X0615350Y0487350D01*
X0614850Y0487350D01*
X0614850Y0522850D01*
X0615350Y0522850D01*
X0615350Y0491849D02*
X0614850Y0491849D01*
X0614850Y0496348D02*
X0615350Y0496348D01*
X0615350Y0500847D02*
X0614850Y0500847D01*
X0614850Y0505346D02*
X0615350Y0505346D01*
X0615350Y0509845D02*
X0614850Y0509845D01*
X0614850Y0514344D02*
X0615350Y0514344D01*
X0615350Y0518843D02*
X0614850Y0518843D01*
X0625350Y0522850D02*
X0625350Y0487350D01*
X0624850Y0487350D01*
X0624850Y0522850D01*
X0625350Y0522850D01*
X0625350Y0491849D02*
X0624850Y0491849D01*
X0624850Y0496348D02*
X0625350Y0496348D01*
X0625350Y0500847D02*
X0624850Y0500847D01*
X0624850Y0505346D02*
X0625350Y0505346D01*
X0625350Y0509845D02*
X0624850Y0509845D01*
X0624850Y0514344D02*
X0625350Y0514344D01*
X0625350Y0518843D02*
X0624850Y0518843D01*
X0635350Y0522850D02*
X0635350Y0487350D01*
X0634850Y0487350D01*
X0634850Y0522850D01*
X0635350Y0522850D01*
X0635350Y0491849D02*
X0634850Y0491849D01*
X0634850Y0496348D02*
X0635350Y0496348D01*
X0635350Y0500847D02*
X0634850Y0500847D01*
X0634850Y0505346D02*
X0635350Y0505346D01*
X0635350Y0509845D02*
X0634850Y0509845D01*
X0634850Y0514344D02*
X0635350Y0514344D01*
X0635350Y0518843D02*
X0634850Y0518843D01*
X0645350Y0522850D02*
X0645350Y0487350D01*
X0644850Y0487350D01*
X0644850Y0522850D01*
X0645350Y0522850D01*
X0645350Y0491849D02*
X0644850Y0491849D01*
X0644850Y0496348D02*
X0645350Y0496348D01*
X0645350Y0500847D02*
X0644850Y0500847D01*
X0644850Y0505346D02*
X0645350Y0505346D01*
X0645350Y0509845D02*
X0644850Y0509845D01*
X0644850Y0514344D02*
X0645350Y0514344D01*
X0645350Y0518843D02*
X0644850Y0518843D01*
X0655350Y0522850D02*
X0655350Y0487350D01*
X0654850Y0487350D01*
X0654850Y0522850D01*
X0655350Y0522850D01*
X0655350Y0491849D02*
X0654850Y0491849D01*
X0654850Y0496348D02*
X0655350Y0496348D01*
X0655350Y0500847D02*
X0654850Y0500847D01*
X0654850Y0505346D02*
X0655350Y0505346D01*
X0655350Y0509845D02*
X0654850Y0509845D01*
X0654850Y0514344D02*
X0655350Y0514344D01*
X0655350Y0518843D02*
X0654850Y0518843D01*
X0665350Y0522850D02*
X0665350Y0487350D01*
X0664850Y0487350D01*
X0664850Y0522850D01*
X0665350Y0522850D01*
X0665350Y0491849D02*
X0664850Y0491849D01*
X0664850Y0496348D02*
X0665350Y0496348D01*
X0665350Y0500847D02*
X0664850Y0500847D01*
X0664850Y0505346D02*
X0665350Y0505346D01*
X0665350Y0509845D02*
X0664850Y0509845D01*
X0664850Y0514344D02*
X0665350Y0514344D01*
X0665350Y0518843D02*
X0664850Y0518843D01*
X0675350Y0522850D02*
X0675350Y0487350D01*
X0674850Y0487350D01*
X0674850Y0522850D01*
X0675350Y0522850D01*
X0675350Y0491849D02*
X0674850Y0491849D01*
X0674850Y0496348D02*
X0675350Y0496348D01*
X0675350Y0500847D02*
X0674850Y0500847D01*
X0674850Y0505346D02*
X0675350Y0505346D01*
X0675350Y0509845D02*
X0674850Y0509845D01*
X0674850Y0514344D02*
X0675350Y0514344D01*
X0675350Y0518843D02*
X0674850Y0518843D01*
X0685350Y0522850D02*
X0685350Y0487350D01*
X0684850Y0487350D01*
X0684850Y0522850D01*
X0685350Y0522850D01*
X0685350Y0491849D02*
X0684850Y0491849D01*
X0684850Y0496348D02*
X0685350Y0496348D01*
X0685350Y0500847D02*
X0684850Y0500847D01*
X0684850Y0505346D02*
X0685350Y0505346D01*
X0685350Y0509845D02*
X0684850Y0509845D01*
X0684850Y0514344D02*
X0685350Y0514344D01*
X0685350Y0518843D02*
X0684850Y0518843D01*
X0695350Y0522850D02*
X0695350Y0487350D01*
X0694850Y0487350D01*
X0694850Y0522850D01*
X0695350Y0522850D01*
X0695350Y0491849D02*
X0694850Y0491849D01*
X0694850Y0496348D02*
X0695350Y0496348D01*
X0695350Y0500847D02*
X0694850Y0500847D01*
X0694850Y0505346D02*
X0695350Y0505346D01*
X0695350Y0509845D02*
X0694850Y0509845D01*
X0694850Y0514344D02*
X0695350Y0514344D01*
X0695350Y0518843D02*
X0694850Y0518843D01*
X0705350Y0522850D02*
X0705350Y0487350D01*
X0704850Y0487350D01*
X0704850Y0522850D01*
X0705350Y0522850D01*
X0705350Y0491849D02*
X0704850Y0491849D01*
X0704850Y0496348D02*
X0705350Y0496348D01*
X0705350Y0500847D02*
X0704850Y0500847D01*
X0704850Y0505346D02*
X0705350Y0505346D01*
X0705350Y0509845D02*
X0704850Y0509845D01*
X0704850Y0514344D02*
X0705350Y0514344D01*
X0705350Y0518843D02*
X0704850Y0518843D01*
X0715350Y0522850D02*
X0715350Y0487350D01*
X0714850Y0487350D01*
X0714850Y0522850D01*
X0715350Y0522850D01*
X0715350Y0491849D02*
X0714850Y0491849D01*
X0714850Y0496348D02*
X0715350Y0496348D01*
X0715350Y0500847D02*
X0714850Y0500847D01*
X0714850Y0505346D02*
X0715350Y0505346D01*
X0715350Y0509845D02*
X0714850Y0509845D01*
X0714850Y0514344D02*
X0715350Y0514344D01*
X0715350Y0518843D02*
X0714850Y0518843D01*
X0725350Y0522850D02*
X0725350Y0487350D01*
X0724850Y0487350D01*
X0724850Y0522850D01*
X0725350Y0522850D01*
X0725350Y0491849D02*
X0724850Y0491849D01*
X0724850Y0496348D02*
X0725350Y0496348D01*
X0725350Y0500847D02*
X0724850Y0500847D01*
X0724850Y0505346D02*
X0725350Y0505346D01*
X0725350Y0509845D02*
X0724850Y0509845D01*
X0724850Y0514344D02*
X0725350Y0514344D01*
X0725350Y0518843D02*
X0724850Y0518843D01*
X0735350Y0522850D02*
X0735350Y0487350D01*
X0734850Y0487350D01*
X0734850Y0522850D01*
X0735350Y0522850D01*
X0735350Y0491849D02*
X0734850Y0491849D01*
X0734850Y0496348D02*
X0735350Y0496348D01*
X0735350Y0500847D02*
X0734850Y0500847D01*
X0734850Y0505346D02*
X0735350Y0505346D01*
X0735350Y0509845D02*
X0734850Y0509845D01*
X0734850Y0514344D02*
X0735350Y0514344D01*
X0735350Y0518843D02*
X0734850Y0518843D01*
X0745350Y0522850D02*
X0745350Y0487350D01*
X0744850Y0487350D01*
X0744850Y0522850D01*
X0745350Y0522850D01*
X0745350Y0491849D02*
X0744850Y0491849D01*
X0744850Y0496348D02*
X0745350Y0496348D01*
X0745350Y0500847D02*
X0744850Y0500847D01*
X0744850Y0505346D02*
X0745350Y0505346D01*
X0745350Y0509845D02*
X0744850Y0509845D01*
X0744850Y0514344D02*
X0745350Y0514344D01*
X0745350Y0518843D02*
X0744850Y0518843D01*
X0755350Y0522850D02*
X0755350Y0487350D01*
X0754850Y0487350D01*
X0754850Y0522850D01*
X0755350Y0522850D01*
X0755350Y0491849D02*
X0754850Y0491849D01*
X0754850Y0496348D02*
X0755350Y0496348D01*
X0755350Y0500847D02*
X0754850Y0500847D01*
X0754850Y0505346D02*
X0755350Y0505346D01*
X0755350Y0509845D02*
X0754850Y0509845D01*
X0754850Y0514344D02*
X0755350Y0514344D01*
X0755350Y0518843D02*
X0754850Y0518843D01*
D11*
X0735907Y0167600D03*
X0742600Y0167600D03*
X0749293Y0167600D03*
M02*
