G75*
%MOIN*%
%OFA0B0*%
%FSLAX25Y25*%
%IPPOS*%
%LPD*%
%AMOC8*
5,1,8,0,0,1.08239X$1,22.5*
%
%ADD10C,0.01000*%
%ADD11C,0.00700*%
%ADD12C,0.00600*%
%ADD13R,0.05512X0.02559*%
%ADD14C,0.00400*%
%ADD15C,0.00500*%
D10*
X0077334Y0014101D02*
X0078335Y0013100D01*
X0081338Y0013100D01*
X0081338Y0011098D02*
X0081338Y0017103D01*
X0078335Y0017103D01*
X0077334Y0016103D01*
X0077334Y0014101D01*
X0083780Y0013100D02*
X0083780Y0017103D01*
X0083780Y0013100D02*
X0086782Y0013100D01*
X0087783Y0014101D01*
X0087783Y0017103D01*
X0090225Y0016103D02*
X0091226Y0017103D01*
X0093228Y0017103D01*
X0094229Y0016103D01*
X0094229Y0014101D01*
X0093228Y0013100D01*
X0091226Y0013100D01*
X0090225Y0014101D01*
X0090225Y0016103D01*
X0096598Y0017103D02*
X0097598Y0017103D01*
X0099600Y0015102D01*
X0099600Y0017103D02*
X0099600Y0013100D01*
X0102042Y0013100D02*
X0105045Y0013100D01*
X0106046Y0014101D01*
X0106046Y0016103D01*
X0105045Y0017103D01*
X0102042Y0017103D01*
X0102042Y0012099D01*
X0103043Y0011098D01*
X0104044Y0011098D01*
X0114933Y0013100D02*
X0117936Y0016103D01*
X0118937Y0015102D02*
X0114933Y0019105D01*
X0118937Y0019105D02*
X0118937Y0013100D01*
X0123380Y0013100D02*
X0123380Y0019105D01*
X0121379Y0019105D02*
X0125382Y0019105D01*
X0134270Y0016103D02*
X0135270Y0017103D01*
X0137272Y0017103D01*
X0138273Y0016103D01*
X0138273Y0014101D01*
X0137272Y0013100D01*
X0135270Y0013100D01*
X0134270Y0014101D01*
X0134270Y0016103D01*
X0140715Y0017103D02*
X0143718Y0017103D01*
X0144719Y0016103D01*
X0144719Y0014101D01*
X0143718Y0013100D01*
X0140715Y0013100D01*
X0140715Y0019105D01*
X0153606Y0016103D02*
X0153606Y0015102D01*
X0157610Y0015102D01*
X0157610Y0016103D02*
X0156609Y0017103D01*
X0154607Y0017103D01*
X0153606Y0016103D01*
X0154607Y0013100D02*
X0156609Y0013100D01*
X0157610Y0014101D01*
X0157610Y0016103D01*
X0160052Y0016103D02*
X0161052Y0017103D01*
X0164055Y0017103D01*
X0164055Y0019105D02*
X0164055Y0013100D01*
X0161052Y0013100D01*
X0160052Y0014101D01*
X0160052Y0016103D01*
X0166497Y0017103D02*
X0166497Y0013100D01*
X0169500Y0013100D01*
X0170501Y0014101D01*
X0170501Y0017103D01*
X0173797Y0019105D02*
X0173797Y0013100D01*
X0174798Y0013100D02*
X0172796Y0013100D01*
X0177240Y0014101D02*
X0178240Y0013100D01*
X0180242Y0013100D01*
X0181243Y0014101D01*
X0181243Y0018104D01*
X0180242Y0019105D01*
X0178240Y0019105D01*
X0177240Y0018104D01*
X0174798Y0019105D02*
X0173797Y0019105D01*
X0190131Y0018104D02*
X0190131Y0017103D01*
X0191131Y0016103D01*
X0194134Y0016103D01*
X0194134Y0019105D02*
X0194134Y0013100D01*
X0191131Y0013100D01*
X0190131Y0014101D01*
X0190131Y0015102D01*
X0191131Y0016103D01*
X0190131Y0018104D02*
X0191131Y0019105D01*
X0194134Y0019105D01*
X0196576Y0019105D02*
X0200580Y0019105D01*
X0200580Y0013100D01*
X0200580Y0016103D02*
X0198578Y0016103D01*
X0209467Y0016103D02*
X0209467Y0015102D01*
X0213471Y0015102D01*
X0213471Y0016103D02*
X0212470Y0017103D01*
X0210468Y0017103D01*
X0209467Y0016103D01*
X0210468Y0013100D02*
X0212470Y0013100D01*
X0213471Y0014101D01*
X0213471Y0016103D01*
X0215913Y0016103D02*
X0215913Y0013100D01*
X0215913Y0016103D02*
X0216913Y0017103D01*
X0218915Y0017103D01*
X0219916Y0016103D01*
X0222211Y0017103D02*
X0224213Y0017103D01*
X0223212Y0018104D02*
X0223212Y0014101D01*
X0222211Y0013100D01*
X0219916Y0013100D02*
X0219916Y0019105D01*
X0233101Y0016103D02*
X0234101Y0017103D01*
X0236103Y0017103D01*
X0237104Y0016103D01*
X0237104Y0014101D01*
X0236103Y0013100D01*
X0234101Y0013100D01*
X0233101Y0014101D01*
X0233101Y0016103D01*
X0239399Y0017103D02*
X0241401Y0017103D01*
X0240400Y0018104D02*
X0240400Y0014101D01*
X0239399Y0013100D01*
X0250289Y0013100D02*
X0250289Y0019105D01*
X0250289Y0017103D02*
X0253291Y0017103D01*
X0254292Y0016103D01*
X0254292Y0014101D01*
X0253291Y0013100D01*
X0250289Y0013100D01*
X0256734Y0013100D02*
X0256734Y0016103D01*
X0257735Y0017103D01*
X0260737Y0017103D01*
X0260737Y0013100D01*
X0263180Y0013100D02*
X0266182Y0013100D01*
X0267183Y0014101D01*
X0266182Y0015102D01*
X0263180Y0015102D01*
X0263180Y0016103D02*
X0263180Y0013100D01*
X0263180Y0016103D02*
X0264180Y0017103D01*
X0266182Y0017103D01*
X0276071Y0017103D02*
X0279073Y0017103D01*
X0280074Y0016103D01*
X0279073Y0015102D01*
X0277071Y0015102D01*
X0276071Y0014101D01*
X0277071Y0013100D01*
X0280074Y0013100D01*
X0282516Y0013100D02*
X0282516Y0016103D01*
X0283517Y0017103D01*
X0286519Y0017103D01*
X0286519Y0013100D01*
X0288962Y0013100D02*
X0291964Y0013100D01*
X0292965Y0014101D01*
X0291964Y0015102D01*
X0288962Y0015102D01*
X0288962Y0016103D02*
X0288962Y0013100D01*
X0288962Y0016103D02*
X0289962Y0017103D01*
X0291964Y0017103D01*
X0295407Y0017103D02*
X0298410Y0017103D01*
X0299410Y0016103D01*
X0299410Y0014101D01*
X0298410Y0013100D01*
X0295407Y0013100D01*
X0301853Y0014101D02*
X0302853Y0015102D01*
X0304855Y0015102D01*
X0305856Y0016103D01*
X0304855Y0017103D01*
X0301853Y0017103D01*
X0301853Y0014101D02*
X0302853Y0013100D01*
X0305856Y0013100D01*
X0314744Y0014101D02*
X0315744Y0013100D01*
X0318747Y0013100D01*
X0318747Y0019105D01*
X0315744Y0019105D01*
X0314744Y0018104D01*
X0314744Y0017103D01*
X0315744Y0016103D01*
X0318747Y0016103D01*
X0315744Y0016103D02*
X0314744Y0015102D01*
X0314744Y0014101D01*
X0321189Y0014101D02*
X0322190Y0013100D01*
X0324192Y0013100D01*
X0325192Y0014101D01*
X0325192Y0018104D01*
X0324192Y0019105D01*
X0322190Y0019105D01*
X0321189Y0018104D01*
X0327635Y0018104D02*
X0327635Y0016103D01*
X0328635Y0015102D01*
X0331638Y0015102D01*
X0331638Y0013100D02*
X0331638Y0019105D01*
X0328635Y0019105D01*
X0327635Y0018104D01*
X0340526Y0016103D02*
X0340526Y0013100D01*
X0340526Y0016103D02*
X0341526Y0017103D01*
X0344529Y0017103D01*
X0344529Y0013100D01*
X0346971Y0013100D02*
X0349974Y0013100D01*
X0350974Y0014101D01*
X0349974Y0015102D01*
X0346971Y0015102D01*
X0346971Y0016103D02*
X0346971Y0013100D01*
X0346971Y0016103D02*
X0347972Y0017103D01*
X0349974Y0017103D01*
X0353417Y0016103D02*
X0354417Y0017103D01*
X0356419Y0017103D01*
X0357420Y0016103D01*
X0357420Y0014101D01*
X0356419Y0013100D01*
X0354417Y0013100D01*
X0353417Y0015102D02*
X0357420Y0015102D01*
X0359715Y0013100D02*
X0361717Y0013100D01*
X0360716Y0013100D02*
X0360716Y0019105D01*
X0361717Y0019105D01*
X0364159Y0017103D02*
X0367162Y0017103D01*
X0368162Y0016103D01*
X0368162Y0014101D01*
X0367162Y0013100D01*
X0364159Y0013100D01*
X0353417Y0015102D02*
X0353417Y0016103D01*
X0377050Y0017103D02*
X0377050Y0012099D01*
X0378051Y0011098D01*
X0379052Y0011098D01*
X0380053Y0013100D02*
X0377050Y0013100D01*
X0380053Y0013100D02*
X0381053Y0014101D01*
X0381053Y0016103D01*
X0380053Y0017103D01*
X0377050Y0017103D01*
X0383496Y0016103D02*
X0383496Y0013100D01*
X0383496Y0016103D02*
X0384496Y0017103D01*
X0387499Y0017103D01*
X0387499Y0013100D01*
X0389794Y0013100D02*
X0391796Y0013100D01*
X0390795Y0013100D02*
X0390795Y0017103D01*
X0391796Y0017103D01*
X0390795Y0019105D02*
X0390795Y0020106D01*
X0394238Y0019105D02*
X0394238Y0013100D01*
X0397241Y0013100D01*
X0398241Y0014101D01*
X0398241Y0016103D01*
X0397241Y0017103D01*
X0394238Y0017103D01*
X0401538Y0017103D02*
X0401538Y0013100D01*
X0402538Y0013100D02*
X0400537Y0013100D01*
X0401538Y0017103D02*
X0402538Y0017103D01*
X0401538Y0019105D02*
X0401538Y0020106D01*
X0403759Y0022970D02*
X0405761Y0022970D01*
X0404760Y0022970D02*
X0404760Y0028975D01*
X0405761Y0028975D01*
X0408203Y0025973D02*
X0408203Y0022970D01*
X0411206Y0022970D01*
X0412207Y0023971D01*
X0411206Y0024972D01*
X0408203Y0024972D01*
X0408203Y0025973D02*
X0409204Y0026973D01*
X0411206Y0026973D01*
X0415503Y0026973D02*
X0415503Y0022970D01*
X0416504Y0022970D02*
X0414502Y0022970D01*
X0415503Y0026973D02*
X0416504Y0026973D01*
X0415503Y0028975D02*
X0415503Y0029976D01*
X0418799Y0026973D02*
X0420801Y0026973D01*
X0419800Y0027974D02*
X0419800Y0023971D01*
X0418799Y0022970D01*
X0423096Y0022970D02*
X0425098Y0022970D01*
X0424097Y0022970D02*
X0424097Y0026973D01*
X0425098Y0026973D01*
X0424097Y0028975D02*
X0424097Y0029976D01*
X0427540Y0025973D02*
X0427540Y0022970D01*
X0427540Y0025973D02*
X0428541Y0026973D01*
X0431543Y0026973D01*
X0431543Y0022970D01*
X0433838Y0022970D02*
X0435840Y0022970D01*
X0434839Y0022970D02*
X0434839Y0026973D01*
X0435840Y0026973D01*
X0434839Y0028975D02*
X0434839Y0029976D01*
X0444654Y0026973D02*
X0445655Y0026973D01*
X0447657Y0024972D01*
X0447657Y0026973D02*
X0447657Y0022970D01*
X0450099Y0023971D02*
X0450099Y0025973D01*
X0451100Y0026973D01*
X0453102Y0026973D01*
X0454102Y0025973D01*
X0454102Y0023971D01*
X0453102Y0022970D01*
X0451100Y0022970D01*
X0450099Y0023971D01*
X0456398Y0025973D02*
X0458399Y0025973D01*
X0457399Y0027974D02*
X0457399Y0022970D01*
X0457399Y0027974D02*
X0456398Y0028975D01*
X0467287Y0026973D02*
X0470290Y0026973D01*
X0471290Y0025973D01*
X0471290Y0023971D01*
X0470290Y0022970D01*
X0467287Y0022970D01*
X0469362Y0017103D02*
X0468361Y0016103D01*
X0468361Y0013100D01*
X0465919Y0014101D02*
X0464918Y0013100D01*
X0461916Y0013100D01*
X0461916Y0012099D02*
X0461916Y0017103D01*
X0464918Y0017103D01*
X0465919Y0016103D01*
X0465919Y0014101D01*
X0463917Y0011098D02*
X0462917Y0011098D01*
X0461916Y0012099D01*
X0469362Y0017103D02*
X0472365Y0017103D01*
X0472365Y0013100D01*
X0474660Y0013100D02*
X0476662Y0013100D01*
X0475661Y0013100D02*
X0475661Y0017103D01*
X0476662Y0017103D01*
X0475661Y0019105D02*
X0475661Y0020106D01*
X0475587Y0022970D02*
X0473586Y0022970D01*
X0474587Y0022970D02*
X0474587Y0026973D01*
X0475587Y0026973D01*
X0474587Y0028975D02*
X0474587Y0029976D01*
X0478029Y0026973D02*
X0480031Y0022970D01*
X0482033Y0026973D01*
X0484475Y0025973D02*
X0485476Y0026973D01*
X0487478Y0026973D01*
X0488478Y0025973D01*
X0488478Y0023971D01*
X0487478Y0022970D01*
X0485476Y0022970D01*
X0484475Y0023971D01*
X0484475Y0025973D01*
X0490774Y0026973D02*
X0490774Y0021969D01*
X0491775Y0020968D01*
X0492775Y0020968D01*
X0495217Y0022970D02*
X0495217Y0025973D01*
X0496218Y0026973D01*
X0499221Y0026973D01*
X0499221Y0022970D01*
X0501663Y0022970D02*
X0504666Y0022970D01*
X0505666Y0023971D01*
X0504666Y0024972D01*
X0501663Y0024972D01*
X0501663Y0025973D02*
X0501663Y0022970D01*
X0501663Y0025973D02*
X0502664Y0026973D01*
X0504666Y0026973D01*
X0508108Y0027974D02*
X0509109Y0028975D01*
X0512112Y0028975D01*
X0512112Y0022970D01*
X0509109Y0022970D01*
X0508108Y0023971D01*
X0508108Y0027974D01*
X0520999Y0025973D02*
X0522000Y0026973D01*
X0524002Y0026973D01*
X0525003Y0025973D01*
X0525003Y0023971D01*
X0524002Y0022970D01*
X0522000Y0022970D01*
X0520999Y0023971D01*
X0520999Y0025973D01*
X0527298Y0026973D02*
X0529300Y0026973D01*
X0528299Y0027974D02*
X0528299Y0023971D01*
X0527298Y0022970D01*
X0526151Y0017103D02*
X0524149Y0017103D01*
X0523148Y0016103D01*
X0523148Y0015102D01*
X0527151Y0015102D01*
X0527151Y0016103D02*
X0526151Y0017103D01*
X0527151Y0016103D02*
X0527151Y0014101D01*
X0526151Y0013100D01*
X0524149Y0013100D01*
X0520706Y0013100D02*
X0520706Y0017103D01*
X0517703Y0017103D01*
X0516702Y0016103D01*
X0516702Y0013100D01*
X0514260Y0014101D02*
X0513260Y0013100D01*
X0510257Y0013100D01*
X0507815Y0014101D02*
X0506814Y0013100D01*
X0504812Y0013100D01*
X0503811Y0014101D01*
X0503811Y0016103D01*
X0504812Y0017103D01*
X0506814Y0017103D01*
X0507815Y0016103D01*
X0507815Y0014101D01*
X0510257Y0017103D02*
X0513260Y0017103D01*
X0514260Y0016103D01*
X0514260Y0014101D01*
X0501369Y0014101D02*
X0501369Y0017103D01*
X0501369Y0014101D02*
X0500369Y0013100D01*
X0497366Y0013100D01*
X0497366Y0017103D01*
X0494924Y0017103D02*
X0494924Y0013100D01*
X0494924Y0015102D02*
X0492922Y0017103D01*
X0491921Y0017103D01*
X0488552Y0017103D02*
X0486550Y0017103D01*
X0485549Y0016103D01*
X0485549Y0013100D01*
X0488552Y0013100D01*
X0489553Y0014101D01*
X0488552Y0015102D01*
X0485549Y0015102D01*
X0483107Y0016103D02*
X0483107Y0014101D01*
X0482106Y0013100D01*
X0479104Y0013100D01*
X0479104Y0012099D02*
X0479104Y0017103D01*
X0482106Y0017103D01*
X0483107Y0016103D01*
X0481105Y0011098D02*
X0480105Y0011098D01*
X0479104Y0012099D01*
X0490774Y0028975D02*
X0490774Y0029976D01*
X0452027Y0017103D02*
X0450026Y0017103D01*
X0449025Y0016103D01*
X0449025Y0013100D01*
X0452027Y0013100D01*
X0453028Y0014101D01*
X0452027Y0015102D01*
X0449025Y0015102D01*
X0446583Y0013100D02*
X0446583Y0017103D01*
X0443580Y0017103D01*
X0442579Y0016103D01*
X0442579Y0013100D01*
X0440137Y0014101D02*
X0440137Y0016103D01*
X0439136Y0017103D01*
X0436134Y0017103D01*
X0436134Y0019105D02*
X0436134Y0013100D01*
X0439136Y0013100D01*
X0440137Y0014101D01*
X0427246Y0013100D02*
X0424244Y0013100D01*
X0423243Y0014101D01*
X0423243Y0016103D01*
X0424244Y0017103D01*
X0427246Y0017103D01*
X0427246Y0011098D01*
X0420801Y0013100D02*
X0420801Y0017103D01*
X0420801Y0015102D02*
X0418799Y0017103D01*
X0417798Y0017103D01*
X0415429Y0016103D02*
X0414429Y0017103D01*
X0412427Y0017103D01*
X0411426Y0016103D01*
X0411426Y0014101D01*
X0412427Y0013100D01*
X0414429Y0013100D01*
X0415429Y0014101D01*
X0415429Y0016103D01*
X0408984Y0017103D02*
X0406982Y0013100D01*
X0404980Y0017103D01*
X0535966Y0017103D02*
X0536966Y0017103D01*
X0538968Y0015102D01*
X0538968Y0017103D02*
X0538968Y0013100D01*
X0541410Y0014101D02*
X0541410Y0016103D01*
X0542411Y0017103D01*
X0544413Y0017103D01*
X0545414Y0016103D01*
X0545414Y0014101D01*
X0544413Y0013100D01*
X0542411Y0013100D01*
X0541410Y0014101D01*
X0547709Y0016103D02*
X0549711Y0016103D01*
X0548710Y0018104D02*
X0548710Y0013100D01*
X0548710Y0018104D02*
X0547709Y0019105D01*
X0547562Y0022970D02*
X0547562Y0028975D01*
X0544560Y0026973D02*
X0547562Y0024972D01*
X0544560Y0022970D01*
X0542191Y0022970D02*
X0539188Y0022970D01*
X0538187Y0023971D01*
X0539188Y0024972D01*
X0541190Y0024972D01*
X0542191Y0025973D01*
X0541190Y0026973D01*
X0538187Y0026973D01*
X0550004Y0025973D02*
X0550004Y0022970D01*
X0550004Y0025973D02*
X0551005Y0026973D01*
X0554008Y0026973D01*
X0554008Y0022970D01*
X0556450Y0022970D02*
X0559452Y0022970D01*
X0560453Y0023971D01*
X0559452Y0024972D01*
X0556450Y0024972D01*
X0556450Y0025973D02*
X0556450Y0022970D01*
X0556450Y0025973D02*
X0557451Y0026973D01*
X0559452Y0026973D01*
X0562895Y0025973D02*
X0562895Y0022970D01*
X0562895Y0025973D02*
X0563896Y0026973D01*
X0565898Y0026973D01*
X0566899Y0025973D01*
X0566899Y0028975D02*
X0566899Y0022970D01*
X0571342Y0022970D02*
X0571342Y0028975D01*
X0569341Y0028975D02*
X0573344Y0028975D01*
X0582011Y0023971D02*
X0582011Y0022970D01*
X0583012Y0022970D01*
X0583012Y0023971D01*
X0582011Y0023971D01*
X0585454Y0023971D02*
X0585454Y0027974D01*
X0589458Y0023971D01*
X0588457Y0022970D01*
X0586455Y0022970D01*
X0585454Y0023971D01*
X0585454Y0027974D02*
X0586455Y0028975D01*
X0588457Y0028975D01*
X0589458Y0027974D01*
X0589458Y0023971D01*
X0591900Y0022970D02*
X0595903Y0022970D01*
X0591900Y0026973D01*
X0591900Y0027974D01*
X0592901Y0028975D01*
X0594902Y0028975D01*
X0595903Y0027974D01*
X0598345Y0027974D02*
X0602349Y0023971D01*
X0601348Y0022970D01*
X0599346Y0022970D01*
X0598345Y0023971D01*
X0598345Y0027974D01*
X0599346Y0028975D01*
X0601348Y0028975D01*
X0602349Y0027974D01*
X0602349Y0023971D01*
X0604791Y0022970D02*
X0608794Y0022970D01*
X0604791Y0026973D01*
X0604791Y0027974D01*
X0605792Y0028975D01*
X0607793Y0028975D01*
X0608794Y0027974D01*
X0611236Y0028975D02*
X0615240Y0022970D01*
X0617682Y0023971D02*
X0617682Y0027974D01*
X0618683Y0028975D01*
X0620684Y0028975D01*
X0621685Y0027974D01*
X0621685Y0026973D01*
X0620684Y0025973D01*
X0617682Y0025973D01*
X0617682Y0023971D02*
X0618683Y0022970D01*
X0620684Y0022970D01*
X0621685Y0023971D01*
X0624127Y0023971D02*
X0625128Y0022970D01*
X0627130Y0022970D01*
X0628131Y0023971D01*
X0624127Y0027974D01*
X0624127Y0023971D01*
X0624127Y0027974D02*
X0625128Y0028975D01*
X0627130Y0028975D01*
X0628131Y0027974D01*
X0628131Y0023971D01*
X0627057Y0017103D02*
X0625055Y0013100D01*
X0623053Y0017103D01*
X0619610Y0017103D02*
X0617609Y0017103D01*
X0616608Y0016103D01*
X0616608Y0013100D01*
X0619610Y0013100D01*
X0620611Y0014101D01*
X0619610Y0015102D01*
X0616608Y0015102D01*
X0614166Y0013100D02*
X0612164Y0013100D01*
X0613165Y0013100D02*
X0613165Y0019105D01*
X0614166Y0019105D01*
X0609869Y0019105D02*
X0609869Y0013100D01*
X0609869Y0016103D02*
X0608868Y0017103D01*
X0606866Y0017103D01*
X0605865Y0016103D01*
X0605865Y0013100D01*
X0603423Y0014101D02*
X0602422Y0013100D01*
X0600421Y0013100D01*
X0599420Y0014101D01*
X0599420Y0016103D01*
X0600421Y0017103D01*
X0602422Y0017103D01*
X0603423Y0016103D01*
X0603423Y0014101D01*
X0590532Y0015102D02*
X0590532Y0017103D01*
X0588530Y0019105D01*
X0586235Y0019105D02*
X0582232Y0013100D01*
X0582232Y0019105D01*
X0579790Y0016103D02*
X0578789Y0017103D01*
X0576787Y0017103D01*
X0575786Y0016103D01*
X0575786Y0015102D01*
X0579790Y0015102D01*
X0579790Y0014101D02*
X0579790Y0016103D01*
X0579790Y0014101D02*
X0578789Y0013100D01*
X0576787Y0013100D01*
X0573344Y0014101D02*
X0572343Y0013100D01*
X0569341Y0013100D01*
X0566899Y0014101D02*
X0565898Y0013100D01*
X0563896Y0013100D01*
X0562895Y0014101D01*
X0562895Y0016103D01*
X0563896Y0017103D01*
X0565898Y0017103D01*
X0566899Y0016103D01*
X0566899Y0014101D01*
X0569341Y0017103D02*
X0572343Y0017103D01*
X0573344Y0016103D01*
X0573344Y0014101D01*
X0560453Y0013100D02*
X0558451Y0015102D01*
X0558451Y0017103D01*
X0560453Y0019105D01*
X0586235Y0019105D02*
X0586235Y0013100D01*
X0588530Y0013100D02*
X0590532Y0015102D01*
X0629425Y0017103D02*
X0630426Y0017103D01*
X0632428Y0015102D01*
X0632428Y0017103D02*
X0632428Y0013100D01*
X0634870Y0013100D02*
X0637872Y0013100D01*
X0638873Y0014101D01*
X0637872Y0015102D01*
X0634870Y0015102D01*
X0634870Y0016103D02*
X0634870Y0013100D01*
X0634870Y0016103D02*
X0635871Y0017103D01*
X0637872Y0017103D01*
X0641315Y0018104D02*
X0642316Y0019105D01*
X0644318Y0019105D01*
X0645319Y0018104D01*
X0645319Y0014101D01*
X0644318Y0013100D01*
X0642316Y0013100D01*
X0641315Y0014101D01*
X0654060Y0013100D02*
X0656061Y0013100D01*
X0655060Y0013100D02*
X0655060Y0019105D01*
X0656061Y0019105D01*
X0658503Y0016103D02*
X0659504Y0017103D01*
X0661506Y0017103D01*
X0662507Y0016103D01*
X0662507Y0014101D01*
X0661506Y0013100D01*
X0659504Y0013100D01*
X0658503Y0015102D02*
X0662507Y0015102D01*
X0664949Y0016103D02*
X0665950Y0017103D01*
X0667951Y0017103D01*
X0668952Y0016103D01*
X0668952Y0014101D01*
X0667951Y0013100D01*
X0665950Y0013100D01*
X0664949Y0014101D01*
X0664949Y0016103D01*
X0671394Y0016103D02*
X0671394Y0013100D01*
X0671394Y0016103D02*
X0672395Y0017103D01*
X0675398Y0017103D01*
X0675398Y0013100D01*
X0677840Y0013100D02*
X0680842Y0013100D01*
X0681843Y0014101D01*
X0680842Y0015102D01*
X0677840Y0015102D01*
X0677840Y0016103D02*
X0677840Y0013100D01*
X0677840Y0016103D02*
X0678841Y0017103D01*
X0680842Y0017103D01*
X0684285Y0019105D02*
X0684285Y0013100D01*
X0688289Y0013100D02*
X0688289Y0019105D01*
X0686287Y0017103D01*
X0684285Y0019105D01*
X0683992Y0022970D02*
X0680989Y0022970D01*
X0679988Y0023971D01*
X0679988Y0024972D01*
X0680989Y0025973D01*
X0683992Y0025973D01*
X0683992Y0028975D02*
X0683992Y0022970D01*
X0680989Y0025973D02*
X0679988Y0026973D01*
X0679988Y0027974D01*
X0680989Y0028975D01*
X0683992Y0028975D01*
X0686434Y0028975D02*
X0690437Y0028975D01*
X0690437Y0022970D01*
X0690437Y0025973D02*
X0688436Y0025973D01*
X0677546Y0028975D02*
X0677546Y0022970D01*
X0673543Y0022970D01*
X0671101Y0023971D02*
X0670100Y0024972D01*
X0667097Y0024972D01*
X0667097Y0025973D02*
X0667097Y0022970D01*
X0670100Y0022970D01*
X0671101Y0023971D01*
X0670100Y0026973D02*
X0668098Y0026973D01*
X0667097Y0025973D01*
X0664655Y0026973D02*
X0661653Y0026973D01*
X0660652Y0025973D01*
X0660652Y0023971D01*
X0661653Y0022970D01*
X0664655Y0022970D01*
X0664655Y0028975D01*
X0658210Y0025973D02*
X0657209Y0026973D01*
X0654206Y0026973D01*
X0655207Y0024972D02*
X0654206Y0023971D01*
X0655207Y0022970D01*
X0658210Y0022970D01*
X0657209Y0024972D02*
X0658210Y0025973D01*
X0657209Y0024972D02*
X0655207Y0024972D01*
X0658503Y0016103D02*
X0658503Y0015102D01*
X0645319Y0022970D02*
X0643317Y0022970D01*
X0644318Y0022970D02*
X0644318Y0026973D01*
X0645319Y0026973D01*
X0644318Y0028975D02*
X0644318Y0029976D01*
X0641022Y0026973D02*
X0638019Y0026973D01*
X0637018Y0025973D01*
X0637018Y0022970D01*
X0641022Y0022970D02*
X0641022Y0026973D01*
X0697030Y0014101D02*
X0698030Y0014101D01*
X0698030Y0013100D01*
X0697030Y0013100D01*
X0697030Y0014101D01*
X0697030Y0013100D02*
X0699031Y0011098D01*
X0702474Y0013100D02*
X0704476Y0013100D01*
X0705477Y0014101D01*
X0705477Y0016103D01*
X0704476Y0017103D01*
X0702474Y0017103D01*
X0701473Y0016103D01*
X0701473Y0015102D01*
X0705477Y0015102D01*
X0707772Y0017103D02*
X0709774Y0017103D01*
X0708773Y0018104D02*
X0708773Y0014101D01*
X0707772Y0013100D01*
X0712216Y0013100D02*
X0715218Y0013100D01*
X0716219Y0014101D01*
X0715218Y0015102D01*
X0712216Y0015102D01*
X0712216Y0016103D02*
X0712216Y0013100D01*
X0712216Y0016103D02*
X0713217Y0017103D01*
X0715218Y0017103D01*
X0718661Y0016103D02*
X0718661Y0015102D01*
X0722665Y0015102D01*
X0722665Y0016103D02*
X0721664Y0017103D01*
X0719662Y0017103D01*
X0718661Y0016103D01*
X0719662Y0013100D02*
X0721664Y0013100D01*
X0722665Y0014101D01*
X0722665Y0016103D01*
X0725033Y0017103D02*
X0726034Y0017103D01*
X0728036Y0015102D01*
X0728036Y0017103D02*
X0728036Y0013100D01*
X0730478Y0013100D02*
X0733481Y0013100D01*
X0734482Y0014101D01*
X0734482Y0016103D01*
X0733481Y0017103D01*
X0730478Y0017103D01*
X0731552Y0022970D02*
X0734555Y0022970D01*
X0735556Y0023971D01*
X0734555Y0024972D01*
X0731552Y0024972D01*
X0731552Y0025973D02*
X0731552Y0022970D01*
X0729110Y0023971D02*
X0729110Y0025973D01*
X0728109Y0026973D01*
X0725107Y0026973D01*
X0725107Y0028975D02*
X0725107Y0022970D01*
X0728109Y0022970D01*
X0729110Y0023971D01*
X0731552Y0025973D02*
X0732553Y0026973D01*
X0734555Y0026973D01*
X0737998Y0025973D02*
X0737998Y0022970D01*
X0740000Y0022970D02*
X0740000Y0025973D01*
X0738999Y0026973D01*
X0737998Y0025973D01*
X0740000Y0025973D02*
X0741000Y0026973D01*
X0742001Y0026973D01*
X0742001Y0022970D01*
X0744443Y0024972D02*
X0748447Y0024972D01*
X0748447Y0025973D02*
X0747446Y0026973D01*
X0745444Y0026973D01*
X0744443Y0025973D01*
X0744443Y0024972D01*
X0745444Y0022970D02*
X0747446Y0022970D01*
X0748447Y0023971D01*
X0748447Y0025973D01*
X0750815Y0026973D02*
X0751816Y0026973D01*
X0753818Y0024972D01*
X0753818Y0026973D02*
X0753818Y0022970D01*
X0753818Y0017103D02*
X0752817Y0017103D01*
X0751816Y0016103D01*
X0750815Y0017103D01*
X0749815Y0016103D01*
X0749815Y0013100D01*
X0751816Y0013100D02*
X0751816Y0016103D01*
X0753818Y0017103D02*
X0753818Y0013100D01*
X0756260Y0015102D02*
X0760264Y0015102D01*
X0760264Y0016103D02*
X0759263Y0017103D01*
X0757261Y0017103D01*
X0756260Y0016103D01*
X0756260Y0015102D01*
X0757261Y0013100D02*
X0759263Y0013100D01*
X0760264Y0014101D01*
X0760264Y0016103D01*
X0762706Y0016103D02*
X0762706Y0013100D01*
X0762706Y0016103D02*
X0763706Y0017103D01*
X0765708Y0017103D01*
X0766709Y0016103D01*
X0769151Y0017103D02*
X0772154Y0017103D01*
X0773155Y0016103D01*
X0773155Y0014101D01*
X0772154Y0013100D01*
X0769151Y0013100D01*
X0766709Y0013100D02*
X0766709Y0019105D01*
X0766709Y0022970D02*
X0763706Y0022970D01*
X0762706Y0023971D01*
X0762706Y0024972D01*
X0763706Y0025973D01*
X0766709Y0025973D01*
X0766709Y0028975D02*
X0766709Y0022970D01*
X0769151Y0023971D02*
X0770152Y0022970D01*
X0772154Y0022970D01*
X0773155Y0023971D01*
X0773155Y0027974D01*
X0772154Y0028975D01*
X0770152Y0028975D01*
X0769151Y0027974D01*
X0766709Y0028975D02*
X0763706Y0028975D01*
X0762706Y0027974D01*
X0762706Y0026973D01*
X0763706Y0025973D01*
X0775597Y0025973D02*
X0775597Y0027974D01*
X0776597Y0028975D01*
X0779600Y0028975D01*
X0779600Y0022970D01*
X0779600Y0024972D02*
X0776597Y0024972D01*
X0775597Y0025973D01*
X0775597Y0017103D02*
X0778599Y0017103D01*
X0779600Y0016103D01*
X0778599Y0015102D01*
X0776597Y0015102D01*
X0775597Y0014101D01*
X0776597Y0013100D01*
X0779600Y0013100D01*
X0747373Y0014101D02*
X0746372Y0015102D01*
X0743369Y0015102D01*
X0743369Y0016103D02*
X0743369Y0013100D01*
X0746372Y0013100D01*
X0747373Y0014101D01*
X0746372Y0017103D02*
X0744370Y0017103D01*
X0743369Y0016103D01*
X0722665Y0023971D02*
X0722665Y0025973D01*
X0721664Y0026973D01*
X0719662Y0026973D01*
X0718661Y0025973D01*
X0718661Y0024972D01*
X0722665Y0024972D01*
X0722665Y0023971D02*
X0721664Y0022970D01*
X0719662Y0022970D01*
X0709774Y0022970D02*
X0709774Y0028975D01*
X0709774Y0026973D02*
X0706771Y0026973D01*
X0705770Y0025973D01*
X0705770Y0023971D01*
X0706771Y0022970D01*
X0709774Y0022970D01*
X0703328Y0023971D02*
X0702327Y0022970D01*
X0699325Y0022970D01*
X0699325Y0021969D02*
X0700326Y0020968D01*
X0701327Y0020968D01*
X0699325Y0021969D02*
X0699325Y0026973D01*
X0703328Y0026973D02*
X0703328Y0023971D01*
D11*
X0072250Y0040102D02*
X0069381Y0040102D01*
X0067646Y0040102D02*
X0066212Y0040819D01*
X0065494Y0040819D01*
X0064777Y0040102D01*
X0064777Y0038667D01*
X0065494Y0037950D01*
X0066929Y0037950D01*
X0067646Y0038667D01*
X0067646Y0040102D02*
X0067646Y0042254D01*
X0064777Y0042254D01*
X0063042Y0042254D02*
X0063042Y0039385D01*
X0061608Y0037950D01*
X0060173Y0039385D01*
X0060173Y0042254D01*
X0046533Y0121700D02*
X0047250Y0122417D01*
X0046533Y0121700D02*
X0045098Y0121700D01*
X0044381Y0122417D01*
X0044381Y0123852D01*
X0045098Y0124569D01*
X0045815Y0124569D01*
X0047250Y0123852D01*
X0047250Y0126004D01*
X0044381Y0126004D01*
X0042646Y0126004D02*
X0042646Y0123135D01*
X0041212Y0121700D01*
X0039777Y0123135D01*
X0039777Y0126004D01*
X0041027Y0130450D02*
X0043896Y0130450D01*
X0041027Y0133319D01*
X0041027Y0134036D01*
X0041744Y0134754D01*
X0043179Y0134754D01*
X0043896Y0134036D01*
X0047065Y0134754D02*
X0047065Y0130450D01*
X0045631Y0130450D02*
X0048500Y0130450D01*
X0048500Y0133319D02*
X0047065Y0134754D01*
X0039292Y0134754D02*
X0039292Y0131885D01*
X0037858Y0130450D01*
X0036423Y0131885D01*
X0036423Y0134754D01*
D12*
X0050100Y0132561D02*
X0050100Y0129332D01*
X0055100Y0129332D02*
X0055100Y0132561D01*
X0056850Y0044100D02*
X0045850Y0044100D01*
X0045790Y0044098D01*
X0045729Y0044093D01*
X0045670Y0044084D01*
X0045611Y0044071D01*
X0045552Y0044055D01*
X0045495Y0044035D01*
X0045440Y0044012D01*
X0045385Y0043985D01*
X0045333Y0043956D01*
X0045282Y0043923D01*
X0045233Y0043887D01*
X0045187Y0043849D01*
X0045143Y0043807D01*
X0045101Y0043763D01*
X0045063Y0043717D01*
X0045027Y0043668D01*
X0044994Y0043617D01*
X0044965Y0043565D01*
X0044938Y0043510D01*
X0044915Y0043455D01*
X0044895Y0043398D01*
X0044879Y0043339D01*
X0044866Y0043280D01*
X0044857Y0043221D01*
X0044852Y0043160D01*
X0044850Y0043100D01*
X0044850Y0037100D01*
X0044852Y0037040D01*
X0044857Y0036979D01*
X0044866Y0036920D01*
X0044879Y0036861D01*
X0044895Y0036802D01*
X0044915Y0036745D01*
X0044938Y0036690D01*
X0044965Y0036635D01*
X0044994Y0036583D01*
X0045027Y0036532D01*
X0045063Y0036483D01*
X0045101Y0036437D01*
X0045143Y0036393D01*
X0045187Y0036351D01*
X0045233Y0036313D01*
X0045282Y0036277D01*
X0045333Y0036244D01*
X0045385Y0036215D01*
X0045440Y0036188D01*
X0045495Y0036165D01*
X0045552Y0036145D01*
X0045611Y0036129D01*
X0045670Y0036116D01*
X0045729Y0036107D01*
X0045790Y0036102D01*
X0045850Y0036100D01*
X0056850Y0036100D01*
X0056910Y0036102D01*
X0056971Y0036107D01*
X0057030Y0036116D01*
X0057089Y0036129D01*
X0057148Y0036145D01*
X0057205Y0036165D01*
X0057260Y0036188D01*
X0057315Y0036215D01*
X0057367Y0036244D01*
X0057418Y0036277D01*
X0057467Y0036313D01*
X0057513Y0036351D01*
X0057557Y0036393D01*
X0057599Y0036437D01*
X0057637Y0036483D01*
X0057673Y0036532D01*
X0057706Y0036583D01*
X0057735Y0036635D01*
X0057762Y0036690D01*
X0057785Y0036745D01*
X0057805Y0036802D01*
X0057821Y0036861D01*
X0057834Y0036920D01*
X0057843Y0036979D01*
X0057848Y0037040D01*
X0057850Y0037100D01*
X0057850Y0043100D01*
X0057848Y0043160D01*
X0057843Y0043221D01*
X0057834Y0043280D01*
X0057821Y0043339D01*
X0057805Y0043398D01*
X0057785Y0043455D01*
X0057762Y0043510D01*
X0057735Y0043565D01*
X0057706Y0043617D01*
X0057673Y0043668D01*
X0057637Y0043717D01*
X0057599Y0043763D01*
X0057557Y0043807D01*
X0057513Y0043849D01*
X0057467Y0043887D01*
X0057418Y0043923D01*
X0057367Y0043956D01*
X0057315Y0043985D01*
X0057260Y0044012D01*
X0057205Y0044035D01*
X0057148Y0044055D01*
X0057089Y0044071D01*
X0057030Y0044084D01*
X0056971Y0044093D01*
X0056910Y0044098D01*
X0056850Y0044100D01*
X0057350Y0040100D02*
X0055350Y0040100D01*
X0047350Y0040100D02*
X0045350Y0040100D01*
X0234600Y0453600D02*
X0245600Y0453600D01*
X0245660Y0453602D01*
X0245721Y0453607D01*
X0245780Y0453616D01*
X0245839Y0453629D01*
X0245898Y0453645D01*
X0245955Y0453665D01*
X0246010Y0453688D01*
X0246065Y0453715D01*
X0246117Y0453744D01*
X0246168Y0453777D01*
X0246217Y0453813D01*
X0246263Y0453851D01*
X0246307Y0453893D01*
X0246349Y0453937D01*
X0246387Y0453983D01*
X0246423Y0454032D01*
X0246456Y0454083D01*
X0246485Y0454135D01*
X0246512Y0454190D01*
X0246535Y0454245D01*
X0246555Y0454302D01*
X0246571Y0454361D01*
X0246584Y0454420D01*
X0246593Y0454479D01*
X0246598Y0454540D01*
X0246600Y0454600D01*
X0246600Y0460600D01*
X0246598Y0460660D01*
X0246593Y0460721D01*
X0246584Y0460780D01*
X0246571Y0460839D01*
X0246555Y0460898D01*
X0246535Y0460955D01*
X0246512Y0461010D01*
X0246485Y0461065D01*
X0246456Y0461117D01*
X0246423Y0461168D01*
X0246387Y0461217D01*
X0246349Y0461263D01*
X0246307Y0461307D01*
X0246263Y0461349D01*
X0246217Y0461387D01*
X0246168Y0461423D01*
X0246117Y0461456D01*
X0246065Y0461485D01*
X0246010Y0461512D01*
X0245955Y0461535D01*
X0245898Y0461555D01*
X0245839Y0461571D01*
X0245780Y0461584D01*
X0245721Y0461593D01*
X0245660Y0461598D01*
X0245600Y0461600D01*
X0234600Y0461600D01*
X0234540Y0461598D01*
X0234479Y0461593D01*
X0234420Y0461584D01*
X0234361Y0461571D01*
X0234302Y0461555D01*
X0234245Y0461535D01*
X0234190Y0461512D01*
X0234135Y0461485D01*
X0234083Y0461456D01*
X0234032Y0461423D01*
X0233983Y0461387D01*
X0233937Y0461349D01*
X0233893Y0461307D01*
X0233851Y0461263D01*
X0233813Y0461217D01*
X0233777Y0461168D01*
X0233744Y0461117D01*
X0233715Y0461065D01*
X0233688Y0461010D01*
X0233665Y0460955D01*
X0233645Y0460898D01*
X0233629Y0460839D01*
X0233616Y0460780D01*
X0233607Y0460721D01*
X0233602Y0460660D01*
X0233600Y0460600D01*
X0233600Y0454600D01*
X0233602Y0454540D01*
X0233607Y0454479D01*
X0233616Y0454420D01*
X0233629Y0454361D01*
X0233645Y0454302D01*
X0233665Y0454245D01*
X0233688Y0454190D01*
X0233715Y0454135D01*
X0233744Y0454083D01*
X0233777Y0454032D01*
X0233813Y0453983D01*
X0233851Y0453937D01*
X0233893Y0453893D01*
X0233937Y0453851D01*
X0233983Y0453813D01*
X0234032Y0453777D01*
X0234083Y0453744D01*
X0234135Y0453715D01*
X0234190Y0453688D01*
X0234245Y0453665D01*
X0234302Y0453645D01*
X0234361Y0453629D01*
X0234420Y0453616D01*
X0234479Y0453607D01*
X0234540Y0453602D01*
X0234600Y0453600D01*
X0234100Y0457600D02*
X0236100Y0457600D01*
X0244100Y0457600D02*
X0246100Y0457600D01*
D13*
X0052606Y0133826D03*
X0052606Y0128026D03*
D14*
X0058493Y0129404D02*
X0061562Y0132473D01*
X0062330Y0132473D01*
X0063097Y0131706D01*
X0063097Y0130171D01*
X0062330Y0129404D01*
X0063097Y0127869D02*
X0063097Y0126335D01*
X0063097Y0127102D02*
X0059260Y0127102D01*
X0058493Y0126335D01*
X0058493Y0125567D01*
X0059260Y0124800D01*
X0058493Y0129404D02*
X0058493Y0132473D01*
D15*
X0046201Y0031601D02*
X0046952Y0030850D01*
X0048453Y0030850D01*
X0049204Y0031601D01*
X0047703Y0033102D02*
X0046952Y0033102D01*
X0046201Y0032351D01*
X0046201Y0031601D01*
X0046952Y0033102D02*
X0046201Y0033853D01*
X0046201Y0034603D01*
X0046952Y0035354D01*
X0048453Y0035354D01*
X0049204Y0034603D01*
X0050805Y0035354D02*
X0052307Y0035354D01*
X0051556Y0035354D02*
X0051556Y0031601D01*
X0052307Y0030850D01*
X0053057Y0030850D01*
X0053808Y0031601D01*
X0052599Y0037362D02*
X0052351Y0040100D01*
X0052351Y0040100D01*
X0052599Y0042838D01*
X0052600Y0042839D01*
X0052703Y0042827D01*
X0052807Y0042812D01*
X0052909Y0042793D01*
X0053011Y0042769D01*
X0053112Y0042742D01*
X0053211Y0042712D01*
X0053310Y0042677D01*
X0053407Y0042639D01*
X0053502Y0042597D01*
X0053596Y0042551D01*
X0053688Y0042502D01*
X0053779Y0042450D01*
X0053867Y0042394D01*
X0053953Y0042335D01*
X0054036Y0042272D01*
X0054117Y0042207D01*
X0054196Y0042138D01*
X0054272Y0042067D01*
X0054345Y0041992D01*
X0054416Y0041915D01*
X0054483Y0041836D01*
X0054547Y0041753D01*
X0054609Y0041669D01*
X0054666Y0041582D01*
X0054721Y0041493D01*
X0054772Y0041402D01*
X0054820Y0041309D01*
X0054864Y0041215D01*
X0054904Y0041119D01*
X0054941Y0041021D01*
X0054974Y0040922D01*
X0055004Y0040822D01*
X0055029Y0040721D01*
X0055051Y0040619D01*
X0055068Y0040516D01*
X0055082Y0040412D01*
X0055092Y0040309D01*
X0055098Y0040204D01*
X0055100Y0040100D01*
X0055098Y0039996D01*
X0055092Y0039891D01*
X0055082Y0039788D01*
X0055068Y0039684D01*
X0055051Y0039581D01*
X0055029Y0039479D01*
X0055004Y0039378D01*
X0054974Y0039278D01*
X0054941Y0039179D01*
X0054904Y0039081D01*
X0054864Y0038985D01*
X0054820Y0038891D01*
X0054772Y0038798D01*
X0054721Y0038707D01*
X0054666Y0038618D01*
X0054609Y0038531D01*
X0054547Y0038447D01*
X0054483Y0038364D01*
X0054416Y0038285D01*
X0054345Y0038208D01*
X0054272Y0038133D01*
X0054196Y0038062D01*
X0054117Y0037993D01*
X0054036Y0037928D01*
X0053953Y0037865D01*
X0053867Y0037806D01*
X0053779Y0037750D01*
X0053688Y0037698D01*
X0053596Y0037649D01*
X0053502Y0037603D01*
X0053407Y0037561D01*
X0053310Y0037523D01*
X0053211Y0037488D01*
X0053112Y0037458D01*
X0053011Y0037431D01*
X0052909Y0037407D01*
X0052807Y0037388D01*
X0052703Y0037373D01*
X0052600Y0037361D01*
X0052599Y0037838D01*
X0052694Y0037850D01*
X0052787Y0037866D01*
X0052880Y0037887D01*
X0052972Y0037911D01*
X0053063Y0037939D01*
X0053152Y0037970D01*
X0053241Y0038005D01*
X0053327Y0038044D01*
X0053412Y0038087D01*
X0053495Y0038133D01*
X0053576Y0038183D01*
X0053655Y0038235D01*
X0053732Y0038292D01*
X0053806Y0038351D01*
X0053878Y0038413D01*
X0053947Y0038478D01*
X0054013Y0038546D01*
X0054077Y0038617D01*
X0054137Y0038690D01*
X0054194Y0038766D01*
X0054248Y0038844D01*
X0054299Y0038925D01*
X0054346Y0039007D01*
X0054390Y0039091D01*
X0054431Y0039177D01*
X0054467Y0039265D01*
X0054500Y0039354D01*
X0054530Y0039444D01*
X0054555Y0039536D01*
X0054577Y0039628D01*
X0054594Y0039722D01*
X0054608Y0039816D01*
X0054618Y0039910D01*
X0054624Y0040005D01*
X0054626Y0040100D01*
X0054624Y0040195D01*
X0054618Y0040290D01*
X0054608Y0040384D01*
X0054594Y0040478D01*
X0054577Y0040572D01*
X0054555Y0040664D01*
X0054530Y0040756D01*
X0054500Y0040846D01*
X0054467Y0040935D01*
X0054431Y0041023D01*
X0054390Y0041109D01*
X0054346Y0041193D01*
X0054299Y0041275D01*
X0054248Y0041356D01*
X0054194Y0041434D01*
X0054137Y0041510D01*
X0054077Y0041583D01*
X0054013Y0041654D01*
X0053947Y0041722D01*
X0053878Y0041787D01*
X0053806Y0041849D01*
X0053732Y0041908D01*
X0053655Y0041965D01*
X0053576Y0042017D01*
X0053495Y0042067D01*
X0053412Y0042113D01*
X0053327Y0042156D01*
X0053241Y0042195D01*
X0053152Y0042230D01*
X0053063Y0042261D01*
X0052972Y0042289D01*
X0052880Y0042313D01*
X0052787Y0042334D01*
X0052694Y0042350D01*
X0052599Y0042362D01*
X0052599Y0041885D01*
X0052681Y0041871D01*
X0052763Y0041854D01*
X0052843Y0041833D01*
X0052923Y0041809D01*
X0053001Y0041780D01*
X0053078Y0041748D01*
X0053153Y0041713D01*
X0053227Y0041674D01*
X0053299Y0041632D01*
X0053369Y0041587D01*
X0053436Y0041538D01*
X0053501Y0041486D01*
X0053564Y0041432D01*
X0053624Y0041374D01*
X0053682Y0041314D01*
X0053736Y0041251D01*
X0053788Y0041186D01*
X0053837Y0041118D01*
X0053882Y0041049D01*
X0053924Y0040977D01*
X0053963Y0040903D01*
X0053998Y0040828D01*
X0054030Y0040751D01*
X0054059Y0040673D01*
X0054083Y0040593D01*
X0054104Y0040513D01*
X0054121Y0040431D01*
X0054135Y0040349D01*
X0054144Y0040266D01*
X0054150Y0040183D01*
X0054152Y0040100D01*
X0054150Y0040017D01*
X0054144Y0039934D01*
X0054135Y0039851D01*
X0054121Y0039769D01*
X0054104Y0039687D01*
X0054083Y0039607D01*
X0054059Y0039527D01*
X0054030Y0039449D01*
X0053998Y0039372D01*
X0053963Y0039297D01*
X0053924Y0039223D01*
X0053882Y0039151D01*
X0053837Y0039082D01*
X0053788Y0039014D01*
X0053736Y0038949D01*
X0053682Y0038886D01*
X0053624Y0038826D01*
X0053564Y0038768D01*
X0053501Y0038714D01*
X0053436Y0038662D01*
X0053369Y0038613D01*
X0053299Y0038568D01*
X0053227Y0038526D01*
X0053153Y0038487D01*
X0053078Y0038452D01*
X0053001Y0038420D01*
X0052923Y0038391D01*
X0052843Y0038367D01*
X0052763Y0038346D01*
X0052681Y0038329D01*
X0052599Y0038315D01*
X0052599Y0038795D01*
X0052669Y0038811D01*
X0052738Y0038830D01*
X0052806Y0038853D01*
X0052873Y0038879D01*
X0052939Y0038910D01*
X0053002Y0038943D01*
X0053064Y0038980D01*
X0053124Y0039021D01*
X0053181Y0039064D01*
X0053236Y0039111D01*
X0053288Y0039160D01*
X0053338Y0039212D01*
X0053385Y0039267D01*
X0053428Y0039325D01*
X0053469Y0039384D01*
X0053506Y0039446D01*
X0053539Y0039509D01*
X0053570Y0039575D01*
X0053596Y0039642D01*
X0053619Y0039710D01*
X0053639Y0039779D01*
X0053654Y0039850D01*
X0053666Y0039921D01*
X0053674Y0039992D01*
X0053678Y0040064D01*
X0053678Y0040136D01*
X0053674Y0040208D01*
X0053666Y0040279D01*
X0053654Y0040350D01*
X0053639Y0040421D01*
X0053619Y0040490D01*
X0053596Y0040558D01*
X0053570Y0040625D01*
X0053539Y0040691D01*
X0053506Y0040754D01*
X0053469Y0040816D01*
X0053428Y0040875D01*
X0053385Y0040933D01*
X0053338Y0040988D01*
X0053288Y0041040D01*
X0053236Y0041089D01*
X0053181Y0041136D01*
X0053124Y0041179D01*
X0053064Y0041220D01*
X0053002Y0041257D01*
X0052939Y0041290D01*
X0052873Y0041321D01*
X0052806Y0041347D01*
X0052738Y0041370D01*
X0052669Y0041389D01*
X0052599Y0041405D01*
X0052596Y0040918D01*
X0052651Y0040899D01*
X0052704Y0040877D01*
X0052755Y0040852D01*
X0052805Y0040823D01*
X0052852Y0040791D01*
X0052898Y0040755D01*
X0052941Y0040717D01*
X0052981Y0040676D01*
X0053018Y0040632D01*
X0053052Y0040586D01*
X0053083Y0040538D01*
X0053111Y0040487D01*
X0053135Y0040435D01*
X0053156Y0040382D01*
X0053173Y0040327D01*
X0053187Y0040271D01*
X0053196Y0040215D01*
X0053202Y0040157D01*
X0053204Y0040100D01*
X0053202Y0040043D01*
X0053196Y0039985D01*
X0053187Y0039929D01*
X0053173Y0039873D01*
X0053156Y0039818D01*
X0053135Y0039765D01*
X0053111Y0039713D01*
X0053083Y0039662D01*
X0053052Y0039614D01*
X0053018Y0039568D01*
X0052981Y0039524D01*
X0052941Y0039483D01*
X0052898Y0039445D01*
X0052852Y0039409D01*
X0052805Y0039377D01*
X0052755Y0039348D01*
X0052704Y0039323D01*
X0052651Y0039301D01*
X0052596Y0039282D01*
X0052582Y0039799D01*
X0052610Y0039823D01*
X0052636Y0039849D01*
X0052658Y0039878D01*
X0052678Y0039908D01*
X0052695Y0039941D01*
X0052709Y0039975D01*
X0052719Y0040010D01*
X0052726Y0040045D01*
X0052730Y0040082D01*
X0052730Y0040118D01*
X0052726Y0040155D01*
X0052719Y0040190D01*
X0052709Y0040225D01*
X0052695Y0040259D01*
X0052678Y0040292D01*
X0052658Y0040322D01*
X0052636Y0040351D01*
X0052610Y0040377D01*
X0052582Y0040401D01*
X0050101Y0042838D02*
X0050349Y0040100D01*
X0050349Y0040100D01*
X0050101Y0037362D01*
X0050100Y0037361D01*
X0049997Y0037373D01*
X0049893Y0037388D01*
X0049791Y0037407D01*
X0049689Y0037431D01*
X0049588Y0037458D01*
X0049489Y0037488D01*
X0049390Y0037523D01*
X0049293Y0037561D01*
X0049198Y0037603D01*
X0049104Y0037649D01*
X0049012Y0037698D01*
X0048921Y0037750D01*
X0048833Y0037806D01*
X0048747Y0037865D01*
X0048664Y0037928D01*
X0048583Y0037993D01*
X0048504Y0038062D01*
X0048428Y0038133D01*
X0048355Y0038208D01*
X0048284Y0038285D01*
X0048217Y0038364D01*
X0048153Y0038447D01*
X0048091Y0038531D01*
X0048034Y0038618D01*
X0047979Y0038707D01*
X0047928Y0038798D01*
X0047880Y0038891D01*
X0047836Y0038985D01*
X0047796Y0039081D01*
X0047759Y0039179D01*
X0047726Y0039278D01*
X0047696Y0039378D01*
X0047671Y0039479D01*
X0047649Y0039581D01*
X0047632Y0039684D01*
X0047618Y0039788D01*
X0047608Y0039891D01*
X0047602Y0039996D01*
X0047600Y0040100D01*
X0047602Y0040204D01*
X0047608Y0040309D01*
X0047618Y0040412D01*
X0047632Y0040516D01*
X0047649Y0040619D01*
X0047671Y0040721D01*
X0047696Y0040822D01*
X0047726Y0040922D01*
X0047759Y0041021D01*
X0047796Y0041119D01*
X0047836Y0041215D01*
X0047880Y0041309D01*
X0047928Y0041402D01*
X0047979Y0041493D01*
X0048034Y0041582D01*
X0048091Y0041669D01*
X0048153Y0041753D01*
X0048217Y0041836D01*
X0048284Y0041915D01*
X0048355Y0041992D01*
X0048428Y0042067D01*
X0048504Y0042138D01*
X0048583Y0042207D01*
X0048664Y0042272D01*
X0048747Y0042335D01*
X0048833Y0042394D01*
X0048921Y0042450D01*
X0049012Y0042502D01*
X0049104Y0042551D01*
X0049198Y0042597D01*
X0049293Y0042639D01*
X0049390Y0042677D01*
X0049489Y0042712D01*
X0049588Y0042742D01*
X0049689Y0042769D01*
X0049791Y0042793D01*
X0049893Y0042812D01*
X0049997Y0042827D01*
X0050100Y0042839D01*
X0050101Y0042362D01*
X0050006Y0042350D01*
X0049913Y0042334D01*
X0049820Y0042313D01*
X0049728Y0042289D01*
X0049637Y0042261D01*
X0049548Y0042230D01*
X0049459Y0042195D01*
X0049373Y0042156D01*
X0049288Y0042113D01*
X0049205Y0042067D01*
X0049124Y0042017D01*
X0049045Y0041965D01*
X0048968Y0041908D01*
X0048894Y0041849D01*
X0048822Y0041787D01*
X0048753Y0041722D01*
X0048687Y0041654D01*
X0048623Y0041583D01*
X0048563Y0041510D01*
X0048506Y0041434D01*
X0048452Y0041356D01*
X0048401Y0041275D01*
X0048354Y0041193D01*
X0048310Y0041109D01*
X0048269Y0041023D01*
X0048233Y0040935D01*
X0048200Y0040846D01*
X0048170Y0040756D01*
X0048145Y0040664D01*
X0048123Y0040572D01*
X0048106Y0040478D01*
X0048092Y0040384D01*
X0048082Y0040290D01*
X0048076Y0040195D01*
X0048074Y0040100D01*
X0048076Y0040005D01*
X0048082Y0039910D01*
X0048092Y0039816D01*
X0048106Y0039722D01*
X0048123Y0039628D01*
X0048145Y0039536D01*
X0048170Y0039444D01*
X0048200Y0039354D01*
X0048233Y0039265D01*
X0048269Y0039177D01*
X0048310Y0039091D01*
X0048354Y0039007D01*
X0048401Y0038925D01*
X0048452Y0038844D01*
X0048506Y0038766D01*
X0048563Y0038690D01*
X0048623Y0038617D01*
X0048687Y0038546D01*
X0048753Y0038478D01*
X0048822Y0038413D01*
X0048894Y0038351D01*
X0048968Y0038292D01*
X0049045Y0038235D01*
X0049124Y0038183D01*
X0049205Y0038133D01*
X0049288Y0038087D01*
X0049373Y0038044D01*
X0049459Y0038005D01*
X0049548Y0037970D01*
X0049637Y0037939D01*
X0049728Y0037911D01*
X0049820Y0037887D01*
X0049913Y0037866D01*
X0050006Y0037850D01*
X0050101Y0037838D01*
X0050101Y0038315D01*
X0050019Y0038329D01*
X0049937Y0038346D01*
X0049857Y0038367D01*
X0049777Y0038391D01*
X0049699Y0038420D01*
X0049622Y0038452D01*
X0049547Y0038487D01*
X0049473Y0038526D01*
X0049401Y0038568D01*
X0049331Y0038613D01*
X0049264Y0038662D01*
X0049199Y0038714D01*
X0049136Y0038768D01*
X0049076Y0038826D01*
X0049018Y0038886D01*
X0048964Y0038949D01*
X0048912Y0039014D01*
X0048863Y0039082D01*
X0048818Y0039151D01*
X0048776Y0039223D01*
X0048737Y0039297D01*
X0048702Y0039372D01*
X0048670Y0039449D01*
X0048641Y0039527D01*
X0048617Y0039607D01*
X0048596Y0039687D01*
X0048579Y0039769D01*
X0048565Y0039851D01*
X0048556Y0039934D01*
X0048550Y0040017D01*
X0048548Y0040100D01*
X0048550Y0040183D01*
X0048556Y0040266D01*
X0048565Y0040349D01*
X0048579Y0040431D01*
X0048596Y0040513D01*
X0048617Y0040593D01*
X0048641Y0040673D01*
X0048670Y0040751D01*
X0048702Y0040828D01*
X0048737Y0040903D01*
X0048776Y0040977D01*
X0048818Y0041049D01*
X0048863Y0041118D01*
X0048912Y0041186D01*
X0048964Y0041251D01*
X0049018Y0041314D01*
X0049076Y0041374D01*
X0049136Y0041432D01*
X0049199Y0041486D01*
X0049264Y0041538D01*
X0049331Y0041587D01*
X0049401Y0041632D01*
X0049473Y0041674D01*
X0049547Y0041713D01*
X0049622Y0041748D01*
X0049699Y0041780D01*
X0049777Y0041809D01*
X0049857Y0041833D01*
X0049937Y0041854D01*
X0050019Y0041871D01*
X0050101Y0041885D01*
X0050101Y0041405D01*
X0050031Y0041389D01*
X0049962Y0041370D01*
X0049894Y0041347D01*
X0049827Y0041321D01*
X0049761Y0041290D01*
X0049698Y0041257D01*
X0049636Y0041220D01*
X0049576Y0041179D01*
X0049519Y0041136D01*
X0049464Y0041089D01*
X0049412Y0041040D01*
X0049362Y0040988D01*
X0049315Y0040933D01*
X0049272Y0040875D01*
X0049231Y0040816D01*
X0049194Y0040754D01*
X0049161Y0040691D01*
X0049130Y0040625D01*
X0049104Y0040558D01*
X0049081Y0040490D01*
X0049061Y0040421D01*
X0049046Y0040350D01*
X0049034Y0040279D01*
X0049026Y0040208D01*
X0049022Y0040136D01*
X0049022Y0040064D01*
X0049026Y0039992D01*
X0049034Y0039921D01*
X0049046Y0039850D01*
X0049061Y0039779D01*
X0049081Y0039710D01*
X0049104Y0039642D01*
X0049130Y0039575D01*
X0049161Y0039509D01*
X0049194Y0039446D01*
X0049231Y0039384D01*
X0049272Y0039325D01*
X0049315Y0039267D01*
X0049362Y0039212D01*
X0049412Y0039160D01*
X0049464Y0039111D01*
X0049519Y0039064D01*
X0049576Y0039021D01*
X0049636Y0038980D01*
X0049698Y0038943D01*
X0049761Y0038910D01*
X0049827Y0038879D01*
X0049894Y0038853D01*
X0049962Y0038830D01*
X0050031Y0038811D01*
X0050101Y0038795D01*
X0050104Y0039282D01*
X0050049Y0039301D01*
X0049996Y0039323D01*
X0049945Y0039348D01*
X0049895Y0039377D01*
X0049848Y0039409D01*
X0049802Y0039445D01*
X0049759Y0039483D01*
X0049719Y0039524D01*
X0049682Y0039568D01*
X0049648Y0039614D01*
X0049617Y0039662D01*
X0049589Y0039713D01*
X0049565Y0039765D01*
X0049544Y0039818D01*
X0049527Y0039873D01*
X0049513Y0039929D01*
X0049504Y0039985D01*
X0049498Y0040043D01*
X0049496Y0040100D01*
X0049498Y0040157D01*
X0049504Y0040215D01*
X0049513Y0040271D01*
X0049527Y0040327D01*
X0049544Y0040382D01*
X0049565Y0040435D01*
X0049589Y0040487D01*
X0049617Y0040538D01*
X0049648Y0040586D01*
X0049682Y0040632D01*
X0049719Y0040676D01*
X0049759Y0040717D01*
X0049802Y0040755D01*
X0049848Y0040791D01*
X0049895Y0040823D01*
X0049945Y0040852D01*
X0049996Y0040877D01*
X0050049Y0040899D01*
X0050104Y0040918D01*
X0050118Y0040401D01*
X0050090Y0040377D01*
X0050064Y0040351D01*
X0050042Y0040322D01*
X0050022Y0040292D01*
X0050005Y0040259D01*
X0049991Y0040225D01*
X0049981Y0040190D01*
X0049974Y0040155D01*
X0049970Y0040118D01*
X0049970Y0040082D01*
X0049974Y0040045D01*
X0049981Y0040010D01*
X0049991Y0039975D01*
X0050005Y0039941D01*
X0050022Y0039908D01*
X0050042Y0039878D01*
X0050064Y0039849D01*
X0050090Y0039823D01*
X0050118Y0039799D01*
X0235702Y0448350D02*
X0235702Y0452854D01*
X0237954Y0450602D01*
X0234951Y0450602D01*
X0239555Y0452854D02*
X0241057Y0452854D01*
X0240306Y0452854D02*
X0240306Y0449101D01*
X0241057Y0448350D01*
X0241807Y0448350D01*
X0242558Y0449101D01*
X0241349Y0454862D02*
X0241101Y0457600D01*
X0241101Y0457600D01*
X0241349Y0460338D01*
X0241350Y0460339D01*
X0241453Y0460327D01*
X0241557Y0460312D01*
X0241659Y0460293D01*
X0241761Y0460269D01*
X0241862Y0460242D01*
X0241961Y0460212D01*
X0242060Y0460177D01*
X0242157Y0460139D01*
X0242252Y0460097D01*
X0242346Y0460051D01*
X0242438Y0460002D01*
X0242529Y0459950D01*
X0242617Y0459894D01*
X0242703Y0459835D01*
X0242786Y0459772D01*
X0242867Y0459707D01*
X0242946Y0459638D01*
X0243022Y0459567D01*
X0243095Y0459492D01*
X0243166Y0459415D01*
X0243233Y0459336D01*
X0243297Y0459253D01*
X0243359Y0459169D01*
X0243416Y0459082D01*
X0243471Y0458993D01*
X0243522Y0458902D01*
X0243570Y0458809D01*
X0243614Y0458715D01*
X0243654Y0458619D01*
X0243691Y0458521D01*
X0243724Y0458422D01*
X0243754Y0458322D01*
X0243779Y0458221D01*
X0243801Y0458119D01*
X0243818Y0458016D01*
X0243832Y0457912D01*
X0243842Y0457809D01*
X0243848Y0457704D01*
X0243850Y0457600D01*
X0243848Y0457496D01*
X0243842Y0457391D01*
X0243832Y0457288D01*
X0243818Y0457184D01*
X0243801Y0457081D01*
X0243779Y0456979D01*
X0243754Y0456878D01*
X0243724Y0456778D01*
X0243691Y0456679D01*
X0243654Y0456581D01*
X0243614Y0456485D01*
X0243570Y0456391D01*
X0243522Y0456298D01*
X0243471Y0456207D01*
X0243416Y0456118D01*
X0243359Y0456031D01*
X0243297Y0455947D01*
X0243233Y0455864D01*
X0243166Y0455785D01*
X0243095Y0455708D01*
X0243022Y0455633D01*
X0242946Y0455562D01*
X0242867Y0455493D01*
X0242786Y0455428D01*
X0242703Y0455365D01*
X0242617Y0455306D01*
X0242529Y0455250D01*
X0242438Y0455198D01*
X0242346Y0455149D01*
X0242252Y0455103D01*
X0242157Y0455061D01*
X0242060Y0455023D01*
X0241961Y0454988D01*
X0241862Y0454958D01*
X0241761Y0454931D01*
X0241659Y0454907D01*
X0241557Y0454888D01*
X0241453Y0454873D01*
X0241350Y0454861D01*
X0241349Y0455338D01*
X0241444Y0455350D01*
X0241537Y0455366D01*
X0241630Y0455387D01*
X0241722Y0455411D01*
X0241813Y0455439D01*
X0241902Y0455470D01*
X0241991Y0455505D01*
X0242077Y0455544D01*
X0242162Y0455587D01*
X0242245Y0455633D01*
X0242326Y0455683D01*
X0242405Y0455735D01*
X0242482Y0455792D01*
X0242556Y0455851D01*
X0242628Y0455913D01*
X0242697Y0455978D01*
X0242763Y0456046D01*
X0242827Y0456117D01*
X0242887Y0456190D01*
X0242944Y0456266D01*
X0242998Y0456344D01*
X0243049Y0456425D01*
X0243096Y0456507D01*
X0243140Y0456591D01*
X0243181Y0456677D01*
X0243217Y0456765D01*
X0243250Y0456854D01*
X0243280Y0456944D01*
X0243305Y0457036D01*
X0243327Y0457128D01*
X0243344Y0457222D01*
X0243358Y0457316D01*
X0243368Y0457410D01*
X0243374Y0457505D01*
X0243376Y0457600D01*
X0243374Y0457695D01*
X0243368Y0457790D01*
X0243358Y0457884D01*
X0243344Y0457978D01*
X0243327Y0458072D01*
X0243305Y0458164D01*
X0243280Y0458256D01*
X0243250Y0458346D01*
X0243217Y0458435D01*
X0243181Y0458523D01*
X0243140Y0458609D01*
X0243096Y0458693D01*
X0243049Y0458775D01*
X0242998Y0458856D01*
X0242944Y0458934D01*
X0242887Y0459010D01*
X0242827Y0459083D01*
X0242763Y0459154D01*
X0242697Y0459222D01*
X0242628Y0459287D01*
X0242556Y0459349D01*
X0242482Y0459408D01*
X0242405Y0459465D01*
X0242326Y0459517D01*
X0242245Y0459567D01*
X0242162Y0459613D01*
X0242077Y0459656D01*
X0241991Y0459695D01*
X0241902Y0459730D01*
X0241813Y0459761D01*
X0241722Y0459789D01*
X0241630Y0459813D01*
X0241537Y0459834D01*
X0241444Y0459850D01*
X0241349Y0459862D01*
X0241349Y0459385D01*
X0241431Y0459371D01*
X0241513Y0459354D01*
X0241593Y0459333D01*
X0241673Y0459309D01*
X0241751Y0459280D01*
X0241828Y0459248D01*
X0241903Y0459213D01*
X0241977Y0459174D01*
X0242049Y0459132D01*
X0242119Y0459087D01*
X0242186Y0459038D01*
X0242251Y0458986D01*
X0242314Y0458932D01*
X0242374Y0458874D01*
X0242432Y0458814D01*
X0242486Y0458751D01*
X0242538Y0458686D01*
X0242587Y0458618D01*
X0242632Y0458549D01*
X0242674Y0458477D01*
X0242713Y0458403D01*
X0242748Y0458328D01*
X0242780Y0458251D01*
X0242809Y0458173D01*
X0242833Y0458093D01*
X0242854Y0458013D01*
X0242871Y0457931D01*
X0242885Y0457849D01*
X0242894Y0457766D01*
X0242900Y0457683D01*
X0242902Y0457600D01*
X0242900Y0457517D01*
X0242894Y0457434D01*
X0242885Y0457351D01*
X0242871Y0457269D01*
X0242854Y0457187D01*
X0242833Y0457107D01*
X0242809Y0457027D01*
X0242780Y0456949D01*
X0242748Y0456872D01*
X0242713Y0456797D01*
X0242674Y0456723D01*
X0242632Y0456651D01*
X0242587Y0456582D01*
X0242538Y0456514D01*
X0242486Y0456449D01*
X0242432Y0456386D01*
X0242374Y0456326D01*
X0242314Y0456268D01*
X0242251Y0456214D01*
X0242186Y0456162D01*
X0242119Y0456113D01*
X0242049Y0456068D01*
X0241977Y0456026D01*
X0241903Y0455987D01*
X0241828Y0455952D01*
X0241751Y0455920D01*
X0241673Y0455891D01*
X0241593Y0455867D01*
X0241513Y0455846D01*
X0241431Y0455829D01*
X0241349Y0455815D01*
X0241349Y0456295D01*
X0241419Y0456311D01*
X0241488Y0456330D01*
X0241556Y0456353D01*
X0241623Y0456379D01*
X0241689Y0456410D01*
X0241752Y0456443D01*
X0241814Y0456480D01*
X0241874Y0456521D01*
X0241931Y0456564D01*
X0241986Y0456611D01*
X0242038Y0456660D01*
X0242088Y0456712D01*
X0242135Y0456767D01*
X0242178Y0456825D01*
X0242219Y0456884D01*
X0242256Y0456946D01*
X0242289Y0457009D01*
X0242320Y0457075D01*
X0242346Y0457142D01*
X0242369Y0457210D01*
X0242389Y0457279D01*
X0242404Y0457350D01*
X0242416Y0457421D01*
X0242424Y0457492D01*
X0242428Y0457564D01*
X0242428Y0457636D01*
X0242424Y0457708D01*
X0242416Y0457779D01*
X0242404Y0457850D01*
X0242389Y0457921D01*
X0242369Y0457990D01*
X0242346Y0458058D01*
X0242320Y0458125D01*
X0242289Y0458191D01*
X0242256Y0458254D01*
X0242219Y0458316D01*
X0242178Y0458375D01*
X0242135Y0458433D01*
X0242088Y0458488D01*
X0242038Y0458540D01*
X0241986Y0458589D01*
X0241931Y0458636D01*
X0241874Y0458679D01*
X0241814Y0458720D01*
X0241752Y0458757D01*
X0241689Y0458790D01*
X0241623Y0458821D01*
X0241556Y0458847D01*
X0241488Y0458870D01*
X0241419Y0458889D01*
X0241349Y0458905D01*
X0241346Y0458418D01*
X0241401Y0458399D01*
X0241454Y0458377D01*
X0241505Y0458352D01*
X0241555Y0458323D01*
X0241602Y0458291D01*
X0241648Y0458255D01*
X0241691Y0458217D01*
X0241731Y0458176D01*
X0241768Y0458132D01*
X0241802Y0458086D01*
X0241833Y0458038D01*
X0241861Y0457987D01*
X0241885Y0457935D01*
X0241906Y0457882D01*
X0241923Y0457827D01*
X0241937Y0457771D01*
X0241946Y0457715D01*
X0241952Y0457657D01*
X0241954Y0457600D01*
X0241952Y0457543D01*
X0241946Y0457485D01*
X0241937Y0457429D01*
X0241923Y0457373D01*
X0241906Y0457318D01*
X0241885Y0457265D01*
X0241861Y0457213D01*
X0241833Y0457162D01*
X0241802Y0457114D01*
X0241768Y0457068D01*
X0241731Y0457024D01*
X0241691Y0456983D01*
X0241648Y0456945D01*
X0241602Y0456909D01*
X0241555Y0456877D01*
X0241505Y0456848D01*
X0241454Y0456823D01*
X0241401Y0456801D01*
X0241346Y0456782D01*
X0241332Y0457299D01*
X0241360Y0457323D01*
X0241386Y0457349D01*
X0241408Y0457378D01*
X0241428Y0457408D01*
X0241445Y0457441D01*
X0241459Y0457475D01*
X0241469Y0457510D01*
X0241476Y0457545D01*
X0241480Y0457582D01*
X0241480Y0457618D01*
X0241476Y0457655D01*
X0241469Y0457690D01*
X0241459Y0457725D01*
X0241445Y0457759D01*
X0241428Y0457792D01*
X0241408Y0457822D01*
X0241386Y0457851D01*
X0241360Y0457877D01*
X0241332Y0457901D01*
X0238851Y0460338D02*
X0239099Y0457600D01*
X0239099Y0457600D01*
X0238851Y0454862D01*
X0238850Y0454861D01*
X0238747Y0454873D01*
X0238643Y0454888D01*
X0238541Y0454907D01*
X0238439Y0454931D01*
X0238338Y0454958D01*
X0238239Y0454988D01*
X0238140Y0455023D01*
X0238043Y0455061D01*
X0237948Y0455103D01*
X0237854Y0455149D01*
X0237762Y0455198D01*
X0237671Y0455250D01*
X0237583Y0455306D01*
X0237497Y0455365D01*
X0237414Y0455428D01*
X0237333Y0455493D01*
X0237254Y0455562D01*
X0237178Y0455633D01*
X0237105Y0455708D01*
X0237034Y0455785D01*
X0236967Y0455864D01*
X0236903Y0455947D01*
X0236841Y0456031D01*
X0236784Y0456118D01*
X0236729Y0456207D01*
X0236678Y0456298D01*
X0236630Y0456391D01*
X0236586Y0456485D01*
X0236546Y0456581D01*
X0236509Y0456679D01*
X0236476Y0456778D01*
X0236446Y0456878D01*
X0236421Y0456979D01*
X0236399Y0457081D01*
X0236382Y0457184D01*
X0236368Y0457288D01*
X0236358Y0457391D01*
X0236352Y0457496D01*
X0236350Y0457600D01*
X0236352Y0457704D01*
X0236358Y0457809D01*
X0236368Y0457912D01*
X0236382Y0458016D01*
X0236399Y0458119D01*
X0236421Y0458221D01*
X0236446Y0458322D01*
X0236476Y0458422D01*
X0236509Y0458521D01*
X0236546Y0458619D01*
X0236586Y0458715D01*
X0236630Y0458809D01*
X0236678Y0458902D01*
X0236729Y0458993D01*
X0236784Y0459082D01*
X0236841Y0459169D01*
X0236903Y0459253D01*
X0236967Y0459336D01*
X0237034Y0459415D01*
X0237105Y0459492D01*
X0237178Y0459567D01*
X0237254Y0459638D01*
X0237333Y0459707D01*
X0237414Y0459772D01*
X0237497Y0459835D01*
X0237583Y0459894D01*
X0237671Y0459950D01*
X0237762Y0460002D01*
X0237854Y0460051D01*
X0237948Y0460097D01*
X0238043Y0460139D01*
X0238140Y0460177D01*
X0238239Y0460212D01*
X0238338Y0460242D01*
X0238439Y0460269D01*
X0238541Y0460293D01*
X0238643Y0460312D01*
X0238747Y0460327D01*
X0238850Y0460339D01*
X0238851Y0459862D01*
X0238756Y0459850D01*
X0238663Y0459834D01*
X0238570Y0459813D01*
X0238478Y0459789D01*
X0238387Y0459761D01*
X0238298Y0459730D01*
X0238209Y0459695D01*
X0238123Y0459656D01*
X0238038Y0459613D01*
X0237955Y0459567D01*
X0237874Y0459517D01*
X0237795Y0459465D01*
X0237718Y0459408D01*
X0237644Y0459349D01*
X0237572Y0459287D01*
X0237503Y0459222D01*
X0237437Y0459154D01*
X0237373Y0459083D01*
X0237313Y0459010D01*
X0237256Y0458934D01*
X0237202Y0458856D01*
X0237151Y0458775D01*
X0237104Y0458693D01*
X0237060Y0458609D01*
X0237019Y0458523D01*
X0236983Y0458435D01*
X0236950Y0458346D01*
X0236920Y0458256D01*
X0236895Y0458164D01*
X0236873Y0458072D01*
X0236856Y0457978D01*
X0236842Y0457884D01*
X0236832Y0457790D01*
X0236826Y0457695D01*
X0236824Y0457600D01*
X0236826Y0457505D01*
X0236832Y0457410D01*
X0236842Y0457316D01*
X0236856Y0457222D01*
X0236873Y0457128D01*
X0236895Y0457036D01*
X0236920Y0456944D01*
X0236950Y0456854D01*
X0236983Y0456765D01*
X0237019Y0456677D01*
X0237060Y0456591D01*
X0237104Y0456507D01*
X0237151Y0456425D01*
X0237202Y0456344D01*
X0237256Y0456266D01*
X0237313Y0456190D01*
X0237373Y0456117D01*
X0237437Y0456046D01*
X0237503Y0455978D01*
X0237572Y0455913D01*
X0237644Y0455851D01*
X0237718Y0455792D01*
X0237795Y0455735D01*
X0237874Y0455683D01*
X0237955Y0455633D01*
X0238038Y0455587D01*
X0238123Y0455544D01*
X0238209Y0455505D01*
X0238298Y0455470D01*
X0238387Y0455439D01*
X0238478Y0455411D01*
X0238570Y0455387D01*
X0238663Y0455366D01*
X0238756Y0455350D01*
X0238851Y0455338D01*
X0238851Y0455815D01*
X0238769Y0455829D01*
X0238687Y0455846D01*
X0238607Y0455867D01*
X0238527Y0455891D01*
X0238449Y0455920D01*
X0238372Y0455952D01*
X0238297Y0455987D01*
X0238223Y0456026D01*
X0238151Y0456068D01*
X0238081Y0456113D01*
X0238014Y0456162D01*
X0237949Y0456214D01*
X0237886Y0456268D01*
X0237826Y0456326D01*
X0237768Y0456386D01*
X0237714Y0456449D01*
X0237662Y0456514D01*
X0237613Y0456582D01*
X0237568Y0456651D01*
X0237526Y0456723D01*
X0237487Y0456797D01*
X0237452Y0456872D01*
X0237420Y0456949D01*
X0237391Y0457027D01*
X0237367Y0457107D01*
X0237346Y0457187D01*
X0237329Y0457269D01*
X0237315Y0457351D01*
X0237306Y0457434D01*
X0237300Y0457517D01*
X0237298Y0457600D01*
X0237300Y0457683D01*
X0237306Y0457766D01*
X0237315Y0457849D01*
X0237329Y0457931D01*
X0237346Y0458013D01*
X0237367Y0458093D01*
X0237391Y0458173D01*
X0237420Y0458251D01*
X0237452Y0458328D01*
X0237487Y0458403D01*
X0237526Y0458477D01*
X0237568Y0458549D01*
X0237613Y0458618D01*
X0237662Y0458686D01*
X0237714Y0458751D01*
X0237768Y0458814D01*
X0237826Y0458874D01*
X0237886Y0458932D01*
X0237949Y0458986D01*
X0238014Y0459038D01*
X0238081Y0459087D01*
X0238151Y0459132D01*
X0238223Y0459174D01*
X0238297Y0459213D01*
X0238372Y0459248D01*
X0238449Y0459280D01*
X0238527Y0459309D01*
X0238607Y0459333D01*
X0238687Y0459354D01*
X0238769Y0459371D01*
X0238851Y0459385D01*
X0238851Y0458905D01*
X0238781Y0458889D01*
X0238712Y0458870D01*
X0238644Y0458847D01*
X0238577Y0458821D01*
X0238511Y0458790D01*
X0238448Y0458757D01*
X0238386Y0458720D01*
X0238326Y0458679D01*
X0238269Y0458636D01*
X0238214Y0458589D01*
X0238162Y0458540D01*
X0238112Y0458488D01*
X0238065Y0458433D01*
X0238022Y0458375D01*
X0237981Y0458316D01*
X0237944Y0458254D01*
X0237911Y0458191D01*
X0237880Y0458125D01*
X0237854Y0458058D01*
X0237831Y0457990D01*
X0237811Y0457921D01*
X0237796Y0457850D01*
X0237784Y0457779D01*
X0237776Y0457708D01*
X0237772Y0457636D01*
X0237772Y0457564D01*
X0237776Y0457492D01*
X0237784Y0457421D01*
X0237796Y0457350D01*
X0237811Y0457279D01*
X0237831Y0457210D01*
X0237854Y0457142D01*
X0237880Y0457075D01*
X0237911Y0457009D01*
X0237944Y0456946D01*
X0237981Y0456884D01*
X0238022Y0456825D01*
X0238065Y0456767D01*
X0238112Y0456712D01*
X0238162Y0456660D01*
X0238214Y0456611D01*
X0238269Y0456564D01*
X0238326Y0456521D01*
X0238386Y0456480D01*
X0238448Y0456443D01*
X0238511Y0456410D01*
X0238577Y0456379D01*
X0238644Y0456353D01*
X0238712Y0456330D01*
X0238781Y0456311D01*
X0238851Y0456295D01*
X0238854Y0456782D01*
X0238799Y0456801D01*
X0238746Y0456823D01*
X0238695Y0456848D01*
X0238645Y0456877D01*
X0238598Y0456909D01*
X0238552Y0456945D01*
X0238509Y0456983D01*
X0238469Y0457024D01*
X0238432Y0457068D01*
X0238398Y0457114D01*
X0238367Y0457162D01*
X0238339Y0457213D01*
X0238315Y0457265D01*
X0238294Y0457318D01*
X0238277Y0457373D01*
X0238263Y0457429D01*
X0238254Y0457485D01*
X0238248Y0457543D01*
X0238246Y0457600D01*
X0238248Y0457657D01*
X0238254Y0457715D01*
X0238263Y0457771D01*
X0238277Y0457827D01*
X0238294Y0457882D01*
X0238315Y0457935D01*
X0238339Y0457987D01*
X0238367Y0458038D01*
X0238398Y0458086D01*
X0238432Y0458132D01*
X0238469Y0458176D01*
X0238509Y0458217D01*
X0238552Y0458255D01*
X0238598Y0458291D01*
X0238645Y0458323D01*
X0238695Y0458352D01*
X0238746Y0458377D01*
X0238799Y0458399D01*
X0238854Y0458418D01*
X0238868Y0457901D01*
X0238840Y0457877D01*
X0238814Y0457851D01*
X0238792Y0457822D01*
X0238772Y0457792D01*
X0238755Y0457759D01*
X0238741Y0457725D01*
X0238731Y0457690D01*
X0238724Y0457655D01*
X0238720Y0457618D01*
X0238720Y0457582D01*
X0238724Y0457545D01*
X0238731Y0457510D01*
X0238741Y0457475D01*
X0238755Y0457441D01*
X0238772Y0457408D01*
X0238792Y0457378D01*
X0238814Y0457349D01*
X0238840Y0457323D01*
X0238868Y0457299D01*
M02*
