%
M48
M72
T01C0.01969
T02C0.02362
T03C0.03150
T04C0.03200
T05C0.03937
T06C0.04000
T07C0.04331
T08C0.04700
T09C0.05118
T10C0.05200
T11C0.05500
T12C0.08700
T13C0.09843
T14C0.12598
T15C0.13000
T16C0.22000
%
T01
X140100Y65100
X225100Y85100
X322600Y60100
X365100Y70100
X402600Y40100
X447600Y40100
X452600Y50100
X502600Y40100
X502600Y62600
X547600Y57600
X547600Y67600
X560100Y75100
X592600Y87600
X606350Y95100
X587600Y105100
X597600Y110100
X560100Y95100
X617600Y65100
X642600Y70100
X650100Y65100
X665100Y65100
X682600Y75100
X682600Y45100
X732600Y75100
X735100Y87600
X727600Y115100
X695100Y105100
X691350Y110100
X682600Y137600
X687600Y142600
X695100Y143850
X692600Y152600
X672600Y157600
X657600Y162600
X652600Y172600
X642600Y167600
X627600Y162600
X617600Y147600
X607600Y142600
X587600Y137600
X562600Y152600
X547600Y162600
X540100Y155100
X542600Y147600
X577600Y162600
X602600Y177600
X597600Y187600
X587600Y187600
X587600Y197600
X582600Y210100
X575100Y217600
X587600Y222600
X577600Y235100
X585100Y242600
X602600Y237600
X602600Y247600
X620100Y242600
X642600Y237600
X652600Y237600
X650100Y257600
X647600Y267600
X647600Y280100
X622600Y277600
X602600Y272600
X605100Y265100
X583850Y272600
X572600Y282600
X570100Y292600
X577600Y292600
X595100Y287600
X592600Y307600
X572600Y311350
X542600Y307600
X542600Y322600
X542600Y335100
X507600Y352600
X497600Y337600
X493850Y331350
X455100Y340100
X435100Y337600
X432600Y312600
X420100Y305100
X412600Y302600
X420100Y297600
X430100Y297600
X437600Y290100
X447600Y302600
X440100Y267600
X405100Y251350
X400100Y267600
X400100Y277600
X393850Y287600
X367600Y287600
X357600Y302600
X353850Y311350
X360100Y317600
X350100Y327600
X347600Y337600
X335100Y322600
X335100Y312600
X310100Y312600
X313850Y326350
X313850Y337600
X265100Y312600
X240100Y312600
X232600Y312600
X240100Y302600
X240100Y292600
X265100Y282600
X275100Y277600
X275100Y262600
X311350Y267600
X317600Y252600
X340100Y272600
X350100Y282600
X353850Y262600
X365100Y257600
X362600Y247600
X340100Y227600
X316350Y227600
X313850Y217600
X310100Y197600
X313850Y187600
X313850Y170100
X315100Y147600
X360100Y115100
X360100Y105100
X400100Y105100
X410100Y107600
X417600Y151350
X422600Y160100
X432600Y167600
X445100Y162600
X446350Y151350
X420100Y177600
X430100Y182600
X405100Y168850
X400100Y177600
X393850Y182600
X373850Y167600
X355100Y192600
X360100Y202600
X350100Y207600
X362600Y212600
X340100Y197600
X400100Y225100
X402600Y215100
X422600Y210100
X447600Y232600
X435100Y240100
X462600Y217600
X467600Y207600
X497600Y182600
X530100Y192600
X530100Y202600
X512600Y202600
X527600Y227600
X532600Y237600
X527600Y242600
X520100Y242600
X517600Y257600
X542600Y257600
X542600Y277600
X520100Y297600
X500100Y307600
X497600Y282600
X592600Y335100
X602600Y321350
X640100Y327600
X645100Y340100
X655100Y325100
X650100Y315100
X642600Y307600
X671350Y300100
X677600Y292600
X687600Y300100
X697600Y292600
X722600Y282600
X727600Y272600
X732600Y262600
X720100Y257600
X715100Y245100
X705100Y240100
X702600Y222600
X692600Y217600
X675100Y212600
X671350Y208850
X687600Y197600
X680100Y187600
X697600Y177600
X721350Y197600
X725100Y207600
X737600Y206350
X742600Y212600
X747600Y217600
X751350Y227600
X750100Y242600
X767600Y252600
X785100Y217600
X800100Y202600
X792600Y192600
X777600Y187600
X767600Y202600
X735100Y182600
X742600Y157600
X751350Y147600
X730100Y143850
X725100Y152600
X787600Y165100
X792600Y160100
X811350Y172600
X812600Y192600
X815100Y212600
X830100Y277600
X797600Y292600
X800100Y300100
X795100Y305100
X805100Y305100
X805100Y315100
X797600Y317600
X785100Y320100
X752600Y317600
X752600Y305100
X701350Y310100
X692600Y325100
X680100Y330100
X673850Y340100
X692600Y337600
X697600Y342600
X695100Y387600
X683850Y392600
X705100Y402600
X712600Y397600
X707600Y387600
X722600Y390100
X717600Y407600
X715100Y417600
X705100Y412600
X702600Y423850
X702600Y430100
X720100Y437600
X682600Y417600
X670100Y427600
X662600Y430100
X655100Y435100
X650100Y420100
X660100Y415100
X665100Y410100
X656350Y392600
X637600Y392600
X627600Y390100
X645100Y407600
X635100Y420100
X617600Y433850
X610100Y432600
X620100Y442600
X572600Y422600
X562600Y422600
X547600Y411350
X530100Y425100
X537600Y435100
X545100Y437600
X555100Y440100
X522600Y447600
X507600Y442600
X492600Y428850
X485100Y430100
X495100Y420100
X497600Y402600
X490100Y400100
X482600Y402600
X482600Y387600
X492600Y390100
X497600Y385100
X515100Y390100
X522600Y387600
X535100Y387600
X552600Y385100
X560100Y387600
X592600Y395100
X455100Y398850
X445100Y405100
X442600Y411350
X427600Y425100
X425100Y435100
X452600Y450100
X482600Y480100
X492600Y480100
X510100Y480100
X530100Y480100
X550100Y480100
X560100Y480100
X570100Y480100
X580100Y480100
X590100Y480100
X600100Y480100
X622600Y480100
X631350Y480100
X640100Y480100
X646350Y480100
X652600Y480100
X665100Y480100
X685100Y480100
X715100Y480100
X725100Y480100
X737600Y480100
X747600Y480100
X442600Y387600
X425100Y372600
X410100Y380100
X390100Y385100
X375100Y375100
X351350Y386350
X352600Y422600
X330100Y432600
X342600Y440100
X335100Y457600
X336350Y465100
X340100Y472600
X315100Y442600
X305100Y417600
X295100Y405100
X272600Y415100
X257600Y417600
X250100Y413850
X272600Y430100
X270100Y440100
X270100Y460100
X237600Y463850
X207600Y382600
X212600Y360100
X246350Y372600
X262600Y360100
X267600Y372600
X287600Y380100
X210100Y327600
X205100Y287600
X202600Y272600
X170100Y292600
X165100Y287600
X143850Y305100
X127600Y287600
X122600Y320100
X112600Y355100
X100100Y367600
X142600Y380100
X157600Y375100
X72600Y410100
X52600Y410100
X105100Y460100
X105100Y467600
X392600Y320100
X318850Y282600
X243850Y222600
X225100Y222600
X205100Y227600
X210100Y237600
X175100Y220100
X170100Y215100
X162600Y218850
X152600Y210100
X165100Y205100
X145100Y192600
X150100Y182600
X160100Y172600
X172600Y157600
X180100Y162600
X205100Y162600
X222600Y150100
X227600Y157600
X242600Y167600
X250100Y177600
X245100Y187600
X252600Y197600
X252600Y207600
X227600Y202600
X205100Y200100
X105100Y152600
X45100Y227600
X410100Y500100
X692600Y265100
X622600Y212600
X602600Y202600
X617600Y192600
X622600Y182600
X647600Y182600
X652600Y192600
X642600Y202600
X572600Y197600
X562600Y207600
X650100Y142600
X637600Y105100
X577600Y40100
X547600Y40100
X770100Y60100
X777600Y65100
X781350Y70100
X775100Y45100
X820100Y60100
X820100Y75100
X815100Y88850
X820100Y92600
X820100Y115100
X797600Y115100
X802600Y137600
X850100Y142600
T02
X635100Y127600
X592600Y37600
X391350Y157600
X335100Y142600
X297600Y135100
X245100Y145100
X158850Y147600
X65100Y145100
X50100Y145100
X52600Y115100
X25100Y225100
X67600Y302600
X152600Y367600
X215100Y267600
X300100Y252600
X335100Y355100
X332600Y420100
X433850Y505100
X520100Y462600
X617600Y472600
X675100Y480100
X695100Y480100
X760100Y480100
X633850Y355100
X535100Y357600
X535100Y345100
X527600Y277600
X528850Y257600
T03
X468850Y352600
X463850Y357600
X468850Y362600
X463850Y367600
X473850Y367600
X473850Y357600
X505100Y377600
X527600Y375100
X627600Y375100
X650100Y375100
X750100Y405100
X750100Y412600
X750100Y420100
X750100Y427600
X722600Y442600
X682600Y447600
X665100Y443850
X775100Y460100
X782600Y460100
X807600Y427600
X807600Y420100
X807600Y412600
X807600Y405100
X762600Y375100
X755100Y375100
X545100Y472600
X537600Y472600
X473850Y510100
X468850Y505100
X463850Y510100
X468850Y515100
X463850Y520100
X473850Y520100
X400100Y495100
X390100Y495100
X366350Y507600
X358850Y507600
X351350Y507600
X343850Y507600
X307600Y365100
X167600Y317600
X165100Y342600
X150100Y342600
X165100Y272600
X149475Y227600
X112600Y220100
X472600Y140100
X476350Y135100
X480100Y140100
X483850Y135100
X487600Y140100
X482600Y40100
X477600Y40100
X477600Y33850
X482600Y33850
X843850Y51350
T04
X835100Y60100
X835100Y70100
X835100Y80100
X835100Y90100
X835100Y100100
X835100Y110100
X835100Y120100
X850100Y122600
X850100Y112600
X805100Y110100
X805100Y100100
X805100Y90100
X805100Y80100
X805100Y70100
X805100Y60100
X790100Y60100
X790100Y70100
X790100Y80100
X790100Y90100
X790100Y100100
X790100Y110100
X790100Y120100
X791350Y132600
X805100Y120100
X812600Y142600
X820100Y157600
X820100Y167600
X820100Y177600
X820100Y187600
X820100Y197600
X820100Y207600
X820100Y217600
X820100Y227600
X820100Y237600
X820100Y247600
X820100Y257600
X820100Y267600
X820100Y277600
X820100Y287600
X837600Y287600
X832600Y300100
X842600Y300100
X832600Y310100
X842600Y320100
X782600Y310100
X782600Y300100
X760100Y287600
X760100Y277600
X760100Y267600
X760100Y257600
X760100Y247600
X760100Y237600
X760100Y227600
X760100Y217600
X760100Y207600
X760100Y197600
X760100Y187600
X760100Y177600
X760100Y167600
X760100Y157600
X762600Y142600
X741350Y132600
X745100Y120100
X745100Y110100
X745100Y100100
X745100Y90100
X745100Y80100
X745100Y70100
X745100Y60100
X760100Y60100
X760100Y70100
X760100Y80100
X760100Y90100
X760100Y100100
X760100Y110100
X760100Y120100
X715100Y120100
X700100Y120100
X700100Y110100
X715100Y110100
X715100Y100100
X700100Y100100
X700100Y90100
X715100Y90100
X715100Y80100
X700100Y80100
X700100Y70100
X700100Y60100
X715100Y60100
X715100Y70100
X715100Y42600
X735100Y42600
X670100Y60100
X670100Y70100
X655100Y70100
X655100Y60100
X655100Y50100
X647600Y36350
X627600Y36350
X625100Y50100
X625100Y60100
X625100Y70100
X625100Y80100
X625100Y90100
X625100Y100100
X625100Y110100
X625100Y120100
X610100Y120100
X610100Y110100
X610100Y100100
X610100Y90100
X610100Y80100
X610100Y70100
X610100Y60100
X610100Y50100
X580100Y50100
X580100Y60100
X580100Y70100
X580100Y80100
X580100Y90100
X580100Y100100
X580100Y110100
X580100Y120100
X567600Y130100
X565100Y120100
X565100Y110100
X565100Y100100
X565100Y90100
X565100Y80100
X565100Y70100
X565100Y60100
X565100Y50100
X565100Y40100
X535100Y40100
X535100Y50100
X535100Y60100
X535100Y70100
X535100Y80100
X535100Y90100
X535100Y100100
X535100Y110100
X535100Y120100
X547600Y130100
X522600Y130100
X520100Y120100
X520100Y110100
X520100Y100100
X520100Y90100
X520100Y80100
X520100Y70100
X520100Y60100
X520100Y50100
X520100Y40100
X490100Y40100
X490100Y50100
X490100Y60100
X490100Y70100
X490100Y80100
X490100Y90100
X490100Y100100
X490100Y110100
X490100Y120100
X502600Y130100
X505100Y147600
X505100Y157600
X505100Y167600
X505100Y177600
X505100Y187600
X505100Y197600
X505100Y207600
X505100Y217600
X505100Y227600
X505100Y237600
X505100Y247600
X505100Y257600
X505100Y267600
X512600Y277600
X512600Y287600
X512600Y297600
X512600Y307600
X512600Y317600
X512600Y327600
X512600Y337600
X512600Y347600
X482600Y347600
X482600Y337600
X482600Y327600
X482600Y317600
X482600Y307600
X482600Y297600
X482600Y287600
X482600Y277600
X458850Y276350
X455100Y267600
X455100Y257600
X455100Y247600
X455100Y237600
X455100Y227600
X455100Y217600
X455100Y207600
X455100Y197600
X455100Y187600
X455100Y177600
X455100Y167600
X455100Y157600
X455100Y147600
X435100Y152600
X425100Y142600
X408850Y152600
X398850Y162600
X382600Y157600
X382600Y167600
X382600Y177600
X382600Y187600
X382600Y197600
X382600Y207600
X382600Y217600
X382600Y227600
X382600Y237600
X382600Y247600
X382600Y257600
X382600Y267600
X382600Y277600
X382600Y287600
X382600Y297600
X382600Y307600
X382600Y317600
X382600Y327600
X382600Y337600
X382600Y347600
X390100Y355100
X410100Y352600
X430100Y352600
X447600Y365100
X435100Y375100
X435100Y385100
X435100Y395100
X435100Y405100
X435100Y415100
X435100Y425100
X435100Y435100
X447600Y435100
X447600Y455100
X405100Y435100
X405100Y425100
X405100Y415100
X405100Y405100
X405100Y395100
X405100Y385100
X405100Y375100
X380100Y390100
X367600Y390100
X345100Y390100
X325100Y390100
X350100Y410600
X380100Y410100
X390100Y405100
X380100Y420100
X390100Y427600
X380100Y435100
X367600Y440100
X355100Y445100
X345100Y455100
X325100Y455100
X305100Y445100
X292600Y445100
X280100Y445100
X280100Y435100
X280100Y425100
X295100Y425100
X280100Y415100
X280100Y405100
X280100Y395100
X280100Y385100
X280100Y375100
X280100Y365100
X290100Y365100
X280100Y355100
X290100Y345100
X300100Y342600
X322600Y337600
X322600Y327600
X322600Y317600
X322600Y307600
X322600Y297600
X322600Y287600
X322600Y277600
X322600Y267600
X322600Y257600
X322600Y247600
X322600Y237600
X322600Y227600
X322600Y217600
X322600Y207600
X322600Y197600
X322600Y187600
X322600Y177600
X322600Y167600
X322600Y157600
X300100Y157600
X285100Y167600
X285100Y177600
X285100Y187600
X285100Y197600
X285100Y207600
X285100Y217600
X285100Y227600
X285100Y237600
X285100Y257600
X285100Y267600
X285100Y277600
X285100Y287600
X285100Y297600
X285100Y307600
X285100Y317600
X285100Y327600
X300100Y322600
X322600Y347600
X255100Y327600
X255100Y317600
X255100Y307600
X255100Y297600
X255100Y287600
X255100Y277600
X255100Y267600
X255100Y257600
X235100Y237600
X235100Y227600
X235100Y217600
X235100Y207600
X235100Y197600
X235100Y187600
X235100Y177600
X235100Y167600
X215100Y167600
X215100Y157600
X215100Y177600
X215100Y187600
X215100Y197600
X215100Y207600
X215100Y217600
X185100Y217600
X185100Y207600
X185100Y197600
X185100Y187600
X185100Y177600
X185100Y167600
X185100Y157600
X180100Y142600
X170100Y132600
X170100Y120100
X170100Y110100
X170100Y100100
X170100Y90100
X170100Y80100
X170100Y70100
X170100Y60100
X170100Y50100
X155100Y50100
X155100Y60100
X155100Y70100
X155100Y80100
X155100Y90100
X155100Y100100
X155100Y110100
X155100Y120100
X125100Y120100
X125100Y110100
X125100Y100100
X125100Y90100
X125100Y80100
X125100Y70100
X125100Y60100
X125100Y50100
X110100Y50100
X110100Y60100
X110100Y70100
X110100Y80100
X110100Y90100
X110100Y100100
X110100Y110100
X110100Y120100
X80100Y120100
X80100Y110100
X80100Y100100
X80100Y90100
X80100Y80100
X80100Y70100
X80100Y60100
X80100Y50100
X65100Y50100
X65100Y60100
X65100Y70100
X65100Y80100
X65100Y90100
X65100Y100100
X65100Y110100
X65100Y120100
X35100Y120100
X35100Y110100
X35100Y100100
X35100Y90100
X35100Y80100
X35100Y70100
X35100Y60100
X35100Y50100
X55100Y30100
X75100Y30100
X22600Y90100
X22600Y140100
X37600Y143850
X32600Y152600
X45100Y152600
X57600Y162600
X72350Y158850
X80350Y158850
X100100Y160100
X112600Y160100
X125100Y160100
X136350Y158850
X146350Y168850
X136350Y178850
X136350Y190100
X136350Y210100
X125100Y210100
X112600Y210100
X100100Y210100
X95100Y227600
X81350Y227600
X70100Y227600
X57600Y227600
X57600Y212600
X45100Y212600
X45100Y202600
X32600Y202600
X32600Y212600
X57600Y247600
X45100Y262600
X45100Y272600
X57600Y277600
X70100Y277600
X70100Y285100
X82600Y285100
X81350Y277600
X95100Y277600
X95100Y285100
X107600Y285100
X107600Y277600
X122600Y277600
X117600Y262600
X137600Y262600
X150100Y257600
X150100Y247600
X150100Y237600
X137600Y230100
X117600Y230100
X107600Y227600
X117600Y247600
X137600Y247600
X150100Y267600
X150100Y277600
X150100Y287600
X150100Y297600
X140100Y297600
X150100Y307600
X150100Y317600
X140100Y317600
X140100Y327600
X150100Y327600
X122600Y337600
X107600Y335100
X95100Y335100
X82600Y335100
X70100Y335100
X57600Y327600
X45100Y322600
X32600Y322600
X93850Y346350
X106350Y351350
X93850Y366350
X106350Y371350
X132600Y377600
X140100Y347600
X180100Y327600
X180100Y317600
X180100Y307600
X180100Y297600
X180100Y287600
X180100Y277600
X180100Y267600
X180100Y257600
X180100Y247600
X180100Y237600
X195100Y257600
X195100Y267600
X195100Y277600
X195100Y287600
X195100Y297600
X195100Y307600
X195100Y317600
X195100Y327600
X225100Y327600
X235100Y326350
X225100Y317600
X225100Y307600
X225100Y297600
X225100Y287600
X225100Y277600
X225100Y267600
X225100Y257600
X122600Y297600
X122600Y307600
X32600Y272600
X32600Y262600
X67600Y175100
X87600Y175100
X92600Y142600
X112600Y142600
X57600Y143850
X190100Y132600
X200100Y142600
X200100Y120100
X200100Y110100
X200100Y100100
X200100Y90100
X200100Y80100
X200100Y70100
X200100Y60100
X200100Y50100
X215100Y50100
X215100Y60100
X215100Y70100
X215100Y80100
X215100Y90100
X215100Y100100
X215100Y110100
X215100Y120100
X245100Y120100
X260100Y120100
X260100Y110100
X245100Y110100
X245100Y100100
X260100Y100100
X260100Y90100
X245100Y90100
X245100Y80100
X260100Y80100
X260100Y70100
X260100Y60100
X245100Y60100
X245100Y70100
X245100Y50100
X260100Y50100
X245100Y30100
X225100Y30100
X290100Y50100
X305100Y50100
X305100Y60100
X305100Y70100
X290100Y70100
X290100Y60100
X290100Y80100
X305100Y80100
X305100Y90100
X290100Y90100
X290100Y100100
X305100Y100100
X305100Y110100
X290100Y110100
X290100Y120100
X305100Y120100
X290100Y142600
X270100Y142600
X300100Y177600
X360100Y142600
X350100Y132600
X350100Y120100
X350100Y110100
X350100Y100100
X350100Y90100
X350100Y80100
X350100Y70100
X350100Y60100
X350100Y50100
X335100Y50100
X335100Y60100
X335100Y70100
X335100Y80100
X335100Y90100
X335100Y100100
X335100Y110100
X335100Y120100
X370100Y132600
X380100Y142600
X398850Y142600
X403850Y130100
X395100Y120100
X395100Y110100
X395100Y100100
X395100Y90100
X395100Y80100
X395100Y70100
X395100Y60100
X395100Y50100
X395100Y40100
X380100Y50100
X380100Y60100
X380100Y70100
X380100Y80100
X380100Y90100
X380100Y100100
X380100Y110100
X380100Y120100
X423850Y130100
X425100Y120100
X425100Y110100
X425100Y100100
X425100Y90100
X425100Y80100
X425100Y70100
X425100Y60100
X425100Y50100
X425100Y40100
X440100Y40100
X440100Y50100
X440100Y60100
X440100Y70100
X440100Y80100
X440100Y90100
X440100Y100100
X440100Y110100
X440100Y120100
X447600Y130100
X467600Y130100
X470100Y120100
X470100Y110100
X470100Y100100
X470100Y90100
X470100Y80100
X470100Y70100
X470100Y60100
X470100Y50100
X470100Y40100
X528850Y148850
X518850Y158850
X528850Y168850
X552600Y167600
X552600Y157600
X552600Y177600
X552600Y187600
X552600Y197600
X552600Y207600
X552600Y217600
X552600Y227600
X552600Y237600
X552600Y247600
X552600Y257600
X552600Y267600
X542600Y267600
X552600Y277600
X552600Y287600
X552600Y297600
X542600Y297600
X542600Y287600
X552600Y307600
X552600Y317600
X552600Y327600
X552600Y337600
X552600Y347600
X542600Y347600
X612600Y347600
X612600Y337600
X612600Y327600
X612600Y317600
X612600Y307600
X612600Y297600
X612600Y287600
X612600Y277600
X612600Y267600
X612600Y257600
X627600Y257600
X612600Y247600
X612600Y237600
X627600Y237600
X612600Y227600
X612600Y217600
X612600Y207600
X612600Y197600
X612600Y187600
X612600Y177600
X612600Y167600
X612600Y157600
X662600Y157600
X662600Y167600
X662600Y177600
X662600Y187600
X662600Y197600
X662600Y207600
X662600Y217600
X662600Y227600
X712600Y227600
X712600Y217600
X712600Y207600
X712600Y197600
X712600Y187600
X712600Y177600
X712600Y167600
X712600Y157600
X670100Y120100
X655100Y120100
X655100Y110100
X670100Y110100
X670100Y100100
X655100Y100100
X655100Y90100
X670100Y90100
X670100Y80100
X655100Y80100
X805100Y42600
X825100Y42600
X850100Y62600
X835100Y157600
X850100Y172600
X835100Y177600
X835100Y197600
X835100Y247600
X837600Y267600
X712600Y265100
X712600Y275100
X712600Y285100
X712600Y295100
X712600Y305100
X712600Y315100
X712600Y325100
X712600Y335100
X712600Y345100
X662600Y345100
X650100Y345100
X662600Y335100
X662600Y325100
X662600Y315100
X662600Y305100
X662600Y295100
X650100Y295100
X662600Y285100
X662600Y275100
X662600Y265100
X455100Y296350
X455100Y306350
X442600Y325100
X432600Y325100
X422600Y325100
X405100Y306350
X405100Y296350
X438850Y276350
X448850Y286350
X415100Y217600
X405100Y207600
X425100Y192600
X435100Y202600
X405100Y187600
X415100Y167600
X235100Y346350
X230100Y355100
X230100Y365100
X230100Y375100
X230100Y385100
X230100Y395100
X230100Y405100
X230100Y415100
X230100Y425100
X230100Y435100
X230100Y445100
X222600Y460100
X250100Y445100
X260100Y445100
X260100Y435100
X250100Y435100
X250100Y425100
X260100Y425100
X280100Y460100
X292600Y465100
X280100Y480100
X280100Y490100
X280100Y510100
X222600Y480100
X215100Y492600
X215100Y512600
X162600Y465100
X147600Y465100
X132600Y465100
X115100Y460100
X115100Y450100
X115100Y440100
X115100Y430100
X115100Y420100
X115100Y410100
X132600Y410100
X147600Y410100
X162600Y410100
X175100Y405100
X195100Y405100
X195100Y430100
X175100Y430100
X162600Y430100
X147600Y430100
X132600Y430100
X132600Y445100
X147600Y445100
X162600Y445100
X115100Y470100
X115100Y480100
X115100Y490100
X132600Y480100
X132600Y500100
X110100Y510100
X90100Y510100
X72600Y510100
X52600Y510100
X35100Y505100
X30100Y497600
X40100Y497600
X52600Y472600
X72600Y472600
X85100Y470100
X85100Y460100
X85100Y450100
X72600Y455100
X85100Y440100
X85100Y430100
X72600Y425100
X85100Y420100
X85100Y410100
X52600Y425100
X52600Y455100
X85100Y480100
X85100Y490100
X31350Y380350
X31350Y372350
X182600Y377600
X315100Y425100
X350100Y429600
X447600Y415100
X795100Y485100
X795100Y505100
T05
X827600Y462915
X730100Y250100
X720100Y250100
X710100Y250100
X700100Y250100
X690100Y250100
X680100Y250100
X670100Y250100
X660100Y250100
X308850Y462915
X250100Y462915
X172600Y357600
X162600Y357600
X152600Y357600
X142600Y357600
X132600Y357600
T06
X85350Y212600
X76350Y212600
X67350Y212600
X67350Y192600
X76350Y192600
X85350Y192600
X765529Y343029
X779671Y357171
X807600Y347600
X807600Y327600
X840100Y407600
X840100Y417600
X840100Y427600
T07
X80208Y385208
X52492Y385208
X52492Y357492
X66350Y357492
X80208Y357492
T08
X374550Y446359
X385450Y446359
X396350Y446359
X407250Y446359
X418150Y446359
X412700Y457555
X401800Y457555
X390900Y457555
X380000Y457555
T09
X86114Y371350
X46586Y371350
X27600Y56350
X850100Y462600
T10
X610100Y477600
X412600Y325100
X427600Y271350
X295100Y413850
X141350Y277600
X163850Y192600
X340100Y32600
X355100Y32600
X370100Y32600
X735100Y232600
T11
X178850Y483850
T12
X156850Y483850
X178850Y513850
X200850Y483850
T13
X250100Y476360
X250100Y510100
X308850Y510100
X308850Y476360
X827600Y476360
X827600Y510100
T14
X32600Y27600
X842600Y25100
T15
X781100Y417600
T16
X840100Y345100
X35100Y345100
M30
