G75*
%MOIN*%
%OFA0B0*%
%FSLAX25Y25*%
%IPPOS*%
%LPD*%
%AMOC8*
5,1,8,0,0,1.08239X$1,22.5*
%
%ADD10C,0.01000*%
D10*
X0077334Y0014101D02*
X0078335Y0013100D01*
X0081338Y0013100D01*
X0081338Y0011098D02*
X0081338Y0017103D01*
X0078335Y0017103D01*
X0077334Y0016103D01*
X0077334Y0014101D01*
X0083780Y0013100D02*
X0083780Y0017103D01*
X0083780Y0013100D02*
X0086782Y0013100D01*
X0087783Y0014101D01*
X0087783Y0017103D01*
X0090225Y0016103D02*
X0091226Y0017103D01*
X0093228Y0017103D01*
X0094229Y0016103D01*
X0094229Y0014101D01*
X0093228Y0013100D01*
X0091226Y0013100D01*
X0090225Y0014101D01*
X0090225Y0016103D01*
X0096598Y0017103D02*
X0097598Y0017103D01*
X0099600Y0015102D01*
X0099600Y0017103D02*
X0099600Y0013100D01*
X0102042Y0013100D02*
X0105045Y0013100D01*
X0106046Y0014101D01*
X0106046Y0016103D01*
X0105045Y0017103D01*
X0102042Y0017103D01*
X0102042Y0012099D01*
X0103043Y0011098D01*
X0104044Y0011098D01*
X0114933Y0013100D02*
X0117936Y0016103D01*
X0118937Y0015102D02*
X0114933Y0019105D01*
X0118937Y0019105D02*
X0118937Y0013100D01*
X0123380Y0013100D02*
X0123380Y0019105D01*
X0121379Y0019105D02*
X0125382Y0019105D01*
X0134270Y0016103D02*
X0135270Y0017103D01*
X0137272Y0017103D01*
X0138273Y0016103D01*
X0138273Y0014101D01*
X0137272Y0013100D01*
X0135270Y0013100D01*
X0134270Y0014101D01*
X0134270Y0016103D01*
X0140715Y0017103D02*
X0143718Y0017103D01*
X0144719Y0016103D01*
X0144719Y0014101D01*
X0143718Y0013100D01*
X0140715Y0013100D01*
X0140715Y0019105D01*
X0153606Y0016103D02*
X0153606Y0015102D01*
X0157610Y0015102D01*
X0157610Y0016103D02*
X0156609Y0017103D01*
X0154607Y0017103D01*
X0153606Y0016103D01*
X0154607Y0013100D02*
X0156609Y0013100D01*
X0157610Y0014101D01*
X0157610Y0016103D01*
X0160052Y0016103D02*
X0161052Y0017103D01*
X0164055Y0017103D01*
X0164055Y0019105D02*
X0164055Y0013100D01*
X0161052Y0013100D01*
X0160052Y0014101D01*
X0160052Y0016103D01*
X0166497Y0017103D02*
X0166497Y0013100D01*
X0169500Y0013100D01*
X0170501Y0014101D01*
X0170501Y0017103D01*
X0173797Y0019105D02*
X0173797Y0013100D01*
X0174798Y0013100D02*
X0172796Y0013100D01*
X0177240Y0014101D02*
X0178240Y0013100D01*
X0180242Y0013100D01*
X0181243Y0014101D01*
X0181243Y0018104D01*
X0180242Y0019105D01*
X0178240Y0019105D01*
X0177240Y0018104D01*
X0174798Y0019105D02*
X0173797Y0019105D01*
X0190131Y0018104D02*
X0190131Y0017103D01*
X0191131Y0016103D01*
X0194134Y0016103D01*
X0194134Y0019105D02*
X0194134Y0013100D01*
X0191131Y0013100D01*
X0190131Y0014101D01*
X0190131Y0015102D01*
X0191131Y0016103D01*
X0190131Y0018104D02*
X0191131Y0019105D01*
X0194134Y0019105D01*
X0196576Y0019105D02*
X0200580Y0019105D01*
X0200580Y0013100D01*
X0200580Y0016103D02*
X0198578Y0016103D01*
X0209467Y0016103D02*
X0209467Y0015102D01*
X0213471Y0015102D01*
X0213471Y0016103D02*
X0212470Y0017103D01*
X0210468Y0017103D01*
X0209467Y0016103D01*
X0210468Y0013100D02*
X0212470Y0013100D01*
X0213471Y0014101D01*
X0213471Y0016103D01*
X0215913Y0016103D02*
X0215913Y0013100D01*
X0215913Y0016103D02*
X0216913Y0017103D01*
X0218915Y0017103D01*
X0219916Y0016103D01*
X0222211Y0017103D02*
X0224213Y0017103D01*
X0223212Y0018104D02*
X0223212Y0014101D01*
X0222211Y0013100D01*
X0219916Y0013100D02*
X0219916Y0019105D01*
X0233101Y0016103D02*
X0234101Y0017103D01*
X0236103Y0017103D01*
X0237104Y0016103D01*
X0237104Y0014101D01*
X0236103Y0013100D01*
X0234101Y0013100D01*
X0233101Y0014101D01*
X0233101Y0016103D01*
X0239399Y0017103D02*
X0241401Y0017103D01*
X0240400Y0018104D02*
X0240400Y0014101D01*
X0239399Y0013100D01*
X0250289Y0013100D02*
X0250289Y0019105D01*
X0250289Y0017103D02*
X0253291Y0017103D01*
X0254292Y0016103D01*
X0254292Y0014101D01*
X0253291Y0013100D01*
X0250289Y0013100D01*
X0256734Y0013100D02*
X0256734Y0016103D01*
X0257735Y0017103D01*
X0260737Y0017103D01*
X0260737Y0013100D01*
X0263180Y0013100D02*
X0266182Y0013100D01*
X0267183Y0014101D01*
X0266182Y0015102D01*
X0263180Y0015102D01*
X0263180Y0016103D02*
X0263180Y0013100D01*
X0263180Y0016103D02*
X0264180Y0017103D01*
X0266182Y0017103D01*
X0276071Y0017103D02*
X0279073Y0017103D01*
X0280074Y0016103D01*
X0279073Y0015102D01*
X0277071Y0015102D01*
X0276071Y0014101D01*
X0277071Y0013100D01*
X0280074Y0013100D01*
X0282516Y0013100D02*
X0282516Y0016103D01*
X0283517Y0017103D01*
X0286519Y0017103D01*
X0286519Y0013100D01*
X0288962Y0013100D02*
X0291964Y0013100D01*
X0292965Y0014101D01*
X0291964Y0015102D01*
X0288962Y0015102D01*
X0288962Y0016103D02*
X0288962Y0013100D01*
X0288962Y0016103D02*
X0289962Y0017103D01*
X0291964Y0017103D01*
X0295407Y0017103D02*
X0298410Y0017103D01*
X0299410Y0016103D01*
X0299410Y0014101D01*
X0298410Y0013100D01*
X0295407Y0013100D01*
X0301853Y0014101D02*
X0302853Y0015102D01*
X0304855Y0015102D01*
X0305856Y0016103D01*
X0304855Y0017103D01*
X0301853Y0017103D01*
X0301853Y0014101D02*
X0302853Y0013100D01*
X0305856Y0013100D01*
X0314744Y0014101D02*
X0315744Y0013100D01*
X0318747Y0013100D01*
X0318747Y0019105D01*
X0315744Y0019105D01*
X0314744Y0018104D01*
X0314744Y0017103D01*
X0315744Y0016103D01*
X0318747Y0016103D01*
X0315744Y0016103D02*
X0314744Y0015102D01*
X0314744Y0014101D01*
X0321189Y0014101D02*
X0322190Y0013100D01*
X0324192Y0013100D01*
X0325192Y0014101D01*
X0325192Y0018104D01*
X0324192Y0019105D01*
X0322190Y0019105D01*
X0321189Y0018104D01*
X0327635Y0018104D02*
X0327635Y0016103D01*
X0328635Y0015102D01*
X0331638Y0015102D01*
X0331638Y0013100D02*
X0331638Y0019105D01*
X0328635Y0019105D01*
X0327635Y0018104D01*
X0340526Y0016103D02*
X0340526Y0013100D01*
X0340526Y0016103D02*
X0341526Y0017103D01*
X0344529Y0017103D01*
X0344529Y0013100D01*
X0346971Y0013100D02*
X0349974Y0013100D01*
X0350974Y0014101D01*
X0349974Y0015102D01*
X0346971Y0015102D01*
X0346971Y0016103D02*
X0346971Y0013100D01*
X0346971Y0016103D02*
X0347972Y0017103D01*
X0349974Y0017103D01*
X0353417Y0016103D02*
X0354417Y0017103D01*
X0356419Y0017103D01*
X0357420Y0016103D01*
X0357420Y0014101D01*
X0356419Y0013100D01*
X0354417Y0013100D01*
X0353417Y0015102D02*
X0357420Y0015102D01*
X0359715Y0013100D02*
X0361717Y0013100D01*
X0360716Y0013100D02*
X0360716Y0019105D01*
X0361717Y0019105D01*
X0364159Y0017103D02*
X0367162Y0017103D01*
X0368162Y0016103D01*
X0368162Y0014101D01*
X0367162Y0013100D01*
X0364159Y0013100D01*
X0353417Y0015102D02*
X0353417Y0016103D01*
X0377050Y0017103D02*
X0377050Y0012099D01*
X0378051Y0011098D01*
X0379052Y0011098D01*
X0380053Y0013100D02*
X0377050Y0013100D01*
X0380053Y0013100D02*
X0381053Y0014101D01*
X0381053Y0016103D01*
X0380053Y0017103D01*
X0377050Y0017103D01*
X0383496Y0016103D02*
X0383496Y0013100D01*
X0383496Y0016103D02*
X0384496Y0017103D01*
X0387499Y0017103D01*
X0387499Y0013100D01*
X0389794Y0013100D02*
X0391796Y0013100D01*
X0390795Y0013100D02*
X0390795Y0017103D01*
X0391796Y0017103D01*
X0390795Y0019105D02*
X0390795Y0020106D01*
X0394238Y0019105D02*
X0394238Y0013100D01*
X0397241Y0013100D01*
X0398241Y0014101D01*
X0398241Y0016103D01*
X0397241Y0017103D01*
X0394238Y0017103D01*
X0401538Y0017103D02*
X0401538Y0013100D01*
X0402538Y0013100D02*
X0400537Y0013100D01*
X0401538Y0017103D02*
X0402538Y0017103D01*
X0401538Y0019105D02*
X0401538Y0020106D01*
X0403759Y0022970D02*
X0405761Y0022970D01*
X0404760Y0022970D02*
X0404760Y0028975D01*
X0405761Y0028975D01*
X0408203Y0025973D02*
X0408203Y0022970D01*
X0411206Y0022970D01*
X0412207Y0023971D01*
X0411206Y0024972D01*
X0408203Y0024972D01*
X0408203Y0025973D02*
X0409204Y0026973D01*
X0411206Y0026973D01*
X0415503Y0026973D02*
X0415503Y0022970D01*
X0416504Y0022970D02*
X0414502Y0022970D01*
X0415503Y0026973D02*
X0416504Y0026973D01*
X0415503Y0028975D02*
X0415503Y0029976D01*
X0418799Y0026973D02*
X0420801Y0026973D01*
X0419800Y0027974D02*
X0419800Y0023971D01*
X0418799Y0022970D01*
X0423096Y0022970D02*
X0425098Y0022970D01*
X0424097Y0022970D02*
X0424097Y0026973D01*
X0425098Y0026973D01*
X0424097Y0028975D02*
X0424097Y0029976D01*
X0427540Y0025973D02*
X0427540Y0022970D01*
X0427540Y0025973D02*
X0428541Y0026973D01*
X0431543Y0026973D01*
X0431543Y0022970D01*
X0433838Y0022970D02*
X0435840Y0022970D01*
X0434839Y0022970D02*
X0434839Y0026973D01*
X0435840Y0026973D01*
X0434839Y0028975D02*
X0434839Y0029976D01*
X0444654Y0026973D02*
X0445655Y0026973D01*
X0447657Y0024972D01*
X0447657Y0026973D02*
X0447657Y0022970D01*
X0450099Y0023971D02*
X0450099Y0025973D01*
X0451100Y0026973D01*
X0453102Y0026973D01*
X0454102Y0025973D01*
X0454102Y0023971D01*
X0453102Y0022970D01*
X0451100Y0022970D01*
X0450099Y0023971D01*
X0456398Y0025973D02*
X0458399Y0025973D01*
X0457399Y0027974D02*
X0457399Y0022970D01*
X0457399Y0027974D02*
X0456398Y0028975D01*
X0467287Y0026973D02*
X0470290Y0026973D01*
X0471290Y0025973D01*
X0471290Y0023971D01*
X0470290Y0022970D01*
X0467287Y0022970D01*
X0469362Y0017103D02*
X0468361Y0016103D01*
X0468361Y0013100D01*
X0465919Y0014101D02*
X0464918Y0013100D01*
X0461916Y0013100D01*
X0461916Y0012099D02*
X0461916Y0017103D01*
X0464918Y0017103D01*
X0465919Y0016103D01*
X0465919Y0014101D01*
X0463917Y0011098D02*
X0462917Y0011098D01*
X0461916Y0012099D01*
X0469362Y0017103D02*
X0472365Y0017103D01*
X0472365Y0013100D01*
X0474660Y0013100D02*
X0476662Y0013100D01*
X0475661Y0013100D02*
X0475661Y0017103D01*
X0476662Y0017103D01*
X0475661Y0019105D02*
X0475661Y0020106D01*
X0475587Y0022970D02*
X0473586Y0022970D01*
X0474587Y0022970D02*
X0474587Y0026973D01*
X0475587Y0026973D01*
X0474587Y0028975D02*
X0474587Y0029976D01*
X0478029Y0026973D02*
X0480031Y0022970D01*
X0482033Y0026973D01*
X0484475Y0025973D02*
X0485476Y0026973D01*
X0487478Y0026973D01*
X0488478Y0025973D01*
X0488478Y0023971D01*
X0487478Y0022970D01*
X0485476Y0022970D01*
X0484475Y0023971D01*
X0484475Y0025973D01*
X0490774Y0026973D02*
X0490774Y0021969D01*
X0491775Y0020968D01*
X0492775Y0020968D01*
X0495217Y0022970D02*
X0495217Y0025973D01*
X0496218Y0026973D01*
X0499221Y0026973D01*
X0499221Y0022970D01*
X0501663Y0022970D02*
X0504666Y0022970D01*
X0505666Y0023971D01*
X0504666Y0024972D01*
X0501663Y0024972D01*
X0501663Y0025973D02*
X0501663Y0022970D01*
X0501663Y0025973D02*
X0502664Y0026973D01*
X0504666Y0026973D01*
X0508108Y0027974D02*
X0509109Y0028975D01*
X0512112Y0028975D01*
X0512112Y0022970D01*
X0509109Y0022970D01*
X0508108Y0023971D01*
X0508108Y0027974D01*
X0520999Y0025973D02*
X0522000Y0026973D01*
X0524002Y0026973D01*
X0525003Y0025973D01*
X0525003Y0023971D01*
X0524002Y0022970D01*
X0522000Y0022970D01*
X0520999Y0023971D01*
X0520999Y0025973D01*
X0527298Y0026973D02*
X0529300Y0026973D01*
X0528299Y0027974D02*
X0528299Y0023971D01*
X0527298Y0022970D01*
X0526151Y0017103D02*
X0524149Y0017103D01*
X0523148Y0016103D01*
X0523148Y0015102D01*
X0527151Y0015102D01*
X0527151Y0016103D02*
X0526151Y0017103D01*
X0527151Y0016103D02*
X0527151Y0014101D01*
X0526151Y0013100D01*
X0524149Y0013100D01*
X0520706Y0013100D02*
X0520706Y0017103D01*
X0517703Y0017103D01*
X0516702Y0016103D01*
X0516702Y0013100D01*
X0514260Y0014101D02*
X0513260Y0013100D01*
X0510257Y0013100D01*
X0507815Y0014101D02*
X0506814Y0013100D01*
X0504812Y0013100D01*
X0503811Y0014101D01*
X0503811Y0016103D01*
X0504812Y0017103D01*
X0506814Y0017103D01*
X0507815Y0016103D01*
X0507815Y0014101D01*
X0510257Y0017103D02*
X0513260Y0017103D01*
X0514260Y0016103D01*
X0514260Y0014101D01*
X0501369Y0014101D02*
X0501369Y0017103D01*
X0501369Y0014101D02*
X0500369Y0013100D01*
X0497366Y0013100D01*
X0497366Y0017103D01*
X0494924Y0017103D02*
X0494924Y0013100D01*
X0494924Y0015102D02*
X0492922Y0017103D01*
X0491921Y0017103D01*
X0488552Y0017103D02*
X0486550Y0017103D01*
X0485549Y0016103D01*
X0485549Y0013100D01*
X0488552Y0013100D01*
X0489553Y0014101D01*
X0488552Y0015102D01*
X0485549Y0015102D01*
X0483107Y0016103D02*
X0483107Y0014101D01*
X0482106Y0013100D01*
X0479104Y0013100D01*
X0479104Y0012099D02*
X0479104Y0017103D01*
X0482106Y0017103D01*
X0483107Y0016103D01*
X0481105Y0011098D02*
X0480105Y0011098D01*
X0479104Y0012099D01*
X0490774Y0028975D02*
X0490774Y0029976D01*
X0452027Y0017103D02*
X0450026Y0017103D01*
X0449025Y0016103D01*
X0449025Y0013100D01*
X0452027Y0013100D01*
X0453028Y0014101D01*
X0452027Y0015102D01*
X0449025Y0015102D01*
X0446583Y0013100D02*
X0446583Y0017103D01*
X0443580Y0017103D01*
X0442579Y0016103D01*
X0442579Y0013100D01*
X0440137Y0014101D02*
X0440137Y0016103D01*
X0439136Y0017103D01*
X0436134Y0017103D01*
X0436134Y0019105D02*
X0436134Y0013100D01*
X0439136Y0013100D01*
X0440137Y0014101D01*
X0427246Y0013100D02*
X0424244Y0013100D01*
X0423243Y0014101D01*
X0423243Y0016103D01*
X0424244Y0017103D01*
X0427246Y0017103D01*
X0427246Y0011098D01*
X0420801Y0013100D02*
X0420801Y0017103D01*
X0420801Y0015102D02*
X0418799Y0017103D01*
X0417798Y0017103D01*
X0415429Y0016103D02*
X0414429Y0017103D01*
X0412427Y0017103D01*
X0411426Y0016103D01*
X0411426Y0014101D01*
X0412427Y0013100D01*
X0414429Y0013100D01*
X0415429Y0014101D01*
X0415429Y0016103D01*
X0408984Y0017103D02*
X0406982Y0013100D01*
X0404980Y0017103D01*
X0535966Y0017103D02*
X0536966Y0017103D01*
X0538968Y0015102D01*
X0538968Y0017103D02*
X0538968Y0013100D01*
X0541410Y0014101D02*
X0541410Y0016103D01*
X0542411Y0017103D01*
X0544413Y0017103D01*
X0545414Y0016103D01*
X0545414Y0014101D01*
X0544413Y0013100D01*
X0542411Y0013100D01*
X0541410Y0014101D01*
X0547709Y0016103D02*
X0549711Y0016103D01*
X0548710Y0018104D02*
X0548710Y0013100D01*
X0548710Y0018104D02*
X0547709Y0019105D01*
X0547562Y0022970D02*
X0547562Y0028975D01*
X0544560Y0026973D02*
X0547562Y0024972D01*
X0544560Y0022970D01*
X0542191Y0022970D02*
X0539188Y0022970D01*
X0538187Y0023971D01*
X0539188Y0024972D01*
X0541190Y0024972D01*
X0542191Y0025973D01*
X0541190Y0026973D01*
X0538187Y0026973D01*
X0550004Y0025973D02*
X0550004Y0022970D01*
X0550004Y0025973D02*
X0551005Y0026973D01*
X0554008Y0026973D01*
X0554008Y0022970D01*
X0556450Y0022970D02*
X0559452Y0022970D01*
X0560453Y0023971D01*
X0559452Y0024972D01*
X0556450Y0024972D01*
X0556450Y0025973D02*
X0556450Y0022970D01*
X0556450Y0025973D02*
X0557451Y0026973D01*
X0559452Y0026973D01*
X0562895Y0025973D02*
X0562895Y0022970D01*
X0562895Y0025973D02*
X0563896Y0026973D01*
X0565898Y0026973D01*
X0566899Y0025973D01*
X0566899Y0028975D02*
X0566899Y0022970D01*
X0571342Y0022970D02*
X0571342Y0028975D01*
X0569341Y0028975D02*
X0573344Y0028975D01*
X0582011Y0023971D02*
X0582011Y0022970D01*
X0583012Y0022970D01*
X0583012Y0023971D01*
X0582011Y0023971D01*
X0585454Y0023971D02*
X0585454Y0027974D01*
X0589458Y0023971D01*
X0588457Y0022970D01*
X0586455Y0022970D01*
X0585454Y0023971D01*
X0585454Y0027974D02*
X0586455Y0028975D01*
X0588457Y0028975D01*
X0589458Y0027974D01*
X0589458Y0023971D01*
X0591900Y0022970D02*
X0595903Y0022970D01*
X0591900Y0026973D01*
X0591900Y0027974D01*
X0592901Y0028975D01*
X0594902Y0028975D01*
X0595903Y0027974D01*
X0598345Y0027974D02*
X0602349Y0023971D01*
X0601348Y0022970D01*
X0599346Y0022970D01*
X0598345Y0023971D01*
X0598345Y0027974D01*
X0599346Y0028975D01*
X0601348Y0028975D01*
X0602349Y0027974D01*
X0602349Y0023971D01*
X0604791Y0022970D02*
X0608794Y0022970D01*
X0604791Y0026973D01*
X0604791Y0027974D01*
X0605792Y0028975D01*
X0607793Y0028975D01*
X0608794Y0027974D01*
X0611236Y0028975D02*
X0615240Y0022970D01*
X0617682Y0023971D02*
X0617682Y0027974D01*
X0618683Y0028975D01*
X0620684Y0028975D01*
X0621685Y0027974D01*
X0621685Y0026973D01*
X0620684Y0025973D01*
X0617682Y0025973D01*
X0617682Y0023971D02*
X0618683Y0022970D01*
X0620684Y0022970D01*
X0621685Y0023971D01*
X0624127Y0023971D02*
X0625128Y0022970D01*
X0627130Y0022970D01*
X0628131Y0023971D01*
X0624127Y0027974D01*
X0624127Y0023971D01*
X0624127Y0027974D02*
X0625128Y0028975D01*
X0627130Y0028975D01*
X0628131Y0027974D01*
X0628131Y0023971D01*
X0627057Y0017103D02*
X0625055Y0013100D01*
X0623053Y0017103D01*
X0619610Y0017103D02*
X0617609Y0017103D01*
X0616608Y0016103D01*
X0616608Y0013100D01*
X0619610Y0013100D01*
X0620611Y0014101D01*
X0619610Y0015102D01*
X0616608Y0015102D01*
X0614166Y0013100D02*
X0612164Y0013100D01*
X0613165Y0013100D02*
X0613165Y0019105D01*
X0614166Y0019105D01*
X0609869Y0019105D02*
X0609869Y0013100D01*
X0609869Y0016103D02*
X0608868Y0017103D01*
X0606866Y0017103D01*
X0605865Y0016103D01*
X0605865Y0013100D01*
X0603423Y0014101D02*
X0602422Y0013100D01*
X0600421Y0013100D01*
X0599420Y0014101D01*
X0599420Y0016103D01*
X0600421Y0017103D01*
X0602422Y0017103D01*
X0603423Y0016103D01*
X0603423Y0014101D01*
X0590532Y0015102D02*
X0590532Y0017103D01*
X0588530Y0019105D01*
X0586235Y0019105D02*
X0582232Y0013100D01*
X0582232Y0019105D01*
X0579790Y0016103D02*
X0578789Y0017103D01*
X0576787Y0017103D01*
X0575786Y0016103D01*
X0575786Y0015102D01*
X0579790Y0015102D01*
X0579790Y0014101D02*
X0579790Y0016103D01*
X0579790Y0014101D02*
X0578789Y0013100D01*
X0576787Y0013100D01*
X0573344Y0014101D02*
X0572343Y0013100D01*
X0569341Y0013100D01*
X0566899Y0014101D02*
X0565898Y0013100D01*
X0563896Y0013100D01*
X0562895Y0014101D01*
X0562895Y0016103D01*
X0563896Y0017103D01*
X0565898Y0017103D01*
X0566899Y0016103D01*
X0566899Y0014101D01*
X0569341Y0017103D02*
X0572343Y0017103D01*
X0573344Y0016103D01*
X0573344Y0014101D01*
X0560453Y0013100D02*
X0558451Y0015102D01*
X0558451Y0017103D01*
X0560453Y0019105D01*
X0586235Y0019105D02*
X0586235Y0013100D01*
X0588530Y0013100D02*
X0590532Y0015102D01*
X0629425Y0017103D02*
X0630426Y0017103D01*
X0632428Y0015102D01*
X0632428Y0017103D02*
X0632428Y0013100D01*
X0634870Y0013100D02*
X0637872Y0013100D01*
X0638873Y0014101D01*
X0637872Y0015102D01*
X0634870Y0015102D01*
X0634870Y0016103D02*
X0634870Y0013100D01*
X0634870Y0016103D02*
X0635871Y0017103D01*
X0637872Y0017103D01*
X0641315Y0018104D02*
X0642316Y0019105D01*
X0644318Y0019105D01*
X0645319Y0018104D01*
X0645319Y0014101D01*
X0644318Y0013100D01*
X0642316Y0013100D01*
X0641315Y0014101D01*
X0654060Y0013100D02*
X0656061Y0013100D01*
X0655060Y0013100D02*
X0655060Y0019105D01*
X0656061Y0019105D01*
X0658503Y0016103D02*
X0659504Y0017103D01*
X0661506Y0017103D01*
X0662507Y0016103D01*
X0662507Y0014101D01*
X0661506Y0013100D01*
X0659504Y0013100D01*
X0658503Y0015102D02*
X0662507Y0015102D01*
X0664949Y0016103D02*
X0665950Y0017103D01*
X0667951Y0017103D01*
X0668952Y0016103D01*
X0668952Y0014101D01*
X0667951Y0013100D01*
X0665950Y0013100D01*
X0664949Y0014101D01*
X0664949Y0016103D01*
X0671394Y0016103D02*
X0671394Y0013100D01*
X0671394Y0016103D02*
X0672395Y0017103D01*
X0675398Y0017103D01*
X0675398Y0013100D01*
X0677840Y0013100D02*
X0680842Y0013100D01*
X0681843Y0014101D01*
X0680842Y0015102D01*
X0677840Y0015102D01*
X0677840Y0016103D02*
X0677840Y0013100D01*
X0677840Y0016103D02*
X0678841Y0017103D01*
X0680842Y0017103D01*
X0684285Y0019105D02*
X0684285Y0013100D01*
X0688289Y0013100D02*
X0688289Y0019105D01*
X0686287Y0017103D01*
X0684285Y0019105D01*
X0683992Y0022970D02*
X0680989Y0022970D01*
X0679988Y0023971D01*
X0679988Y0024972D01*
X0680989Y0025973D01*
X0683992Y0025973D01*
X0683992Y0028975D02*
X0683992Y0022970D01*
X0680989Y0025973D02*
X0679988Y0026973D01*
X0679988Y0027974D01*
X0680989Y0028975D01*
X0683992Y0028975D01*
X0686434Y0028975D02*
X0690437Y0028975D01*
X0690437Y0022970D01*
X0690437Y0025973D02*
X0688436Y0025973D01*
X0677546Y0028975D02*
X0677546Y0022970D01*
X0673543Y0022970D01*
X0671101Y0023971D02*
X0670100Y0024972D01*
X0667097Y0024972D01*
X0667097Y0025973D02*
X0667097Y0022970D01*
X0670100Y0022970D01*
X0671101Y0023971D01*
X0670100Y0026973D02*
X0668098Y0026973D01*
X0667097Y0025973D01*
X0664655Y0026973D02*
X0661653Y0026973D01*
X0660652Y0025973D01*
X0660652Y0023971D01*
X0661653Y0022970D01*
X0664655Y0022970D01*
X0664655Y0028975D01*
X0658210Y0025973D02*
X0657209Y0026973D01*
X0654206Y0026973D01*
X0655207Y0024972D02*
X0654206Y0023971D01*
X0655207Y0022970D01*
X0658210Y0022970D01*
X0657209Y0024972D02*
X0658210Y0025973D01*
X0657209Y0024972D02*
X0655207Y0024972D01*
X0658503Y0016103D02*
X0658503Y0015102D01*
X0645319Y0022970D02*
X0643317Y0022970D01*
X0644318Y0022970D02*
X0644318Y0026973D01*
X0645319Y0026973D01*
X0644318Y0028975D02*
X0644318Y0029976D01*
X0641022Y0026973D02*
X0638019Y0026973D01*
X0637018Y0025973D01*
X0637018Y0022970D01*
X0641022Y0022970D02*
X0641022Y0026973D01*
X0697030Y0014101D02*
X0698030Y0014101D01*
X0698030Y0013100D01*
X0697030Y0013100D01*
X0697030Y0014101D01*
X0697030Y0013100D02*
X0699031Y0011098D01*
X0702474Y0013100D02*
X0704476Y0013100D01*
X0705477Y0014101D01*
X0705477Y0016103D01*
X0704476Y0017103D01*
X0702474Y0017103D01*
X0701473Y0016103D01*
X0701473Y0015102D01*
X0705477Y0015102D01*
X0707772Y0017103D02*
X0709774Y0017103D01*
X0708773Y0018104D02*
X0708773Y0014101D01*
X0707772Y0013100D01*
X0712216Y0013100D02*
X0715218Y0013100D01*
X0716219Y0014101D01*
X0715218Y0015102D01*
X0712216Y0015102D01*
X0712216Y0016103D02*
X0712216Y0013100D01*
X0712216Y0016103D02*
X0713217Y0017103D01*
X0715218Y0017103D01*
X0718661Y0016103D02*
X0718661Y0015102D01*
X0722665Y0015102D01*
X0722665Y0016103D02*
X0721664Y0017103D01*
X0719662Y0017103D01*
X0718661Y0016103D01*
X0719662Y0013100D02*
X0721664Y0013100D01*
X0722665Y0014101D01*
X0722665Y0016103D01*
X0725033Y0017103D02*
X0726034Y0017103D01*
X0728036Y0015102D01*
X0728036Y0017103D02*
X0728036Y0013100D01*
X0730478Y0013100D02*
X0733481Y0013100D01*
X0734482Y0014101D01*
X0734482Y0016103D01*
X0733481Y0017103D01*
X0730478Y0017103D01*
X0731552Y0022970D02*
X0734555Y0022970D01*
X0735556Y0023971D01*
X0734555Y0024972D01*
X0731552Y0024972D01*
X0731552Y0025973D02*
X0731552Y0022970D01*
X0729110Y0023971D02*
X0729110Y0025973D01*
X0728109Y0026973D01*
X0725107Y0026973D01*
X0725107Y0028975D02*
X0725107Y0022970D01*
X0728109Y0022970D01*
X0729110Y0023971D01*
X0731552Y0025973D02*
X0732553Y0026973D01*
X0734555Y0026973D01*
X0737998Y0025973D02*
X0737998Y0022970D01*
X0740000Y0022970D02*
X0740000Y0025973D01*
X0738999Y0026973D01*
X0737998Y0025973D01*
X0740000Y0025973D02*
X0741000Y0026973D01*
X0742001Y0026973D01*
X0742001Y0022970D01*
X0744443Y0024972D02*
X0748447Y0024972D01*
X0748447Y0025973D02*
X0747446Y0026973D01*
X0745444Y0026973D01*
X0744443Y0025973D01*
X0744443Y0024972D01*
X0745444Y0022970D02*
X0747446Y0022970D01*
X0748447Y0023971D01*
X0748447Y0025973D01*
X0750815Y0026973D02*
X0751816Y0026973D01*
X0753818Y0024972D01*
X0753818Y0026973D02*
X0753818Y0022970D01*
X0753818Y0017103D02*
X0752817Y0017103D01*
X0751816Y0016103D01*
X0750815Y0017103D01*
X0749815Y0016103D01*
X0749815Y0013100D01*
X0751816Y0013100D02*
X0751816Y0016103D01*
X0753818Y0017103D02*
X0753818Y0013100D01*
X0756260Y0015102D02*
X0760264Y0015102D01*
X0760264Y0016103D02*
X0759263Y0017103D01*
X0757261Y0017103D01*
X0756260Y0016103D01*
X0756260Y0015102D01*
X0757261Y0013100D02*
X0759263Y0013100D01*
X0760264Y0014101D01*
X0760264Y0016103D01*
X0762706Y0016103D02*
X0762706Y0013100D01*
X0762706Y0016103D02*
X0763706Y0017103D01*
X0765708Y0017103D01*
X0766709Y0016103D01*
X0769151Y0017103D02*
X0772154Y0017103D01*
X0773155Y0016103D01*
X0773155Y0014101D01*
X0772154Y0013100D01*
X0769151Y0013100D01*
X0766709Y0013100D02*
X0766709Y0019105D01*
X0766709Y0022970D02*
X0763706Y0022970D01*
X0762706Y0023971D01*
X0762706Y0024972D01*
X0763706Y0025973D01*
X0766709Y0025973D01*
X0766709Y0028975D02*
X0766709Y0022970D01*
X0769151Y0023971D02*
X0770152Y0022970D01*
X0772154Y0022970D01*
X0773155Y0023971D01*
X0773155Y0027974D01*
X0772154Y0028975D01*
X0770152Y0028975D01*
X0769151Y0027974D01*
X0766709Y0028975D02*
X0763706Y0028975D01*
X0762706Y0027974D01*
X0762706Y0026973D01*
X0763706Y0025973D01*
X0775597Y0025973D02*
X0775597Y0027974D01*
X0776597Y0028975D01*
X0779600Y0028975D01*
X0779600Y0022970D01*
X0779600Y0024972D02*
X0776597Y0024972D01*
X0775597Y0025973D01*
X0775597Y0017103D02*
X0778599Y0017103D01*
X0779600Y0016103D01*
X0778599Y0015102D01*
X0776597Y0015102D01*
X0775597Y0014101D01*
X0776597Y0013100D01*
X0779600Y0013100D01*
X0747373Y0014101D02*
X0746372Y0015102D01*
X0743369Y0015102D01*
X0743369Y0016103D02*
X0743369Y0013100D01*
X0746372Y0013100D01*
X0747373Y0014101D01*
X0746372Y0017103D02*
X0744370Y0017103D01*
X0743369Y0016103D01*
X0722665Y0023971D02*
X0722665Y0025973D01*
X0721664Y0026973D01*
X0719662Y0026973D01*
X0718661Y0025973D01*
X0718661Y0024972D01*
X0722665Y0024972D01*
X0722665Y0023971D02*
X0721664Y0022970D01*
X0719662Y0022970D01*
X0709774Y0022970D02*
X0709774Y0028975D01*
X0709774Y0026973D02*
X0706771Y0026973D01*
X0705770Y0025973D01*
X0705770Y0023971D01*
X0706771Y0022970D01*
X0709774Y0022970D01*
X0703328Y0023971D02*
X0702327Y0022970D01*
X0699325Y0022970D01*
X0699325Y0021969D02*
X0700326Y0020968D01*
X0701327Y0020968D01*
X0699325Y0021969D02*
X0699325Y0026973D01*
X0703328Y0026973D02*
X0703328Y0023971D01*
M02*
